<svg xmlns="http://www.w3.org/2000/svg" xmlns:xlink="http://www.w3.org/1999/xlink" width="278" height="221.846" viewBox="0 0 278 221.846"><defs><style>.a{fill:url(#a);}.b{clip-path:url(#c);}.c{fill:url(#m);}.d{fill:#e1e1e5;}.e{fill:#fff;}.f{fill:url(#n);}.g{fill:url(#o);}.h{fill:url(#p);}.i{fill:url(#q);}.j{fill:url(#r);}.k{fill:url(#s);}.l{fill:url(#t);}.m{fill:url(#u);}.n{fill:url(#v);}.o{fill:url(#w);}.p{fill:url(#x);}.q{fill:url(#y);}.r{fill:url(#aa);}.s{fill:url(#ac);}.t{fill:url(#ad);}.u{fill:url(#ae);}.v{fill:url(#af);}.w{fill:url(#ag);}.x{fill:url(#ah);}.y{fill:url(#ai);}.z{fill:url(#aj);}.aa{fill:url(#ak);}.ab{fill:url(#al);}.ac{fill:url(#am);}.ad{fill:url(#an);}.ae{fill:url(#ao);}.af{fill:url(#ap);}</style><linearGradient id="a" y1="0.5" x2="1" y2="0.5" gradientUnits="objectBoundingBox"><stop offset="0" stop-color="#582d7f"/><stop offset="0.212" stop-color="#4a5094"/><stop offset="0.754" stop-color="#29a6c7"/><stop offset="1" stop-color="#1dc9dc"/></linearGradient><clipPath id="c"><path class="a" d="M6980.071,756.489c-3.657,8.7-10.782,14.4-15.823,22.086a45.087,45.087,0,0,0-7.365,26.731c1.454,29.157,29.7,48.112,57.052,48.689a59.233,59.233,0,0,0,28.5-6.636c14.049-7.25,27.739-16.454,43.8-18.437,41.149-5.08,93.1,22,124.344-17.1,28.349-35.483,7.6-82.726-33.338-95.134-13.379-4.055-29.49-6.42-40.6-15.534-11.191-9.184-16.305-23.835-25.812-34.486-22.205-24.878-61.975-33-92.882-21.091-19.5,7.515-31.014,23.62-34.34,43.843C6980.032,711.213,6988.8,735.72,6980.071,756.489Z" transform="translate(-6956.831 -640.176)"/></clipPath><linearGradient id="m" x1="0.5" y1="1.263" x2="0.5" y2="0.938" gradientUnits="objectBoundingBox"><stop offset="0" stop-color="#9d9e9f"/><stop offset="1" stop-color="#d1d3d4"/></linearGradient><linearGradient id="n" x1="0.129" y1="1.154" x2="0.594" y2="0.335" xlink:href="#a"/><linearGradient id="o" x1="0.5" y1="1.253" x2="0.5" y2="0.49" gradientUnits="objectBoundingBox"><stop offset="0" stop-color="#e6e7e8"/><stop offset="1" stop-color="#fff"/></linearGradient><linearGradient id="p" x1="-43550.152" y1="1191.015" x2="-13350.631" y2="365.47" gradientUnits="objectBoundingBox"><stop offset="0" stop-color="#a7a9ac"/><stop offset="1" stop-color="#fff"/></linearGradient><linearGradient id="q" x1="-0.553" y1="0.317" x2="1.308" y2="0.719" gradientUnits="objectBoundingBox"><stop offset="0" stop-color="#a7a9ac"/><stop offset="0.833" stop-color="#fff"/></linearGradient><linearGradient id="r" x1="0.285" y1="0.5" x2="0.853" y2="0.5" gradientUnits="objectBoundingBox"><stop offset="0" stop-color="#42e397"/><stop offset="1" stop-color="#3cb6b5"/></linearGradient><linearGradient id="s" x1="0.5" y1="-1.215" x2="0.5" y2="7.449" xlink:href="#r"/><linearGradient id="t" x1="0.5" y1="-8.53" x2="0.5" y2="13.148" xlink:href="#r"/><linearGradient id="u" x1="0.5" y1="-8.531" x2="0.5" y2="13.15" xlink:href="#r"/><linearGradient id="v" x1="0.5" y1="-11.358" x2="0.5" y2="10.323" xlink:href="#r"/><linearGradient id="w" x1="0.5" y1="-11.358" x2="0.5" y2="10.323" xlink:href="#r"/><linearGradient id="x" x1="0.5" y1="-14.185" x2="0.5" y2="7.496" xlink:href="#r"/><linearGradient id="y" x1="0.5" y1="-14.185" x2="0.5" y2="7.495" xlink:href="#r"/><linearGradient id="aa" x1="0.5" y1="-17.012" x2="0.5" y2="4.669" xlink:href="#r"/><linearGradient id="ac" x1="1.123" y1="-0.513" x2="0.474" y2="0.663" gradientUnits="objectBoundingBox"><stop offset="0" stop-color="#42e397"/><stop offset="0.075" stop-color="#42e099"/><stop offset="1" stop-color="#3cb6b5"/></linearGradient><linearGradient id="ad" x1="0.47" y1="0.493" x2="0.67" y2="-0.259" xlink:href="#ac"/><linearGradient id="ae" x1="1.464" y1="-0.464" x2="0.695" y2="0.305" xlink:href="#ac"/><linearGradient id="af" x1="0.009" y1="0.914" x2="0.573" y2="0.328" gradientUnits="objectBoundingBox"><stop offset="0" stop-color="#ffde39"/><stop offset="0.094" stop-color="#fec63c"/><stop offset="0.286" stop-color="#fe9843"/><stop offset="0.415" stop-color="#fe7d4b"/><stop offset="0.652" stop-color="#fe4f59"/><stop offset="1" stop-color="#ed327f"/></linearGradient><linearGradient id="ag" x1="0.333" y1="0.667" x2="1.046" y2="-0.046" xlink:href="#af"/><linearGradient id="ah" x1="0.271" y1="1" x2="0.685" y2="0.209" xlink:href="#a"/><linearGradient id="ai" x1="0.679" y1="0.86" x2="0.437" y2="0.373" xlink:href="#a"/><linearGradient id="aj" x1="0.102" y1="0.72" x2="0.517" y2="0.534" xlink:href="#a"/><linearGradient id="ak" x1="0.442" y1="-1.176" x2="0.511" y2="1.28" xlink:href="#a"/><linearGradient id="al" x1="0.441" y1="-1.123" x2="0.513" y2="1.337" xlink:href="#a"/><linearGradient id="am" x1="0.5" y1="-0.728" x2="0.5" y2="0.442" xlink:href="#a"/><linearGradient id="an" x1="0.436" y1="-1.166" x2="0.513" y2="1.314" xlink:href="#a"/><linearGradient id="ao" x1="-236.556" y1="0.5" x2="237.715" y2="0.5" xlink:href="#a"/><linearGradient id="ap" x1="0.5" y1="-0.728" x2="0.5" y2="0.442" gradientUnits="objectBoundingBox"><stop offset="0" stop-color="#582d7f"/><stop offset="0.398" stop-color="#3f6fa6"/><stop offset="0.754" stop-color="#29a6c7"/><stop offset="1" stop-color="#1dc9dc"/></linearGradient></defs><g transform="translate(-6915.048 -597.347)"><g transform="translate(6922.865 605.36)"><path class="a" d="M6980.071,756.489c-3.657,8.7-10.782,14.4-15.823,22.086a45.087,45.087,0,0,0-7.365,26.731c1.454,29.157,29.7,48.112,57.052,48.689a59.233,59.233,0,0,0,28.5-6.636c14.049-7.25,27.739-16.454,43.8-18.437,41.149-5.08,93.1,22,124.344-17.1,28.349-35.483,7.6-82.726-33.338-95.134-13.379-4.055-29.49-6.42-40.6-15.534-11.191-9.184-16.305-23.835-25.812-34.486-22.205-24.878-61.975-33-92.882-21.091-19.5,7.515-31.014,23.62-34.34,43.843C6980.032,711.213,6988.8,735.72,6980.071,756.489Z" transform="translate(-6956.831 -640.176)"/><g class="b" transform="translate(0 0)"><g transform="translate(1.668 -0.102)"><path class="a" d="M8306.987,1385.62c-3.2,6.216-3.459,14.128.224,20.05l.364.07a47.991,47.991,0,0,0,10.83-22.044,45.7,45.7,0,0,0,.8-10.139A28.452,28.452,0,0,0,8306.987,1385.62Z" transform="translate(-8054.041 -1236.243)"/><path class="a" d="M8147.156,1502.9a22.915,22.915,0,0,0-2.491-1.021c-.127-.043-.252-.084-.379-.124-.183-.057-.363-.112-.547-.163-4.588-1.292-10.109-.452-13.121,3.551-2.362,3.138-2.436,7.944-5.7,10.13-2.489,1.668-5.612,1.092-8.425,1.056a9.714,9.714,0,0,0-7.582,2.848,13.1,13.1,0,0,0-3.085,6.28,10.614,10.614,0,0,0-.086,4.317,22.463,22.463,0,0,0,7.944,1.2c5.114-.165,8.913-2.1,12.44-3.944a52.132,52.132,0,0,0,7.892-5.239,58.783,58.783,0,0,0,7.824-6.8,48.032,48.032,0,0,0,5.032-6.332q.712-1.068,1.368-2.171c.24-.4,1.3-2.327,1.3-2.327s-.931-.524-1.131-.63C8148,1503.317,8147.579,1503.105,8147.156,1502.9Z" transform="translate(-7892.304 -1339.87)"/><path class="a" d="M7046.43,1344.791l-47.967,4.071c.183,2.526.378,5.167,1.619,7.434a6.634,6.634,0,0,0,4.285,3.467,5.32,5.32,0,0,0,1.984-.088c1.607-.341,3.162-1.157,4.836-1.027,4.1.318,6.489,3.782,9.109,6.49a10.633,10.633,0,0,0,7.952,3.5,14.865,14.865,0,0,0,5.4-1.369c6.532-2.872,12.382-9.3,13.167-16.585C7046.867,1350.186,7046.953,1344.746,7046.43,1344.791Z" transform="translate(-6992.341 -1212.859)"/><path class="a" d="M6988.9,1580.08c-4.638-4.547-11.375-7.878-17.983-6.835a41.485,41.485,0,0,0-5.166,1.248,51.54,51.54,0,0,0,30.688,32.322c-.082-.032.49-5.663.513-6.1a27.593,27.593,0,0,0-4.953-16.959A25.874,25.874,0,0,0,6988.9,1580.08Z" transform="translate(-6965.747 -1398.414)"/><path class="a" d="M7145.388,1713.58a25.361,25.361,0,0,0-3.647-3.426,15.043,15.043,0,0,0-8.485-3.341,10.3,10.3,0,0,0-4.324.75c-1.388.582-2.609,1.53-4.05,1.99a4.956,4.956,0,0,1-1.383.248c-2.065.051-3.935-1.333-5.7-2.231-1.817-.925-3.774-1.555-5.789-.875-2.469.834-5.6,4.213-3.4,6.8,1.094,1.287,2.877,1.826,4.39,2.439l.083.034a62.162,62.162,0,0,0,6.267,2.385,66.1,66.1,0,0,0,16.277,2.526,59.294,59.294,0,0,0,6.174-.125,55.575,55.575,0,0,0,7.495-1.087c.036-.008-1.122-2.284-1.212-2.434A25.631,25.631,0,0,0,7145.388,1713.58Z" transform="translate(-7081.277 -1506.82)"/><path class="a" d="M7263.208,893.214a1.076,1.076,0,0,0-.57-.112l-21.19-.2-10.479-.1-5.356-.051a24.945,24.945,0,0,0-5.223.012,11.622,11.622,0,0,1,.886,7.23c-.455,2.487-1.271,4.953-1.126,7.477s1.6,5.221,4.061,5.782c2.6.592,5.089-1.341,7.74-1.674,2.6-.327,5.149.92,7.285,2.443s4.068,3.367,6.422,4.523a13.013,13.013,0,0,0,12.771-.892,16.017,16.017,0,0,0,6.4-10.918,30.479,30.479,0,0,0-1.238-12.86A1.074,1.074,0,0,0,7263.208,893.214Z" transform="translate(-7172.538 -845.267)"/><path class="a" d="M7481.482,640.547c-.821-.1-6.476-1.394-7.375-.721a23.444,23.444,0,0,0,.884,3.269,26.664,26.664,0,0,0,1.312,2.733c5.741,10.422,19.215,17.66,30.68,12.1a23.17,23.17,0,0,0,7.222-5.776,64.071,64.071,0,0,0-20.913-9.518A106.069,106.069,0,0,0,7481.482,640.547Z" transform="translate(-7378.992 -639.632)"/><path class="a" d="M7680.015,703.488a67.926,67.926,0,0,0-13.8-9.036,7.217,7.217,0,0,0,3.474,7.96c1.766.93,4.168,1.337,4.833,3.217,1.083,3.055-2.157,5.909-.351,8.907a7.149,7.149,0,0,0,2.273,2.211,12.629,12.629,0,0,0,10.888,1.443,30.755,30.755,0,0,0,4.194-2.185A67.888,67.888,0,0,0,7680.015,703.488Z" transform="translate(-7534.993 -684.195)"/></g><path class="a" d="M7148.34,1050.566a31.129,31.129,0,0,1-7.534-1.793,64.168,64.168,0,0,1-6.417-3.406,19.735,19.735,0,0,0-11.321-2.741c-5.021.437-8.724,3.1-12.352,6.409-2.455,2.236-6.027,5.361-9.611,3.887l.26,6.8,8.445,1.2,21.65,3.072,23.265,3.3,8.587,1.218,2.893.41c.69.1,2.24.608,2.3-.361a15.85,15.85,0,0,0-2.908-10.063C7161.592,1052.9,7154.743,1051.484,7148.34,1050.566Z" transform="translate(-7074.113 -967.279)"/></g></g><g transform="translate(6983.278 686.538)"><g transform="translate(0 20.374)"><path class="c" d="M7497.919,1191.052a8.093,8.093,0,0,0-8.093-8.093h-135.99a8.093,8.093,0,0,0-8.093,8.093v83.666l0,3.919h152.18l0-3.919Zm-10.134,78.569H7355.877v-75.216h131.908Z" transform="translate(-7333.392 -1182.96)"/><g transform="translate(0 93.202)"><path class="d" d="M7453.6,1681.114h-170.86a3.008,3.008,0,0,0-2.957,3.567h0a9.806,9.806,0,0,0,9.637,7.989h157.5a9.806,9.806,0,0,0,9.636-7.989h0A3.009,3.009,0,0,0,7453.6,1681.114Z" transform="translate(-7279.731 -1681.114)"/></g><path class="e" d="M7626,1682.284v2.2a1.646,1.646,0,0,0,1.646,1.645h44.021a1.644,1.644,0,0,0,1.644-1.645v-3.37H7626Z" transform="translate(-7561.215 -1587.912)"/></g><g transform="translate(22.487 31.821)"><rect class="f" width="131.906" height="74.906"/></g><g transform="translate(49.168 0)"><g transform="translate(0 0.033)"><path class="g" d="M7542.527,1086.732l.093,12.112-.036,41.045v41.355h78.482s0-94.86,0-94.815l.144-.152,10.216-12.035h-78.6C7547.137,1074.24,7542.527,1079.833,7542.527,1086.732Z" transform="translate(-7542.527 -1074.24)"/><path class="h" d="M7962.323,1139.3l0-.006v-.133C7962.326,1139.119,7962.323,1139.269,7962.323,1139.3Z" transform="translate(-7883.781 -1127.01)"/></g><g transform="translate(78.545)"><path class="i" d="M7972.633,1074.061c-5.642,0-10.222,5.5-10.3,12.326l20.6.166C7982.933,1079.654,7978.323,1074.061,7972.633,1074.061Z" transform="translate(-7962.337 -1074.061)"/></g><g transform="translate(22.528 20.374)"><path class="j" d="M7695.86,1183.145a8.622,8.622,0,0,0-2.126-.185h-28.476a2.773,2.773,0,0,0-1.618.555,1.721,1.721,0,0,0-.694,1.664c0,.062.017.231.047.509s.046.755.046,1.433q0,5.363.369,5.362l5.086.093q2.773,0,4.992-.185h.461q.924,0,.925,1.109-.092,1.942.093,23.575.091,10.355.093,21.818a2.726,2.726,0,0,0,.415,1.71,1.757,1.757,0,0,0,1.433.509q3.42,0,4.809-.092a4.616,4.616,0,0,0,2.541-.6,3.017,3.017,0,0,0,.6-2.265v-44.839a.571.571,0,0,1,.231-.462.7.7,0,0,1,.416-.185h7.674a11.489,11.489,0,0,0,2.542-.185.81.81,0,0,0,.694-.832l.092-7.673A.8.8,0,0,0,7695.86,1183.145Z" transform="translate(-7662.938 -1182.96)"/></g><g transform="translate(5.67 81.104)"><path class="e" d="M7595.02,1507.55h-20.975a1.213,1.213,0,0,0-1.213,1.213v24.72h23.4v-24.72A1.213,1.213,0,0,0,7595.02,1507.55Z" transform="translate(-7572.833 -1507.55)"/><rect class="k" width="12.513" height="3.083" rx="1.541" transform="translate(2.697 3.083)"/><g transform="translate(2.697 9.846)"><path class="l" d="M7589.618,1560.176h-1.752a.616.616,0,1,0,0,1.232h1.752a.616.616,0,1,0,0-1.232Z" transform="translate(-7587.249 -1560.176)"/><path class="m" d="M7622.854,1560.176h-12.582a.616.616,0,0,0,0,1.232h12.582a.616.616,0,0,0,0-1.232Z" transform="translate(-7605.465 -1560.176)"/><g transform="translate(0 3.483)"><path class="n" d="M7598.721,1578.792h-10.855a.616.616,0,1,0,0,1.232h10.855a.616.616,0,0,0,.616-.616h0A.616.616,0,0,0,7598.721,1578.792Z" transform="translate(-7587.249 -1578.792)"/><path class="o" d="M7662.427,1578.792h-3.473a.616.616,0,1,0,0,1.232h3.473a.616.616,0,0,0,0-1.232Z" transform="translate(-7645.038 -1578.792)"/></g><g transform="translate(0 6.966)"><path class="p" d="M7589.083,1597.408h-1.218a.616.616,0,1,0,0,1.232h1.218a.616.616,0,1,0,0-1.232Z" transform="translate(-7587.249 -1597.408)"/><path class="q" d="M7673.745,1597.408h-.871a.616.616,0,0,0,0,1.232h.871a.616.616,0,0,0,0-1.232Z" transform="translate(-7656.354 -1597.408)"/><path class="q" d="M7617.157,1597.408h-10.043a.616.616,0,0,0,0,1.232h10.043a.616.616,0,0,0,0-1.232Z" transform="translate(-7602.897 -1597.408)"/></g><g transform="translate(0 10.449)"><path class="r" d="M7593.758,1616.024h-5.892a.616.616,0,1,0,0,1.232h5.892a.616.616,0,0,0,0-1.232Z" transform="translate(-7587.249 -1616.024)"/></g><g transform="translate(9.067 10.449)"><path class="r" d="M7644.034,1616.024h-7.705a.616.616,0,1,0,0,1.232h7.705a.616.616,0,1,0,0-1.232Z" transform="translate(-7635.712 -1616.024)"/></g></g></g></g></g><g transform="translate(6915.048 695.327)"><path class="s" d="M6999.673,1121.034h-59.293a25.332,25.332,0,0,0-25.332,25.332h0a25.333,25.333,0,0,0,25.332,25.332h59.293a25.5,25.5,0,0,0,4.068-.327,23.425,23.425,0,0,0,20.593,10.275,30.205,30.205,0,0,1-9.606-11.446c-.435-.911-.805-1.806-1.121-2.678a25.311,25.311,0,0,0,11.4-21.157h0A25.332,25.332,0,0,0,6999.673,1121.034Z" transform="translate(-6915.047 -1121.034)"/><g transform="translate(19.942 15.285)"><path class="e" d="M7030.439,1221.167h-5.19c-.042,0-.093-.036-.155-.108a.349.349,0,0,1-.093-.231l-.03-6.333q0-7.538.062-9.083a.483.483,0,0,0-.092-.34.354.354,0,0,0-.309-.062,6.831,6.831,0,0,1-.772.031l-1.606-.031a.6.6,0,0,0-.449.124.66.66,0,0,0-.108.432q0,3.553-.016,9.206t-.046,8.681a1.027,1.027,0,0,0,.2.618.546.546,0,0,0,.417.278q.278.03,3.306.031,4.819,0,5.127-.093a.515.515,0,0,0,.248-.17.41.41,0,0,0,.123-.263q.061-.649.062-2.07a.625.625,0,0,0-.154-.479A.785.785,0,0,0,7030.439,1221.167Z" transform="translate(-7021.633 -1204.576)"/><path class="e" d="M7092.808,1204.352a4.058,4.058,0,0,0-3.537-1.622,5.977,5.977,0,0,0-4.171,1.375,5.594,5.594,0,0,0-1.513,4.341l-.031,4.541q0,4.7.124,5.437a5.665,5.665,0,0,0,1.375,2.935q1.159,1.36,3.97,1.359a4.421,4.421,0,0,0,2.7-.834,5.418,5.418,0,0,0,1.7-2.024,5.139,5.139,0,0,0,.571-2.209l-.03-9.114A7.035,7.035,0,0,0,7092.808,1204.352Zm-1.992,12.589a3.1,3.1,0,0,1-.449,1.807,1.816,1.816,0,0,1-1.591.634q-1.854,0-2.07-2.471-.031-.247-.062-3.4t-.031-5.067a3.077,3.077,0,0,1,.541-1.931,2.038,2.038,0,0,1,1.715-.695q1.946,0,1.947,2.533Z" transform="translate(-7071.97 -1202.73)"/><path class="e" d="M7162.382,1215.308a12.709,12.709,0,0,0,1.375-.834,5.158,5.158,0,0,0,1.344-1.607,5.619,5.619,0,0,0,.679-2.9,4.843,4.843,0,0,0-.771-2.719,5.478,5.478,0,0,0-4.542-2.471q-.678-.062-2.069-.062l-2.255.031a1.615,1.615,0,0,0-.958.309,1.036,1.036,0,0,0-.432.9l-.031,17.362c0,.412.114.659.341.741a3.362,3.362,0,0,0,.834.062,6.767,6.767,0,0,0,1.2-.062,1,1,0,0,0,.525-.185,1.045,1.045,0,0,0,.124-.649q0-6.673.031-7.291a1.2,1.2,0,0,1,.741.123,1.4,1.4,0,0,1,.4.525q.618,1.329,1.993,4.14t1.56,3.12q.185.464.525.464a.824.824,0,0,0,.371-.093,12.054,12.054,0,0,0,1.792-.741c.268-.144.4-.288.4-.433a1.208,1.208,0,0,0-.155-.464l-1.113-2.162q-2.1-3.955-2.5-4.881a1.209,1.209,0,0,1,.293-.124C7162.223,1215.36,7162.32,1215.329,7162.382,1215.308Zm-1.7-2.9a3.108,3.108,0,0,1-.926.278,4.531,4.531,0,0,1-.557.031c-.1,0-.217-.005-.34-.016s-.309-.016-.556-.016a.464.464,0,0,1-.387-.139.671.671,0,0,1-.108-.417v-.248q0-2.44-.03-3.552,0-.525.494-.525.432-.03,1.267-.031a6.1,6.1,0,0,1,2.008.448,1.679,1.679,0,0,1,.927,1.746,2.223,2.223,0,0,1-.556,1.545A3.4,3.4,0,0,1,7160.683,1212.4Z" transform="translate(-7129.819 -1204.341)"/><path class="e" d="M7238.292,1205.373h-8.125a.556.556,0,0,0-.417.247.755.755,0,0,0-.2.464q-.032.9-.032,17.98a.615.615,0,0,0,.093.371.442.442,0,0,0,.37.124l8.373-.031a1.128,1.128,0,0,0,.478-.093.3.3,0,0,0,.2-.278l.093-2.533a.342.342,0,0,0-.156-.294,1.186,1.186,0,0,0-.617-.108q-4.728,0-5.191.031c0-.062-.009-.437-.03-1.127s-.03-1.468-.03-2.333q0-1.05.061-2.224a.356.356,0,0,1,.4-.4l3.429-.062a3.472,3.472,0,0,0,.479-.062.773.773,0,0,0,.479-.216,7.834,7.834,0,0,0,.154-1.823q0-.741-.4-.8a25.177,25.177,0,0,0-3.058-.093H7233.1q0-2.1.03-2.9a1.933,1.933,0,0,1,.124-.541q.062-.108.371-.108h.247q.464.031,2.163.031h1.76a4.667,4.667,0,0,0,.619.031c.351,0,.566-.1.649-.309a5.577,5.577,0,0,0,.123-1.251v-.788A.792.792,0,0,0,7238.292,1205.373Z" transform="translate(-7190.625 -1204.879)"/><path class="e" d="M7309.162,1213.911q-1.452-7.229-1.545-7.322a2.219,2.219,0,0,0-.771-.062l-1.576.031a.407.407,0,0,0-.386.185.9.9,0,0,0-.108.216l-1.267,3.337a51.81,51.81,0,0,1-2.009,5.283,13.658,13.658,0,0,1-.863-2.332q-.773-2.333-1.082-3.228l-.958-2.9a.912.912,0,0,0-.958-.556l-.619.031a6.438,6.438,0,0,1-.647.031,4.889,4.889,0,0,0-.587.031q-.4,0-.525.587-.28,1.731-2.564,12.7-.341,1.7-.587,2.873t-.34,1.7v.155a.548.548,0,0,0,.109.37.473.473,0,0,0,.217.155.694.694,0,0,0,.137.031l2.38.37c.04,0,.118,0,.231-.015a.664.664,0,0,0,.355-.17.769.769,0,0,0,.246-.463q.281-1.73,1.05-6.287a44.77,44.77,0,0,1,.866-4.557,15.2,15.2,0,0,1,.942,2.44q.85,2.441,1.344,3.923a.72.72,0,0,0,.325.494,1.125,1.125,0,0,0,.541.124l1.514.031a.584.584,0,0,0,.339-.139,1.387,1.387,0,0,0,.279-.263q.155-.247,1.174-2.719a42.413,42.413,0,0,1,1.792-3.954q.094,0,1.36,6.58l.9,4.6a.941.941,0,0,0,.339.51.553.553,0,0,0,.495.17q1.915-.586,2.378-.772c.062-.021.12-.093.171-.217a.513.513,0,0,0,.046-.309Q7310.614,1221.141,7309.162,1213.911Z" transform="translate(-7241.228 -1205.817)"/></g></g><g transform="translate(7081.876 615.372)"><g transform="translate(0 19.919)"><path class="t" d="M7877.585,800.153H7830.16a23.432,23.432,0,0,0-23.432,23.432h0a23.432,23.432,0,0,0,23.432,23.432h32.977a24.444,24.444,0,0,1,.561,4.276,24.708,24.708,0,0,1-1.872,10.477,22.425,22.425,0,0,0,9.354-8.981,21.886,21.886,0,0,0,2.2-5.773h4.2a23.431,23.431,0,0,0,23.433-23.432h0A23.431,23.431,0,0,0,7877.585,800.153Z" transform="translate(-7806.728 -800.153)"/><g transform="translate(27.68 19.208)"><circle class="e" cx="3.914" cy="3.914" r="3.914" transform="translate(15.551 0.31)"/><circle class="e" cx="3.914" cy="3.914" r="3.914" transform="translate(0 7.802) rotate(-85.269)"/><path class="e" d="M8123.17,904.474a3.914,3.914,0,1,0,3.914,3.915A3.916,3.916,0,0,0,8123.17,904.474Z" transform="translate(-8088.463 -904.164)"/></g></g><g transform="translate(62.488 0)"><circle class="u" cx="19.516" cy="19.516" r="19.516" transform="translate(0 11.331) rotate(-16.876)"/><g transform="translate(13.47 9.777)"><path class="v" d="M8238.551,756.772c-1.25-3.8-5.708-5.223-9.5-3.974l-1.879.618-.617-1.878c-1.249-3.8-5.047-6.534-8.843-5.285h0a7.286,7.286,0,0,0-4.628,9.173l.617,1.878,4.542,13.8,13.8-4.543,1.879-.618a7.287,7.287,0,0,0,4.63-9.173Z" transform="translate(-8212.717 -745.947)"/><g transform="translate(5.343 7.629)"><g transform="translate(0 13.329)"><path class="e" d="M8243.113,859.291l-.248.082-.316-.957a.655.655,0,0,0-1.245.409l.521,1.579a.653.653,0,0,0,.622.45.646.646,0,0,0,.2-.033l.872-.287a.655.655,0,0,0-.408-1.244Z" transform="translate(-8241.271 -857.966)"/></g><g transform="translate(1.39 13.344)"><path class="e" d="M8253.031,858.078l-3.88,1.277a.655.655,0,1,0,.409,1.244l3.88-1.277a.655.655,0,1,0-.409-1.244Z" transform="translate(-8248.701 -858.045)"/></g><g transform="translate(16.993 4.603)"><path class="e" d="M8333.043,811.326a.655.655,0,0,0-.6.705,5.23,5.23,0,0,1-.3,2.222.655.655,0,1,0,1.23.449,6.5,6.5,0,0,0,.378-2.776A.653.653,0,0,0,8333.043,811.326Z" transform="translate(-8332.1 -811.323)"/></g><g transform="translate(13.756)"><path class="e" d="M8315.664,786.76a.655.655,0,1,0-.428,1.238,4.533,4.533,0,0,1,2.736,2.413.658.658,0,0,0,.6.389.637.637,0,0,0,.264-.057.656.656,0,0,0,.334-.864A5.831,5.831,0,0,0,8315.664,786.76Z" transform="translate(-8314.795 -786.723)"/></g></g></g></g></g><g transform="translate(6956.882 597.347)"><circle class="w" cx="34.058" cy="34.058" r="34.058" transform="translate(0 0)"/><g transform="translate(9.403 11.143)"><g transform="translate(0 13.442)"><path class="x" d="M7188.915,768.542l-.012.046,29.885,23.615-14.22-27.022Z" transform="translate(-7188.902 -758.365)"/><path class="y" d="M7349.382,732.352l-.744,30.234h0l17.558-33.8-.029-.037Z" transform="translate(-7318.752 -728.748)"/><path class="z" d="M7286.854,778.244l.744-30.234-14.964,3.213Z" transform="translate(-7256.969 -744.406)"/></g><path class="aa" d="M7358.354,656.909l-5.664,17.039,16.771-3.6-11.09-13.441Z" transform="translate(-7322.047 -656.905)"/><path class="ab" d="M7188.969,710.109l15.643-3.359L7193.564,693.3Z" transform="translate(-7188.957 -686.491)"/><path class="ac" d="M7213.532,678.561l11.047,13.451.043-.009,4.777-16.743-.068-.091Z" transform="translate(-7208.924 -671.752)"/><path class="ad" d="M7272.814,692.4l14.9-3.2-10.124-13.543Z" transform="translate(-7257.115 -672.147)"/><path class="ae" d="M7298.05,675.167l.032-.112-.1.021Z" transform="translate(-7277.574 -671.659)"/><path class="af" d="M7298.346,660.428l10.124,13.544.043-.009,5.664-17.039-15.8,3.392Z" transform="translate(-7277.87 -656.92)"/></g></g></g></svg>