<svg xmlns="http://www.w3.org/2000/svg" xmlns:xlink="http://www.w3.org/1999/xlink" width="272" height="202.846" viewBox="0 0 272 202.846"><defs><style>.a{fill:url(#a);}.b{fill:url(#b);}.c{fill:url(#c);}.d{fill:url(#d);}.e{fill:url(#e);}.f{fill:url(#f);}.g{fill:url(#g);}.h{fill:url(#m);}.i{fill:url(#q);}.j{fill:url(#r);}.k{fill:url(#s);}.l{fill:#fff;}.m{fill:url(#t);}.n{fill:url(#u);}.o{fill:#e398eb;}.p{fill:url(#v);}.q{fill:url(#w);}.r{fill:url(#z);}.s{fill:url(#ab);}.t{fill:url(#ac);}.u{fill:url(#ad);}.v{fill:url(#ae);}.w{fill:url(#af);}.x{fill:#939598;}.y{fill:url(#ag);}.z{fill:#bcbec0;}.aa{fill:url(#ah);}.ab{fill:url(#ai);}.ac{fill:url(#aj);}</style><linearGradient id="a" x1="-16.292" y1="17.292" x2="-0.968" y2="1.968" gradientUnits="objectBoundingBox"><stop offset="0" stop-color="#582d7f"/><stop offset="0.212" stop-color="#4a5094"/><stop offset="0.754" stop-color="#29a6c7"/><stop offset="1" stop-color="#1dc9dc"/></linearGradient><linearGradient id="b" x1="-3.664" y1="6.052" x2="5.768" y2="-6.525" xlink:href="#a"/><linearGradient id="c" x1="-4.991" y1="8.323" x2="2.561" y2="-2.436" xlink:href="#a"/><linearGradient id="d" x1="-9.056" y1="0.5" x2="2.047" y2="0.5" xlink:href="#a"/><linearGradient id="e" x1="0" y1="0.5" x2="1" y2="0.5" xlink:href="#a"/><linearGradient id="f" x1="0.092" y1="0.944" x2="1.027" y2="0.461" xlink:href="#a"/><linearGradient id="g" x1="1.388" y1="0.764" x2="0.3" y2="0.278" xlink:href="#a"/><linearGradient id="m" x1="4.175" y1="4.175" x2="0.536" y2="0.536" xlink:href="#a"/><linearGradient id="q" x1="0.5" y1="0.432" x2="0.5" y2="-0.187" gradientUnits="objectBoundingBox"><stop offset="0" stop-color="#d1d3d4"/><stop offset="1" stop-color="#9d9e9f"/></linearGradient><linearGradient id="r" x1="0.5" y1="0.969" x2="0.5" y2="0.676" gradientUnits="objectBoundingBox"><stop offset="0" stop-color="#f1f2f2"/><stop offset="1" stop-color="#fff"/></linearGradient><linearGradient id="s" x1="2.098" y1="0.5" x2="1.331" y2="0.5" gradientUnits="objectBoundingBox"><stop offset="0" stop-color="#9d9e9f"/><stop offset="1" stop-color="#d1d3d4"/></linearGradient><linearGradient id="t" x1="0.479" y1="0.521" x2="0.177" y2="-0.542" gradientUnits="objectBoundingBox"><stop offset="0" stop-color="#42e397"/><stop offset="0.111" stop-color="#41de9a"/><stop offset="1" stop-color="#3cb6b5"/></linearGradient><linearGradient id="u" x1="0.5" y1="0.517" x2="0.5" y2="-0.235" gradientUnits="objectBoundingBox"><stop offset="0" stop-color="#e9adef"/><stop offset="0.467" stop-color="#cd93d3"/><stop offset="1" stop-color="#aa72b0"/></linearGradient><linearGradient id="v" x1="1.288" y1="0.465" x2="-0.409" y2="0.548" gradientUnits="objectBoundingBox"><stop offset="0" stop-color="#f1f2f2"/><stop offset="0.418" stop-color="#d6d6d6"/><stop offset="1" stop-color="#b5b5b5"/></linearGradient><linearGradient id="w" x1="0.5" y1="7.483" x2="0.5" y2="-2.355" gradientUnits="objectBoundingBox"><stop offset="0" stop-color="#582d7f"/><stop offset="1" stop-color="#1dc9dc"/></linearGradient><linearGradient id="z" x1="0.5" y1="3.273" x2="0.5" y2="-6.564" xlink:href="#w"/><linearGradient id="ab" x1="0.5" y1="41.73" x2="0.5" y2="-16.354" xlink:href="#w"/><linearGradient id="ac" x1="0.5" y1="1.614" x2="0.5" y2="-0.633" xlink:href="#w"/><linearGradient id="ad" x1="0.59" y1="1.454" x2="0.457" y2="0.07" xlink:href="#w"/><linearGradient id="ae" x1="0.237" y1="0.829" x2="0.575" y2="0.435" gradientUnits="objectBoundingBox"><stop offset="0" stop-color="#d1d3d4"/><stop offset="1" stop-color="#f1f2f2"/></linearGradient><linearGradient id="af" x1="-1.691" y1="0.633" x2="0.602" y2="0.49" xlink:href="#w"/><linearGradient id="ag" x1="-2.441" y1="4.666" x2="3.474" y2="-3.711" xlink:href="#w"/><linearGradient id="ah" x1="-1.979" y1="2.127" x2="0.088" y2="0.77" xlink:href="#w"/><linearGradient id="ai" x1="0.282" y1="0.759" x2="1.04" y2="-0.144" gradientUnits="objectBoundingBox"><stop offset="0" stop-color="#ceecfa"/><stop offset="1" stop-color="#ee6ee4"/></linearGradient><linearGradient id="aj" x1="0.157" y1="0.84" x2="0.717" y2="0.234" gradientUnits="objectBoundingBox"><stop offset="0" stop-color="#ffde39"/><stop offset="0.094" stop-color="#fec63c"/><stop offset="0.286" stop-color="#fe9843"/><stop offset="0.415" stop-color="#fe7d4b"/><stop offset="0.652" stop-color="#fe4f59"/><stop offset="1" stop-color="#ed327f"/></linearGradient></defs><g transform="translate(-489.919 999.897)"><g transform="translate(550.442 -971.506)"><circle class="a" cx="5.831" cy="5.831" r="5.831" transform="translate(131.871)"/><ellipse class="b" cx="11.167" cy="8.374" rx="11.167" ry="8.374" transform="translate(57.44 157.705)"/><ellipse class="c" cx="13.658" cy="9.586" rx="13.658" ry="9.586" transform="translate(0 19.93) rotate(-38.927)"/></g><g transform="translate(492.21 -999.897)"><path class="d" d="M729.553-800.137a91.953,91.953,0,0,0,11.686-7.273,88.445,88.445,0,0,0,7.52-6.171H729.553Z" transform="translate(-520.561 977.854)"/><path class="e" d="M703.657-955.239c-9.039-.541-17.979,3.259-26.81,2.318a13.494,13.494,0,0,1-8.159-3.977,8.441,8.441,0,0,1-4.541,1.214,5.92,5.92,0,0,1-5.574-4.783c-.315-2.247.882-4.3,1.947-6.181a9.212,9.212,0,0,0,1.544-3.515c.132-1.543-.852-2.218-1.538-3.437-3.485-6.187,8.112-6.662,10.3-9.87a9.87,9.87,0,0,0,1.315-3.409c.173-.753.368-1.476.584-2.181a13.462,13.462,0,0,1-13.378-2.252c-1.849-1.531-3.544-3.651-6.12-3.83a4.528,4.528,0,0,0-.7.007,7.1,7.1,0,0,1-1.3,5.518,16.951,16.951,0,0,1-8.555,5.911c-6.918,2.172-15.3-.294-20.463-5.406a63.992,63.992,0,0,0-11.324,9.3c-9.18,9.536-11.522,23.1-19.36,33.479-8.086,10.709-20.5,15.116-33.186,18.828a20.789,20.789,0,0,1-1.966,14.119c-2.942,5.548-7.888,8.017-14.059,8.363a13.911,13.911,0,0,0-4.6.843c-5.314,2.211-3.481,10.973-11.053,9.639-1.852-.326-3.531-1.214-5.407-1.429a4.654,4.654,0,0,0-4.285,1.476c-.068-.1-.138-.2-.206-.3a29.07,29.07,0,0,1-2.9,15.246c-3.037,5.98-8.847,11.4-15.675,12.342a16.891,16.891,0,0,1-4.737-.023c-2.2,12.685-.635,25.831,5.921,37.376a40.148,40.148,0,0,0,6.458,8.535c18,18.094,47.23,14.411,69.991,10.282,7.25-1.315,14.261-2.721,21.24-3.793l-.852-.042a24.134,24.134,0,0,1,8.545-9.041,33.876,33.876,0,0,1,16.469-5.494,23.732,23.732,0,0,1,15.543,4.461,21.179,21.179,0,0,1,4.438,4.794,20.614,20.614,0,0,1,5.341-.363c2.479.09,5.093.646,7.506-.183,2.589-.891,4.272-3.146,6.472-4.639a16.7,16.7,0,0,1,7.8-2.8c.312-.029.625-.048.938-.058q-.007-3.432-.012-6.864H621.044a8.955,8.955,0,0,1-8.955-8.955v-29.614a18.2,18.2,0,0,1-2.435.385c-5.54.485-11.8-2.646-13.078-8.4-.28-1.257-.285-2.938-1.213-3.938-.833-.9-2.39-1.294-3.435-1.881a4.936,4.936,0,0,1-2.349-3.095c-.76-3.112,1.85-6.937,4.36-8.555,3.127-2.015,6.9-2.529,10.146-4.3a7.047,7.047,0,0,0,2.825-2.506c2.485-4.292-2.672-7.572-4.443-10.862a4.491,4.491,0,0,1-.583-2.746c.314-2.124,2.415-3.265,4.32-3.771a19.4,19.4,0,0,1,5.885-.543v-.771a8.955,8.955,0,0,1,8.955-8.955h7.39v-5.93H733.665C726.5-948.34,716.576-954.465,703.657-955.239ZM596.4-906.106a3.769,3.769,0,0,1-3.769-3.769,3.769,3.769,0,0,1,3.769-3.769,3.77,3.77,0,0,1,3.77,3.769A3.77,3.77,0,0,1,596.4-906.106Z" transform="translate(-492.517 999.336)"/><path class="f" d="M688.277-805.738a16.7,16.7,0,0,0-7.8,2.8c-2.2,1.493-3.884,3.748-6.472,4.639-2.413.83-5.026.273-7.506.183a20.614,20.614,0,0,0-5.341.363A64.831,64.831,0,0,1,665.041-791c8.012,1.269,15.875,2.194,24.205,1.508q-.016-8.149-.031-16.3C688.9-805.785,688.589-805.767,688.277-805.738Z" transform="translate(-512.469 976.933)"/><path class="g" d="M619.209-913.734c-1.905.506-4.006,1.647-4.32,3.771a4.49,4.49,0,0,0,.583,2.746c1.77,3.291,6.927,6.57,4.443,10.862a7.047,7.047,0,0,1-2.825,2.506c-3.247,1.771-7.019,2.285-10.146,4.3-2.51,1.618-5.12,5.443-4.36,8.555a4.935,4.935,0,0,0,2.349,3.095c1.045.587,2.6.985,3.435,1.882.928,1,.933,2.68,1.213,3.938,1.282,5.751,7.538,8.882,13.078,8.4a18.2,18.2,0,0,0,2.435-.385v-50.21A19.4,19.4,0,0,0,619.209-913.734Z" transform="translate(-505.523 989.771)"/><path class="e" d="M537.259-910.549a77.285,77.285,0,0,0-13.763,8.062,64.7,64.7,0,0,0-6.716,5.7,31.737,31.737,0,0,1,2.425,7.673,31.935,31.935,0,0,1,.429,3.392c.069.1.138.2.206.3a4.654,4.654,0,0,1,4.285-1.476c1.876.215,3.556,1.1,5.407,1.429,7.572,1.334,5.739-7.427,11.053-9.639a13.916,13.916,0,0,1,4.6-.843c6.171-.346,11.116-2.814,14.059-8.363a20.789,20.789,0,0,0,1.966-14.119C552.969-916.023,544.617-913.906,537.259-910.549Z" transform="translate(-495.388 990.259)"/><path class="e" d="M650.682-802.71a23.732,23.732,0,0,0-15.543-4.461,33.876,33.876,0,0,0-16.469,5.494,24.135,24.135,0,0,0-8.545,9.041l.852.042c11.242-1.726,22.4-2.586,34.345-.8q1.736.259,3.446.538a8.717,8.717,0,0,1,5.325-4.776c.339-.111.682-.2,1.028-.283A21.18,21.18,0,0,0,650.682-802.71Z" transform="translate(-506.431 977.1)"/><path class="e" d="M659.277-796.387a8.717,8.717,0,0,0-5.325,4.776c3.469.559,6.867,1.152,10.236,1.686a64.848,64.848,0,0,0-3.883-6.745C659.96-796.591,659.616-796.5,659.277-796.387Z" transform="translate(-511.617 975.854)"/><path class="e" d="M516.46-886.206a31.738,31.738,0,0,0-2.425-7.673q-1.461,1.419-2.842,2.932a71.932,71.932,0,0,0-17.616,35.7,16.882,16.882,0,0,0,4.737.023c6.828-.945,12.638-6.362,15.675-12.342a29.068,29.068,0,0,0,2.9-15.246A31.918,31.918,0,0,0,516.46-886.206Z" transform="translate(-492.643 987.354)"/><circle class="e" cx="3.769" cy="3.769" r="3.769" transform="translate(100.109 85.692)"/><circle class="h" cx="3.769" cy="3.769" r="3.769" transform="translate(100.109 85.692)"/><path class="e" d="M701.459-992.376A20.726,20.726,0,0,1,695-988.731c-.216.705-.411,1.428-.584,2.181a9.871,9.871,0,0,1-1.315,3.409c-2.188,3.208-13.786,3.683-10.3,9.87.686,1.219,1.67,1.894,1.538,3.437a9.212,9.212,0,0,1-1.544,3.515c-1.065,1.876-2.262,3.934-1.947,6.181a5.92,5.92,0,0,0,5.574,4.783,8.442,8.442,0,0,0,4.541-1.214,7.988,7.988,0,0,1-2.359-6.3c1.01-10.151,17.254-9.735,18.273-20.05C707.257-986.745,704.689-990.054,701.459-992.376Z" transform="translate(-514.793 999.008)"/><path class="e" d="M665.515-993.776a6.96,6.96,0,0,1-4.227-.182,7.166,7.166,0,0,1-3.948-3.475,65.4,65.4,0,0,0-17.732,8.05c5.159,5.113,13.545,7.578,20.463,5.406a16.951,16.951,0,0,0,8.555-5.911,7.1,7.1,0,0,0,1.3-5.518C668.3-995.262,667.076-994.264,665.515-993.776Z" transform="translate(-509.92 999.606)"/><path class="e" d="M695-995.534a47.332,47.332,0,0,0-24.089-4.2,58.011,58.011,0,0,0-11.194,2.013,7.166,7.166,0,0,0,3.948,3.475,6.96,6.96,0,0,0,4.227.182c1.561-.489,2.785-1.487,4.415-1.628a4.529,4.529,0,0,1,.7-.007c2.575.179,4.271,2.3,6.12,3.83a13.462,13.462,0,0,0,13.378,2.252,20.726,20.726,0,0,0,6.457-3.645,21.568,21.568,0,0,0-2.722-1.659C695.832-995.136,695.418-995.337,695-995.534Z" transform="translate(-512.299 999.897)"/><path class="i" d="M692.978-806.717q.016,8.149.031,16.3c1.738-.144,3.5-.354,5.28-.65q2.092-.347,4.165-.8a90.369,90.369,0,0,0,22.77-8.273v-13.444H692.966Q692.971-810.149,692.978-806.717Z" transform="translate(-516.232 977.854)"/><path class="j" d="M628.133-916.256v78.29h16.346V-925.3h-7.39A9,9,0,0,0,628.133-916.256Z" transform="translate(-508.562 991.072)"/><path class="k" d="M628.133-824.154a8.955,8.955,0,0,0,8.955,8.955H736.76a87.483,87.483,0,0,0,10.919-12.059H628.133Z" transform="translate(-508.562 979.472)"/><path class="l" d="M756.067-926.1a53.994,53.994,0,0,0-4.164-5.93H646.672v92.376h103.2c11.622-15.529,17.858-34.758,16.126-54.613C765.034-905.325,761.785-916.694,756.067-926.1Z" transform="translate(-510.755 991.868)"/><g transform="translate(135.917 53.368)"><path class="m" d="M649.306-939.368a2.7,2.7,0,0,0-2.634,2.762v3.708H751.9l-5.7-6.47Z" transform="translate(-646.672 939.368)"/></g><g transform="translate(186.286 156.949)"><path class="l" d="M715.675-821.888h-10.6a1.276,1.276,0,0,0-1.277,1.277,1.276,1.276,0,0,0,1.277,1.277h10.6a1.276,1.276,0,0,0,1.277-1.277A1.276,1.276,0,0,0,715.675-821.888Z" transform="translate(-703.8 821.888)"/></g><g transform="translate(177.676 97.571)"><g transform="translate(8.001 38.68)"><path class="n" d="M703.11-845.31l.013,15.91h14.352l-.014-15.964Z" transform="translate(-703.11 845.363)"/></g><path class="o" d="M719.932-850.54H699.626a.872.872,0,0,0-.872.872v4.289a.872.872,0,0,0,.872.872h20.306a.872.872,0,0,0,.872-.872v-4.289A.872.872,0,0,0,719.932-850.54Z" transform="translate(-694.593 884.656)"/><path class="p" d="M711.509-889.234v16.9a4.258,4.258,0,0,1,1.976,3.595,4.264,4.264,0,0,1-4.265,4.265,4.264,4.264,0,0,1-4.264-4.265,4.258,4.258,0,0,1,1.976-3.595v-16.9a76.507,76.507,0,0,1-5.068,9.908,123.632,123.632,0,0,1-7.829,10.686l8.737,13.522h12.9l8.737-13.522s-5.108-6.5-7.666-10.686A89.039,89.039,0,0,1,711.509-889.234Z" transform="translate(-694.035 889.234)"/></g><g transform="translate(156.918 76.104)"><rect class="q" width="7.241" height="7.241" transform="translate(32.323)"/><rect class="q" width="7.241" height="7.241" transform="translate(64.646)"/><rect class="q" width="7.241" height="7.241"/><rect class="r" width="7.241" height="7.241" transform="translate(1.84 30.483)"/><rect class="r" width="7.241" height="7.241" transform="translate(62.806 30.483)"/><g transform="translate(3.008 3.007)"><path class="s" d="M739.162-910.171H674.516a.613.613,0,0,0-.613.614.613.613,0,0,0,.613.613h64.646a.613.613,0,0,0,.613-.613A.613.613,0,0,0,739.162-910.171Z" transform="translate(-673.903 910.171)"/></g><g transform="translate(4.847 3.007)"><path class="t" d="M707.085-910.171a31.132,31.132,0,0,0-31.1,31.1.613.613,0,0,0,.614.613.613.613,0,0,0,.613-.613,29.9,29.9,0,0,1,29.87-29.871,29.9,29.9,0,0,1,29.871,29.871.613.613,0,0,0,.613.613.613.613,0,0,0,.614-.613A31.132,31.132,0,0,0,707.085-910.171Z" transform="translate(-675.989 910.171)"/></g></g></g><g transform="translate(489.919 -903.798)"><g transform="translate(0 14.229)"><path class="u" d="M547.23-867.064l-24.386,8.574a3.283,3.283,0,0,0-2.008,4.185l6.815,19.382,5.47-1.923,4.363-1.534L558.3-845.7l-6.887-19.37A3.282,3.282,0,0,0,547.23-867.064Z" transform="translate(-493.555 873.876)"/><path class="v" d="M495.9-845.456a8.951,8.951,0,0,0-5.475,11.413l16.2,46.068a8.951,8.951,0,0,0,11.414,5.475l6.875-2.418,12.221-4.3,58.29-20.5-22.359-62.879Z" transform="translate(-489.919 874.507)"/><g transform="translate(83.149)"><path class="w" d="M609.752-840.059l3.754-1.32a1.806,1.806,0,0,0,1.245-2.218l-2.833-8.058a1.806,1.806,0,0,0-2.359-.95l-3.754,1.32-6.151-17.492a8.95,8.95,0,0,0-7.627-5.943s-2.506.343-2.448.111a9.021,9.021,0,0,0-1.338.358l-4.014,1.411,22.359,62.879,3.792-1.334a8.889,8.889,0,0,0,1.267-.558l1.98-1.446a8.951,8.951,0,0,0,2.228-9.409Z" transform="translate(-584.226 874.76)"/><path class="l" d="M612.677-814.287a1.276,1.276,0,0,0-.78,1.628l2.587,7.359a1.273,1.273,0,0,0,.425.587,8.831,8.831,0,0,0,1.98-1.446l-2.583-7.346A1.274,1.274,0,0,0,612.677-814.287Z" transform="translate(-587.491 867.618)"/><path class="l" d="M592.74-874.726a8.846,8.846,0,0,0-2.448.111,1.257,1.257,0,0,0,.035.724l2.588,7.359a1.276,1.276,0,0,0,1.592.793l.035-.012a1.277,1.277,0,0,0,.781-1.628Z" transform="translate(-584.939 874.765)"/></g><g transform="translate(4.406 7.552)"><g transform="translate(87.499 49.238)"><path class="l" d="M599.252-809.615a1.106,1.106,0,0,0-1.411-.676,1.106,1.106,0,0,0-.677,1.411l1.23,3.5-3.5,1.23a1.106,1.106,0,0,0-.676,1.411,1.106,1.106,0,0,0,1.044.74,1.113,1.113,0,0,0,.367-.063l4.542-1.6a1.1,1.1,0,0,0,.63-.565,1.1,1.1,0,0,0,.046-.846Z" transform="translate(-594.157 810.355)"/></g><g transform="translate(0 24.117)"><path class="l" d="M500.2-838.784l-4.542,1.6a1.107,1.107,0,0,0-.676,1.412l1.6,4.542a1.108,1.108,0,0,0,1.044.74,1.112,1.112,0,0,0,.367-.063,1.107,1.107,0,0,0,.677-1.411l-1.23-3.5,3.5-1.23a1.107,1.107,0,0,0,.676-1.412A1.105,1.105,0,0,0,500.2-838.784Z" transform="translate(-494.916 838.847)"/></g><g transform="translate(68.588)"><path class="l" d="M579.4-865.46a1.1,1.1,0,0,0-.565-.63,1.1,1.1,0,0,0-.846-.047l-4.542,1.6a1.106,1.106,0,0,0-.676,1.411,1.106,1.106,0,0,0,1.411.677l3.5-1.23,1.23,3.5a1.105,1.105,0,0,0,1.044.74,1.115,1.115,0,0,0,.367-.063,1.106,1.106,0,0,0,.677-1.411Z" transform="translate(-572.708 866.2)"/></g><g transform="translate(17.313 74.953)"><path class="l" d="M521.432-778.182l-3.5,1.23-1.23-3.5a1.105,1.105,0,0,0-1.411-.676,1.106,1.106,0,0,0-.677,1.411l1.6,4.542a1.107,1.107,0,0,0,1.044.74,1.092,1.092,0,0,0,.367-.064l4.542-1.6a1.107,1.107,0,0,0,.676-1.412A1.107,1.107,0,0,0,521.432-778.182Z" transform="translate(-514.553 781.19)"/></g></g></g><g transform="translate(42.088)"><g transform="translate(0 60.807)"><path class="x" d="M540.241-821.872a.852.852,0,0,0-1.113.459l-1.408,3.387a.852.852,0,0,0,.458,1.114.855.855,0,0,0,.327.065.851.851,0,0,0,.786-.525l1.409-3.387A.851.851,0,0,0,540.241-821.872Z" transform="translate(-537.655 821.937)"/></g><g transform="translate(0.758)"><path class="y" d="M563.691-881.776a19.519,19.519,0,0,1-4.091-2.151h-.056l-1.435,3.616.179.02a17.453,17.453,0,0,0,3.857,1.985,19.508,19.508,0,0,0,4,1.061l.162.151,1.423-3.581-.04-.04A19.579,19.579,0,0,1,563.691-881.776Z" transform="translate(-540.832 890.078)"/><path class="z" d="M542.971-829.225a19.581,19.581,0,0,1-4.091-2.15l-.033-.042a5.629,5.629,0,0,0-.313,2.381l.268,6.872a1.145,1.145,0,0,0,1.9.756l4.909-4.816a5.623,5.623,0,0,0,1.408-1.952l-.056.013A19.507,19.507,0,0,1,542.971-829.225Z" transform="translate(-538.514 883.866)"/><path class="z" d="M568.378-889.286l-3.635-1.444a2.447,2.447,0,0,0-3.177,1.371l-1.83,4.608h.056a19.518,19.518,0,0,0,4.091,2.151,19.578,19.578,0,0,0,4,1.062l.04.04,1.83-4.609A2.446,2.446,0,0,0,568.378-889.286Z" transform="translate(-541.025 890.903)"/><path class="aa" d="M552.419-856.195a19.623,19.623,0,0,1-4.09-2.15l-.012-.007-9.361,23.574c-.023.057-.042.115-.063.174l.033.042a19.584,19.584,0,0,0,4.091,2.15,19.509,19.509,0,0,0,4,1.061l.056-.013c.024-.055.049-.108.071-.164l9.365-23.584-.087-.021A19.512,19.512,0,0,1,552.419-856.195Z" transform="translate(-538.559 887.052)"/><path class="z" d="M561.136-877.82a17.452,17.452,0,0,1-3.857-1.985l-.179-.02-7.519,18.933.012.007a19.619,19.619,0,0,0,4.09,2.15,19.514,19.514,0,0,0,4,1.061l.087.021,7.527-18.955-.162-.151A19.5,19.5,0,0,1,561.136-877.82Z" transform="translate(-539.823 889.593)"/></g><g transform="translate(5.662 35.648)"><path class="l" d="M550.693-850.393a1.108,1.108,0,0,0-1.437.62l-5.1,12.846a1.107,1.107,0,0,0,.621,1.436,1.089,1.089,0,0,0,.408.078,1.106,1.106,0,0,0,1.028-.7l5.1-12.845A1.107,1.107,0,0,0,550.693-850.393Z" transform="translate(-544.077 850.472)"/></g></g></g><g transform="translate(703.936 -974.672)"><circle class="ab" cx="20.714" cy="20.714" r="20.714" transform="matrix(0.801, -0.599, 0.599, 0.801, 0, 24.795)"/><g transform="translate(13.213 14.561)"><path class="ac" d="M772.554-953.925h0c-3.682-2.1-8.211-.06-10.315,3.623l-1.041,1.823-1.823-1.04c-3.683-2.1-8.622-1.564-10.726,2.119h0a7.735,7.735,0,0,0,2.872,10.521l1.822,1.04,13.392,7.65,7.65-13.392,1.041-1.822A7.735,7.735,0,0,0,772.554-953.925Z" transform="translate(-747.64 954.771)"/><g transform="translate(16.351 2.086)"><g transform="translate(0 20.768)"><path class="l" d="M769.091-928.742a.6.6,0,0,0-.813.221l-.187.327-1.014-.579a.6.6,0,0,0-.813.222.6.6,0,0,0,.221.813l1.531.875a.588.588,0,0,0,.3.078.6.6,0,0,0,.518-.3l.482-.845A.6.6,0,0,0,769.091-928.742Z" transform="translate(-766.185 928.851)"/></g><g transform="translate(2.014 17.033)"><path class="l" d="M771.512-933.008a.6.6,0,0,0-.813.221l-2.15,3.765a.6.6,0,0,0,.222.813.587.587,0,0,0,.294.079.6.6,0,0,0,.518-.3l2.15-3.765A.6.6,0,0,0,771.512-933.008Z" transform="translate(-768.47 933.087)"/></g><g transform="translate(7.46 1.569)"><path class="l" d="M775.651-950.464a.6.6,0,0,0-.842.025.6.6,0,0,0,.024.842,5.638,5.638,0,0,1,1.365,2,.6.6,0,0,0,.552.373.585.585,0,0,0,.223-.044.6.6,0,0,0,.33-.776A6.822,6.822,0,0,0,775.651-950.464Z" transform="translate(-774.647 950.626)"/></g><g transform="translate(1.368)"><path class="l" d="M773-951.908a6.092,6.092,0,0,0-4.9.034.6.6,0,0,0-.316.781.6.6,0,0,0,.548.363.589.589,0,0,0,.233-.048,4.913,4.913,0,0,1,3.951-.042.6.6,0,0,0,.786-.3A.6.6,0,0,0,773-951.908Z" transform="translate(-767.737 952.406)"/></g></g></g></g></g></svg>