<svg xmlns="http://www.w3.org/2000/svg" xmlns:xlink="http://www.w3.org/1999/xlink" width="252" height="199.917" viewBox="0 0 252 199.917"><defs><style>.a{fill:url(#a);}.b{fill:url(#b);}.c{fill:url(#c);}.d{fill:none;}.e{fill:#fff;}.f{fill:url(#r);}.g{fill:url(#s);}.h{fill:#f9ab7c;}.i{fill:#58595b;}.j{fill:#414042;}.k{fill:url(#t);}.l{fill:url(#u);}.m{fill:url(#v);}.n{fill:url(#w);}.o{fill:url(#x);}.p{fill:url(#y);}.q{fill:url(#z);}.r{fill:url(#aa);}.s{fill:url(#ab);}.t{fill:url(#ac);}.u{fill:url(#ad);}.v{fill:url(#ae);}.w{fill:url(#af);}.x{fill:url(#ag);}.y{fill:url(#ah);}.z{fill:url(#ai);}.aa{fill:url(#aj);}.ab{fill:url(#ak);}.ac{fill:url(#al);}.ad{fill:url(#am);}.ae{fill:url(#an);}.af{fill:url(#ao);}.ag{fill:url(#ap);}.ah{fill:url(#aq);}.ai{fill:url(#ar);}.aj{fill:url(#as);}.ak{fill:url(#at);}.al{fill:url(#au);}.am{fill:url(#av);}.an{fill:url(#aw);}.ao{fill:url(#ax);}.ap{fill:url(#ay);}.aq{fill:url(#az);}.ar{fill:url(#ba);}.as{fill:url(#bb);}.at{fill:url(#bc);}.au{fill:url(#bd);}.av{fill:url(#be);}.aw{fill:url(#bf);}.ax{fill:url(#bg);}.ay{fill:url(#bh);}.az{fill:url(#bi);}.ba{fill:url(#bj);}.bb{fill:url(#bl);}.bc{fill:url(#bm);}</style><linearGradient id="a" y1="0.5" x2="1" y2="0.5" gradientUnits="objectBoundingBox"><stop offset="0" stop-color="#582d7f"/><stop offset="0.212" stop-color="#4a5094"/><stop offset="0.754" stop-color="#29a6c7"/><stop offset="1" stop-color="#1dc9dc"/></linearGradient><linearGradient id="b" x1="-5.263" y1="6.263" x2="0.781" y2="0.219" xlink:href="#a"/><linearGradient id="c" x1="-1.98" y1="2.98" x2="3.776" y2="-2.776" xlink:href="#a"/><linearGradient id="r" x1="0.024" y1="0.056" x2="1.289" y2="0.977" gradientUnits="objectBoundingBox"><stop offset="0" stop-color="#a7a9ac"/><stop offset="0.833" stop-color="#fff"/></linearGradient><linearGradient id="s" x1="0.5" y1="-0.122" x2="0.5" y2="0.467" gradientUnits="objectBoundingBox"><stop offset="0" stop-color="#bb805d"/><stop offset="1" stop-color="#f9ab7c"/></linearGradient><linearGradient id="t" x1="1.319" y1="0.069" x2="-0.239" y2="0.995" gradientUnits="objectBoundingBox"><stop offset="0" stop-color="#42e397"/><stop offset="1" stop-color="#3cb6b5"/></linearGradient><linearGradient id="u" x1="0.523" y1="0.471" x2="0.709" y2="-0.578" gradientUnits="objectBoundingBox"><stop offset="0" stop-color="#ffde39"/><stop offset="0.327" stop-color="#fec63c"/><stop offset="1" stop-color="#fe9843"/></linearGradient><linearGradient id="v" x1="-1.097" y1="2.122" x2="0.223" y2="0.894" xlink:href="#u"/><linearGradient id="w" x1="-5.655" y1="0.5" x2="1.957" y2="0.5" xlink:href="#u"/><linearGradient id="x" x1="0.884" y1="0.049" x2="1.497" y2="-0.718" xlink:href="#u"/><linearGradient id="y" x1="0.5" y1="1.148" x2="0.5" y2="-0.338" xlink:href="#u"/><linearGradient id="z" x1="-0.829" y1="0.5" x2="5.279" y2="0.5" xlink:href="#u"/><linearGradient id="aa" x1="-10.412" y1="0.5" x2="1" y2="0.5" xlink:href="#u"/><linearGradient id="ab" x1="0.022" y1="1.329" x2="0.727" y2="0.19" xlink:href="#u"/><linearGradient id="ac" x1="-0.235" y1="0.5" x2="1" y2="0.5" xlink:href="#u"/><linearGradient id="ad" x1="0.7" y1="0.187" x2="-1.168" y2="3.109" xlink:href="#u"/><linearGradient id="ae" x1="1.585" y1="2.619" x2="0.005" y2="-0.157" xlink:href="#u"/><linearGradient id="af" x1="-0.182" y1="0.5" x2="1" y2="0.5" xlink:href="#u"/><linearGradient id="ag" x1="1.477" y1="-0.864" x2="-0.512" y2="2.33" xlink:href="#u"/><linearGradient id="ah" x1="2.775" y1="-0.525" x2="1.45" y2="0.131" xlink:href="#u"/><linearGradient id="ai" x1="-0.244" y1="0.5" x2="2.119" y2="0.5" xlink:href="#u"/><linearGradient id="aj" x1="0" y1="0.5" x2="2.363" y2="0.5" xlink:href="#u"/><linearGradient id="ak" x1="1.342" y1="0.017" x2="0.463" y2="0.648" xlink:href="#u"/><linearGradient id="al" x1="-0.331" y1="0.5" x2="1" y2="0.5" xlink:href="#u"/><linearGradient id="am" x1="0" y1="0.5" x2="1.331" y2="0.5" xlink:href="#u"/><linearGradient id="an" x1="2.602" y1="1.992" x2="0.192" y2="0.212" xlink:href="#u"/><linearGradient id="ao" x1="-0.411" y1="0.5" x2="1" y2="0.5" xlink:href="#u"/><linearGradient id="ap" x1="-0.714" y1="1.398" x2="-4.63" y2="4.296" xlink:href="#u"/><linearGradient id="aq" x1="-1.774" y1="2.477" x2="2.66" y2="-1.647" xlink:href="#u"/><linearGradient id="ar" x1="-0.401" y1="0.5" x2="1" y2="0.5" xlink:href="#u"/><linearGradient id="as" x1="1.345" y1="-0.276" x2="3.503" y2="-2.258" xlink:href="#u"/><linearGradient id="at" x1="-0.494" y1="1.297" x2="2.83" y2="-1.262" xlink:href="#u"/><linearGradient id="au" x1="-0.47" y1="0.5" x2="1" y2="0.5" xlink:href="#u"/><linearGradient id="av" x1="0.406" y1="0.571" x2="-3.053" y2="3.165" xlink:href="#u"/><linearGradient id="aw" x1="0.173" y1="0.5" x2="0.939" y2="0.5" gradientUnits="objectBoundingBox"><stop offset="0" stop-color="#ceecfa"/><stop offset="1" stop-color="#ee6ee4"/></linearGradient><linearGradient id="ax" x1="0.5" y1="36.019" x2="0.5" y2="-28.698" xlink:href="#t"/><linearGradient id="ay" x1="0.5" y1="0.658" x2="0.5" y2="0.286" xlink:href="#t"/><linearGradient id="az" x1="0.5" y1="0.396" x2="0.5" y2="-0.006" xlink:href="#t"/><linearGradient id="ba" x1="0.5" y1="-0.328" x2="0.5" y2="0.367" gradientUnits="objectBoundingBox"><stop offset="0" stop-color="#bcbec0"/><stop offset="1" stop-color="#e6e7e8"/></linearGradient><linearGradient id="bb" x1="0.5" y1="2.326" x2="0.5" y2="0.313" xlink:href="#ba"/><linearGradient id="bc" x1="-0.796" y1="0.5" x2="1.796" y2="0.5" xlink:href="#ba"/><linearGradient id="bd" x1="-0.507" y1="0.5" x2="0.759" y2="0.5" xlink:href="#ba"/><linearGradient id="be" x1="-0.134" y1="0.5" x2="2.416" y2="0.5" xlink:href="#aw"/><linearGradient id="bf" x1="-0.568" y1="0.5" x2="1.898" y2="0.5" gradientUnits="objectBoundingBox"><stop offset="0" stop-color="#ffde39"/><stop offset="0.094" stop-color="#fec63c"/><stop offset="0.286" stop-color="#fe9843"/><stop offset="0.415" stop-color="#fe7d4b"/><stop offset="0.652" stop-color="#fe4f59"/><stop offset="1" stop-color="#ed327f"/></linearGradient><linearGradient id="bg" x1="1.788" y1="0.5" x2="-1.265" y2="0.5" xlink:href="#bf"/><linearGradient id="bh" x1="0.5" y1="1.414" x2="0.5" y2="-0.091" xlink:href="#ba"/><linearGradient id="bi" x1="0.5" y1="-0.096" x2="0.5" y2="0.801" xlink:href="#ba"/><linearGradient id="bj" x1="0" y1="0.5" x2="1" y2="0.5" xlink:href="#ba"/><linearGradient id="bl" x1="0.5" y1="0.061" x2="0.5" y2="1.184" xlink:href="#bf"/><linearGradient id="bm" x1="0.5" y1="1.927" x2="0.5" y2="-0.339" xlink:href="#bf"/></defs><g transform="translate(-6866.232 -561.695)"><g transform="translate(6885.666 561.695)"><path class="a" d="M7140.943,596.428c-17.989-3.157-23.763-5.425-25.946-6.872-8.051-5.339-14.039-13.228-22.7-17.782-19.586-10.3-44.134-13.587-65.19-5.7-16.656,6.239-30.55,19.866-36.42,36.327-7.161,20.089,2.072,40.568,6.564,60.112q.173.746.332,1.492c1.9,8.89,2.485,17.929.185,26.819-4.432,17.128-11.617,32.589-1.769,49.538,13.283,22.863,43.269,25.112,65.589,16.173,15.854-6.349,31.362-16.179,45.065-26.3,5.981-4.416,12.888-8.267,20.54-8.18,8.723.1,16.221,5.142,23.993,8.427a48.128,48.128,0,0,0,24.67,3.432c26.518-3.238,39.64-25.387,40.34-50.5.434-15.576-1.965-32.42-8.385-46.685C7195.272,608.868,7168.8,601.317,7140.943,596.428Z" transform="translate(-6988.059 -561.695)"/><circle class="b" cx="12.761" cy="12.761" r="12.761" transform="translate(122.535 4.491) rotate(-9.217)"/><circle class="c" cx="16" cy="16" r="16" transform="translate(117.182 189.325) rotate(-70.67)"/></g><g transform="translate(6885.666 561.696)"><path class="d" d="M6989.189,1002.808q.687.259,1.386.484c-.05-.25-.1-.5-.145-.749Q6989.811,1002.68,6989.189,1002.808Z" transform="translate(-6989.009 -932.222)"/><path class="a" d="M7190.643,561.724a71.871,71.871,0,0,0-26.978,4.355,62.325,62.325,0,0,0-13.136,6.818,40.614,40.614,0,0,1,2.641,8.524q.035.2.066.4c3.6-1.627,7.136-3.906,10.46-4.859,9.179-2.631,18.82-.268,28.155-.378a41.181,41.181,0,0,0,5.023-.352,23.385,23.385,0,0,1-2.463-3.479A33.017,33.017,0,0,1,7190.643,561.724Z" transform="translate(-7124.612 -561.7)"/><path class="a" d="M7405.771,572.874a23.418,23.418,0,0,0,2.463,3.479,24.355,24.355,0,0,0,10.729-3.865,18.969,18.969,0,0,0,5.982-6.864A85.78,85.78,0,0,0,7402,561.848,33.017,33.017,0,0,0,7405.771,572.874Z" transform="translate(-7335.972 -561.824)"/><path class="a" d="M7016.619,640.418a40.587,40.587,0,0,0-2.641-8.524,63.931,63.931,0,0,0-10.166,8.577,59.047,59.047,0,0,0-13.118,20.932c-3.5,9.83-3.083,19.754-1.212,29.616,2.1-.46,4.179-.975,6.223-1.542,4.878-1.354,9.706-3.683,12.772-7.713,5.977-7.857,2.769-17.967,5.731-26.743,1.615-4.786,3.282-9.094,2.477-14.207C7016.665,640.683,7016.644,640.551,7016.619,640.418Z" transform="translate(-6988.062 -620.697)"/><path class="a" d="M8350.977,1149.359a39.006,39.006,0,0,0,7.271,39.826,70.767,70.767,0,0,0,1.312-11.842,121.55,121.55,0,0,0-2.217-27.047A40.139,40.139,0,0,1,8350.977,1149.359Z" transform="translate(-8131.417 -1055.617)"/><path class="a" d="M7024.648,1018.457a19.262,19.262,0,0,0-9.615-7.134c-5.524-1.963-11.586-2.288-17.157-4.086,1.978,10.038,5.393,20.009,7.632,29.747q.172.746.332,1.493c1.626,7.623,2.288,15.355.995,23.009a33.26,33.26,0,0,0,6.572-1.525c5.023-1.75,9.76-5.29,12.213-10.092,2.836-5.552.625-9.677-.563-15.277C7023.831,1028.817,7028.189,1023.9,7024.648,1018.457Z" transform="translate(-6996.31 -936.167)"/><path class="a" d="M7473.043,591.8a88.479,88.479,0,0,0-15.27-6.279,18.966,18.966,0,0,1-5.983,6.864,24.35,24.35,0,0,1-10.729,3.865,15.429,15.429,0,0,0,8.707,5.38c6.377,1.22,10.43,2.046,15.048,7.016,3.441,3.7,6.252,6.99,11.457,7.7a26.176,26.176,0,0,0,14.964-2.852,41.361,41.361,0,0,0,5.495-3.334,10.449,10.449,0,0,1-.993-.576C7487.688,604.245,7481.7,596.355,7473.043,591.8Z" transform="translate(-7368.8 -581.723)"/><path class="a" d="M8364.463,1108.533a40.054,40.054,0,0,0,6.363.936c-.589-2.935-1.3-5.838-2.139-8.685A33.333,33.333,0,0,0,8364.463,1108.533Z" transform="translate(-8144.904 -1014.792)"/><path class="a" d="M8182.507,847.882a23.482,23.482,0,0,0,.165,8.949c1.481,6.493,7.825,10.689,9.983,17.105,2.309,6.859,4.232,13.944,10.41,18.425a22.7,22.7,0,0,0,8.172,3.612,33.337,33.337,0,0,1,4.227-7.748,85.777,85.777,0,0,0-4.029-10.953C8204.943,862.848,8194.721,853.868,8182.507,847.882Z" transform="translate(-7991.679 -802.231)"/><path class="a" d="M8241.832,1522.061a23.291,23.291,0,0,0-16.411,10.957,23.719,23.719,0,0,1,6.7,2.677,41.954,41.954,0,0,0,14.986-13.988A31.21,31.21,0,0,0,8241.832,1522.061Z" transform="translate(-8028.041 -1368.566)"/><path class="a" d="M8048.959,1595.2a48.247,48.247,0,0,0,18.571,1.323,48.928,48.928,0,0,0,6.777-1.31,25.13,25.13,0,0,1,2.8-6.462C8067.61,1586.51,8056.645,1589.594,8048.959,1595.2Z" transform="translate(-7879.728 -1424.301)"/><path class="a" d="M8207.868,1599.1a42.939,42.939,0,0,0,9.5-3.785,23.722,23.722,0,0,0-6.7-2.677A25.164,25.164,0,0,0,8207.868,1599.1Z" transform="translate(-8013.288 -1428.182)"/><path class="a" d="M7042.149,1640.484c-4.132-1.76-9.506-1.8-13.169-4.557-3.044-2.288-3.17-5.927-4.925-9.039-2.011-3.564-6.466-5.3-10.453-4.661a36.212,36.212,0,0,0,3.87,9.385c6.518,11.218,17.056,17.47,28.737,19.876a30.49,30.49,0,0,1,4.9-4.719A27.551,27.551,0,0,0,7042.149,1640.484Z" transform="translate(-7009.528 -1452.944)"/><path class="a" d="M7248.73,1741.513a32.484,32.484,0,0,1,4.463,5.837,67.38,67.38,0,0,0,20.772-2.538l1.349-9.075C7266.375,1733.363,7256.266,1735.715,7248.73,1741.513Z" transform="translate(-7207.149 -1547.688)"/><path class="a" d="M7218.02,1781.492a57.393,57.393,0,0,0,9.361,1.119,32.463,32.463,0,0,0-4.462-5.837A30.452,30.452,0,0,0,7218.02,1781.492Z" transform="translate(-7181.337 -1582.948)"/></g><g transform="translate(6942.546 620.583)"><path class="e" d="M7436.7,1011.2a6.032,6.032,0,0,1-.965-2.726c-.072-2.132,1.833-3.854,2.142-5.965.4-2.707-1.86-5.019-4.015-6.7s-4.611-3.587-4.851-6.312a8.846,8.846,0,0,1,.652-3.565c2.122-6.246,5.108-12.341,5.534-18.924.613-9.464-4.374-18.734-11.653-24.813s-16.6-9.274-25.967-10.754a33.675,33.675,0,0,0-14.467.412,9.137,9.137,0,0,0-3.925,2.023c-1.077,1.093-1.723,2.9-3.168,3.6-1.556.751-3.43.777-5.055,1.48a17.654,17.654,0,0,0-4.683,3c-5.823,5.163-6.854,13.425-7.5,20.755q-.683,7.748-1.365,15.5a18.274,18.274,0,0,1-.945,5.106c-1.143,2.919-3.667,5.021-5.8,7.32s-4.031,5.3-3.438,8.375a16.419,16.419,0,0,0,1.536,3.758,21.359,21.359,0,0,1,1.912,11.13,8.387,8.387,0,0,1-1.244,4,21.617,21.617,0,0,1-2.219,2.328c-1.759,1.86-3.146,4.516-2.353,7.115a9.163,9.163,0,0,0,2.367,3.941,9.04,9.04,0,0,0,4.119,1.83,5.324,5.324,0,0,1,3.887,3.74,26.261,26.261,0,0,1,.9,4.656c.128.958.093,2.383.663,3.215.279.407.591.822.591.822q.3.405.628.8.85-5.948,1.7-11.9a17.394,17.394,0,0,1,17.218-14.925h10.747a5.667,5.667,0,0,0,2.634-1.091c2.713-2.068,2.111-6.144,1.97-9.118-.1-2.031-.754-4-.882-6.027h18.535c-.187,1.96-.585,3.894-.768,5.857a32.488,32.488,0,0,0-.075,3.8c.069,2.808,1,6.582,4.548,6.582H7424.4a17.4,17.4,0,0,1,17.218,14.925l.922,6.438a28.128,28.128,0,0,0,2.813-11.138,18.408,18.408,0,0,0-2.364-10.091C7441.192,1016.625,7438.454,1014.271,7436.7,1011.2Z" transform="translate(-7344.634 -930.859)"/><path class="f" d="M7534.355,1111.752c-3.562,2.527-7.633,4.341-10.9,7.233-5.892,5.207-8.478,13.406-8.408,21.268s2.5,15.5,5.267,22.863l11.036,3.243,7.471-4.147,2.512-61.006C7541.142,1105.568,7537.916,1109.225,7534.355,1111.752Z" transform="translate(-7487.857 -1074.032)"/><path class="g" d="M7476.749,1401.083H7466c-3.552,0-4.479-3.774-4.548-6.582a32.386,32.386,0,0,1,.075-3.8c.182-1.962.581-3.9.768-5.856l-18.536,0c.13,2.032.786,4,.883,6.027.143,2.974.744,7.05-1.97,9.118a5.669,5.669,0,0,1-2.633,1.091h-10.748a17.394,17.394,0,0,0-17.218,14.925l-3.8,25.581-1.348,9.075a67.632,67.632,0,0,0,6.718-2.283q2.153-.862,4.3-1.809c14.352-6.323,28.308-15.286,40.77-24.486,5.981-4.416,12.888-8.267,20.54-8.18,5.354.061,10.245,1.984,15.023,4.221l-.3-2.119A17.394,17.394,0,0,0,7476.749,1401.083Z" transform="translate(-7396.988 -1312.428)"/><path class="h" d="M7600.038,1081.408c-.823-6.037-3.8-12.915-9.506-15.751-4.517-2.245-10.144-2.589-15.087-2.083-17.781,1.821-20.18,20.578-20.079,25.24q.005.2.009.4a46.3,46.3,0,0,0,1.121,10.1c2.155,8.728,9.734,19.385,19.172,20.924a14.672,14.672,0,0,0,9.788-2.171,27.967,27.967,0,0,0,9.742-10.766,44.365,44.365,0,0,0,4.616-17.465,40.7,40.7,0,0,0,.244-8.257C7600.052,1081.523,7600.045,1081.465,7600.038,1081.408Z" transform="translate(-7521.749 -1042.232)"/><path class="e" d="M7673.7,1044.282c-.805,2.663-1.324,5.865.615,8.177,2.468,2.943,6.666,2.936,9.835,4.661a22.362,22.362,0,0,1,2.555,1.625c10.365,7.623,13.433,23.692,6.241,34.429l3.044.3,10.528-22.97-9.571-24.247Z" transform="translate(-7620.605 -1026.189)"/><path class="e" d="M7478.933,1005.983l-24.028,29.67-12.655,34.4,11.765,11.432,4.968,1.167c-2.66-7.074,4.651-14.578-.081-21.284-.715-1.015-1.628-1.875-2.382-2.862a9.706,9.706,0,0,1-1.486-6.935,19.523,19.523,0,0,1,5.474-10.987c2.925-3.049,6.768-5.017,10.318-7.225,4.121-2.562,9.764-6.662,9.321-12.19C7480.148,1021.165,7478.933,1005.983,7478.933,1005.983Z" transform="translate(-7426.679 -993.999)"/></g><g transform="translate(6977.319 609.85)"><g transform="translate(0)"><path class="i" d="M7621.455,984.869a9.149,9.149,0,0,1-5.531,7.135,13.294,13.294,0,0,1-9.151.2,28.508,28.508,0,0,1-8.24-4.483c-2.974-2.181-5.87-4.677-9.381-5.69-4.675-1.348-9.712.145-14.47-.837a19.3,19.3,0,0,1-7.169-3.33,15.633,15.633,0,0,1-3.814-3.633,10.439,10.439,0,0,1-.891-1.534,11.578,11.578,0,0,0,2.016,5.924,15.633,15.633,0,0,0,3.814,3.634,19.3,19.3,0,0,0,7.169,3.329c4.757.982,9.795-.51,14.469.837,3.514,1.013,6.409,3.509,9.381,5.69a28.514,28.514,0,0,0,8.241,4.483,13.3,13.3,0,0,0,9.151-.2,9.146,9.146,0,0,0,5.53-7.135,8.292,8.292,0,0,0-1.085-4.965C7621.487,984.487,7621.476,984.678,7621.455,984.869Z" transform="translate(-7562.779 -955.289)"/><path class="j" d="M7619.144,890.049c-2.886-2.187-6.865-2.339-9.766-4.506-4.011-3-4.731-8.742-7.233-13.139-3.291-5.784-10.069-8.625-17.1-8.82-8.788-.243-17.977,3.642-21.271,11.079a13.509,13.509,0,0,0-1.113,6.317,10.527,10.527,0,0,0,.892,1.534,15.642,15.642,0,0,0,3.814,3.634,19.3,19.3,0,0,0,7.169,3.33c4.757.981,9.795-.511,14.469.837,3.513,1.013,6.409,3.509,9.382,5.69a28.53,28.53,0,0,0,8.239,4.483,13.3,13.3,0,0,0,9.152-.2,9.147,9.147,0,0,0,5.53-7.135c.021-.191.032-.383.039-.574A8.378,8.378,0,0,0,7619.144,890.049Z" transform="translate(-7562.626 -863.574)"/></g><path class="j" d="M7800.829,965.486a15.339,15.339,0,0,1,8.481-3.347,14.9,14.9,0,0,1,5.688.74l1.036-3.831C7808.133,956.2,7800.829,965.486,7800.829,965.486Z" transform="translate(-7762.832 -943.363)"/></g><g transform="translate(6866.232 615.278)"><g transform="translate(0 6.857)"><path class="k" d="M6930.466,940.588h-45.007a19.228,19.228,0,0,0-19.229,19.228h0a19.228,19.228,0,0,0,19.229,19.228h45.007a19.366,19.366,0,0,0,3.087-.248,17.785,17.785,0,0,0,15.632,7.8,22.916,22.916,0,0,1-7.292-8.688c-.33-.691-.611-1.371-.852-2.033a19.209,19.209,0,0,0,8.653-16.059h0A19.229,19.229,0,0,0,6930.466,940.588Z" transform="translate(-6866.231 -940.588)"/></g><g transform="translate(13.527 0)"><g transform="translate(4.914)"><path class="l" d="M7023.479,906.4c-2.266-.48-3.858-2.023-3.556-3.445.273-1.288,2-2.035,4.012-1.808l-3.273-3.539-38.827,2.773,51.5,10.921-5.5-5.946C7027.116,906.334,7025.361,906.795,7023.479,906.4Z" transform="translate(-6981.834 -897.604)"/><g transform="translate(38.052 3.498)"><path class="m" d="M7221.736,921.5c.215-1.014,1.337-1.69,2.784-1.822l-.092-.1c-2.007-.227-3.739.521-4.012,1.808-.3,1.422,1.291,2.964,3.555,3.445a6.443,6.443,0,0,0,1.465.141c-.047-.009-.1-.016-.144-.026C7223.028,924.462,7221.435,922.92,7221.736,921.5Z" transform="translate(-7220.379 -919.535)"/><path class="n" d="M7228.7,922.235c-.3,1.422,1.292,2.964,3.556,3.445.049.01.1.017.144.027a3.627,3.627,0,0,0,2.885-1.185l-3.8-4.109C7230.034,920.545,7228.912,921.221,7228.7,922.235Z" transform="translate(-7227.339 -920.273)"/><path class="o" d="M7228.7,922.235c-.3,1.422,1.292,2.964,3.556,3.445.049.01.1.017.144.027a3.627,3.627,0,0,0,2.885-1.185l-3.8-4.109C7230.034,920.545,7228.912,921.221,7228.7,922.235Z" transform="translate(-7227.339 -920.273)"/></g></g><g transform="translate(0 2.773)"><path class="p" d="M6951.1,937.842a3.033,3.033,0,0,0,2.339,3.6l4.163.883a4.31,4.31,0,1,1,8.151,1.728l33.244,7.051a3.034,3.034,0,0,0,3.6-2.339l.483-2.273c-.075-.012-.152-.026-.228-.042a4.382,4.382,0,0,1,1.818-8.572c.077.016.151.034.225.054l2.551-12.024-51.5-10.921Z" transform="translate(-6951.028 -914.985)"/><path class="q" d="M6997.381,1058.1a4.314,4.314,0,0,0-5.2,4.43l8.151,1.728a4.31,4.31,0,0,0-2.952-6.159Z" transform="translate(-6985.613 -1035.187)"/><path class="r" d="M7254.184,1061.354a4.382,4.382,0,0,0,3.377,5.2c.075.016.152.03.228.042l1.815-8.56c-.073-.02-.149-.038-.226-.054A4.382,4.382,0,0,0,7254.184,1061.354Z" transform="translate(-7205.745 -1035.087)"/></g><g transform="translate(32.324 2.665)"><path class="s" d="M7157.816,917.531c-1.733-.368-2.978-1.429-2.777-2.371a1.125,1.125,0,0,1,.438-.65c-.953.112-1.661.521-1.791,1.132-.2.942,1.044,2,2.777,2.371a3.942,3.942,0,0,0,3.063-.39A5.326,5.326,0,0,1,7157.816,917.531Z" transform="translate(-7153.666 -914.478)"/><path class="t" d="M7164.314,914.436a5.318,5.318,0,0,0-1.709-.093,1.121,1.121,0,0,0-.439.65c-.2.942,1.043,2,2.778,2.371a5.323,5.323,0,0,0,1.709.093,1.121,1.121,0,0,0,.439-.649C7167.292,915.866,7166.048,914.8,7164.314,914.436Z" transform="translate(-7160.792 -914.312)"/><path class="u" d="M7164.314,914.436a5.318,5.318,0,0,0-1.709-.093,1.121,1.121,0,0,0-.439.65c-.2.942,1.043,2,2.778,2.371a5.323,5.323,0,0,0,1.709.093,1.121,1.121,0,0,0,.439-.649C7167.292,915.866,7166.048,914.8,7164.314,914.436Z" transform="translate(-7160.792 -914.312)"/></g><g transform="translate(6.564 8.134)"><path class="v" d="M6997.381,1058.1a4.314,4.314,0,0,0-5.2,4.43l1.157.245a4.308,4.308,0,0,1,7.218-1.878A4.306,4.306,0,0,0,6997.381,1058.1Z" transform="translate(-6992.178 -1040.549)"/><path class="w" d="M7004.508,1068.188a4.308,4.308,0,0,0-5.046,3.066l6.994,1.483a2.727,2.727,0,0,0-1.948-4.549Z" transform="translate(-6998.3 -1049.031)"/><path class="x" d="M7004.508,1068.188a4.308,4.308,0,0,0-5.046,3.066l6.994,1.483a2.727,2.727,0,0,0-1.948-4.549Z" transform="translate(-6998.3 -1049.031)"/><path class="y" d="M7255.331,1063.891a4.359,4.359,0,0,1,.8-1.741,4.38,4.38,0,0,0,1.433,7.988c.075.016.152.03.228.042l.273-1.284A4.383,4.383,0,0,1,7255.331,1063.891Z" transform="translate(-7212.309 -1044.036)"/><path class="z" d="M7262.172,1058.563a4.383,4.383,0,0,0,1.934,6.746l1.543-7.277c-.074-.02-.149-.038-.225-.054A4.367,4.367,0,0,0,7262.172,1058.563Z" transform="translate(-7218.354 -1040.449)"/><path class="aa" d="M7262.172,1058.563a4.383,4.383,0,0,0,1.934,6.746l1.543-7.277c-.074-.02-.149-.038-.225-.054A4.367,4.367,0,0,0,7262.172,1058.563Z" transform="translate(-7218.354 -1040.449)"/><path class="ab" d="M7167.929,986.043a4.061,4.061,0,0,1,2.2-2.815,4.067,4.067,0,1,0,1.4,7.709,4.116,4.116,0,0,1-.469-.071A4.068,4.068,0,0,1,7167.929,986.043Z" transform="translate(-7138.012 -977.689)"/><path class="ac" d="M7181.931,983.392a4.123,4.123,0,0,0-.469-.07,4.061,4.061,0,1,0,.469.07Z" transform="translate(-7149.34 -977.783)"/><path class="ad" d="M7181.931,983.392a4.123,4.123,0,0,0-.469-.07,4.061,4.061,0,1,0,.469.07Z" transform="translate(-7149.34 -977.783)"/><path class="ae" d="M7081.753,989.734a3.141,3.141,0,0,1,1.58-2.114,3.149,3.149,0,1,0,1.054,5.882c-.068-.01-.136-.018-.206-.033A3.15,3.15,0,0,1,7081.753,989.734Z" transform="translate(-7065.769 -981.369)"/><path class="af" d="M7093.808,987.825c-.068-.015-.137-.023-.206-.033a3.149,3.149,0,0,0,.849,5.849c.068.014.136.023.206.033a3.149,3.149,0,0,0-.849-5.849Z" transform="translate(-7076.038 -981.54)"/><path class="ag" d="M7093.808,987.825c-.068-.015-.137-.023-.206-.033a3.149,3.149,0,0,0,.849,5.849c.068.014.136.023.206.033a3.149,3.149,0,0,0-.849-5.849Z" transform="translate(-7076.038 -981.54)"/><path class="ah" d="M7116.107,1060.68a2.248,2.248,0,0,0-1.161,4.336,2.246,2.246,0,0,1,2.526-3.436A2.233,2.233,0,0,0,7116.107,1060.68Z" transform="translate(-7094.057 -1042.759)"/><path class="ai" d="M7123.235,1065.94a2.245,2.245,0,0,0-2.3,3.5,2.345,2.345,0,0,0,.229.061,2.245,2.245,0,0,0,2.3-3.5A2.146,2.146,0,0,0,7123.235,1065.94Z" transform="translate(-7100.048 -1047.18)"/><path class="aj" d="M7123.235,1065.94a2.245,2.245,0,0,0-2.3,3.5,2.345,2.345,0,0,0,.229.061,2.245,2.245,0,0,0,2.3-3.5A2.146,2.146,0,0,0,7123.235,1065.94Z" transform="translate(-7100.048 -1047.18)"/><path class="ak" d="M7011.006,949.175a3.654,3.654,0,1,0-1.673,6.719,3.654,3.654,0,0,1,1.673-6.719Z" transform="translate(-7003.274 -948.598)"/><path class="al" d="M7022.961,952.218a3.654,3.654,0,1,0,1.6,3.835A3.655,3.655,0,0,0,7022.961,952.218Z" transform="translate(-7015.231 -951.64)"/><path class="am" d="M7022.961,952.218a3.654,3.654,0,1,0,1.6,3.835A3.655,3.655,0,0,0,7022.961,952.218Z" transform="translate(-7015.231 -951.64)"/></g></g></g><g transform="translate(7017.27 647.476)"><g transform="translate(0 28.37)"><path class="an" d="M7891.138,1277.3h-39.5a22.9,22.9,0,0,0-22.666,19.641c-.5.093-1.015.175-1.547.239a25.545,25.545,0,0,1-14.356-2.571,33.328,33.328,0,0,0,12.32,9.214,32.6,32.6,0,0,0,3.9,1.392,22.906,22.906,0,0,0,22.346,17.882h39.5a22.9,22.9,0,0,0,22.9-22.9h0A22.9,22.9,0,0,0,7891.138,1277.3Z" transform="translate(-7813.074 -1277.299)"/></g><g transform="translate(36.212 0)"><g transform="translate(0 12.748)"><path class="ao" d="M8171.654,1245.39c.169.086.333.176.5.271q-.233-.21-.477-.406Z" transform="translate(-8150.667 -1234.745)"/><path class="ap" d="M8052.483,1187.879a10.243,10.243,0,0,0-7.942,8.7l-4.44,34.677a1.814,1.814,0,0,0,1.569,2.031l.04.005,4.542-35.46a10.244,10.244,0,0,1,7.941-8.7l1.222-9.529-1.842-.236Z" transform="translate(-8040.085 -1179.368)"/><path class="aq" d="M8070.128,1191.526q-.242-.142-.494-.271l.018-.135a10.141,10.141,0,0,0-1.729-1.118l1.092-8.511-5.039-.645-1.221,9.529a10.243,10.243,0,0,0-7.941,8.7l-4.542,35.46,16.674,2.135a1.814,1.814,0,0,0,2.03-1.57l4.441-34.677A10.226,10.226,0,0,0,8070.128,1191.526Z" transform="translate(-8048.647 -1180.61)"/></g><g transform="translate(13.488)"><rect class="ar" width="7.646" height="6.935" transform="translate(0 12.748) rotate(-82.702)"/><path class="as" d="M8139.887,1100.175l-5.6-.718a.643.643,0,0,0-.72.556l-.164,1.276,6.88.881.163-1.276A.643.643,0,0,0,8139.887,1100.175Z" transform="translate(-8132.003 -1099.452)"/><rect class="at" width="3.352" height="6.935" transform="translate(0.971 5.163) rotate(-82.702)"/><path class="au" d="M8135.082,1111.736l-.183-.023-6.879-.881-.181-.023a.475.475,0,0,0-.531.41l-.3,2.385a.474.474,0,0,0,.409.53l.183.023,6.879.881.181.023a.475.475,0,0,0,.531-.41l.3-2.385A.474.474,0,0,0,8135.082,1111.736Z" transform="translate(-8126.624 -1108.994)"/></g><path class="av" d="M8100.077,1308.007q-1.611,12.576-3.222,25.151a43.647,43.647,0,0,0,12.2,1.563q1.61-12.576,3.222-25.152A43.655,43.655,0,0,1,8100.077,1308.007Z" transform="translate(-8087.799 -1274.739)"/><path class="aw" d="M8100.077,1308.007q-1.611,12.576-3.222,25.151a43.647,43.647,0,0,0,12.2,1.563q1.61-12.576,3.222-25.152A43.655,43.655,0,0,1,8100.077,1308.007Z" transform="translate(-8087.799 -1274.739)"/><path class="ax" d="M8114.85,1330.534l-2.426,18.938a33.249,33.249,0,0,0,10.09,1.292l2.426-18.938A33.257,33.257,0,0,1,8114.85,1330.534Z" transform="translate(-8100.884 -1293.672)"/><g transform="translate(15.619 42.778)"><path class="e" d="M8143.441,1368.447l-.067.532a.943.943,0,0,0,.815,1.056l5.76.738.309-2.4-5.76-.738A.944.944,0,0,0,8143.441,1368.447Z" transform="translate(-8142.51 -1367.623)"/><path class="e" d="M8140.484,1396.923l0,.021a.4.4,0,0,0,.344.446l6.3.807.1-.813-6.3-.807A.4.4,0,0,0,8140.484,1396.923Z" transform="translate(-8140.082 -1391.956)"/><path class="e" d="M8138,1416.3l0,.021a.4.4,0,0,0,.346.446l6.3.807.1-.813-6.3-.807A.4.4,0,0,0,8138,1416.3Z" transform="translate(-8137.996 -1408.245)"/></g><g transform="translate(21.934 28.517)"><path class="ay" d="M8221.446,1476.677c-5.527.95-9.851,2.644-9.656,3.784s4.837,1.295,10.366.345,9.853-2.644,9.656-3.784S8226.977,1475.727,8221.446,1476.677Z" transform="translate(-8206.329 -1444.497)"/><path class="az" d="M8250.857,1412.592c-.224-1.3-.488-2.6-.711-3.9-.112-.643-.211-1.289-.292-1.937a5.886,5.886,0,0,1-.048-1.8,4.429,4.429,0,0,1,.577-1.521l-4.324.743a5.518,5.518,0,0,1,1,1.238,6.956,6.956,0,0,1,.709,2.206c.3,1.5.5,3.021.762,4.53q.362,2.108.726,4.217l0,.014c.306,1.78,2.494,1.4,2.19-.376Q8251.149,1414.3,8250.857,1412.592Z" transform="translate(-8235.137 -1383.459)"/><path class="ba" d="M8197.634,1282.935l-20.021,3.439,1.562,9.089a9.292,9.292,0,0,0,10.731,7.585l1.706-.293a9.292,9.292,0,0,0,7.585-10.731Z" transform="translate(-8177.607 -1282.183)"/><path class="ay" d="M8187.3,1278.917c-5.529.95-9.876,2.514-9.706,3.495s4.786,1.005,10.315.056,9.875-2.514,9.706-3.495S8192.825,1277.967,8187.3,1278.917Z" transform="translate(-8177.585 -1278.22)"/><path class="bb" d="M8208.475,1325.936l-18.333,3.149.224,1.3a9.3,9.3,0,1,0,18.332-3.148Z" transform="translate(-8188.139 -1318.324)"/><path class="bc" d="M8199.063,1320.878c-5.063.869-9.005,2.5-8.809,3.646s4.459,1.368,9.52.5,9.007-2.5,8.811-3.646S8204.126,1320.009,8199.063,1320.878Z" transform="translate(-8188.229 -1313.628)"/></g></g></g></g></svg>