<svg xmlns="http://www.w3.org/2000/svg" xmlns:xlink="http://www.w3.org/1999/xlink" width="258.641" height="202.589" viewBox="0 0 258.641 202.589"><defs><style>.a{fill:url(#a);}.b{fill:url(#b);}.c{fill:url(#f);}.d{fill:url(#g);}.e{fill:#fff;}.f{fill:url(#h);}.g{fill:url(#i);}.h{fill:url(#j);}.i{fill:url(#k);}.j{fill:url(#l);}.k{fill:url(#m);}.l{fill:url(#n);}.m{fill:#fcd118;}.n{fill:url(#o);}.o{fill:url(#q);}.p{fill:url(#s);}.q{fill:url(#t);}.r{fill:url(#u);}.s{fill:url(#v);}.t{fill:url(#w);}.u{fill:url(#x);}.v{fill:url(#y);}.w{fill:#939598;}.x{fill:url(#z);}.y{fill:#bcbec0;}.z{fill:url(#aa);}.aa{fill:url(#ab);}.ab{fill:url(#ac);}.ac{fill:url(#ad);}.ad{fill:url(#ae);}.ae{fill:url(#af);}.af{fill:url(#ag);}.ag{fill:url(#ah);}.ah{fill:#9d9e9f;}.ai{fill:url(#ai);}</style><linearGradient id="a" x1="2.893" y1="-1.893" x2="8.843" y2="-7.843" gradientUnits="objectBoundingBox"><stop offset="0" stop-color="#582d7f"/><stop offset="0.212" stop-color="#4a5094"/><stop offset="0.754" stop-color="#29a6c7"/><stop offset="1" stop-color="#1dc9dc"/></linearGradient><linearGradient id="b" x1="0" y1="0.5" x2="1" y2="0.5" xlink:href="#a"/><linearGradient id="f" x1="0.493" y1="0.997" x2="0.504" y2="-0.594" gradientUnits="objectBoundingBox"><stop offset="0" stop-color="#d1d3d4"/><stop offset="1" stop-color="#9d9e9f"/></linearGradient><linearGradient id="g" x1="0.179" y1="2.855" x2="0.478" y2="0.508" gradientUnits="objectBoundingBox"><stop offset="0" stop-color="#9d9e9f"/><stop offset="1" stop-color="#d1d3d4"/></linearGradient><linearGradient id="h" x1="1.09" y1="-0.548" x2="0.204" y2="1.027" xlink:href="#a"/><linearGradient id="i" x1="0.248" y1="0.928" x2="0.703" y2="0.009" gradientUnits="objectBoundingBox"><stop offset="0" stop-color="#bbb"/><stop offset="0.045" stop-color="#ccc"/><stop offset="0.108" stop-color="#dcdddd"/><stop offset="0.187" stop-color="#e8e9e9"/><stop offset="0.297" stop-color="#eff0f0"/><stop offset="0.602" stop-color="#f1f2f2"/><stop offset="1" stop-color="#fff"/></linearGradient><linearGradient id="j" x1="0.5" y1="0.562" x2="0.5" y2="-0.389" xlink:href="#i"/><linearGradient id="k" x1="-0.192" y1="1.513" x2="0.337" y2="0.651" xlink:href="#i"/><linearGradient id="l" y1="0.5" x2="1" y2="0.5" gradientUnits="objectBoundingBox"><stop offset="0" stop-color="#ffde39"/><stop offset="0.094" stop-color="#fec63c"/><stop offset="0.286" stop-color="#fe9843"/><stop offset="0.415" stop-color="#fe7d4b"/><stop offset="0.652" stop-color="#fe4f59"/><stop offset="1" stop-color="#ed327f"/></linearGradient><linearGradient id="m" x1="1.222" y1="1.117" x2="0.415" y2="0.397" xlink:href="#g"/><linearGradient id="n" x1="-0.176" y1="-0.149" x2="0.664" y2="0.611" xlink:href="#g"/><linearGradient id="o" x1="0.114" y1="0.902" x2="0.904" y2="0.071" xlink:href="#l"/><linearGradient id="q" x1="0" y1="0.5" x2="1" y2="0.5" xlink:href="#f"/><linearGradient id="s" y1="0.5" x2="1" y2="0.5" gradientUnits="objectBoundingBox"><stop offset="0" stop-color="#42e397"/><stop offset="0.075" stop-color="#42e099"/><stop offset="1" stop-color="#3cb6b5"/></linearGradient><linearGradient id="t" x1="0.5" y1="-8.531" x2="0.5" y2="13.149" gradientUnits="objectBoundingBox"><stop offset="0" stop-color="#42e397"/><stop offset="1" stop-color="#3cb6b5"/></linearGradient><linearGradient id="u" x1="0.5" y1="-8.531" x2="0.5" y2="13.149" xlink:href="#t"/><linearGradient id="v" x1="0.5" y1="-11.359" x2="0.5" y2="10.323" xlink:href="#t"/><linearGradient id="w" x1="0.5" y1="-11.358" x2="0.5" y2="10.322" xlink:href="#t"/><linearGradient id="x" x1="1.028" y1="0.485" x2="0.641" y2="0.495" gradientUnits="objectBoundingBox"><stop offset="0" stop-color="#d1d3d4"/><stop offset="1" stop-color="#f1f2f2"/></linearGradient><linearGradient id="y" x1="-2.721" y1="0.629" x2="0.698" y2="0.506" xlink:href="#t"/><linearGradient id="z" x1="-2.188" y1="4.01" x2="3.22" y2="-3.053" gradientUnits="objectBoundingBox"><stop offset="0" stop-color="#582d7f"/><stop offset="1" stop-color="#1dc9dc"/></linearGradient><linearGradient id="aa" x1="-0.189" y1="0.5" x2="2.827" y2="0.5" xlink:href="#t"/><linearGradient id="ab" x1="-2.975" y1="3.975" x2="1.233" y2="-0.233" xlink:href="#a"/><linearGradient id="ac" x1="-0.572" y1="1.572" x2="8.833" y2="-7.833" gradientUnits="objectBoundingBox"><stop offset="0" stop-color="#582d7f"/><stop offset="0.053" stop-color="#543584"/><stop offset="0.632" stop-color="#3194bc"/><stop offset="0.756" stop-color="#29a7c7"/><stop offset="1" stop-color="#1dc9dc"/></linearGradient><linearGradient id="ad" x1="0.493" y1="1.316" x2="0.462" y2="4.12" xlink:href="#i"/><linearGradient id="ae" x1="0.5" y1="-0.246" x2="0.5" y2="0.649" xlink:href="#i"/><linearGradient id="af" x1="0.5" y1="-0.197" x2="0.5" y2="1.442" xlink:href="#t"/><linearGradient id="ag" x1="0.01" y1="0.5" x2="0.987" y2="0.5" xlink:href="#t"/><linearGradient id="ah" y1="0.5" x2="1" y2="0.5" gradientUnits="objectBoundingBox"><stop offset="0" stop-color="#ceecfa"/><stop offset="1" stop-color="#ee6ee4"/></linearGradient><linearGradient id="ai" x1="0.5" y1="10.204" x2="0.5" y2="6.153" xlink:href="#a"/></defs><g transform="translate(-11099.803 -562.244)"><circle class="a" cx="9.082" cy="9.082" r="9.082" transform="matrix(0.977, -0.212, 0.212, 0.977, 11121.964, 682.925)"/><path class="b" d="M11461.145,667.743c-6.85-21.493-27.844-37.944-50.738-39.758-8.992-.712-18.635.509-26.513-3.807-10.346-5.667-13.566-18.4-19.108-28.665-9.6-17.781-28.692-29.985-49.025-32.67s-41.479,3.8-57.469,16.364c-24.166,18.993-45.878,61.551-22.359,88.736,4.5,5.2,10.478,9.555,12.725,16,2.379,6.831-.024,14.235-.91,21.4-2.69,21.738,10.362,44.28,30.427,53.956s45.679,6.336,63-7.473c10.206-8.136,17.92-19.6,29.866-25.009,21.373-9.681,48.1,3.439,69.6-5.968a38.785,38.785,0,0,0,20.487-22.555,45.683,45.683,0,0,0,2.3-19.182A52.426,52.426,0,0,0,11461.145,667.743Z" transform="translate(-105.178 0)"/><g transform="translate(11147.248 609.187)"><path class="b" d="M12206.172,1038.074c-.6-3.479-2.863-7.041-6.556-7.7-1.8-.323-3.633.066-5.435-.182a10.516,10.516,0,0,1-4.108-1.7c-2.551-1.625-4.694-3.935-7.6-4.967a8.852,8.852,0,0,0-10.363,3.571c-1.906,2.913-2.063,6.733-4.611,9.276l7.752,46.176c9.176,3.216,21.217,4.608,28.068-3.939,3.906-4.874,3.462-10.183,2-15.846a27.35,27.35,0,0,1-.105-13.012C12206.1,1045.979,12206.84,1041.933,12206.172,1038.074Z" transform="translate(-12038.369 -993.755)"/><path class="b" d="M11430.682,1183.24q-1.816-11.945-3.633-23.89l-.011-.055-39.925,10.666c-1.312,2.905.58,6.416,3.231,7.807,5.731,3.008,12.918-1.593,15.475,6.752,1.795,5.863.5,11.427,5.294,16.234a15.764,15.764,0,0,0,17.19,3.183,7.5,7.5,0,0,0,4.242-3.8c1.142-2.751-.177-5.6-.691-8.321C11431.322,1189,11431.113,1186.084,11430.682,1183.24Z" transform="translate(-11386.687 -1107.496)"/><path class="b" d="M11559.736,873.811c-5.282-1.289-12.1-1.37-15.619-6.215-3.076-4.242-2.088-10.133-4.5-14.711-2.285-4.334-7.391-6.683-12.136-6.792-6.653-.152-12.828,3.344-18.211,6.9l17.043,37.255,47.678,15.728c3.249-6.025,4.979-14.933,1.629-21.259C11572.462,878.755,11566.084,875.361,11559.736,873.811Z" transform="translate(-11488.997 -846.089)"/></g><g transform="translate(11175.746 604.526)"><g transform="translate(0 0)"><g transform="translate(0 118.898)"><g transform="translate(49.757 9.698)"><path class="c" d="M11859.9,1620.794a57.59,57.59,0,0,0,10.46-6.612c6.284-5.008,11.622-11.275,17.583-16.617v-2.09h-28.081C11859.875,1601.271,11859.893,1614.319,11859.9,1620.794Z" transform="translate(-11859.864 -1595.476)"/></g><path class="d" d="M11559,1539.538a7.8,7.8,0,0,0,7.8,7.8h112a7.8,7.8,0,0,0,7.795-7.8v-2.7H11559Z" transform="translate(-11559.004 -1536.837)"/></g><path class="e" d="M11678.8,1081.837H11566.8a7.793,7.793,0,0,0-7.793,7.8v67.453H11686.6v-67.453A7.8,7.8,0,0,0,11678.8,1081.837Z" transform="translate(-11559.004 -1038.188)"/><path class="f" d="M11650.77,1162.5h-33.775v41.428h73.619V1162.5h-39.844Z" transform="translate(-11607.404 -1105.51)"/><g transform="translate(9.59)"><path class="g" d="M11714.658,1010.133c-4.481,2.5-5.347,2.437-8.047,4.52a40.444,40.444,0,0,0-11.385,14.829c-2.576,5.651-2.418,7.973-5.211,10.419-1.372,1.2-3.827,2.428-8.516,1.984l7.022,12.238,9.82-.813c1.306-5.957,3.826-8.814,5.953-10.323,3.6-2.557,6.709-1.677,8.93-4.631,1.849-2.458.748-4.465,1.389-9.079.762-5.5,3.19-9.234,6.549-14.185a48.936,48.936,0,0,1,13.4-13.23q-1.96-1.6-3.914-3.2A88.668,88.668,0,0,1,11714.658,1010.133Z" transform="translate(-11670.832 -968.772)"/><path class="h" d="M11711.353,1027.834c-1.2,2.345-1.082,3.276-1.876,5.513-1.912,5.378-5.484,8.118-13.891,14.995-2.928,2.394-7.77,6.377-14.086,11.687l14.747,8.489c-1.317-5.868-.172-9.22,1.1-11.191,2.515-3.889,6.315-3.63,9.756-7.994,2.182-2.766,1.723-4.223,3.53-9.647,1.173-3.523,4.332-13,11.963-19.791a35.666,35.666,0,0,1,10.667-6.445l.1-1.37a49.671,49.671,0,0,0-12.623,6.271C11717.155,1020.827,11713.67,1023.3,11711.353,1027.834Z" transform="translate(-11670.832 -979.968)"/><g transform="translate(0 70.661)"><path class="i" d="M11657.041,1258.114a5.181,5.181,0,0,0-1.742.3,6.1,6.1,0,1,0-11.68-1.562c-.313.124-1.144.74-1.437.709s-.682-.788-.885-1.029a11.194,11.194,0,0,0-4.479-3.266c-1.089-.432-2.7-.456-3.55-1.316a21.055,21.055,0,0,1-1.482-1.937,12.482,12.482,0,0,0-9.595-4.847,13.916,13.916,0,0,0-5.2,1.006v26.75h37.874l.019-.662a9.82,9.82,0,0,0,1.917-3.766c.077,0,.157.006.237.006a5.194,5.194,0,1,0,0-10.387Z" transform="translate(-11616.994 -1245.167)"/></g><path class="j" d="M11930.824,894.234l10.266,1.481,12.182-9.242-12.824-.52Z" transform="translate(-11878.923 -874.699)"/><g transform="translate(57.768 26.343)"><path class="k" d="M11966.295,983.815l7.619,8.852.953-1.352-7.092-8.243Z" transform="translate(-11966.295 -982.1)"/><path class="l" d="M11975.238,978.166l7.094,8.243,1.249-1.769-6.406-7.447Z" transform="translate(-11973.76 -977.193)"/></g><g transform="translate(58.644)"><path class="m" d="M12140.418,817.913l-12.408,1.341a4.3,4.3,0,0,0-.693.206v.044a18.132,18.132,0,0,0,2.71,6.123,17.941,17.941,0,0,0,2.462,2.86,16,16,0,0,0,5.647,3.592c.143.051.294.1.455.157a4.634,4.634,0,0,0,.2-.454l3.176-12.068A1.442,1.442,0,0,0,12140.418,817.913Z" transform="translate(-12101.562 -817.905)"/><path class="n" d="M12002.517,836.344a17.861,17.861,0,0,1-2.461-2.86,18.194,18.194,0,0,1-2.711-6.123v-.044a4.248,4.248,0,0,0-1.231.738l-24.521,21.1,11.484,13.348,24.521-21.1a4.242,4.242,0,0,0,1.022-1.31c-.16-.053-.313-.105-.454-.157A16.01,16.01,0,0,1,12002.517,836.344Z" transform="translate(-11971.592 -825.76)"/></g><path class="j" d="M12057.65,988.5l9.625-8.281,1.155-10.53-10.717,9.221Z" transform="translate(-11984.774 -944.585)"/><path class="o" d="M12086.839,882.788a4.449,4.449,0,1,0,6.272.471A4.449,4.449,0,0,0,12086.839,882.788Z" transform="translate(-12007.843 -871.159)"/><path class="e" d="M12092.316,888.37a3.487,3.487,0,1,0,4.918.369A3.487,3.487,0,0,0,12092.316,888.37Z" transform="translate(-12012.694 -876.012)"/><circle class="o" cx="3.429" cy="3.429" r="3.429" transform="matrix(0.926, -0.377, 0.377, 0.926, 66.451, 22.561)"/><path class="e" d="M12030.436,950.046a2.7,2.7,0,1,0,3.809.286A2.7,2.7,0,0,0,12030.436,950.046Z" transform="translate(-11961.276 -927.647)"/></g><rect class="p" width="8.546" height="8.546" rx="2.833" transform="translate(9.59 103.544)"/><g transform="translate(22.022 105.121)"><path class="q" d="M11697.759,1453.533h-4.892a.7.7,0,0,0,0,1.409h4.892a.7.7,0,0,0,.7-.7h0A.7.7,0,0,0,11697.759,1453.533Z" transform="translate(-11692.163 -1453.533)"/><path class="r" d="M11774.133,1453.532h-27.752a.7.7,0,0,0,0,1.409h27.752a.7.7,0,1,0,0-1.409Z" transform="translate(-11736.827 -1453.532)"/><g transform="translate(0 3.984)"><path class="s" d="M11716.977,1477.621h-24.109a.7.7,0,0,0-.7.7h0a.7.7,0,0,0,.7.7h24.109a.7.7,0,1,0,0-1.409Z" transform="translate(-11692.163 -1477.621)"/><path class="t" d="M11871.17,1477.62h-8.521a.7.7,0,1,0,0,1.409h8.521a.7.7,0,1,0,0-1.409Z" transform="translate(-11833.864 -1477.62)"/></g></g></g><g transform="translate(57.945 122.89)"><path class="e" d="M11919.84,1560.976h-9.227a1.24,1.24,0,0,0,0,2.481h9.227a1.24,1.24,0,0,0,0-2.481Z" transform="translate(-11909.373 -1560.976)"/></g></g><g transform="translate(11099.803 613.566)"><g transform="translate(0 0)"><path class="u" d="M11271.02,872.567l-71.232.265.012,58.116,53.807-.2,11.281-.042,6.35-.024a7.794,7.794,0,0,0,7.764-7.824l-.158-42.526A7.794,7.794,0,0,0,11271.02,872.567Z" transform="translate(-11183.251 -872.567)"/><g transform="translate(0 0.265)"><path class="v" d="M11112.632,874.184a7.825,7.825,0,0,0-1.2.1c.112.174-2.042.623-2.042.623a7.8,7.8,0,0,0-4.522,7.1l.06,16.147-3.466.013a1.573,1.573,0,0,0-1.657,1.469l.027,7.439a1.573,1.573,0,0,0,1.669,1.456l3.466-.013.06,16.015a7.8,7.8,0,0,0,4.575,7.07l2.047.609a7.847,7.847,0,0,0,1.2.088l3.5-.013-.012-58.117Z" transform="translate(-11099.803 -874.17)"/><path class="e" d="M11160,1173.69a1.11,1.11,0,0,0-1.107,1.116l.025,6.782a7.722,7.722,0,0,0,2.046.608,1.108,1.108,0,0,0,.177-.606l-.025-6.793A1.11,1.11,0,0,0,11160,1173.69Z" transform="translate(-11149.117 -1124.155)"/><path class="e" d="M11159.809,874.84a7.754,7.754,0,0,0-2.043.623l.026,6.782a1.111,1.111,0,0,0,1.115,1.108h.033a1.11,1.11,0,0,0,1.074-1.116l-.023-6.793A1.122,1.122,0,0,0,11159.809,874.84Z" transform="translate(-11148.179 -874.729)"/></g><g transform="translate(21.125 3.153)"><g transform="translate(0.169 45.704)"><path class="e" d="M11233.844,1172.165h0l-3.117.012-.012-3.118a1.076,1.076,0,0,0-1.074-1.071h0a1.075,1.075,0,0,0-1.072,1.079l.016,4.193a1.073,1.073,0,0,0,1.074,1.071h.006l4.189-.016a1.075,1.075,0,0,0,0-2.15Z" transform="translate(-11228.561 -1167.987)"/></g><g transform="translate(63.315)"><path class="e" d="M11615.652,891.631h-.006l-4.191.016a1.075,1.075,0,0,0,0,2.15h0l3.119-.012.012,3.118a1.074,1.074,0,0,0,1.074,1.071h0a1.076,1.076,0,0,0,1.072-1.079l-.018-4.193A1.073,1.073,0,0,0,11615.652,891.631Z" transform="translate(-11610.383 -891.631)"/></g><g transform="translate(0 0.236)"><path class="e" d="M11232.807,893.056h0l-4.192.016a1.076,1.076,0,0,0-1.071,1.079l.015,4.193a1.075,1.075,0,0,0,1.074,1.071h.006a1.076,1.076,0,0,0,1.071-1.079l-.013-3.118,3.119-.012a1.075,1.075,0,0,0,0-2.15Z" transform="translate(-11227.538 -893.056)"/></g><g transform="translate(63.5 45.453)"><path class="e" d="M11616.753,1166.468h0a1.074,1.074,0,0,0-1.072,1.079l.011,3.118-3.119.012a1.075,1.075,0,0,0,.006,2.15h0l4.194-.015a1.074,1.074,0,0,0,1.07-1.079l-.015-4.193A1.074,1.074,0,0,0,11616.753,1166.468Z" transform="translate(-11611.501 -1166.468)"/></g></g><g transform="translate(30.787 19.39)"><g transform="translate(27.416)"><path class="w" d="M11454.43,989.906a.826.826,0,0,0-1.116.348l-1.485,2.829a.827.827,0,0,0,1.465.768l1.484-2.829A.826.826,0,0,0,11454.43,989.906Z" transform="translate(-11451.733 -989.811)"/></g><g transform="translate(0 2.712)"><path class="x" d="M11304.121,1257.362a17.038,17.038,0,0,0-3.386-1.23l-.128-.143-1.512,3,.031.038a17.014,17.014,0,0,1,6.766,3.412l.049,0,1.526-3.025-.155-.032A15.211,15.211,0,0,0,11304.121,1257.362Z" transform="translate(-11296.924 -1214.68)"/><path class="y" d="M11423.194,1006.408l-4.63,3.8a4.885,4.885,0,0,0-1.373,1.584l.05-.008a17.031,17.031,0,0,1,6.766,3.412l.024.039a4.879,4.879,0,0,0,.457-2.041l.3-5.981A1,1,0,0,0,11423.194,1006.408Z" transform="translate(-11395.487 -1006.209)"/><path class="y" d="M11291.547,1275.377a17.021,17.021,0,0,0-3.385-1.23l-.031-.038-1.943,3.856a2.132,2.132,0,0,0,.942,2.862l3.042,1.534a2.13,2.13,0,0,0,2.861-.943l1.944-3.854-.049,0A17.077,17.077,0,0,0,11291.547,1275.377Z" transform="translate(-11285.959 -1229.804)"/><path class="z" d="M11370.042,1041.136a17.029,17.029,0,0,0-3.385-1.23l-.049.008c-.025.045-.052.09-.073.137l-9.951,19.732.075.025a17,17,0,0,1,6.768,3.412l.01.007,9.944-19.724c.024-.048.045-.1.068-.145l-.025-.039A17.018,17.018,0,0,0,11370.042,1041.136Z" transform="translate(-11344.903 -1034.333)"/><path class="y" d="M11319.688,1161.348a17.013,17.013,0,0,0-3.386-1.23l-.074-.025-8,15.859.129.143a17.013,17.013,0,0,1,3.386,1.23,15.185,15.185,0,0,1,3.191,2.02l.153.032,7.988-15.84-.009-.007A17.042,17.042,0,0,0,11319.688,1161.348Z" transform="translate(-11304.549 -1134.643)"/></g><g transform="translate(16.905 12.691)"><path class="e" d="M11395.152,1066.663a1.076,1.076,0,0,0-1.444.476l-5.419,10.747a1.074,1.074,0,0,0,.478,1.444,1.055,1.055,0,0,0,.481.115,1.075,1.075,0,0,0,.961-.591l5.419-10.747A1.075,1.075,0,0,0,11395.152,1066.663Z" transform="translate(-11388.174 -1066.548)"/></g></g></g></g><circle class="aa" cx="12.843" cy="12.843" r="12.843" transform="translate(11289.005 585.744)"/><circle class="ab" cx="5.745" cy="5.745" r="5.745" transform="translate(11127.218 580.893) rotate(-45)"/><g transform="translate(11271.956 650.762)"><path class="ac" d="M12223.948,1100.731h-4.819v-1.472a1.935,1.935,0,0,0-2.06-1.779h-9.2a1.935,1.935,0,0,0-2.059,1.779v2.383l19.133,1.01v-1.058A.94.94,0,0,0,12223.948,1100.731Z" transform="translate(-12195.056 -1097.48)"/><path class="ad" d="M12153.614,1105.945v-1.472a1.9,1.9,0,0,0-1.989-1.78h-8.882a1.893,1.893,0,0,0-1.989,1.78v70.02h31.387v-67.268a7.109,7.109,0,0,0-.121-1.28Z" transform="translate(-12140.754 -1101.832)"/><g transform="translate(4.423 6.803)"><rect class="ae" width="22.538" height="35.203" transform="translate(0 30.655)"/><g transform="translate(0 19.694)"><rect class="af" width="22.328" height="2.069" rx="1.034"/><path class="ag" d="M12188.794,1285.321h-20.259a1.034,1.034,0,0,0,0,2.069h20.259a1.034,1.034,0,1,0,0-2.069Z" transform="translate(-12167.502 -1280.752)"/></g><g transform="translate(0 3.835)"><path class="ah" d="M12229.822,1167.909h-13.572a.493.493,0,0,0,0,.985h13.572a.493.493,0,1,0,0-.985Z" transform="translate(-12207.777 -1166.899)"/><path class="ah" d="M12189.547,1192.483H12168a.493.493,0,1,0,0,.985h21.552a.493.493,0,0,0,0-.985Z" transform="translate(-12167.502 -1187.409)"/><path class="ah" d="M12189.547,1217.058H12168a.493.493,0,1,0,0,.985h21.552a.493.493,0,0,0,0-.985Z" transform="translate(-12167.502 -1207.92)"/><path class="ah" d="M12231.937,1161.8a.516.516,0,0,0-.517.517v1.97a.517.517,0,1,0,1.033,0v-1.97A.516.516,0,0,0,12231.937,1161.8Z" transform="translate(-12220.85 -1161.803)"/><path class="ah" d="M12205.573,1210.951a.518.518,0,0,0-.517.517v1.97a.517.517,0,1,0,1.034,0v-1.97A.517.517,0,0,0,12205.573,1210.951Z" transform="translate(-12198.847 -1202.823)"/><path class="ah" d="M12233.03,1186.377a.517.517,0,0,0-.517.517v1.971a.517.517,0,0,0,1.034,0v-1.971A.517.517,0,0,0,12233.03,1186.377Z" transform="translate(-12221.762 -1182.313)"/></g><rect class="ai" width="6.84" height="6.84"/></g></g><g transform="translate(11283.011 702.914)"><path class="e" d="M12216.929,1415.327l-9.335-2.5,2.5,9.335,2.313-2.311,2.906,2.908,2.213-2.212-2.909-2.908Z" transform="translate(-12207.594 -1412.826)"/></g><g transform="translate(11136.958 562.244)"><path class="b" d="M11678.267,562.846a71.808,71.808,0,0,0-17.3-.149,17.072,17.072,0,0,1-.8,7.618,10.406,10.406,0,0,0,.678,1.6c1.943,3.688,5.882,6.173,9.816,7.253,4.9,1.343,10.169,1.058,15.156.467a39.536,39.536,0,0,0,12.527-3.594,31.755,31.755,0,0,0,6.216-3.939q-1.692-1.023-3.447-1.949A68.347,68.347,0,0,0,11678.267,562.846Z" transform="translate(-11604.642 -562.246)"/><path class="b" d="M11896.67,621.84a31.811,31.811,0,0,1-6.221,3.939,6.942,6.942,0,0,0-.093.817c-.533,9.752,12.506,13.3,20.093,12.8a21.148,21.148,0,0,0,4.686-.872A63.979,63.979,0,0,0,11896.67,621.84Z" transform="translate(-11796.756 -611.984)"/><path class="b" d="M12466.773,994.535a49.336,49.336,0,0,0,11.88,23.874,22.546,22.546,0,0,0,4.4,3.9,13.807,13.807,0,0,1-.157-1.9,12.324,12.324,0,0,1,4.47-9.413A60.965,60.965,0,0,0,12466.773,994.535Z" transform="translate(-12277.858 -923.043)"/><path class="b" d="M11379.344,565.147a79.947,79.947,0,0,0-38.723,16.338,88.363,88.363,0,0,0-16.156,16.9,14.168,14.168,0,0,0,16.238-.735c5.16-3.671,7.2-12.168,14.472-12.505a31.317,31.317,0,0,1,4.56.31,19.69,19.69,0,0,0,20.249-12.865,17.127,17.127,0,0,0,.8-7.618C11380.306,565.025,11379.825,565.084,11379.344,565.147Z" transform="translate(-11324.465 -564.521)"/><path class="b" d="M12540.67,1111.641a52.15,52.15,0,0,0-2.063-5.4,55.875,55.875,0,0,0-7.442-12.143,12.325,12.325,0,0,0-4.471,9.413,13.513,13.513,0,0,0,.159,1.9c.452,2.974,1.772,5.813,2.693,8.709,1.115,3.506,1.555,7.646-.638,10.6a22.65,22.65,0,0,1-2.82,2.784c-4.286,4.038-6.465,9.971-6.788,15.851s1.069,11.737,3.06,17.28c.3.84.627,1.685.982,2.519a39.256,39.256,0,0,0,17.313-20.962,45.619,45.619,0,0,0,2.3-19.182A52.423,52.423,0,0,0,12540.67,1111.641Z" transform="translate(-12321.659 -1006.142)"/><path class="b" d="M11749.48,1694.238c-1.62.7-2.64,2.546-4.532,2.645s-2.878-1.377-4.157-2.459c-3.915-3.312-8.032-1.418-10.451,1.99a29.288,29.288,0,0,1,9.861,9.842,60.589,60.589,0,0,0,18.529-8.34,17.234,17.234,0,0,0-3.542-2.829C11753.517,1694.1,11751.362,1693.426,11749.48,1694.238Z" transform="translate(-11663.216 -1505.744)"/><path class="b" d="M11443.1,1630.629c-4.026-.434-7.95.186-11.915.829-4.292.7-8.963,1.186-12.753-1.416-2.517-1.727-4.419-4.138-6.535-6.3-3.412-3.488-7.935-5.775-12.481-5.165a55.241,55.241,0,0,0,23.645,22.277,58.306,58.306,0,0,0,29.9,5.333,17.124,17.124,0,0,1-.948-5.315,11.259,11.259,0,0,1,2.134-6.4A26.973,26.973,0,0,0,11443.1,1630.629Z" transform="translate(-11387.017 -1443.797)"/><path class="b" d="M11719.566,1715.168a11.262,11.262,0,0,0-2.136,6.4,17.21,17.21,0,0,0,.948,5.316,63.306,63.306,0,0,0,11.049-1.876A29.3,29.3,0,0,0,11719.566,1715.168Z" transform="translate(-11652.442 -1524.497)"/></g></g></svg>