<svg xmlns="http://www.w3.org/2000/svg" xmlns:xlink="http://www.w3.org/1999/xlink" width="269.601" height="214.404" viewBox="0 0 269.601 214.404"><defs><style>.a{fill:url(#a);}.b{fill:url(#b);}.c{fill:url(#c);}.d{fill:url(#d);}.e{fill:#fff;}.f{fill:#bcbec0;}.g{fill:#5ed45e;}.h{fill:url(#o);}.i{fill:url(#p);}.j{fill:url(#q);}.k{fill:url(#r);}.l{fill:#c49a6c;}.m{fill:#a97c50;}.n{fill:#c8d9e8;}.o{fill:#8b5e3c;}.p{fill:#754c29;}.q{fill:url(#s);}.r{fill:#00a651;}.s{fill:url(#t);}.t{fill:url(#u);}.u{fill:url(#v);}.v{fill:#1d9358;}.w{fill:url(#w);}.x{fill:url(#x);}.y{fill:url(#y);}.z{fill:url(#z);}.aa{fill:url(#aa);}.ab{fill:url(#ab);}.ac{fill:url(#ac);}.ad{fill:url(#ad);}.ae{fill:url(#ae);}.af{fill:url(#af);}.ag{fill:url(#ag);}.ah{fill:url(#ah);}.ai{fill:url(#ai);}.aj{fill:url(#aj);}.ak{fill:url(#ak);}.al{fill:url(#al);}.am{fill:url(#am);}.an{fill:url(#an);}.ao{fill:url(#ao);}.ap{fill:url(#ap);}.aq{fill:url(#aq);}.ar{fill:url(#ar);}.as{fill:#f1f2f2;}.at{fill:#e6e7e8;}.au{fill:#7edd7e;}</style><linearGradient id="a" y1="0.5" x2="1" y2="0.5" gradientUnits="objectBoundingBox"><stop offset="0" stop-color="#582d7f"/><stop offset="0.212" stop-color="#4a5094"/><stop offset="0.754" stop-color="#29a6c7"/><stop offset="1" stop-color="#1dc9dc"/></linearGradient><linearGradient id="b" x1="-5.576" y1="0.627" x2="0.292" y2="-0.608" xlink:href="#a"/><linearGradient id="c" x1="-2.719" y1="0.856" x2="7.951" y2="-0.325" xlink:href="#a"/><linearGradient id="d" x1="-3.976" y1="0.996" x2="12.205" y2="-0.796" xlink:href="#a"/><linearGradient id="o" x1="0.279" y1="0.933" x2="0.279" y2="2.058" gradientUnits="objectBoundingBox"><stop offset="0" stop-color="#fc9e18"/><stop offset="0.313" stop-color="#fcaf18"/><stop offset="1" stop-color="#fcd118"/></linearGradient><linearGradient id="p" x1="-0.979" y1="0.242" x2="0.088" y2="0.242" xlink:href="#o"/><linearGradient id="q" x1="46134.375" y1="-5048.197" x2="48905.871" y2="-5594.298" gradientUnits="objectBoundingBox"><stop offset="0" stop-color="#a7a9ac"/><stop offset="1" stop-color="#fff"/></linearGradient><linearGradient id="r" x1="0.468" y1="0.233" x2="0.468" y2="-0.452" gradientUnits="objectBoundingBox"><stop offset="0" stop-color="#f1f2f2"/><stop offset="1" stop-color="#d1d3d4"/></linearGradient><linearGradient id="s" x1="-0.395" y1="-0.31" x2="0.655" y2="-0.31" gradientUnits="objectBoundingBox"><stop offset="0" stop-color="#2d9358"/><stop offset="1" stop-color="#009358"/></linearGradient><linearGradient id="t" x1="-0.132" y1="0.086" x2="0.874" y2="0.086" xlink:href="#s"/><linearGradient id="u" x1="-0.364" y1="-0.801" x2="0.633" y2="-0.801" xlink:href="#s"/><linearGradient id="v" x1="11.002" y1="-0.084" x2="12.003" y2="-0.084" xlink:href="#s"/><linearGradient id="w" x1="0.753" y1="-2.694" x2="0.753" y2="-1.797" gradientUnits="objectBoundingBox"><stop offset="0" stop-color="#d1d3d4"/><stop offset="1" stop-color="#bcbec0"/></linearGradient><linearGradient id="x" x1="2.188" y1="-5.452" x2="1.031" y2="-4.295" gradientUnits="objectBoundingBox"><stop offset="0" stop-color="#9d9e9f"/><stop offset="1" stop-color="#d1d3d4"/></linearGradient><linearGradient id="y" x1="-2.303" y1="2.836" x2="4.479" y2="-3.946" xlink:href="#a"/><linearGradient id="z" x1="1.108" y1="-0.331" x2="1.108" y2="5.231" gradientUnits="objectBoundingBox"><stop offset="0" stop-color="#ffde39"/><stop offset="0.094" stop-color="#fec63c"/><stop offset="0.286" stop-color="#fe9843"/><stop offset="0.415" stop-color="#fe7d4b"/><stop offset="0.652" stop-color="#fe4f59"/><stop offset="1" stop-color="#ed327f"/></linearGradient><linearGradient id="aa" x1="0.738" y1="-2.039" x2="2.336" y2="19.894" xlink:href="#z"/><linearGradient id="ab" x1="0.575" y1="-9.298" x2="2.173" y2="49.91" xlink:href="#z"/><linearGradient id="ac" x1="0.226" y1="-0.364" x2="0.992" y2="1.665" xlink:href="#z"/><linearGradient id="ad" x1="0.839" y1="0.712" x2="0.839" y2="9.843" xlink:href="#z"/><linearGradient id="ae" x1="-0.115" y1="7.284" x2="-1.454" y2="11.649" xlink:href="#z"/><linearGradient id="af" x1="0.38" y1="7.813" x2="-0.116" y2="12.178" xlink:href="#z"/><linearGradient id="ag" x1="0.342" y1="1.385" x2="0.235" y2="2.301" xlink:href="#z"/><linearGradient id="ah" x1="-0.252" y1="1" x2="0.572" y2="0.053" gradientUnits="objectBoundingBox"><stop offset="0" stop-color="#ceecfa"/><stop offset="1" stop-color="#ee6ee4"/></linearGradient><linearGradient id="ai" x1="0.505" y1="1.144" x2="0.496" y2="-0.138" xlink:href="#ah"/><linearGradient id="aj" x1="0.581" y1="-0.058" x2="0.399" y2="1.202" xlink:href="#ah"/><linearGradient id="ak" x1="0.496" y1="0.614" x2="0.287" y2="4.51" xlink:href="#ah"/><linearGradient id="al" x1="0.5" y1="1.477" x2="0.5" y2="2.888" xlink:href="#z"/><linearGradient id="am" x1="1.258" y1="-1.033" x2="-0.589" y2="2.683" xlink:href="#z"/><linearGradient id="an" x1="0.303" y1="4.033" x2="0.491" y2="0.625" xlink:href="#o"/><linearGradient id="ao" x1="0.799" y1="-1" x2="0.486" y2="0.568" xlink:href="#z"/><linearGradient id="ap" x1="0.852" y1="-0.894" x2="0.052" y2="3.178" gradientUnits="objectBoundingBox"><stop offset="0" stop-color="#42e397"/><stop offset="1" stop-color="#3cb6b5"/></linearGradient><linearGradient id="aq" x1="-2.411" y1="2.788" x2="-0.644" y2="1.416" xlink:href="#ap"/><linearGradient id="ar" x1="0.307" y1="1.169" x2="0.819" y2="-0.502" xlink:href="#a"/></defs><g transform="translate(-9030.222 -605.363)"><g transform="translate(9030.222 605.363)"><path class="a" d="M9134.854,812.487c-21.93-12.05-33.078-37.526-30.846-63.863,1.274-15.043,8.791-26.288,14.842-39.81,5.472-12.227,3.4-25.012,1.854-37.754a55.63,55.63,0,0,1,15.933-45.57c18.434-18.754,50.142-23.254,75-18.2,17.739,3.605,31.259,13.8,49.942,15.34,20.066,1.652,40.453-.385,58.673,9.216,11.135,5.867,20.188,15.659,22.825,27.215,5.448,23.885-14.442,44.283-16.555,67.372-1.579,17.266,6.062,33.676,5.834,50.836-.115,8.722-2.476,17.707-8.218,24.273-6.46,7.386-16.483,10.874-26.278,11.45-15.57.915-30.945-4.223-46.461-5.073-15.464-.847-31.333,1.163-46.313,4.89-17.095,4.254-33.325,8.912-51.167,6.106A58.122,58.122,0,0,1,9134.854,812.487Z" transform="translate(-9090.484 -605.363)"/><ellipse class="b" cx="27.001" cy="14.209" rx="27.001" ry="14.209" transform="matrix(0.125, -0.992, 0.992, 0.125, 234.669, 146.532)"/><circle class="c" cx="14.849" cy="14.849" r="14.849" transform="translate(0 72.188)"/><circle class="d" cx="9.791" cy="9.791" r="9.791" transform="translate(0 104.215)"/><g transform="translate(13.242 0.002)"><path class="a" d="M9131.572,1176.169c-1.781-4.4-3.728-8.818-4.344-13.527-1.109-8.484,2.182-16.757,3.961-25.186a55.9,55.9,0,0,1-6.729,4.961,46.14,46.14,0,0,1-5.812,3.075c-6.016,13.324-13.38,24.488-14.641,39.365a73.679,73.679,0,0,0,5.733,35.906,142.175,142.175,0,0,1,31.526-6.5C9140.329,1201.183,9136.5,1188.361,9131.572,1176.169Z" transform="translate(-9103.728 -1041.598)"/><path class="a" d="M9168.639,1563.783a142.179,142.179,0,0,0-31.526,6.5,58.3,58.3,0,0,0,25.112,27.957c.214.117.432.231.646.346a69.112,69.112,0,0,0,5.99-28.249C9168.874,1568.149,9168.795,1565.962,9168.639,1563.783Z" transform="translate(-9131.098 -1391.121)"/><path class="a" d="M9355.106,1573.264a82.879,82.879,0,0,0-22.515-8.676,142.02,142.02,0,0,0-46.732-3.481c.156,2.179.236,4.365.223,6.557a69.1,69.1,0,0,1-5.99,28.249,58.26,58.26,0,0,0,18.416,6.082c17.843,2.806,34.074-1.853,51.168-6.106a174.568,174.568,0,0,1,24.54-4.326A58.91,58.91,0,0,0,9355.106,1573.264Z" transform="translate(-9248.319 -1388.446)"/><path class="a" d="M9207.677,694.388a47.639,47.639,0,0,1-.993,6.841,90.366,90.366,0,0,0,15.23-17.519,67.519,67.519,0,0,0,8.807-16.411c2.337-6.884,2.883-14.227,4.3-21.358s3.917-14.4,9.241-19.356c5.278-4.909,12.566-6.868,18.964-10.188,4.616-2.4,9.11-6.185,11.021-10.807-22.158-1.454-46.749,4.272-62.116,19.907a55.978,55.978,0,0,0-16.307,40.388A36,36,0,0,1,9207.677,694.388Z" transform="translate(-9179.22 -605.372)"/><path class="a" d="M9941.79,702.978c4.433,1.485,9.254,1.356,13.766,2.579a23.836,23.836,0,0,1,13.092,9.139c3.3,4.651,4.794,10.307,7.295,15.429,4.908,10.053,13.705,17.905,23.722,22.888q2.509,1.248,5.111,2.273c.059-.119.119-.237.177-.357,3.237-6.775,3.409-14.551,5.061-21.875,1.054-4.676,3.06-9.507,6.237-12.965a48.223,48.223,0,0,0-18.039-16.062c-18.22-9.6-38.606-7.564-58.673-9.216a61.791,61.791,0,0,1-8.874-1.4A20.124,20.124,0,0,0,9941.79,702.978Z" transform="translate(-9781.688 -677.548)"/><path class="a" d="M9199.094,976.612a47.784,47.784,0,0,0,1-6.841,36.006,36.006,0,0,0-11.854-28.5q.06,2.584.373,5.182c1.548,12.742,3.618,25.527-1.854,37.754-.066.149-.134.3-.2.445a46.14,46.14,0,0,0,5.812-3.075A55.888,55.888,0,0,0,9199.094,976.612Z" transform="translate(-9171.631 -880.755)"/><path class="a" d="M10358.3,852.661a34.909,34.909,0,0,0-4.786-11.154c-3.178,3.458-5.184,8.289-6.237,12.965-1.651,7.325-1.823,15.1-5.061,21.875-.057.12-.118.238-.177.357a78.174,78.174,0,0,0,13.2,3.87C10358.527,871.57,10360.523,862.406,10358.3,852.661Z" transform="translate(-10118.953 -798.966)"/><path class="a" d="M10230.249,1056.181c-3.794,6.2-5.473,13.467-6.376,20.68a68.072,68.072,0,0,0-.227,17.287c1.65,12.549,8.687,24.049,18.546,31.944a28.509,28.509,0,0,1,3.55-7.568,14.911,14.911,0,0,1,2.891-3.065c-2.074-11.7-5.419-23.267-4.322-35.25,1.25-13.669,8.731-26.394,13.5-39.458a78.255,78.255,0,0,1-13.2-3.87C10241.037,1044.064,10234.442,1049.327,10230.249,1056.181Z" transform="translate(-10021.518 -959.141)"/><path class="a" d="M10332.2,1476.119a28.481,28.481,0,0,0-3.551,7.568,51.256,51.256,0,0,0,7.945,5.239c0-.1,0-.191.007-.286a83,83,0,0,0-1.512-15.586A14.883,14.883,0,0,0,10332.2,1476.119Z" transform="translate(-10107.976 -1316.737)"/><path class="a" d="M10107.742,1536.771c-1.324,4.234-2.99,8.568-6.27,11.555-4.912,4.475-12.139,4.894-18.529,6.714a40.537,40.537,0,0,0-21.955,16.094c7.205,1.156,14.418,2.045,21.674,1.619,9.8-.576,19.82-4.064,26.281-11.45,5.68-6.494,8.049-15.355,8.211-23.987a51.172,51.172,0,0,1-7.945-5.239C10108.691,1533.634,10108.229,1535.214,10107.742,1536.771Z" transform="translate(-9888.533 -1365.128)"/></g></g><g transform="translate(9063.005 635.471)"><g transform="translate(12.915 0)"><path class="e" d="M9284.98,805.909c-.479-11.7,7.776-21.724,17.487-27.262a37.454,37.454,0,0,1,16.458-5.037,29.2,29.2,0,0,1,17.07,4.515,25.552,25.552,0,0,1,11.662,16.15c.141.681,1.183.393,1.043-.287-2.577-12.5-15.023-21.177-27.428-21.49-11.9-.3-24,6.063-31.2,15.4a27.851,27.851,0,0,0-6.173,18.014c.029.693,1.109.7,1.082,0Z" transform="translate(-9283.879 -772.486)"/></g><g transform="translate(3.569 35.432)"><path class="e" d="M9243.888,985.65a7.566,7.566,0,0,0-6.048-2.4,6.259,6.259,0,0,0-4.327,2.572,7.382,7.382,0,0,0,.6,9.665,8.873,8.873,0,0,0,10.461,1.038,10.6,10.6,0,0,0,4.509-10.565c-.439-2.763-1.948-5.2-3.269-7.609a27.355,27.355,0,0,1-3.13-8.8c-.112-.685-1.153-.394-1.044.287a26.513,26.513,0,0,0,1.953,6.5c.869,1.958,2.022,3.766,2.979,5.679,1.8,3.59,2.253,7.643-.062,11.133a7.783,7.783,0,0,1-9.107,3.082,6.158,6.158,0,0,1-4.055-7.684,6.023,6.023,0,0,1,3.174-3.851c2.347-1.036,4.887.025,6.6,1.716.5.489,1.261-.275.765-.764Z" transform="translate(-9231.999 -969.164)"/></g><g transform="translate(4.942 53.626)"><path class="e" d="M9240.53,1093.616c3.183-3.564,7.064-6.554,9.659-10.617,2.368-3.71,3.635-8.495,1.435-12.575-.33-.613-1.265-.068-.934.546,2.174,4.033.5,8.751-1.945,12.247-2.525,3.608-6.062,6.367-8.979,9.635-.463.518.3,1.284.764.764Z" transform="translate(-9239.623 -1070.156)"/></g><g transform="translate(0 77.878)"><path class="e" d="M9213.271,1214.364a15.3,15.3,0,0,1,3.476-8.815c.417-.558-.521-1.1-.934-.546a16.228,16.228,0,0,0-3.623,9.361.541.541,0,0,0,1.081,0Z" transform="translate(-9212.19 -1204.773)"/></g><g transform="translate(134.821 157.658)"><path class="e" d="M9993.514,1649.2a17.745,17.745,0,0,1-11.874,7.834,19.733,19.733,0,0,1-14.165-3.1,19.458,19.458,0,0,1-5.9-6.066c-.363-.592-1.3-.049-.934.546,5.664,9.215,18.458,12.934,27.876,7.208a18.932,18.932,0,0,0,5.933-5.881c.383-.583-.553-1.125-.934-.546Z" transform="translate(-9960.556 -1647.615)"/></g><g transform="translate(169.019 123.519)"><path class="e" d="M10152.508,1460.2c2.332,5.414,6.615,10.181,12.594,11.4,4.977,1.011,12.113-.749,13.338-6.5,1.385-6.5-7.686-7.741-12.09-6.618-5.637,1.438-8.844,6.6-10.367,11.875-.979,3.395-1.346,6.949-2.07,10.4a44.716,44.716,0,0,1-3.469,10.8c-.309.621.623,1.169.934.546,2.582-5.193,3.637-10.959,4.617-16.626.852-4.921,2.182-10.2,6.125-13.6a11.662,11.662,0,0,1,7.826-2.731c2.445.034,5.8.651,7.094,3.015,1.377,2.51-.584,5.449-2.666,6.845a11.562,11.562,0,0,1-7.381,1.776c-6.461-.512-11.109-5.456-13.551-11.127-.275-.637-1.205-.087-.934.545Z" transform="translate(-10150.382 -1458.115)"/></g><g transform="translate(168.398 104.771)"><path class="e" d="M10146.935,1354.571c0,5.956.018,12.022,1.8,17.765.206.662,1.249.38,1.042-.287-1.757-5.653-1.765-11.614-1.762-17.477a.541.541,0,0,0-1.082,0Z" transform="translate(-10146.935 -1354.049)"/></g></g><g transform="translate(9090.047 647.161)"><path class="f" d="M9483.093,1021.369l-100.373,12.556a3.622,3.622,0,0,1-4.043-3.144L9362.33,900.1a3.621,3.621,0,0,1,3.144-4.043L9465.847,883.5a3.621,3.621,0,0,1,4.043,3.144l16.348,130.68A3.622,3.622,0,0,1,9483.093,1021.369Z" transform="translate(-9362.302 -875.168)"/><g transform="translate(7.733 14.741)"><path class="e" d="M9505.982,989.722,9497.12,919.2l-91.893,11.495,9.807,78.357L9507,997.838Z" transform="translate(-9405.228 -919.197)"/><path class="g" d="M9459.661,1366.928l4.017,32.092c1.024,8.194,7.2,14.174,13.817,13.422l78.917-18.032-.9-7.582-3.892-31.111Z" transform="translate(-9449.854 -1277.076)"/></g><g transform="translate(41.53 98.425)"><path class="h" d="M9622.429,1420.434c-.947-4.382-4.6-7.784-8.516-9.635-3.837-1.813-8.488-1.85-12.142-3.77-3.36-1.767-5.693-4.951-3.661-8.7,1.512-2.786,4.425-4.665,6.953-6.433,1.459-1.021,3.227-1.865,4.331-3.3a3.792,3.792,0,0,0,.688-3.583l-4.759.108a3.588,3.588,0,0,1-.456,4.027c-1.1,1.432-2.871,2.277-4.33,3.3-2.528,1.768-5.441,3.646-6.953,6.433-2.032,3.747.3,6.931,3.661,8.7,3.652,1.92,8.3,1.957,12.141,3.77,3.919,1.852,7.569,5.253,8.516,9.635a7.662,7.662,0,0,1-.79,5.554l4.864-1.189A7.89,7.89,0,0,0,9622.429,1420.434Z" transform="translate(-9592.825 -1384.782)"/><path class="i" d="M9650.7,1421.123c1.479-3.752,1.835-8.207-.209-11.684-1.754-2.985-4.937-4.772-7.891-6.578-2.909-1.779-7.59-4.742-6.987-8.723.284-1.891,1.782-3.325,3.118-4.693,1.421-1.457,3.082-3.552,2.355-5.732l-10.408.235a3.789,3.789,0,0,1-.688,3.583c-1.1,1.432-2.871,2.276-4.331,3.3-2.527,1.768-5.44,3.647-6.952,6.433-2.032,3.747.3,6.931,3.661,8.7,3.651,1.92,8.3,1.957,12.141,3.77,3.919,1.852,7.569,5.254,8.516,9.636a7.876,7.876,0,0,1-.453,4.917l.673-.164C9645.4,1423.59,9649.806,1423.4,9650.7,1421.123Z" transform="translate(-9613.425 -1383.711)"/></g><g transform="translate(9.753 42.393)"><path class="j" d="M9416.466,1072.859l0-.006-.02-.156C9416.436,1072.645,9416.461,1072.82,9416.466,1072.859Z" transform="translate(-9416.441 -1072.687)"/><g transform="translate(7.934 3.554)"><g transform="translate(20.661)"><path class="k" d="M9660.3,1161.206l-46.787,5.7-3.877-31.8,20.959-20.659,25.829,14.955Z" transform="translate(-9603.427 -1110.481)"/><path class="l" d="M9633.992,1111.206l-31.879-18.79-26.951,25.961,3.686,2.885,24.07-22.24,28.188,15.869Z" transform="translate(-9575.162 -1092.417)"/><g transform="translate(23.917 12.152)"><circle class="l" cx="4.663" cy="4.663" r="4.663" transform="translate(0 9.319) rotate(-87.758)"/><g transform="translate(1.896 1.896)"><path class="m" d="M9719.461,1174.654a2.927,2.927,0,0,1,.4-1.875,2.944,2.944,0,1,0,4.048,4.034,2.941,2.941,0,0,1-4.45-2.159Z" transform="translate(-9718.445 -1172.349)"/><path class="n" d="M9725.556,1170.417a2.942,2.942,0,1,0,3.28,2.567A2.935,2.935,0,0,0,9725.556,1170.417Z" transform="translate(-9722.968 -1170.395)"/></g></g><g transform="translate(12.122 27.582)"><path class="m" d="M9658.774,1247.566l-.251-2.05-16.075,1.96,3.2,26.249,2.05-.25-2.95-24.2Z" transform="translate(-9642.448 -1245.516)"/><rect class="l" width="14.129" height="24.378" transform="translate(2.3 3.76) rotate(-6.95)"/></g><g transform="translate(26.602 41.349)"><path class="o" d="M9725.108,1322.964l-1.705.208a.516.516,0,0,1-.126-1.025l1.705-.208a.516.516,0,0,1,.126,1.025Z" transform="translate(-9722.824 -1321.935)"/></g><g transform="translate(32.324 24.93)"><path class="m" d="M9772.3,1231.57l-.095-.772-17.626,2.149.483,3.965.772-.094-.39-3.193Z" transform="translate(-9754.583 -1230.797)"/><rect class="l" width="16.978" height="3.217" transform="matrix(0.993, -0.121, 0.121, 0.993, 0.866, 2.827)"/></g><g transform="translate(32.807 30.579)"><path class="n" d="M9757.267,1264.338l1.45,11.9,12.608-1.537-13.346-10.445Z" transform="translate(-9757.267 -1263.874)"/><path class="e" d="M9761.228,1262.535l13.346,10.445,3.093-.377-13.345-10.445Z" transform="translate(-9760.514 -1262.157)"/></g><g transform="translate(36.614 28.895)"><path class="n" d="M9846.079,1252.807l-1.982.242,2.225,1.741Z" transform="translate(-9832.261 -1252.807)"/><path class="e" d="M9831.12,1255.89l-2.226-1.741-3.34.407,5.973,4.674Z" transform="translate(-9817.059 -1253.907)"/><path class="n" d="M9786.894,1256.409l-8.494,1.035,13.345,10.446,1.924-.235-.8-6.572Z" transform="translate(-9778.399 -1255.76)"/></g></g><g transform="translate(51.667 43.979)"><path class="g" d="M9750.44,1344.755a1.892,1.892,0,0,1,1.416-2.862.517.517,0,1,0,.852-.506,2.723,2.723,0,0,1,4.74-2.14,3.289,3.289,0,0,1,6.5.173c.007.053.012.107.016.16a3.062,3.062,0,0,1,5.828.886,3.018,3.018,0,0,1-.021.9,2.434,2.434,0,0,1,.949-.326,2.592,2.592,0,0,1,2.741,2.291l-26.176,3.191C9747.108,1345.064,9748.668,1344.29,9750.44,1344.755Z" transform="translate(-9747.274 -1336.537)"/></g><g transform="translate(70.445 26.758)"><g transform="translate(10.293 12.318)"><path class="p" d="M9911.045,1323.262a.809.809,0,0,1-.9-.7l-1.5-12.333a.809.809,0,0,1,1.605-.2l1.5,12.333A.808.808,0,0,1,9911.045,1323.262Z" transform="translate(-9908.635 -1309.319)"/></g><g transform="translate(1.104 21.173)"><path class="q" d="M9857.641,1371.093a1.531,1.531,0,0,1,.865-1.568.921.921,0,0,1-.155-.413.932.932,0,0,1,.095-.535.918.918,0,0,1,.156-.223.869.869,0,0,1,.1-.089c.055-.042.06-.037.049-.1a2.071,2.071,0,0,1,.271-1.57,1.113,1.113,0,0,1,1.363-.367l.007,0a1.06,1.06,0,0,1,.905-.813h.014a1.753,1.753,0,0,1,1.31-1.7,1.059,1.059,0,0,1-.071-.337,1.025,1.025,0,0,1,.808-1.032,1.014,1.014,0,0,1,1.166.662,2.187,2.187,0,0,1,3.3,1.611l.311,1.4-2.789,4.133-7.7.938Z" transform="translate(-9857.63 -1361.631)"/><path class="r" d="M9879.9,1366.513a.984.984,0,0,1,.506-.406,2.006,2.006,0,0,1,1.064-.048h0a1.536,1.536,0,0,1,2.04-1.658,1.819,1.819,0,0,1,.725-2.535,2.32,2.32,0,0,1,1.754.079c-.007-.033-.012-.066-.016-.1a1.529,1.529,0,0,1,1.546-1.714,2.316,2.316,0,0,1,4.52.373c0,.026,0,.053.008.079a2.057,2.057,0,0,1,2.943,1.6,2.013,2.013,0,0,1-.029.674,3.03,3.03,0,0,1,2.01,2.495l-17.08,2.082A1.062,1.062,0,0,1,9879.9,1366.513Z" transform="translate(-9875.795 -1358.47)"/></g><path class="s" d="M9860,1252.333a3.56,3.56,0,1,0-5.977,3.02,4.273,4.273,0,0,0,1.813,8.171,7.421,7.421,0,0,0,9.729-5.875Z" transform="translate(-9851.503 -1247.716)"/><path class="r" d="M9919.421,1279.114a4.17,4.17,0,0,0-3.636,4.644l.006.033a3.1,3.1,0,1,0,3.861,3.623,4.17,4.17,0,1,0-.231-8.3Z" transform="translate(-9902.341 -1272.212)"/><path class="g" d="M9886.843,1242.709a4.171,4.171,0,0,1-5.95-1.734,4.17,4.17,0,0,0-1.061,8c0,.089.01.178.02.268a3.1,3.1,0,0,0,5.661,1.345,4.17,4.17,0,1,0,1.33-7.883Z" transform="translate(-9872.593 -1240.944)"/><g transform="translate(5.656 13.166)"><path class="p" d="M9889.06,1320.74a.564.564,0,0,1-.269-.033,10.116,10.116,0,0,1-4.058-2.842,9.991,9.991,0,0,1-1.8-3.081.562.562,0,1,1,1.056-.386,8.858,8.858,0,0,0,1.6,2.735,9,9,0,0,0,3.605,2.524.562.562,0,0,1-.133,1.083Z" transform="translate(-9882.898 -1314.028)"/></g></g><g transform="translate(0 24.74)"><g transform="translate(15.383)"><g transform="translate(9.137 10.218)"><path class="o" d="M9599.271,1305.44a.422.422,0,0,1-.471-.368l-2.213-18.138a.423.423,0,0,1,.84-.1l2.211,18.138A.421.421,0,0,1,9599.271,1305.44Z" transform="translate(-9596.585 -1286.46)"/></g><g transform="translate(6.838 13.573)"><path class="o" d="M9587.1,1306.739l-.043,0a5.3,5.3,0,0,1-3.051-.883.423.423,0,1,1,.469-.7,4.448,4.448,0,0,0,2.564.742.423.423,0,0,1,.061.842Z" transform="translate(-9583.822 -1305.084)"/></g><g transform="translate(9.617 10.792)"><path class="o" d="M9599.723,1292.763a.422.422,0,0,1-.186-.82,3.675,3.675,0,0,0,1.27-.733,3.719,3.719,0,0,0,.945-1.305.422.422,0,1,1,.775.335,4.537,4.537,0,0,1-2.721,2.5A.448.448,0,0,1,9599.723,1292.763Z" transform="translate(-9599.247 -1289.65)"/></g><path class="g" d="M9548.882,1237.934a3.785,3.785,0,0,1,.728-.071,1.163,1.163,0,0,1,.718.244l.111.086a5.34,5.34,0,1,1,9.581-2.074l-.018.021a3.365,3.365,0,1,1-3.267,3.914h0a5.363,5.363,0,0,1-3.911,0h0a1.169,1.169,0,0,1,.41.637,3.634,3.634,0,0,1,.108.729,3.74,3.74,0,1,1-4.461-3.485Z" transform="translate(-9545.867 -1229.744)"/><g transform="translate(9.376 0.676)"><path class="e" d="M9600,1234.785a.281.281,0,0,1-.193-.048,4.181,4.181,0,0,0-1.667-.678.282.282,0,0,1,.1-.556,4.762,4.762,0,0,1,1.892.77.282.282,0,0,1-.127.512Z" transform="translate(-9597.909 -1233.499)"/></g><g transform="translate(12.003 2.164)"><path class="e" d="M9613.639,1243.756a.283.283,0,0,1-.3-.188,4.121,4.121,0,0,0-.773-1.349.281.281,0,1,1,.426-.367,4.65,4.65,0,0,1,.881,1.533.282.282,0,0,1-.174.358A.29.29,0,0,1,9613.639,1243.756Z" transform="translate(-9612.496 -1241.754)"/></g><g transform="translate(14.944 7.245)"><path class="e" d="M9629.92,1271.1a.282.282,0,0,1-.242-.09,2.18,2.18,0,0,0-.7-.512.282.282,0,0,1,.238-.511,2.746,2.746,0,0,1,.875.644.283.283,0,0,1-.02.4A.279.279,0,0,1,9629.92,1271.1Z" transform="translate(-9628.819 -1269.958)"/></g><g transform="translate(16.168 8.71)"><path class="e" d="M9635.929,1280.4a.276.276,0,0,1-.145-.021.282.282,0,0,1-.147-.37,2.179,2.179,0,0,0,.161-1.126,2.239,2.239,0,0,0-.092-.417.281.281,0,1,1,.535-.175,2.752,2.752,0,0,1-.087,1.941A.281.281,0,0,1,9635.929,1280.4Z" transform="translate(-9635.613 -1278.093)"/></g></g><path class="r" d="M9460.5,1356.158a2.663,2.663,0,0,1,1.506-2.728,1.614,1.614,0,0,1-.271-.718,1.641,1.641,0,0,1,.162-.931,1.633,1.633,0,0,1,.442-.542c.093-.074.1-.064.084-.179a3.6,3.6,0,0,1,.472-2.731,1.937,1.937,0,0,1,2.372-.639l.01.005a1.85,1.85,0,0,1,1.576-1.415l.022,0a3.054,3.054,0,0,1,2.28-2.953,1.765,1.765,0,1,1,3.309-1.23,3.8,3.8,0,0,1,5.733,2.8l.542,2.438-4.852,7.19-13.389,1.633Z" transform="translate(-9460.479 -1320.88)"/><path class="g" d="M9497.36,1349.282a1.711,1.711,0,0,1,.879-.706,3.489,3.489,0,0,1,1.852-.083,2.673,2.673,0,0,1,3.549-2.885,3.162,3.162,0,0,1,1.26-4.41,4.036,4.036,0,0,1,3.051.137c-.011-.057-.02-.114-.028-.172a2.663,2.663,0,0,1,2.319-2.964,2.725,2.725,0,0,1,.372-.019,4.028,4.028,0,0,1,7.861.649c0,.046.009.091.013.137a3.579,3.579,0,0,1,5.071,3.955,5.27,5.27,0,0,1,3.5,4.339c-4.017.84-8.327,1.6-12.911,2.2-6,.8-11.62,1.23-16.8,1.42A1.847,1.847,0,0,1,9497.36,1349.282Z" transform="translate(-9490.554 -1316.276)"/></g></g></g><g transform="translate(18.277 101.75)"><g transform="translate(14.275 17.72)"><path class="p" d="M9546.375,1520.123a1.135,1.135,0,0,0,.99-1.265l-2.113-17.334a1.136,1.136,0,1,0-2.255.275l2.113,17.334A1.135,1.135,0,0,0,9546.375,1520.123Z" transform="translate(-9542.988 -1500.525)"/></g><g transform="translate(6.178 29.367)"><path class="r" d="M9584.514,1575.182a2.152,2.152,0,0,0-1.711-1.847,1.311,1.311,0,0,0-.235-1.314,1.3,1.3,0,0,0-.452-.339c-.087-.04-.092-.031-.1-.124a2.905,2.905,0,0,0-.9-2.051,1.565,1.565,0,0,0-1.984-.04l-.007.006a1.492,1.492,0,0,0-1.51-.8l-.019,0a2.467,2.467,0,0,0-2.362-1.873,1.426,1.426,0,1,0-2.833-.323,3.074,3.074,0,0,0-3.953,3.311l.048,2.017,5.2,4.7,10.817-1.319Z" transform="translate(-9555.744 -1565.177)"/><path class="t" d="M9520.751,1582.39a1.384,1.384,0,0,0-.826-.383,2.82,2.82,0,0,0-1.469.295h0a2.159,2.159,0,0,0-3.343-1.574,2.556,2.556,0,0,0-1.844-3.214,3.264,3.264,0,0,0-2.367.7c0-.047-.006-.093-.012-.14a2.149,2.149,0,0,0-2.689-1.817,3.254,3.254,0,0,0-6.039,2.035c0,.037.011.074.016.11a2.891,2.891,0,0,0-3.209,4.086l-.039.026a2.016,2.016,0,0,0,1.395,3.66l20.753-2.53A1.494,1.494,0,0,0,9520.751,1582.39Z" transform="translate(-9498.048 -1572.938)"/></g><path class="u" d="M9526.644,1411.991a5,5,0,1,1,9.173,2.1,6.005,6.005,0,0,1,.286,11.76,10.431,10.431,0,0,1-15.26-4.73Z" transform="translate(-9510.558 -1405.622)"/><path class="r" d="M9468.9,1470.7a5.861,5.861,0,0,1,6.527,5.109c0,.016,0,.031.006.047a4.36,4.36,0,1,1-4.046,6.247,5.924,5.924,0,0,1-1.067.233,5.861,5.861,0,0,1-1.42-11.637Z" transform="translate(-9463.752 -1458.316)"/><path class="v" d="M9480.7,1406.584a5.86,5.86,0,0,0,7.531-4.375,5.862,5.862,0,0,1,4.151,10.563c.024.122.047.246.063.373a4.359,4.359,0,0,1-7.269,3.746,5.861,5.861,0,1,1-4.477-10.307Z" transform="translate(-9473.424 -1402.166)"/><g transform="translate(15.827 17.239)"><path class="p" d="M9552.49,1508.928a.8.8,0,0,0,.355-.136,14.212,14.212,0,0,0,4.575-5.248,14.006,14.006,0,0,0,1.418-4.812.791.791,0,0,0-1.572-.17,12.4,12.4,0,0,1-1.258,4.271,12.653,12.653,0,0,1-4.065,4.662.79.79,0,0,0,.547,1.433Z" transform="translate(-9551.604 -1497.857)"/></g></g><g transform="translate(22.559 0)"><path class="w" d="M9548.723,847.516a2.7,2.7,0,0,0-3.02-2.348L9529,847.258a11.284,11.284,0,0,0-22.393,2.8l-16.709,2.09a2.7,2.7,0,0,0-2.348,3.02l.811,6.482L9549.534,854Z" transform="translate(-9487.524 -837.374)"/><rect class="f" width="61.654" height="2.584" transform="translate(0.832 24.277) rotate(-7.13)"/></g><g transform="translate(43.649 2.1)"><circle class="x" cx="7.201" cy="7.201" r="7.201" transform="translate(0 13.585) rotate(-70.601)"/><circle class="y" cx="4.231" cy="4.231" r="4.231" transform="translate(3.617 6.992) rotate(-23.509)"/></g><path class="e" d="M9569.514,1532.743l57.64-7.211,27.014-3.379c1.012,8.081-3.57,15.307-10.233,16.141l-.023,0-84.63,10.586C9565.942,1548.05,9570.524,1540.823,9569.514,1532.743Z" transform="translate(-9523.794 -1398.787)"/></g><g transform="translate(9062.386 725.252)"><g transform="translate(0 0)"><path class="z" d="M9209.8,1270.842l-1.045,10.908h0l8.063-2.493Z" transform="translate(-9208.759 -1270.842)"/><g transform="translate(0 8.415)"><rect class="aa" width="8.44" height="3.974" transform="translate(0 2.492) rotate(-17.176)"/><rect class="ab" width="8.44" height="1.472" transform="matrix(0.955, -0.295, 0.295, 0.955, 1.711, 8.027)"/><path class="ac" d="M9239.745,1391.708l-8.03-25.98-8.064,2.493,11.886,38.453.877,2.025,4.848-14.473Z" transform="translate(-9220.967 -1357.049)"/><rect class="e" width="8.44" height="1.819" transform="matrix(0.955, -0.295, 0.295, 0.955, 1.173, 6.289)"/><rect class="e" width="8.44" height="1.819" transform="translate(2.145 9.434) rotate(-17.176)"/></g><g transform="translate(9.008 28.303)"><path class="e" d="M9264.522,1444.611a1.137,1.137,0,0,1-1.259-.788l-4.452-14.4a1.137,1.137,0,1,1,2.172-.671l4.453,14.4a1.139,1.139,0,0,1-.914,1.46Z" transform="translate(-9258.761 -1427.947)"/></g></g><g transform="translate(11.177 13.303)"><path class="ad" d="M9348.8,1355.564l-1.319-10.878-6.8,8.589,8.123,2.289Z" transform="translate(-9328.093 -1344.686)"/><g transform="translate(0 8.589)"><rect class="ae" width="1.472" height="8.44" transform="translate(10.619 6.993) rotate(-74.266)"/><rect class="af" width="3.974" height="8.44" transform="translate(11.511 3.825) rotate(-74.266)"/><path class="ag" d="M9272.419,1479.274l3.86,1.088a2.216,2.216,0,0,0,2.732-1.531l10.041-35.644-8.124-2.289-10.041,35.644A2.214,2.214,0,0,0,9272.419,1479.274Z" transform="translate(-9270.804 -1432.154)"/><rect class="e" width="1.819" height="8.44" transform="translate(11.018 5.576) rotate(-74.266)"/><rect class="e" width="1.819" height="8.44" transform="matrix(0.271, -0.963, 0.963, 0.271, 10.125, 8.744)"/></g><g transform="translate(5.812 28.523)"><path class="e" d="M9304.375,1519.781a1.139,1.139,0,0,1-1.27-1.432l4.089-14.511a1.137,1.137,0,1,1,2.188.617l-4.088,14.511A1.136,1.136,0,0,1,9304.375,1519.781Z" transform="translate(-9303.063 -1503.009)"/></g></g></g><g transform="translate(9203.755 669.822)"><g transform="translate(3.769 7.368)"><path class="ah" d="M10022.108,1004.06l-3.77,2.6-3.891,49.543,59.932-44.474Z" transform="translate(-10014.438 -1004.06)"/><path class="ai" d="M10014.4,1091.11l-.01.127,48.5,10.272,3.771-2.6,7.67-52.271Z" transform="translate(-10014.392 -1038.966)"/></g><rect class="aj" width="52.831" height="52.831" transform="translate(7.67 9.969) rotate(8.348)"/><path class="ak" d="M10057.2,973.691l1.285-8.761a2.068,2.068,0,0,1,2.346-1.746l40.561,5.952a2.068,2.068,0,0,1,1.745,2.346l-1.285,8.761Z" transform="translate(-10045.715 -963.163)"/><path class="e" d="M10147.461,1002.21l-7.031-1.032c.014-.057.025-.115.034-.174a1.976,1.976,0,0,0-3.909-.574c-.009.059-.014.118-.018.177l-6.813-1a1.233,1.233,0,1,0-.358,2.44l17.738,2.6a1.219,1.219,0,0,0,.18.013,1.233,1.233,0,0,0,.178-2.453Z" transform="translate(-10104.02 -992.332)"/><g transform="translate(12.165 20.603)"><path class="al" d="M10091.4,1084.269l-1.826,12.447,5.148.756,2.353-16.03A17.849,17.849,0,0,0,10091.4,1084.269Z" transform="translate(-10084.424 -1080.736)"/><path class="am" d="M10120.507,1078.232l-2.353,16.03,5.149.756,2.565-17.486A17.677,17.677,0,0,0,10120.507,1078.232Z" transform="translate(-10107.855 -1077.527)"/><path class="an" d="M10060.991,1108.828h0l5.149.756,1.827-12.447A17.752,17.752,0,0,0,10060.991,1108.828Z" transform="translate(-10060.991 -1093.604)"/><path class="ao" d="M10152.3,1077.857l-.8-.118a17.963,17.963,0,0,0-2.191-.185l-2.565,17.486,5.148.756,2.566-17.486A17.936,17.936,0,0,0,10152.3,1077.857Z" transform="translate(-10131.289 -1077.549)"/><path class="ap" d="M10234.309,1118.107l-1.826,12.447,5.148.756h0A17.749,17.749,0,0,0,10234.309,1118.107Z" transform="translate(-10201.588 -1110.796)"/><path class="aq" d="M10206.253,1094.023l-2.352,16.03,5.148.756,1.826-12.447A17.833,17.833,0,0,0,10206.253,1094.023Z" transform="translate(-10178.156 -1091.051)"/><path class="ar" d="M10177.885,1081.748l-2.566,17.486,5.15.756,2.352-16.03A17.684,17.684,0,0,0,10177.885,1081.748Z" transform="translate(-10154.722 -1080.988)"/></g><g transform="translate(9.432 42.327)"><path class="as" d="M10083.409,1205.038l.24-1.637-36.044-5.289-1.778,12.118,1.858.273,1.537-10.481Z" transform="translate(-10045.827 -1198.112)"/><rect class="e" width="10.594" height="34.552" transform="translate(1.858 12.391) rotate(-81.652)"/></g><g transform="translate(13.46 47.232)"><g transform="translate(8.02)"><path class="at" d="M10126,1229.118a1.01,1.01,0,0,1-.145-.01l-12.313-1.807a.986.986,0,1,1,.286-1.952l12.314,1.807a.987.987,0,0,1-.143,1.963Z" transform="translate(-10112.701 -1225.338)"/></g><g transform="translate(17.778 5.332)"><path class="at" d="M10177.309,1258.294a.969.969,0,0,1-.145-.011l-9.456-1.388a.986.986,0,1,1,.287-1.952l9.455,1.387a.987.987,0,0,1-.142,1.963Z" transform="translate(-10166.864 -1254.934)"/></g><g transform="translate(5.719 3.562)"><path class="at" d="M10109.723,1248.376a1.02,1.02,0,0,1-.145-.01l-8.81-1.293a.987.987,0,1,1,.287-1.952l8.81,1.293a.987.987,0,0,1-.143,1.963Z" transform="translate(-10099.925 -1245.111)"/></g><g transform="translate(0 2.723)"><path class="at" d="M10072.227,1242.874a1,1,0,0,1-.145-.011l-3.057-.448a.986.986,0,0,1,.285-1.952l3.057.448a.986.986,0,0,1-.141,1.963Z" transform="translate(-10068.183 -1240.453)"/></g></g></g><g transform="translate(9149.749 635.706)"><path class="g" d="M9704.4,773.79l-10.7,2.36,9.2,5.946,1.5-8.306Z" transform="translate(-9693.695 -773.79)"/><g transform="translate(9.204 0)"><rect class="au" width="8.44" height="1.472" transform="translate(5.701 9.333) rotate(-79.788)"/><rect class="au" width="8.44" height="3.974" transform="matrix(0.177, -0.984, 0.984, 0.177, 0, 8.306)"/><path class="au" d="M9833.428,795.815l.711-3.948a2.214,2.214,0,0,0-1.787-2.572l-36.444-6.565-1.5,8.306,36.444,6.565A2.215,2.215,0,0,0,9833.428,795.815Z" transform="translate(-9785.471 -781.119)"/><rect class="e" width="8.44" height="1.819" transform="translate(3.911 9.011) rotate(-79.787)"/><rect class="e" width="8.44" height="1.819" transform="translate(7.15 9.594) rotate(-79.787)"/></g><g transform="translate(29.189 6.686)"><path class="e" d="M9872.794,814.433a1.138,1.138,0,0,1-1.3,1.4l-14.836-2.673a1.137,1.137,0,1,1,.4-2.238l14.836,2.673A1.137,1.137,0,0,1,9872.794,814.433Z" transform="translate(-9855.718 -810.904)"/></g></g></g></svg>