<svg xmlns="http://www.w3.org/2000/svg" xmlns:xlink="http://www.w3.org/1999/xlink" width="265.999" height="213.289" viewBox="0 0 265.999 213.289"><defs><style>.a{fill:url(#a);}.b{fill:url(#b);}.c{fill:url(#c);}.d{fill:url(#d);}.e{fill:url(#e);}.f{fill:url(#j);}.g{fill:url(#l);}.h{fill:url(#m);}.i{fill:url(#n);}.j{fill:url(#o);}.k{fill:#fff;}.l{fill:#808285;}.m{fill:#e6e7e8;}.n{fill:url(#p);}.o{fill:url(#q);}.p{fill:url(#r);}.q{fill:url(#s);}.r{fill:url(#t);}.s{fill:url(#u);}.t{fill:url(#v);}.u{fill:url(#w);}.v{fill:url(#x);}.w{fill:url(#y);}.x{fill:url(#z);}.y{fill:#f1f2f2;}.z{fill:url(#aa);}.aa{fill:url(#ab);}.ab{fill:url(#ac);}.ac{fill:url(#ad);}.ad{fill:url(#ae);}.ae{fill:url(#af);}.af{fill:#fcd118;}.ag{fill:url(#ag);}.ah{fill:url(#ah);}.ai{fill:url(#ai);}.aj{fill:url(#aj);}.ak{fill:url(#ak);}.al{fill:url(#al);}.am{fill:url(#am);}.an{fill:url(#an);}.ao{fill:url(#ao);}.ap{fill:url(#ap);}.aq{fill:url(#aq);}.ar{fill:url(#ar);}.as{fill:url(#as);}.at{fill:url(#at);}.au{fill:url(#au);}.av{fill:url(#av);}.aw{fill:url(#aw);}.ax{fill:url(#ax);}.ay{fill:url(#ay);}.az{fill:url(#az);}.ba{fill:url(#ba);}.bb{fill:url(#bb);}.bc{fill:url(#bc);}.bd{fill:url(#bd);}.be{fill:url(#be);}.bf{fill:url(#bf);}.bg{fill:url(#bg);}.bh{fill:url(#bh);}.bi{fill:url(#bi);}.bj{fill:url(#bj);}.bk{fill:url(#bk);}.bl{fill:url(#bl);}.bm{fill:url(#bm);}.bn{fill:url(#bn);}.bo{fill:#ffd633;}.bp{fill:#fc0;}.bq{fill:#ffe066;}</style><linearGradient id="a" y1="0.5" x2="1" y2="0.5" gradientUnits="objectBoundingBox"><stop offset="0" stop-color="#582d7f"/><stop offset="0.212" stop-color="#4a5094"/><stop offset="0.754" stop-color="#29a6c7"/><stop offset="1" stop-color="#1dc9dc"/></linearGradient><linearGradient id="b" x1="-8.191" y1="-4.981" x2="-0.359" y2="-6.246" xlink:href="#a"/><linearGradient id="c" x1="-1.706" y1="1.046" x2="7.416" y2="-1.213" xlink:href="#a"/><linearGradient id="d" x1="-5.688" y1="0.56" x2="0.501" y2="-1.977" xlink:href="#a"/><linearGradient id="e" x1="-3.776" y1="1.559" x2="16.573" y2="-3.48" xlink:href="#a"/><linearGradient id="j" x1="-2.385" y1="0.382" x2="2.063" y2="0.55" xlink:href="#a"/><linearGradient id="l" x1="0.436" y1="1.816" x2="0.62" y2="-1.924" xlink:href="#a"/><linearGradient id="m" x1="0.534" y1="1.829" x2="0.461" y2="-1.079" xlink:href="#a"/><linearGradient id="n" x1="0.828" y1="2.716" x2="0.611" y2="1.086" xlink:href="#a"/><linearGradient id="o" x1="0.683" y1="2.482" x2="0.4" y2="-0.546" xlink:href="#a"/><linearGradient id="p" x1="1.379" y1="-9.764" x2="0.142" y2="-3.407" gradientUnits="objectBoundingBox"><stop offset="0" stop-color="#ffde39"/><stop offset="0.094" stop-color="#fec63c"/><stop offset="0.286" stop-color="#fe9843"/><stop offset="0.415" stop-color="#fe7d4b"/><stop offset="0.652" stop-color="#fe4f59"/><stop offset="1" stop-color="#ed327f"/></linearGradient><linearGradient id="q" x1="1.035" y1="-2.899" x2="0.185" y2="-0.9" xlink:href="#p"/><linearGradient id="r" x1="1.013" y1="-4.637" x2="0.586" y2="-0.706" xlink:href="#p"/><linearGradient id="s" x1="0.967" y1="-2.641" x2="-0.065" y2="-0.212" xlink:href="#p"/><linearGradient id="t" x1="0.899" y1="-2.746" x2="0.048" y2="-0.145" xlink:href="#p"/><linearGradient id="u" x1="0.922" y1="-3.171" x2="0.129" y2="-0.063" xlink:href="#p"/><linearGradient id="v" x1="3.106" y1="-19.692" x2="2.65" y2="-18.23" xlink:href="#p"/><linearGradient id="w" x1="18.308" y1="-22.41" x2="-23.652" y2="-26.446" xlink:href="#p"/><linearGradient id="x" x1="1.653" y1="-11.359" x2="-0.072" y2="-4.403" xlink:href="#p"/><linearGradient id="y" x1="0.677" y1="-4.763" x2="-0.428" y2="-0.246" xlink:href="#p"/><linearGradient id="z" x1="0.645" y1="-3.185" x2="0.191" y2="-0.399" xlink:href="#p"/><linearGradient id="aa" x1="-0.664" y1="7.454" x2="-1.008" y2="8.931" gradientUnits="objectBoundingBox"><stop offset="0" stop-color="#bbb"/><stop offset="0.045" stop-color="#ccc"/><stop offset="0.108" stop-color="#dcdddd"/><stop offset="0.187" stop-color="#e8e9e9"/><stop offset="0.297" stop-color="#eff0f0"/><stop offset="0.602" stop-color="#f1f2f2"/><stop offset="1" stop-color="#fff"/></linearGradient><linearGradient id="ab" x1="-0.686" y1="8.584" x2="-1.047" y2="10.3" xlink:href="#aa"/><linearGradient id="ac" x1="-0.118" y1="5.912" x2="-0.118" y2="4.256" xlink:href="#aa"/><linearGradient id="ad" x1="0.156" y1="-0.115" x2="0.838" y2="1.07" xlink:href="#p"/><linearGradient id="ae" x1="-2.837" y1="15.915" x2="-3.885" y2="15.273" gradientUnits="objectBoundingBox"><stop offset="0" stop-color="#9d9e9f"/><stop offset="1" stop-color="#d1d3d4"/></linearGradient><linearGradient id="af" x1="-4.657" y1="15.613" x2="-3.596" y2="16.302" xlink:href="#ae"/><linearGradient id="ag" x1="-0.682" y1="6.011" x2="0.085" y2="5.064" xlink:href="#p"/><linearGradient id="ah" x1="0.515" y1="0.875" x2="0.472" y2="-0.208" xlink:href="#p"/><linearGradient id="ai" x1="-3.545" y1="17.912" x2="-2.545" y2="17.912" gradientUnits="objectBoundingBox"><stop offset="0" stop-color="#d1d3d4"/><stop offset="1" stop-color="#9d9e9f"/></linearGradient><linearGradient id="aj" x1="-4.322" y1="23.499" x2="-3.322" y2="23.499" xlink:href="#ai"/><linearGradient id="ak" x1="-77.631" y1="-103.7" x2="-76.9" y2="-102.228" gradientUnits="objectBoundingBox"><stop offset="0" stop-color="#ee6ee4"/><stop offset="1" stop-color="#ceecfa"/></linearGradient><linearGradient id="al" x1="-49.735" y1="-78.699" x2="-48.908" y2="-76.753" gradientUnits="objectBoundingBox"><stop offset="0" stop-color="#ee6ee4"/><stop offset="0.264" stop-color="#e68fea"/><stop offset="1" stop-color="#ceecfa"/></linearGradient><linearGradient id="am" x1="-78.713" y1="-97.982" x2="-77.57" y2="-96.522" gradientUnits="objectBoundingBox"><stop offset="0" stop-color="#ee6ee4"/><stop offset="0.688" stop-color="#d8c5f3"/><stop offset="0.771" stop-color="#d5cff5"/><stop offset="1" stop-color="#ceecfa"/></linearGradient><linearGradient id="an" x1="-37.41" y1="-81.611" x2="-38.616" y2="-83.014" xlink:href="#ak"/><linearGradient id="ao" x1="-90.781" y1="-67.33" x2="-92.034" y2="-68.693" xlink:href="#ak"/><linearGradient id="ap" x1="-26.275" y1="-44.314" x2="-27.042" y2="-44.959" xlink:href="#ak"/><linearGradient id="aq" x1="-24.93" y1="-23.619" x2="-24.009" y2="-24.584" xlink:href="#ak"/><linearGradient id="ar" x1="-68.041" y1="-45.298" x2="-68.64" y2="-44.272" xlink:href="#ak"/><linearGradient id="as" x1="1.849" y1="-0.71" x2="-1.447" y2="-3.333" xlink:href="#p"/><linearGradient id="at" x1="1.799" y1="-0.878" x2="-1.276" y2="-3.562" xlink:href="#p"/><linearGradient id="au" x1="0.388" y1="-2.472" x2="-0.164" y2="-1.017" xlink:href="#p"/><linearGradient id="av" x1="-0.369" y1="0.905" x2="0.972" y2="0.265" xlink:href="#p"/><linearGradient id="aw" x1="-0.083" y1="0.84" x2="1.061" y2="0.173" xlink:href="#p"/><linearGradient id="ax" x1="-0.5" y1="0.242" x2="1.107" y2="0.657" xlink:href="#p"/><linearGradient id="ay" x1="-1.651" y1="0.5" x2="0.973" y2="0.5" gradientUnits="objectBoundingBox"><stop offset="0" stop-color="#ceecfa"/><stop offset="1" stop-color="#ee6ee4"/></linearGradient><linearGradient id="az" x1="-1.8" y1="0.5" x2="1.128" y2="0.5" xlink:href="#ay"/><linearGradient id="ba" x1="0.301" y1="1.212" x2="0.656" y2="-0.057" xlink:href="#ay"/><linearGradient id="bb" x1="-2.077" y1="3.077" x2="9.727" y2="-8.727" xlink:href="#p"/><linearGradient id="bc" x1="-2.1" y1="3.1" x2="3.516" y2="-2.516" xlink:href="#p"/><linearGradient id="bd" x1="-1.307" y1="2.307" x2="3.653" y2="-2.653" xlink:href="#p"/><linearGradient id="be" x1="0.698" y1="0.302" x2="7.577" y2="-6.577" xlink:href="#p"/><linearGradient id="bf" x1="-4.699" y1="5.699" x2="3.76" y2="-2.76" xlink:href="#p"/><linearGradient id="bg" x1="2.232" y1="-1.895" x2="2.048" y2="-3.473" xlink:href="#p"/><linearGradient id="bh" x1="2.852" y1="-3.509" x2="2.791" y2="-7.437" xlink:href="#p"/><linearGradient id="bi" x1="1.696" y1="-1.151" x2="1.62" y2="-2.298" xlink:href="#p"/><linearGradient id="bj" x1="2.402" y1="-1.283" x2="2.36" y2="-3.207" xlink:href="#p"/><linearGradient id="bk" x1="1.084" y1="-38.006" x2="2.084" y2="-38.006" xlink:href="#ae"/><linearGradient id="bl" x1="0.388" y1="-37.382" x2="1.613" y2="-37.382" xlink:href="#ae"/><linearGradient id="bm" x1="2.926" y1="-42.82" x2="1.073" y2="-42.82" xlink:href="#ae"/><linearGradient id="bn" x1="1.218" y1="-1.973" x2="1.218" y2="-4.191" xlink:href="#p"/></defs><g transform="translate(-11130.242 -550.117)"><g transform="translate(11130.242 550.117)"><path class="a" d="M11209.071,788.613A57.242,57.242,0,0,1,11193.423,764a66.337,66.337,0,0,1-1.119-34.139c2.5-11.338,8.5-20.7,13.6-30.971,3.494-7.03,6.826-15.1,6.666-23.1-.168-8.424-3.428-16.706-4.532-25.052-3.927-29.679,29.5-46.295,53.924-50.4,27.772-4.668,59.8.544,81.333,19.659,8.743,7.762,15.865,14.455,27.8,16.868,16.839,3.406,33.9,1.773,47.111,14.906,7.7,7.648,11.937,19.058,9.688,29.672-1.765,8.328-7.119,15.349-11.314,22.756-16,28.247,19.033,67.01-12.249,90.314-15.358,11.441-38.845,9.929-56.521,6.232-19.244-4.025-38.475-12.715-58.452-9.355-19.9,3.347-40.2,12.028-60.625,7.7A42.452,42.452,0,0,1,11209.071,788.613Z" transform="translate(-11179.962 -590.163)"/><ellipse class="b" cx="17.866" cy="27.386" rx="17.866" ry="27.386" transform="translate(161.157 33.588) rotate(-70.054)"/><circle class="c" cx="15.338" cy="15.338" r="15.338" transform="translate(0 71.74)"/><ellipse class="d" cx="22.607" cy="13.656" rx="22.607" ry="13.656" transform="matrix(0.075, -0.997, 0.997, 0.075, 235.385, 151.52)"/><circle class="e" cx="6.876" cy="6.876" r="6.876" transform="translate(5.818 107.53)"/><g transform="translate(10.642 8.572)"><path class="a" d="M11406.881,1631.927c-10.285,1.244-21.212,4.079-30.624-.254-6.381-2.938-11.051-8.807-16.9-12.567a41.128,41.128,0,0,1-7.462,16.975,38.707,38.707,0,0,0,9.688,3.484c19.76,4.189,39.4-3.8,58.675-7.353A44.448,44.448,0,0,0,11406.881,1631.927Z" transform="translate(-11323.457 -1439.211)"/><path class="a" d="M11222.137,1244.876a23.394,23.394,0,0,1,4.365,2.239,37.184,37.184,0,0,0-2.524-22.582c-3.255-7.006-8.746-13.409-8.949-21.131-.19-7.314,4.52-14.261,3.571-21.515-.791-6.059-5.536-11.044-11.06-13.661q-.836-.4-1.7-.733c-5.09,10.221-11.046,19.559-13.541,30.855a66.337,66.337,0,0,0,1.119,34.139,57.172,57.172,0,0,0,5.951,12.872,54.878,54.878,0,0,1,10.26-1.815A28.859,28.859,0,0,1,11222.137,1244.876Z" transform="translate(-11190.604 -1067.219)"/><path class="a" d="M11263.111,1599.508a28.861,28.861,0,0,0-12.5-1.333,54.9,54.9,0,0,0-10.26,1.815,55.717,55.717,0,0,0,9.7,11.739,46.234,46.234,0,0,0,9.969,6.993,41.115,41.115,0,0,0,7.462-16.975A23.386,23.386,0,0,0,11263.111,1599.508Z" transform="translate(-11231.579 -1421.85)"/><path class="a" d="M12364.939,854.341a35.742,35.742,0,0,0-7.188-10.276c-7.776-7.728-16.884-10.343-26.5-11.88-.007.633,0,1.267.037,1.9.257,4.728,1.912,9.571,5.453,12.714,3.4,3.021,8.166,4.185,11.5,7.288a17.3,17.3,0,0,1,4.519,7.734c1.563,4.942,2.012,10.59,4.028,15.422a21.937,21.937,0,0,0,5.964,8.11,41.725,41.725,0,0,0,4.687-11.616A31.034,31.034,0,0,0,12364.939,854.341Z" transform="translate(-12130.152 -791.026)"/><path class="f" d="M12334.946,1034.952c2.118-3.739,4.53-7.38,6.629-11.14a21.927,21.927,0,0,1-5.964-8.11c-2.019-4.832-2.466-10.48-4.027-15.422a35.334,35.334,0,0,0-9.7,26.028c.224,5.174,1.491,10.458.116,15.45-1.925,6.987-8.459,11.585-12.346,17.7-6.773,10.662-4.609,25.225,2.393,35.739.527.791,1.079,1.56,1.648,2.314,5.053,6.678,11.746,11.937,18.955,16.4,5.257-10.167,3.758-21.938,1.539-33.976C12331.331,1064.431,12327.283,1048.485,12334.946,1034.952Z" transform="translate(-12108.976 -929.485)"/><path class="a" d="M12124.94,1551.782a29.762,29.762,0,0,1-4.569,7.752c-5.1,5.738-13.345,7.1-20.621,9.559a49.462,49.462,0,0,0-23.36,16.455q.517.112,1.033.221c17.678,3.7,41.163,5.21,56.522-6.232a33.12,33.12,0,0,0,9.95-11.354C12136.687,1563.719,12129.993,1558.46,12124.94,1551.782Z" transform="translate(-11920.222 -1383.756)"/><g transform="translate(59.798)"><path class="g" d="M11631.408,616.9c9.733,5.886,18.568,13.4,29.079,17.751.156.064.313.126.469.188a41.746,41.746,0,0,0,4.634-4.98,13.705,13.705,0,0,0,.859-1.365c-3.344-2.535-6.546-5.433-10-8.5-20.511-18.207-50.541-23.8-77.348-20.257a65.952,65.952,0,0,0-7.2,5.59q-.565.506-1.119,1.032C11590.863,600.979,11613.386,606,11631.408,616.9Z" transform="translate(-11563.557 -598.736)"/><path class="h" d="M11568.5,650.571c10.188,2.984,19.414,8.511,28.491,14.014s18.255,11.094,28.4,14.225c.228.07.458.138.688.206-.055-.067-.112-.133-.166-.2-2.747-3.437-4.5-8.086-3.132-12.266a16.209,16.209,0,0,1,4.4-6.231c-.156-.063-.312-.124-.468-.188-10.512-4.346-19.347-11.864-29.079-17.751-18.022-10.9-40.545-15.926-60.623-10.541-3,2.851-5.671,6.159-6.752,10.125a14.519,14.519,0,0,0,.862,9.729,39.346,39.346,0,0,1,9.229-2.7A62.372,62.372,0,0,1,11568.5,650.571Z" transform="translate(-11529.778 -624.211)"/><path class="i" d="M11730.9,915.081c-9.3-3.508-17.857-9.028-27.5-11.462a45.529,45.529,0,0,0-20.351-.361,23.974,23.974,0,0,0-.656,2.683c-1.465,8.448,6.846,17.071,15.342,15.917,2.485-.337,4.854-1.353,7.355-1.55a11.613,11.613,0,0,1,10.607,5.44c1.968,3.246,2.185,7.21,2.59,10.983s1.188,7.794,3.908,10.442,7.967,2.91,9.86-.379c1-1.733.818-3.88,1.3-5.819,1.181-4.7,6.06-7.5,10.753-8.693s9.7-1.368,14.085-3.418c3.939-1.84,7.315-5.961,6.88-10.116A69.645,69.645,0,0,1,11730.9,915.081Z" transform="translate(-11655.345 -848.765)"/><path class="j" d="M11641.811,773.817c-3.169-2.925-6.743-5.456-9.47-8.792-.23-.068-.461-.136-.688-.206-10.145-3.132-19.32-8.722-28.4-14.225s-18.3-11.031-28.491-14.014a62.372,62.372,0,0,0-28.154-1.575,39.325,39.325,0,0,0-9.228,2.7,20.081,20.081,0,0,0,15.464,11.548c4.173.489,9.2.141,11.646,3.556,2.427,3.391.493,7.7-.75,11.907a45.529,45.529,0,0,1,20.351.361c9.642,2.434,18.194,7.953,27.5,11.462a69.645,69.645,0,0,0,34.18,3.668,6.974,6.974,0,0,0-.3-1.419A12.3,12.3,0,0,0,11641.811,773.817Z" transform="translate(-11536.039 -710.22)"/></g></g></g><g transform="translate(11195.103 638.671)"><path class="k" d="M11589.729,1142.167a3.254,3.254,0,0,1,.946-1.707c10.02-9.532,15.963-23.306,15.275-37.186a61.656,61.656,0,0,0-2.6-14.09l-79.058-20.514c-5.38,4.69-8.876,10.284-11.766,16.825a55.823,55.823,0,0,0-3.766,13.677c-.749,4.594-3.1,9.252-4.984,13.491-1.731,3.907-3.524,7.5-5.306,10.781a2.635,2.635,0,0,0,1.366,3.836,24.563,24.563,0,0,1,5.373,3.547,3.017,3.017,0,0,1,1.04,2.28V1154.5a7.758,7.758,0,0,0,8.1,7.751l14.855-.662.006.027c.386,2.062.713,4.223.958,6.485.341,3.148.492,8.407.5,12.88,4.008-.949,8-1.832,11.981-2.5,16.019-2.694,31.557,2.359,47.006,6.542v-42.194A3.3,3.3,0,0,1,11589.729,1142.167Z" transform="translate(-11498.127 -1065.802)"/><g transform="translate(16.802 0)"><g transform="translate(0 37.048)"><path class="l" d="M11600.531,1266.423a19.054,19.054,0,0,1-6.093-1,1.484,1.484,0,1,1,.946-2.814,16.094,16.094,0,0,0,5.357.841,15.857,15.857,0,0,0,3.548-.447,1.484,1.484,0,0,1,.7,2.884,18.839,18.839,0,0,1-4.213.531Z" transform="translate(-11593.427 -1262.534)"/></g><g transform="translate(7.584)"><path class="m" d="M11688.466,1056.178c-19.088-4.751-36.018-4.968-41.5-.961,2.647,6.148,17.862,14.048,37.228,18.868,19.087,4.751,36.018,4.968,41.5.961C11723.046,1068.9,11707.83,1061,11688.466,1056.178Z" transform="translate(-11645.111 -1052.398)"/><g transform="translate(29.339 0.362)"><path class="n" d="M11818.419,1141.169a25,25,0,0,1,1.491-4.9,4.777,4.777,0,0,0-3.074.863,5.533,5.533,0,0,0-1.273,1.7c-1.035,1.525-3.937,2.728-12.118,1.346a24.832,24.832,0,0,0-.593,2.759l.41.493A80.407,80.407,0,0,0,11818.419,1141.169Z" transform="translate(-11802.852 -1121.847)"/><path class="o" d="M11818.33,1083.351a5.551,5.551,0,0,1,1.273-1.7,4.778,4.778,0,0,1,3.074-.863,24.907,24.907,0,0,1,10.409-11.876c-3.292,1.324-6.774,2.616-10.442,3.842-4.306,1.439-8.451,2.649-12.4,3.67a25.086,25.086,0,0,0-4.034,8.273C11814.395,1086.079,11817.3,1084.875,11818.33,1083.351Zm-3.748.061a1.06,1.06,0,1,1,1.349.653A1.059,1.059,0,0,1,11814.582,1083.411Z" transform="translate(-11805.619 -1066.363)"/><path class="p" d="M11851.937,1057a25.023,25.023,0,0,1,3.558-1.713,24.948,24.948,0,0,0-26.4,9.225c3.947-1.021,8.093-2.231,12.4-3.67C11845.162,1059.617,11848.645,1058.326,11851.937,1057Z" transform="translate(-11824.469 -1054.452)"/><path class="q" d="M11899.611,1073.227a15.839,15.839,0,0,0,3.572-.542c.541-.149,1.273-.432,2.742-1q2.145-.825,4.109-1.714c2.395-1.078,4.586-2.208,6.568-3.332,1.9-1.076,3.6-2.147,5.117-3.166a25.067,25.067,0,0,0-7.807-3.745q-1.9.815-3.895,1.618A24.9,24.9,0,0,0,11899.611,1073.227Z" transform="translate(-11882.553 -1058.802)"/><path class="r" d="M11889,1107.47a24.8,24.8,0,0,0-.428,6.05c2.649-.606,5.434-1.371,8.319-2.337a88.251,88.251,0,0,0,22.378-11.233,24.715,24.715,0,0,0-3.66-4.589,80.347,80.347,0,0,1-20.566,10.352C11892.965,1106.4,11890.946,1106.984,11889,1107.47Z" transform="translate(-11873.428 -1088.148)"/><path class="s" d="M11903.065,1087.473q-1.964.884-4.109,1.714c-1.468.564-2.2.847-2.741,1a15.853,15.853,0,0,1-3.574.542,25,25,0,0,0-1.491,4.9c1.951-.485,3.97-1.065,6.043-1.757a80.347,80.347,0,0,0,20.566-10.352,24.971,24.971,0,0,0-3.008-2.536c-1.516,1.018-3.222,2.089-5.118,3.166C11907.65,1085.266,11905.46,1086.395,11903.065,1087.473Z" transform="translate(-11875.582 -1076.3)"/><path class="t" d="M11962.545,1059.29c-.112-.032-.223-.065-.336-.095a25.074,25.074,0,0,0-3.558,1.713Q11960.645,1060.106,11962.545,1059.29Z" transform="translate(-11931.184 -1058.359)"/><path class="u" d="M11854.757,1145.226a1.06,1.06,0,1,0-1.349-.653A1.061,1.061,0,0,0,11854.757,1145.226Z" transform="translate(-11844.445 -1127.524)"/></g><g transform="translate(29.749 12.164)"><path class="v" d="M11820.336,1164.046a80.388,80.388,0,0,1-15.156,2.264l1.784,2.146a79.9,79.9,0,0,0,9.349,2.382c1.167-.216,2.365-.461,3.6-.742A24.8,24.8,0,0,1,11820.336,1164.046Z" transform="translate(-11805.18 -1156.526)"/><path class="w" d="M11991.352,1160.908l1.934-1.609a24.9,24.9,0,0,0-1.057-5.458,88.229,88.229,0,0,1-18.278,9.9A78.9,78.9,0,0,0,11991.352,1160.908Z" transform="translate(-11944.195 -1148.12)"/><path class="x" d="M11901.046,1137.1q1.375-.02,2.7-.088a88.172,88.172,0,0,0,18.278-9.9c-.079-.254-.161-.508-.249-.762a25.007,25.007,0,0,0-2.358-4.959,88.229,88.229,0,0,1-22.377,11.233c-2.886.966-5.67,1.731-8.319,2.337.023.453.063.907.111,1.362A78.336,78.336,0,0,0,11901.046,1137.1Z" transform="translate(-11873.995 -1121.391)"/></g><path class="y" d="M11675.525,1087.255c-19.365-4.82-34.581-12.72-37.229-18.868a4.281,4.281,0,0,0-1.753,2.388c-1.578,6.341,15.228,15.982,37.536,21.534s41.674,4.914,43.252-1.427a4.133,4.133,0,0,0-.309-2.666C11711.543,1092.223,11694.612,1092.006,11675.525,1087.255Z" transform="translate(-11636.441 -1065.568)"/></g></g></g><g transform="translate(11268.326 686.244)"><g transform="translate(0 42.214)"><path class="k" d="M11951.67,1571.555c-10.174,2.405-22.42,2.623-31.379-3.551a20.9,20.9,0,0,1-5.839-6.088c-.362-.575-1.277-.045-.914.534,5.989,9.523,17.938,12.2,28.491,11.6a57.467,57.467,0,0,0,9.922-1.472c.663-.157.383-1.177-.281-1.02Z" transform="translate(-11913.454 -1561.669)"/></g><g transform="translate(41.982 23.211)"><path class="k" d="M12172.206,1454.662c2.9,4.347,2.132,9.873-.616,14.1-2.632,4.045-6.862,7.024-11.055,9.266a52.073,52.073,0,0,1-8.593,3.6c-.646.208-.369,1.229.281,1.02a46.932,46.932,0,0,0,14.9-7.657c4-3.182,7.3-7.391,7.919-12.61a12.214,12.214,0,0,0-1.927-8.25c-.377-.563-1.293-.034-.914.534Z" transform="translate(-12151.575 -1453.887)"/></g><g transform="translate(48.367 18.972)"><path class="k" d="M12220.45,1436.5a22.255,22.255,0,0,1-19.488,8.46c-3.266-.306-6.825-1.312-9.252-3.624-1.756-1.673-3.444-4.366-2.717-6.893a4.931,4.931,0,0,1,3.151-3.035,7.96,7.96,0,0,1,7.262.84c.579.362,1.11-.552.534-.913-3.324-2.082-8.43-2.221-11.074,1.106-1.81,2.276-1.093,5.366.392,7.607,1.973,2.977,5.07,4.59,8.469,5.428a22.714,22.714,0,0,0,12.116-.41,23.017,23.017,0,0,0,11.355-7.818c.411-.532-.332-1.286-.748-.748Z" transform="translate(-12187.793 -1429.841)"/></g><g transform="translate(81.487 0)"><path class="k" d="M12375.742,1323.005a21.983,21.983,0,0,1,1.533,21.449c-.293.611.619,1.149.912.534a23.053,23.053,0,0,0-1.531-22.517c-.379-.562-1.295-.033-.914.534Z" transform="translate(-12375.651 -1322.232)"/></g></g><g transform="translate(11158.736 588.575)"><g transform="translate(0)"><g transform="translate(0 23.808)"><path class="z" d="M11304.038,940.885c2.58-2.134,1.925-4.536,3.771-9.257,2.2-5.632,5.717-8.965,10.527-13.353a53.246,53.246,0,0,1,17.531-10.608l-3.332-4.376a96.435,96.435,0,0,1-19.826,8.084c-5.376,1.507-6.276,1.225-9.665,2.745a37.961,37.961,0,0,0-7.935,4.877,46.714,46.714,0,0,1,.866,7.657,29.549,29.549,0,0,1-.134,3.388c3.893-2.179,6.312-4.144,8.336-7.26,1.409-2.166,1.52-3.181,3.382-5.36,3.6-4.215,7.919-5.945,12.336-7.657a54.085,54.085,0,0,1,14.951-3.438l-.447,1.426a38.776,38.776,0,0,0-12.925,4.117c-9.8,5.251-15.542,14.484-17.678,17.915-3.287,5.283-3.17,6.942-6.179,9.317a15.174,15.174,0,0,1-4.675,2.5q-.516,1.347-1.082,2.667a12.8,12.8,0,0,1,1.551-.749C11297.879,941.73,11300.939,943.448,11304.038,940.885Z" transform="translate(-11291.861 -903.29)"/><path class="aa" d="M11302.67,953.286c3.009-2.374,2.892-4.033,6.179-9.317,2.136-3.431,7.88-12.664,17.677-17.915a38.792,38.792,0,0,1,12.926-4.117l.447-1.426a54.085,54.085,0,0,0-14.951,3.438c-4.417,1.712-8.733,3.442-12.336,7.657-1.862,2.178-1.973,3.194-3.381,5.36-2.025,3.116-4.444,5.081-8.336,7.26a44.517,44.517,0,0,1-2.9,11.564A15.156,15.156,0,0,0,11302.67,953.286Z" transform="translate(-11296.913 -917.476)"/><path class="ab" d="M11302.67,953.286c3.009-2.374,2.892-4.033,6.179-9.317,2.136-3.431,7.88-12.664,17.677-17.915a38.792,38.792,0,0,1,12.926-4.117l.447-1.426a54.085,54.085,0,0,0-14.951,3.438c-4.417,1.712-8.733,3.442-12.336,7.657-1.862,2.178-1.973,3.194-3.381,5.36-2.025,3.116-4.444,5.081-8.336,7.26a44.517,44.517,0,0,1-2.9,11.564A15.156,15.156,0,0,0,11302.67,953.286Z" transform="translate(-11296.913 -917.476)"/></g><g transform="translate(34.925)"><path class="ac" d="M11515.681,797.646l-13.44-3.8-12.285,6.326,10.489,4.169Z" transform="translate(-11489.955 -789.334)"/><g transform="translate(4.049 20.396)"><path class="ad" d="M11512.921,887.4l5.817,11.3,1.354-1.188-5.419-10.522Z" transform="translate(-11512.921 -886.454)"/><path class="ae" d="M11525.163,883.938l-2.3.539,5.419,10.522,1.771-1.555Z" transform="translate(-11521.114 -883.938)"/></g><g transform="translate(6.159)"><path class="af" d="M11712.135,775.512a19.522,19.522,0,0,0,1.879,3.651,17.446,17.446,0,0,0,5.069,5.234c.137.09.284.184.442.281a4.732,4.732,0,0,0,.325-.431l6.422-11.967a1.57,1.57,0,0,0-1.185-2.3l-13.472-1.724a4.63,4.63,0,0,0-.786.042l-.012.047A19.764,19.764,0,0,0,11712.135,775.512Z" transform="translate(-11678.038 -768.253)"/><path class="ag" d="M11565.932,784.606a17.445,17.445,0,0,1-5.069-5.234,19.461,19.461,0,0,1-1.879-3.651,19.764,19.764,0,0,1-1.316-7.167l.011-.047a4.631,4.631,0,0,0-1.491.469l-31.3,16.116,8.771,17.038,31.3-16.116a4.635,4.635,0,0,0,1.415-1.127C11566.216,784.79,11566.068,784.7,11565.932,784.606Z" transform="translate(-11524.887 -768.462)"/></g><path class="ah" d="M11597.007,908.791l-3.892,10.852-12.285,6.326,2.5-10.134Z" transform="translate(-11564.809 -884.013)"/><circle class="ai" cx="4.841" cy="4.841" r="4.841" transform="translate(26.808 16.775) rotate(-72.243)"/><circle class="k" cx="3.795" cy="3.795" r="3.795" transform="translate(27.552 14.134) rotate(-50.276)"/><circle class="aj" cx="3.732" cy="3.732" r="3.732" transform="translate(15.153 17.123)"/><circle class="k" cx="2.938" cy="2.938" r="2.938" transform="translate(15.191 22.757) rotate(-72.243)"/></g></g></g><g transform="translate(11207.682 554.079)"><g transform="translate(13.561 0)"><path class="ak" d="M11752.872,577.953a4.9,4.9,0,0,0,1.574,2.9,5,5,0,0,0,2.692.8,17.278,17.278,0,0,0,3.107-.058c.791-.086,1.578-.226,2.369-.31-.222-.371-.436-.746-.637-1.126-.971-1.833-1.874-4.36-3.908-5.275a14.526,14.526,0,0,0-1.913-.5,5.607,5.607,0,0,1-2.609-1.794,21.533,21.533,0,0,0-3.328.262,4.735,4.735,0,0,1,1.753,1.866A13.978,13.978,0,0,1,11752.872,577.953Z" transform="translate(-11731.915 -572.592)"/><path class="al" d="M11771.709,574.386a14.525,14.525,0,0,1,1.913.5c2.034.915,2.938,3.442,3.908,5.275.2.38.415.755.637,1.126a10.888,10.888,0,0,1,1.261-.07,14.932,14.932,0,0,1,5.466,1.418,14.007,14.007,0,0,1,2.86,1.473,7.854,7.854,0,0,1,.82.682,21.659,21.659,0,0,0-19.475-12.2A5.607,5.607,0,0,0,11771.709,574.386Z" transform="translate(-11747.467 -572.592)"/><path class="am" d="M11827.254,622.924a14.922,14.922,0,0,0-5.465-1.418,10.888,10.888,0,0,0-1.261.07,33.378,33.378,0,0,0,7.191,8.265c1.157.974,2.487,1.774,4.052,1.394a3.957,3.957,0,0,0,1.014-.406q-.185-1.058-.478-2.115a21.66,21.66,0,0,0-1.372-3.635,7.956,7.956,0,0,0-.82-.682A14.015,14.015,0,0,0,11827.254,622.924Z" transform="translate(-11789.828 -612.882)"/><path class="an" d="M11683.268,759.227a25.2,25.2,0,0,1-2.57-3.2,13.04,13.04,0,0,0-2.213-2.986,2.931,2.931,0,0,0-3.434-.472,13.049,13.049,0,0,0-1.27,1.316,4,4,0,0,1-2.672.947,11.9,11.9,0,0,1-2.861-.424l-2.549-.592a21.642,21.642,0,0,0,24.041,9.193l.139-.041a8.678,8.678,0,0,1-2.891-.727A12.3,12.3,0,0,1,11683.268,759.227Z" transform="translate(-11662.296 -720.528)"/><path class="ao" d="M11661.518,662.291c-1.634-1.192-2.075-3.415-2.23-5.432s-.2-4.181-1.378-5.822a2.862,2.862,0,0,0-1.48-1.141l-.2-.03-.024.036c-.962,1.6.537,3.755-.153,5.49a3.917,3.917,0,0,1-1.98,1.853,11.746,11.746,0,0,1-1.961.791c.252.468.532.925.812,1.374a10.3,10.3,0,0,0,2.31,2.871,6.748,6.748,0,0,0,6.206.732c.267-.091.527-.194.784-.307A4.437,4.437,0,0,1,11661.518,662.291Z" transform="translate(-11651.104 -636.242)"/><path class="ap" d="M11681.121,710.279a11.832,11.832,0,0,1-3.042-.109,14.457,14.457,0,0,1-5.366-1.84,9.122,9.122,0,0,1-3.731-4.2c-1.373-3.331-.328-7.426-2.223-10.491a2.163,2.163,0,0,0-1.244-1.067,1.948,1.948,0,0,0-1.269.219,8.707,8.707,0,0,0-2.156,1.746,15.939,15.939,0,0,1-4.556,3.318c-.257.113-.518.217-.784.307a6.748,6.748,0,0,1-6.206-.732,10.3,10.3,0,0,1-2.31-2.871c-.279-.449-.558-.905-.812-1.374q-.5.15-1,.257a21.776,21.776,0,0,0,2.239,9.174,21.393,21.393,0,0,0,1.16,2.061l2.549.592a11.9,11.9,0,0,0,2.861.424,4.008,4.008,0,0,0,2.674-.947,13.138,13.138,0,0,1,1.268-1.316,2.934,2.934,0,0,1,3.436.472,13.062,13.062,0,0,1,2.211,2.986,25.215,25.215,0,0,0,2.571,3.2,12.307,12.307,0,0,0,3.72,3.013,8.688,8.688,0,0,0,2.892.727A21.565,21.565,0,0,0,11681.121,710.279Z" transform="translate(-11646.415 -671.392)"/><g transform="translate(0 0.262)"><path class="aq" d="M11713.306,591.765a3.971,3.971,0,0,1-1.014.406c-1.563.38-2.895-.42-4.052-1.394a33.377,33.377,0,0,1-7.191-8.265c-.791.084-1.578.224-2.368.31a17.283,17.283,0,0,1-3.108.058,4.993,4.993,0,0,1-2.692-.8,4.9,4.9,0,0,1-1.574-2.9,13.931,13.931,0,0,0-.9-3.233,4.734,4.734,0,0,0-1.753-1.866,21.6,21.6,0,0,0-4.571,1.239l-.925,1.442a6.848,6.848,0,0,0-.383,1.9,17.863,17.863,0,0,0-.132,2.522c.049,1.233.3,2.6-.42,3.6-.743,1.019-2.17,1.181-3.428,1.281-1.241.1-2.659.335-3.319,1.384l.2.03a2.854,2.854,0,0,1,1.48,1.141c1.184,1.64,1.224,3.806,1.378,5.822s.6,4.24,2.231,5.432a4.352,4.352,0,0,0,.705.415,15.971,15.971,0,0,0,4.556-3.318,8.687,8.687,0,0,1,2.156-1.746,1.946,1.946,0,0,1,1.269-.219,2.159,2.159,0,0,1,1.243,1.067c1.895,3.065.85,7.16,2.223,10.491a9.127,9.127,0,0,0,3.731,4.2,14.456,14.456,0,0,0,5.367,1.84,11.826,11.826,0,0,0,3.041.109A21.649,21.649,0,0,0,11713.306,591.765Z" transform="translate(-11670.349 -574.08)"/><path class="ar" d="M11647.4,601.4a11.69,11.69,0,0,0,1.961-.791,3.917,3.917,0,0,0,1.98-1.853c.69-1.735-.808-3.889.153-5.49l.024-.036c.66-1.049,2.078-1.284,3.32-1.384s2.685-.262,3.427-1.281c.726-1,.47-2.364.421-3.6a17.862,17.862,0,0,1,.132-2.522,6.778,6.778,0,0,1,.383-1.9l.925-1.442a21.628,21.628,0,0,0-13.73,20.55Q11646.908,601.549,11647.4,601.4Z" transform="translate(-11646.396 -579.867)"/></g></g><g transform="translate(24.701 70.065)"><path class="as" d="M11718.944,993.963a10.488,10.488,0,0,1-3.518-17.777,10.489,10.489,0,1,0,11.593,17.264A10.456,10.456,0,0,1,11718.944,993.963Z" transform="translate(-11709.584 -975.095)"/><path class="at" d="M11729.656,988.867a10.489,10.489,0,1,0-6.489-13.341A10.456,10.456,0,0,0,11729.656,988.867Z" transform="translate(-11720.296 -969.999)"/><path class="au" d="M11729.656,988.867a10.489,10.489,0,1,0-6.489-13.341A10.456,10.456,0,0,0,11729.656,988.867Z" transform="translate(-11720.296 -969.999)"/></g><g transform="translate(75.398 45.538)"><path class="av" d="M12059.732,832.473a16.993,16.993,0,0,1-10.978,31.757,16.991,16.991,0,1,0,10.978-31.757Z" transform="translate(-12039.655 -832.192)"/><path class="aw" d="M12026.317,846.21a17,17,0,1,0-16.988,16.989A16.987,16.987,0,0,0,12026.317,846.21Z" transform="translate(-11997.14 -830.881)"/><path class="ax" d="M12026.317,846.21a17,17,0,1,0-16.988,16.989A16.987,16.987,0,0,0,12026.317,846.21Z" transform="translate(-11997.14 -830.881)"/><g transform="translate(18.67 26.338)"><path class="ay" d="M12120.1,987.563a7.293,7.293,0,0,0-14.054-2.733,7.292,7.292,0,0,1,11.532,8.246A7.276,7.276,0,0,0,12120.1,987.563Z" transform="translate(-12105.518 -980.271)"/><path class="az" d="M12108.337,996.035a7.293,7.293,0,1,0,7.292,7.292A7.262,7.262,0,0,0,12108.337,996.035Z" transform="translate(-12103.035 -993.256)"/><path class="ba" d="M12108.337,996.035a7.293,7.293,0,1,0,7.292,7.292A7.262,7.262,0,0,0,12108.337,996.035Z" transform="translate(-12103.035 -993.256)"/></g><path class="bb" d="M12025.763,889.189a1.021,1.021,0,1,1-1.021-1.021A1.02,1.02,0,0,1,12025.763,889.189Z" transform="translate(-12019.036 -878.068)"/><circle class="bc" cx="2.146" cy="2.146" r="2.146" transform="translate(10.656 4.279)"/><circle class="bd" cx="2.43" cy="2.43" r="2.43" transform="translate(15.673 17.485) rotate(-45)"/><circle class="be" cx="1.752" cy="1.752" r="1.752" transform="matrix(0.924, -0.383, 0.383, 0.924, 6.191, 24.858)"/><circle class="bf" cx="1.425" cy="1.425" r="1.425" transform="translate(20.114 6.425)"/></g><g transform="translate(0 12.138)"><circle class="k" cx="2.398" cy="2.398" r="2.398" transform="matrix(0.924, -0.383, 0.383, 0.924, 60.781, 20.099)"/><circle class="k" cx="1.724" cy="1.724" r="1.724" transform="matrix(0.23, -0.973, 0.973, 0.23, 0, 20.281)"/><circle class="k" cx="2.559" cy="2.559" r="2.559" transform="translate(52.616 65.86)"/><circle class="k" cx="2.559" cy="2.559" r="2.559" transform="translate(109.973 56.458)"/><circle class="k" cx="1.439" cy="1.439" r="1.439" transform="translate(110.055 46.524) rotate(-22.5)"/><circle class="k" cx="1.439" cy="1.439" r="1.439" transform="translate(74.957 56.675) rotate(-22.5)"/><circle class="k" cx="1.613" cy="1.613" r="1.613" transform="translate(21.517 47.303)"/><circle class="k" cx="5.247" cy="5.247" r="5.247" transform="matrix(0.23, -0.973, 0.973, 0.23, 50.527, 10.213)"/></g></g><g transform="translate(11310.702 652.323)"><g transform="translate(8.212 4.889)"><path class="bg" d="M12267.431,1287.318l2.809,2.525,2.579-15.782.839-.933-2.884-2.442-.764.85Z" transform="translate(-12255.611 -1250.741)"/><path class="bh" d="M12307.965,1222.907l2.734,2.607.838-.933,15.418-4.24-2.809-2.525-15.418,4.24Z" transform="translate(-12289 -1207.193)"/><path class="bi" d="M12200.395,1231.213l11.818,10.624,2.579-15.782.764-.85-11.492-9.735Z" transform="translate(-12200.395 -1205.26)"/><path class="bj" d="M12257.039,1173.272l.765-.85,15.419-4.24-11.819-10.624-15.265,5.321Z" transform="translate(-12238.073 -1157.558)"/></g><g transform="translate(0)"><path class="l" d="M12153.813,1129.83l2.538,5.017,2.72-3.026Z" transform="translate(-12153.813 -1129.83)"/><path class="k" d="M12170.926,1141.119l-2.72,3.026,1.866,3.689c.11.219.2.447.3.674a1.736,1.736,0,0,0,.476.631c1.608,1.446,5.077,1.817,6.185.659,1.343-1.4.889-5.019-.852-6.584a1.61,1.61,0,0,0-.426-.314,1.911,1.911,0,0,0-.256-.1c-.235-.07-.472-.135-.7-.223Z" transform="translate(-12165.669 -1139.129)"/><g transform="translate(32.279 28.446)"><rect class="bk" width="7.972" height="1.009" transform="matrix(0.669, -0.744, 0.744, 0.669, 0, 5.929)"/><rect class="bl" width="7.972" height="1.009" transform="matrix(0.669, -0.744, 0.744, 0.669, 1.413, 7.198)"/><rect class="bm" width="7.972" height="0.89" transform="matrix(0.669, -0.744, 0.744, 0.669, 0.751, 6.603)"/></g><path class="bn" d="M12354.5,1309.162l1.622-1.8c1.035-1.151,1.146-2.663.295-3.427l-1.923-1.726-5.33,5.929,1.923,1.728C12351.942,1310.626,12353.47,1310.313,12354.5,1309.162Z" transform="translate(-12314.727 -1271.814)"/><g transform="translate(5.317 4.21)"><path class="bo" d="M12197.6,1171.928l25.344,22.782,1.359-1.513-27.332-24.571Z" transform="translate(-12194.683 -1165.996)"/><path class="bp" d="M12183.973,1187.338l27,24.271-.039-.035,1.3-1.451-25.345-22.782Z" transform="translate(-12183.973 -1181.409)"/><path class="af" d="M12196.975,1168.626l27.332,24.571,1.381-1.535-25.334-22.772Z" transform="translate(-12194.683 -1165.996)"/><path class="bq" d="M12240.915,1177.725l-26.715-24.015.343,2.893,25.334,22.772,1.285-1.429Z" transform="translate(-12208.871 -1153.71)"/></g></g></g></g></svg>