<svg xmlns="http://www.w3.org/2000/svg" xmlns:xlink="http://www.w3.org/1999/xlink" width="238.439" height="202.626" viewBox="0 0 238.439 202.626"><defs><style>.a{fill:url(#a);}.b{fill:url(#b);}.c{fill:url(#c);}.d{fill:url(#d);}.e{fill:url(#r);}.f{fill:#a7a9ac;}.g{fill:url(#s);}.h{fill:url(#t);}.i{fill:url(#v);}.j{fill:url(#w);}.k{fill:url(#x);}.l{fill:url(#y);}.m{fill:url(#z);}.n{fill:url(#aa);}.o{fill:url(#ab);}.p{fill:url(#ac);}.q{fill:url(#ad);}.r{fill:url(#ae);}.s{fill:url(#af);}.t{fill:url(#ag);}.u{fill:url(#ah);}.v{fill:url(#ai);}.w{fill:url(#aj);}.x{fill:url(#ak);}.y{fill:url(#al);}.z{fill:url(#am);}.aa{fill:url(#an);}.ab{fill:url(#ao);}.ac{fill:url(#ap);}.ad{fill:url(#aq);}.ae{fill:url(#ar);}.af{fill:url(#at);}.ag{fill:#fff;}.ah{fill:none;}.ai{fill:url(#av);}.aj{fill:url(#aw);}.ak{fill:url(#ax);}</style><linearGradient id="a" y1="0.5" x2="1" y2="0.5" gradientUnits="objectBoundingBox"><stop offset="0" stop-color="#582d7f"/><stop offset="0.212" stop-color="#4a5094"/><stop offset="0.754" stop-color="#29a6c7"/><stop offset="1" stop-color="#1dc9dc"/></linearGradient><linearGradient id="b" x1="-6.293" y1="7.293" x2="0.727" y2="0.273" xlink:href="#a"/><linearGradient id="c" x1="-1.694" y1="2.694" x2="7.442" y2="-6.442" xlink:href="#a"/><linearGradient id="d" x1="-2.855" y1="3.855" x2="3.861" y2="-2.861" xlink:href="#a"/><linearGradient id="r" x1="0.5" y1="0.262" x2="0.5" y2="1.142" gradientUnits="objectBoundingBox"><stop offset="0" stop-color="#a7a9ac"/><stop offset="1" stop-color="#808285"/></linearGradient><linearGradient id="s" x1="0.5" y1="0.264" x2="0.5" y2="2.772" gradientUnits="objectBoundingBox"><stop offset="0" stop-color="#ceecfa"/><stop offset="1" stop-color="#ee6ee4"/></linearGradient><linearGradient id="t" x1="0.908" y1="0.269" x2="0.071" y2="0.814" xlink:href="#s"/><linearGradient id="v" x1="1.209" y1="-0.111" x2="0.536" y2="0.738" xlink:href="#s"/><linearGradient id="w" x1="0.506" y1="0.497" x2="0.135" y2="0.661" xlink:href="#s"/><linearGradient id="x" x1="0.599" y1="0.963" x2="-0.015" y2="0.16" xlink:href="#s"/><linearGradient id="y" x1="0.5" y1="0.864" x2="0.5" y2="0.025" xlink:href="#s"/><linearGradient id="z" x1="0.628" y1="0.777" x2="-0.039" y2="0.15" xlink:href="#s"/><linearGradient id="aa" x1="0.622" y1="0.658" x2="0.131" y2="-0.037" xlink:href="#s"/><linearGradient id="ab" x1="0.867" y1="0.726" x2="0.32" y2="0.286" xlink:href="#s"/><linearGradient id="ac" x1="0.691" y1="0.652" x2="0.412" y2="0.296" xlink:href="#s"/><linearGradient id="ad" x1="1.114" y1="0.5" x2="-0.148" y2="0.5" xlink:href="#s"/><linearGradient id="ae" x1="0.5" y1="-2.145" x2="0.5" y2="8.575" xlink:href="#s"/><linearGradient id="af" x1="-0.313" y1="0.5" x2="1.074" y2="0.5" xlink:href="#s"/><linearGradient id="ag" x1="0.5" y1="0.625" x2="0.5" y2="-0.057" xlink:href="#r"/><linearGradient id="ah" x1="0.5" y1="0.354" x2="0.5" y2="1.186" xlink:href="#r"/><linearGradient id="ai" x1="1.163" y1="0.5" x2="-0.911" y2="0.5" xlink:href="#r"/><linearGradient id="aj" x1="0.5" y1="0.169" x2="0.5" y2="1.774" xlink:href="#r"/><linearGradient id="ak" x1="0.149" y1="0.5" x2="0.917" y2="0.5" gradientUnits="objectBoundingBox"><stop offset="0" stop-color="#42e397"/><stop offset="1" stop-color="#3cb6b5"/></linearGradient><linearGradient id="al" x1="0.5" y1="0.248" x2="0.5" y2="0.901" gradientUnits="objectBoundingBox"><stop offset="0" stop-color="#ffde39"/><stop offset="0.327" stop-color="#fec63c"/><stop offset="1" stop-color="#fe9843"/></linearGradient><linearGradient id="am" x1="0.5" y1="1.284" x2="0.5" y2="0.947" xlink:href="#ak"/><linearGradient id="an" x1="0.5" y1="1.6" x2="0.5" y2="2.704" xlink:href="#ak"/><linearGradient id="ao" x1="0.033" y1="0.5" x2="0.967" y2="0.5" xlink:href="#ak"/><linearGradient id="ap" x1="0.269" y1="0.5" x2="0.684" y2="0.5" xlink:href="#ak"/><linearGradient id="aq" x1="0.927" y1="0.5" x2="0.114" y2="0.5" xlink:href="#ak"/><linearGradient id="ar" y1="0.5" x2="1" y2="0.5" gradientUnits="objectBoundingBox"><stop offset="0" stop-color="#fcba18"/><stop offset="1" stop-color="#fcd118"/></linearGradient><linearGradient id="at" x1="0" y1="0.5" x2="1" y2="0.5" xlink:href="#ak"/><linearGradient id="av" x1="0.5" y1="0.591" x2="0.5" y2="1.737" xlink:href="#al"/><linearGradient id="aw" x1="-0.036" y1="0.5" x2="1.036" y2="0.5" xlink:href="#al"/><linearGradient id="ax" x1="0.5" y1="0.594" x2="0.5" y2="1.731" xlink:href="#al"/></defs><g transform="translate(-4825.658 -564.039)"><g transform="translate(4825.658 564.039)"><path class="a" d="M5025.546,629.008c-8.81-2.9-18-4.773-26.377-8.755-15.842-7.535-18.736-23.151-29.949-35.117a67.081,67.081,0,0,0-35.018-19.794c-23.784-4.922-55.379,4.048-65.562,28.051a43.76,43.76,0,0,0-3.213,12.769c-.859,8.527-2.526,17.1-6.991,24.544-6,10.039-15.931,16.478-23.375,25.238-17.486,20.578-10.5,62.587,20.249,65.7h.005c8.09.817,17.761-1.327,22.5,7.124,1.861,3.32,2.619,7.124,3.834,10.732,10.417,30.906,53.328,31.782,78.219,20.671,12.008-5.361,22.421-13.4,34.97-17.668,13.337-4.535,27.506-7.085,39.853-14.168,14.672-8.416,25.685-23.287,28.61-39.947C5068.078,661.16,5050.916,637.347,5025.546,629.008Z" transform="translate(-4825.657 -564.039)"/><circle class="b" cx="13.565" cy="13.565" r="13.565" transform="translate(163.498 22.161)"/><circle class="c" cx="10.422" cy="10.422" r="10.422" transform="translate(27.848 163.6)"/><circle class="d" cx="14.177" cy="14.177" r="14.177" transform="translate(3.25 40.23)"/></g><g transform="translate(4825.658 564.041)"><path class="a" d="M5202.768,1198.957c-4.507,1.468-10.9,3.981-10.937,9.68-.031,4.574,5.187,8.177.906,12.283-2.531,2.428-6.827,2.781-10.05,3.674-6.929,1.92-13.408,7.834-9.164,15.3,3.261,5.741,10.618,9.423,16.573,11.637l22.607-58.243C5210.421,1196.43,5206.457,1197.755,5202.768,1198.957Z" transform="translate(-5114.847 -1089.198)"/><g transform="translate(0)"><path class="a" d="M4845.232,1328.621a11.079,11.079,0,0,1-1.062.724,25.913,25.913,0,0,1-10.7,3.493c2.588,10.855,9.06,20.375,19.37,24.666a55.715,55.715,0,0,0-2.737-19.558A36.713,36.713,0,0,0,4845.232,1328.621Z" transform="translate(-4832.175 -1202.141)"/><path class="a" d="M6078.225,975.635c-.087.619-.166,1.238-.233,1.859-.49,4.572-.366,10.585,3.1,14.058,1.688,1.691,4.021,2.542,6.011,3.866,7.082,4.712,6.881,14.887,12.806,20.743a16.677,16.677,0,0,0,4.338,3.08,18.1,18.1,0,0,1,3.926-5.941C6104.992,996.878,6093.7,983.176,6078.225,975.635Z" transform="translate(-5870.648 -907.548)"/><path class="a" d="M4825.765,1267.513a48.447,48.447,0,0,0,1.187,14.326,25.906,25.906,0,0,0,10.7-3.493,11.194,11.194,0,0,0,1.063-.724A27.369,27.369,0,0,0,4825.765,1267.513Z" transform="translate(-4825.661 -1151.141)"/><path class="a" d="M4848.779,1040.652c-4.45,4.3-9.181,8.342-13.191,13.06-5.617,6.611-8.709,15.434-9.3,24.469a27.368,27.368,0,0,1,12.953,10.109c3.146-2.41,4.956-6.255,7.923-8.858,4.224-3.7,12.465-1.833,15.308-6.991a11.477,11.477,0,0,0,1.124-6.031C4863.191,1056.541,4857.1,1046.758,4848.779,1040.652Z" transform="translate(-4826.186 -961.809)"/><path class="a" d="M5346.207,564.614a25.871,25.871,0,0,1-.462,7.5,25.113,25.113,0,0,0,30.021-4.726,63.836,63.836,0,0,0-7.512-2.044A67.911,67.911,0,0,0,5346.207,564.614Z" transform="translate(-5259.708 -564.049)"/><path class="a" d="M5299.909,568.955a25.265,25.265,0,0,0,7.583,6.014,25.87,25.87,0,0,0,.462-7.5A70.9,70.9,0,0,0,5299.909,568.955Z" transform="translate(-5221.455 -566.9)"/><path class="a" d="M5108.01,576.474c-15.343,3.777-29.318,12.79-35.471,27.3a42.563,42.563,0,0,0-2.567,8.409,22.083,22.083,0,0,0,9.509-1.9c8.394-3.9,10.937-14.828,20.753-16.424,6.812-1.107,12.975-3.01,15.107-10.4q.139-.483.251-.971A25.261,25.261,0,0,1,5108.01,576.474Z" transform="translate(-5029.557 -574.419)"/><path class="a" d="M6221.6,1239.231a41.562,41.562,0,0,0-3.19,14.061,55.631,55.631,0,0,0,1.763,14.493,54.7,54.7,0,0,0,5.465-15.9,52.07,52.07,0,0,0,.757-11.165A15.719,15.719,0,0,1,6221.6,1239.231Z" transform="translate(-5988.003 -1127.538)"/><path class="a" d="M6237.772,1209.258a15.709,15.709,0,0,0,4.794,1.485,49.87,49.87,0,0,0-.868-7.427A18.092,18.092,0,0,0,6237.772,1209.258Z" transform="translate(-6004.172 -1097.565)"/><path class="a" d="M5467.874,1751.764a15.792,15.792,0,0,0-5.349,6.087,83.994,83.994,0,0,0,11.18-1.18A29.532,29.532,0,0,0,5467.874,1751.764Z" transform="translate(-5357.171 -1555.284)"/><path class="a" d="M5257.943,1705.466a32.2,32.2,0,0,0-14.857,4.391c9.843,7.15,23.184,9.812,36.3,9.316a15.789,15.789,0,0,1,5.349-6.087,43.4,43.4,0,0,0-5.386-2.973A45.649,45.649,0,0,0,5257.943,1705.466Z" transform="translate(-5174.033 -1516.607)"/><path class="a" d="M5523.291,1663.418c-4.7,3.452-8.127,5.86-14.178,6.279-5.176.358-10.312,1.62-14.256,4.323a29.52,29.52,0,0,1,5.831,4.907,75.52,75.52,0,0,0,17.672-5.26c9.024-4.028,17.147-9.569,25.952-13.886a20.1,20.1,0,0,0-4.725-1.067A23.893,23.893,0,0,0,5523.291,1663.418Z" transform="translate(-5384.154 -1477.54)"/></g></g><g transform="translate(4883.659 582.067)"><g transform="translate(14.77 0)"><path class="e" d="M5463.283,673.031a11.819,11.819,0,0,0-2.185,23.3v6.7h5.485V694.9h-.056a2.686,2.686,0,0,0-2.657-2.118h-.029a7.947,7.947,0,1,1,7.79-9.528,1.949,1.949,0,0,0,1.9,1.581h0a1.943,1.943,0,0,0,1.9-2.336A11.824,11.824,0,0,0,5463.283,673.031Z" transform="translate(-5421.176 -673.018)"/><path class="f" d="M5348.356,834.306a210.4,210.4,0,0,0-80.27,0,3.255,3.255,0,0,0-2.531,3.063,2.024,2.024,0,0,0,2.531,2.047,210.392,210.392,0,0,1,80.27,0,2.024,2.024,0,0,0,2.53-2.047A3.255,3.255,0,0,0,5348.356,834.306Z" transform="translate(-5265.556 -804.4)"/></g><g transform="translate(0 26.446)"><g transform="translate(27.221)"><path class="g" d="M5619.841,832.884h-14.9a.349.349,0,0,0-.294.162l-2.961,4.7h18.5v-4.52A.348.348,0,0,0,5619.841,832.884Z" transform="translate(-5558.535 -832.884)"/><path class="h" d="M5556.445,867.02a13.917,13.917,0,0,1,1.723-4.713h-18.5l-12.294,19.534,21.4,34.876h.914v-8.938a36.916,36.916,0,0,1,.443-5.88,15.263,15.263,0,0,1,.669-2.6c1.2-3.453,4.409-6.845,6.119-10.291a17.423,17.423,0,0,0,1.7-7.753C5558.7,875.025,5555.54,872.484,5556.445,867.02Z" transform="translate(-5496.514 -857.44)"/><path class="g" d="M5358.807,832.884h-14.895a.348.348,0,0,0-.348.348v4.52h18.423l-2.884-4.7A.348.348,0,0,0,5358.807,832.884Z" transform="translate(-5343.111 -832.884)"/><path class="i" d="M5421.808,1008.141l30.237,7.127h8.623l-21.4-34.876Z" transform="translate(-5408.411 -955.99)"/><g transform="translate(0 4.867)"><path class="j" d="M5436.29,862.307H5432.6l34.084,54.411h3.9l-22.311-34.876Z" transform="translate(-5417.414 -862.307)"/><path class="k" d="M5341.278,862.307A13.907,13.907,0,0,1,5343,867.02c.905,5.464-2.25,8-2.174,14.235a17.414,17.414,0,0,0,1.7,7.753c1.709,3.446,4.921,6.838,6.119,10.291a15.217,15.217,0,0,1,.669,2.6,36.859,36.859,0,0,1,.443,5.88v8.938h40.329l-34.084-54.411Z" transform="translate(-5340.825 -862.307)"/></g></g><path class="l" d="M5434.8,1259.439v-13.472h-12.62l-12,62.181c.569.781,7.53,10,19.5,9.6,11.022-.372,17.209-8.589,17.94-9.6C5447.632,1308.148,5431.987,1280.4,5434.8,1259.439Z" transform="translate(-5371.492 -1177.632)"/><path class="m" d="M5541.963,1248.174c-7.787,27.953,14.255,61.816,14.255,61.816a26.185,26.185,0,0,0,24.685-8.327l-29.76-53.49Z" transform="translate(-5480.078 -1179.474)"/><path class="n" d="M5602.465,1247.166l-11.553-1.2c-3.894,25.78,31.986,53.855,31.986,53.855,13.768-.191,14.047-15.8,14.047-15.8C5614.415,1279.987,5602.465,1247.166,5602.465,1247.166Z" transform="translate(-5522.073 -1177.632)"/><path class="o" d="M5303.261,1238.716h-5.11l-30.456,55.054s9.6,11.977,23.572,8.326c0,0,13.246-5.424,11.994-52.881Z" transform="translate(-5252.571 -1171.581)"/><path class="p" d="M5212.431,1249.008S5200.68,1281.2,5176.273,1286c0,0,0,16.271,14.6,15.645s33.182-41.709,32.612-53.472Z" transform="translate(-5176.273 -1179.474)"/><g transform="translate(36.158 59.278)"><rect class="q" width="44.234" height="2.399"/><rect class="r" width="44.234" height="2.399" transform="translate(0 7.857)"/><rect class="s" width="44.234" height="5.458" transform="translate(0 2.399)"/></g></g></g><g transform="translate(4982.519 609.302)"><g transform="translate(28.209 0)"><path class="t" d="M5944.4,1438.545a3.4,3.4,0,0,0,6.795,0v-32.02H5944.4Z" transform="translate(-5944.402 -1312.418)"/><path class="u" d="M5947.889,837.651h-.178a3.309,3.309,0,0,0-3.309,3.308V850.6h6.795v-9.638A3.308,3.308,0,0,0,5947.889,837.651Z" transform="translate(-5944.402 -837.651)"/></g><path class="v" d="M5779.636,965.964a3.963,3.963,0,0,1,.135-2.595c-1.574.761-2.944,1.508-4.093,2.18a3.623,3.623,0,0,0-1.654,4.136l11.627,40.2a11.693,11.693,0,0,1-.254,7.272q-2.938,8.013-5.875,16.026a6.175,6.175,0,0,0,4.621,8.19q1.127.218,2.308.421a6.757,6.757,0,0,1-.783-6.177q3.223-8.79,6.445-17.58a12.82,12.82,0,0,0,.278-7.977Z" transform="translate(-5773.88 -942.572)"/><g transform="translate(5.6 8.713)"><path class="w" d="M5919.715,890.318h-14.628a3.127,3.127,0,0,0-3.1,2.725h20.829A3.128,3.128,0,0,0,5919.715,890.318Z" transform="translate(-5886.394 -890.318)"/><path class="f" d="M5863.543,918.33a59.662,59.662,0,0,0-19.364-7.177V907.2a3.143,3.143,0,0,0-.029-.4h-20.829a3.143,3.143,0,0,0-.029.4v3.961a59.779,59.779,0,0,0-15.272,4.995,3.967,3.967,0,0,0-.135,2.595l12.754,44.094a12.819,12.819,0,0,1-.279,7.977l-6.445,17.58a6.757,6.757,0,0,0,.783,6.177,112.36,112.36,0,0,0,40.382-.421,6.175,6.175,0,0,0,4.621-8.19l-5.876-16.026a11.693,11.693,0,0,1-.253-7.272q5.813-20.1,11.627-40.2A3.626,3.626,0,0,0,5863.543,918.33Z" transform="translate(-5807.729 -904.067)"/></g></g><g transform="translate(4829.708 616.292)"><g transform="translate(0 25.258)"><path class="x" d="M4926.987,1050a10.8,10.8,0,0,1-2.76-1.9c-1.108-8.729-9.21-15.505-19.041-15.505h-35.872c-10.588,0-19.171,7.859-19.171,17.554,0,9.358,8,17.005,18.076,17.525l36.967.029a19.434,19.434,0,0,0,17.067-9.551,36.11,36.11,0,0,0,5.882-2.393c4.856-2.492,6.913-3.73,8.907-5.886A12.186,12.186,0,0,1,4926.987,1050Z" transform="translate(-4850.143 -1032.589)"/></g><g transform="translate(10.112 0)"><path class="y" d="M4965.523,915.837l-19.759-14.694a2.344,2.344,0,0,0-1.4-.465h-7.014a2.345,2.345,0,0,0-1.4.465l-19.825,14.694a5.078,5.078,0,0,0-1.694,2.2l21.091,16.808h10.673l20.9-17.083A5.084,5.084,0,0,0,4965.523,915.837Z" transform="translate(-4913.905 -897.242)"/><g transform="translate(0)"><g transform="translate(3.759 8.196)"><path class="z" d="M4933.994,966.521l19.485,6.443,23.643-31.91-15.662-11.6Z" transform="translate(-4933.994 -929.451)"/></g><g transform="translate(1.879 4.502)"><rect class="aa" width="46.137" height="19.492" transform="matrix(0.595, -0.803, 0.803, 0.595, 0, 37.071)"/></g><rect class="ab" width="46.137" height="19.492" transform="translate(0 37.071) rotate(-53.465)"/><path class="ac" d="M4970.916,910.164l-6.981-5.172a3.394,3.394,0,0,1-4.755.652l-22.087,29.811a3.394,3.394,0,0,1,.761,4.739l6.981,5.172a3.394,3.394,0,0,1,4.755-.652l22.087-29.811A3.4,3.4,0,0,1,4970.916,910.164Z" transform="translate(-4932.821 -900.842)"/><path class="ad" d="M4976.364,918.412l-6.354-4.708a3.125,3.125,0,0,1-4.371.65l-20.571,27.764a3.124,3.124,0,0,1,.651,4.37l6.354,4.708a3.124,3.124,0,0,1,4.37-.651l20.57-27.763A3.124,3.124,0,0,1,4976.364,918.412Z" transform="translate(-4939.478 -908.113)"/><g transform="translate(11.941 11.003)"><g transform="translate(16.735)"><path class="ae" d="M5087.152,946.732a1.59,1.59,0,1,0,.331,2.224A1.59,1.59,0,0,0,5087.152,946.732Z" transform="translate(-5084.616 -946.419)"/></g><g transform="translate(0 22.587)"><path class="ae" d="M4985.99,1083.269a1.59,1.59,0,1,0,.33,2.224A1.59,1.59,0,0,0,4985.99,1083.269Z" transform="translate(-4983.453 -1082.957)"/></g><path class="af" d="M5003.751,971.865a8.967,8.967,0,0,0-12.576,12.495,8.982,8.982,0,0,0,1.9,1.912,9.427,9.427,0,0,0,3.972,1.659,8.76,8.76,0,0,0,1.214.1,9.161,9.161,0,0,0,5.444-1.725,8.972,8.972,0,0,0,.044-14.442Z" transform="translate(-4988.457 -966.185)"/><path class="ae" d="M5009.038,978.814a7.778,7.778,0,0,0-10.909,10.839,7.781,7.781,0,0,0,1.65,1.658,8.172,8.172,0,0,0,3.445,1.439,7.587,7.587,0,0,0,1.053.089,7.946,7.946,0,0,0,4.723-1.5,7.782,7.782,0,0,0,.038-12.528Z" transform="translate(-4994.452 -972.179)"/><g transform="translate(3.682 7.169)"><path class="ag" d="M5013.314,1017.1l-1.709-1.266a1.612,1.612,0,0,0-2.379.486,1.417,1.417,0,0,0-.261,1.076l-1.542-1.142,1.515-2.045a.231.231,0,0,0-.039-.319l-.672-.5a.234.234,0,0,0-.327.049l-1.515,2.045-.168.227-.469.632a.231.231,0,0,0,.056.317l3.477,2.576.129.1a.234.234,0,0,0,.327-.049l.49-.662a.234.234,0,0,0-.048-.327l-.04-.029-.089-.066a.663.663,0,0,1-.159-1.066.726.726,0,0,1,1.135-.107l1.374,1.017c.425.315.631.758.316,1.183s-.8.356-1.224.042l-.01-.007-.119-.088a.234.234,0,0,0-.327.049l-.49.662a.233.233,0,0,0,.049.327l.119.088.048.037.1.073a1.925,1.925,0,0,0,2.8-.284l.19-.257A1.935,1.935,0,0,0,5013.314,1017.1Z" transform="translate(-5005.708 -1009.442)"/><path class="ag" d="M5037.01,992.867l-3.576-2.649a1.935,1.935,0,0,0-2.8.294l-.19.257a1.926,1.926,0,0,0,.542,2.758l3.576,2.649a1.926,1.926,0,0,0,2.8-.284l.191-.257A1.936,1.936,0,0,0,5037.01,992.867Zm-5.122-.275c-.424-.315-.624-.768-.316-1.183a.74.74,0,0,1,1.029-.171l1.521,3.008Zm4.524,2.4a.736.736,0,0,1-.973.2l-1.508-2.984,2.164,1.6C5036.521,994.126,5036.728,994.57,5036.413,994.995Z" transform="translate(-5026.038 -989.754)"/></g></g></g><g transform="translate(0.159 20.525)"><path class="ah" d="M5050.736,1102.449h-7.023a2.351,2.351,0,0,0-1.4.465l-.429.322.008.006h10.673l.006-.005-.427-.322A2.352,2.352,0,0,0,5050.736,1102.449Z" transform="translate(-5020.434 -1086.159)"/><path class="ai" d="M4912.235,1007.521v25.78a5.071,5.071,0,0,0,1.813,3.892l19.633-14.75-21.084-16.8A5.079,5.079,0,0,0,4912.235,1007.521Z" transform="translate(-4912.235 -1005.366)"/><path class="aj" d="M4953.51,1107.214h-10.673l-.008-.006-19.633,14.75a5.063,5.063,0,0,0,3.271,1.193h43.34a5.064,5.064,0,0,0,3.269-1.191l-19.56-14.752Z" transform="translate(-4921.383 -1090.131)"/><path class="ak" d="M5106.486,1021.056l19.559,14.752a5.073,5.073,0,0,0,1.817-3.894v-25.786a5.084,5.084,0,0,0-.479-2.15Z" transform="translate(-5074.352 -1003.979)"/></g></g></g></g></svg>