<svg xmlns="http://www.w3.org/2000/svg" xmlns:xlink="http://www.w3.org/1999/xlink" width="250" height="200.28" viewBox="0 0 250 200.28"><defs><style>.a{fill:url(#a);}.b{fill:url(#b);}.c{fill:url(#c);}.d{fill:#fff;}.e{fill:url(#o);}.f{fill:#f1f2f2;}.g{fill:#a51b38;}.h{fill:url(#p);}.i{fill:url(#q);}.j{fill:url(#r);}.k{fill:url(#s);}.l{fill:url(#t);}.m{fill:url(#u);}.n{fill:url(#v);}.o{fill:url(#w);}.p{fill:url(#x);}.q{fill:url(#y);}.r{fill:url(#z);}.s{fill:url(#aa);}.t{fill:url(#ab);}.u{fill:url(#ac);}.v{fill:url(#ad);}.w{fill:url(#ae);}.x{fill:url(#af);}.y{fill:url(#ag);}.z{fill:url(#ah);}.aa{fill:url(#ai);}.ab{fill:url(#aj);}.ac{fill:url(#ak);}.ad{fill:url(#al);}.ae{fill:url(#am);}.af{fill:url(#an);}.ag{fill:url(#ao);}.ah{fill:url(#ap);}.ai{fill:url(#aq);}.aj{fill:url(#ar);}.ak{fill:#4a91d6;}.al{fill:#00a14b;}.am{fill:#7f3f98;}.an{fill:#f7941e;}.ao{fill:#fcd118;}.ap{fill:#ef4136;}.aq{fill:#808285;}.ar{fill:url(#as);}.as{fill:url(#at);}.at{fill:url(#au);}.au{fill:url(#av);}.av{fill:#ffd633;}.aw{fill:#fc0;}.ax{fill:#ffe066;}.ay{fill:url(#aw);}.az{fill:url(#ax);}.ba{fill:url(#ay);}.bb{fill:url(#az);}.bc{fill:url(#ba);}.bd{fill:url(#bb);}.be{fill:url(#bc);}.bf{fill:url(#bd);}.bg{fill:url(#be);}.bh{fill:url(#bf);}.bi{fill:url(#bg);}</style><linearGradient id="a" y1="0.5" x2="1" y2="0.5" gradientUnits="objectBoundingBox"><stop offset="0" stop-color="#582d7f"/><stop offset="0.212" stop-color="#4a5094"/><stop offset="0.754" stop-color="#29a6c7"/><stop offset="1" stop-color="#1dc9dc"/></linearGradient><linearGradient id="b" x1="-0.458" y1="0.5" x2="9.356" y2="0.5" xlink:href="#a"/><linearGradient id="c" x1="-5.885" y1="0.701" x2="1.627" y2="0.701" xlink:href="#a"/><linearGradient id="o" x1="24.205" y1="-11.437" x2="26.005" y2="-11.09" gradientUnits="objectBoundingBox"><stop offset="0" stop-color="#a7a9ac"/><stop offset="0.833" stop-color="#fff"/></linearGradient><linearGradient id="p" x1="0.849" y1="-0.102" x2="1.725" y2="-0.324" gradientUnits="objectBoundingBox"><stop offset="0" stop-color="#5ba10a"/><stop offset="1" stop-color="#79d60d"/></linearGradient><linearGradient id="q" x1="0.619" y1="-0.229" x2="1.486" y2="-0.229" xlink:href="#p"/><linearGradient id="r" x1="1.334" y1="0.977" x2="1.334" y2="-0.318" gradientUnits="objectBoundingBox"><stop offset="0" stop-color="#00ac00"/><stop offset="1" stop-color="#008100"/></linearGradient><linearGradient id="s" x1="1.306" y1="1.223" x2="1.306" y2="-0.276" xlink:href="#p"/><linearGradient id="t" x1="2.173" y1="-0.271" x2="3.15" y2="-0.271" xlink:href="#p"/><linearGradient id="u" x1="0.454" y1="0.075" x2="1.464" y2="0.075" xlink:href="#p"/><linearGradient id="v" x1="0.279" y1="-0.165" x2="1.289" y2="-0.039" xlink:href="#r"/><linearGradient id="w" x1="0.893" y1="0.091" x2="1.78" y2="0.091" xlink:href="#r"/><linearGradient id="x" x1="1.317" y1="0.986" x2="1.317" y2="-0.204" xlink:href="#p"/><linearGradient id="y" x1="0.883" y1="-1.018" x2="0.598" y2="-1.982" xlink:href="#p"/><linearGradient id="z" x1="0.335" y1="-1.036" x2="1.346" y2="-1.036" xlink:href="#p"/><linearGradient id="aa" x1="0.183" y1="-0.276" x2="1.29" y2="-0.276" xlink:href="#r"/><linearGradient id="ab" x1="0.277" y1="-0.094" x2="1.236" y2="-0.094" xlink:href="#p"/><linearGradient id="ac" x1="3.534" y1="-0.29" x2="2.183" y2="0.019" xlink:href="#p"/><linearGradient id="ad" x1="0.137" y1="-0.504" x2="1.403" y2="-1.707" gradientUnits="objectBoundingBox"><stop offset="0" stop-color="#ceecfa"/><stop offset="1" stop-color="#ee6ee4"/></linearGradient><linearGradient id="ae" x1="-0.321" y1="-0.066" x2="0.642" y2="0.635" xlink:href="#ad"/><linearGradient id="af" x1="-0.039" y1="0.389" x2="1.405" y2="0.389" xlink:href="#ad"/><linearGradient id="ag" x1="0.5" y1="-6.393" x2="0.5" y2="7.971" xlink:href="#ad"/><linearGradient id="ah" x1="0.491" y1="-5.374" x2="0.491" y2="5.26" xlink:href="#ad"/><linearGradient id="ai" x1="0.473" y1="-8.605" x2="0.473" y2="6.026" xlink:href="#ad"/><linearGradient id="aj" x1="0.106" y1="-23.472" x2="0.106" y2="-1.134" xlink:href="#ad"/><linearGradient id="ak" x1="0.376" y1="-8.997" x2="0.376" y2="-0.714" xlink:href="#ad"/><linearGradient id="al" x1="0.453" y1="-6.146" x2="0.453" y2="3.559" xlink:href="#ad"/><linearGradient id="am" x1="0.449" y1="-6.239" x2="0.449" y2="2.332" xlink:href="#ad"/><linearGradient id="an" x1="0.535" y1="1.592" x2="0.535" y2="-0.038" xlink:href="#ad"/><linearGradient id="ao" x1="0.548" y1="-1.786" x2="0.548" y2="6.651" xlink:href="#ad"/><linearGradient id="ap" x1="0.625" y1="-6.803" x2="0.625" y2="14.398" xlink:href="#ad"/><linearGradient id="aq" x1="7.463" y1="1.422" x2="6.786" y2="1.731" gradientUnits="objectBoundingBox"><stop offset="0" stop-color="#a7a9ac"/><stop offset="1" stop-color="#ccc"/></linearGradient><linearGradient id="ar" x1="0.091" y1="-0.008" x2="-0.349" y2="-0.095" gradientUnits="objectBoundingBox"><stop offset="0" stop-color="#fff"/><stop offset="1" stop-color="#f1f2f2"/></linearGradient><linearGradient id="as" x1="-0.505" y1="3.949" x2="0.495" y2="3.949" gradientUnits="objectBoundingBox"><stop offset="0" stop-color="#9d9e9f"/><stop offset="1" stop-color="#d1d3d4"/></linearGradient><linearGradient id="at" x1="-1.058" y1="3.969" x2="0.166" y2="3.969" xlink:href="#as"/><linearGradient id="au" x1="1.408" y1="4.424" x2="-0.445" y2="4.424" xlink:href="#as"/><linearGradient id="av" x1="-0.052" y1="4.308" x2="-0.052" y2="0.991" gradientUnits="objectBoundingBox"><stop offset="0" stop-color="#ffde39"/><stop offset="0.094" stop-color="#fec63c"/><stop offset="0.286" stop-color="#fe9843"/><stop offset="0.415" stop-color="#fe7d4b"/><stop offset="0.652" stop-color="#fe4f59"/><stop offset="1" stop-color="#ed327f"/></linearGradient><linearGradient id="aw" x1="157.233" y1="-25.846" x2="157.233" y2="-26.332" xlink:href="#as"/><linearGradient id="ax" x1="172.173" y1="-26.689" x2="172.173" y2="-26.937" xlink:href="#as"/><linearGradient id="ay" x1="166.483" y1="-704.287" x2="166.483" y2="-714.931" xlink:href="#as"/><linearGradient id="az" x1="326.491" y1="-1192.753" x2="326.491" y2="-1210.124" xlink:href="#as"/><linearGradient id="ba" x1="-17.135" y1="6.124" x2="-21.927" y2="6.735" xlink:href="#as"/><linearGradient id="bb" x1="116.724" y1="-26.011" x2="116.724" y2="-26.405" xlink:href="#as"/><linearGradient id="bc" x1="33.725" y1="-33.646" x2="33.17" y2="-36.063" gradientUnits="objectBoundingBox"><stop offset="0" stop-color="#fdd7ad"/><stop offset="1" stop-color="#fd98ad"/></linearGradient><linearGradient id="bd" x1="29.778" y1="-35.471" x2="30.662" y2="-37.42" xlink:href="#bc"/><linearGradient id="be" x1="22.612" y1="-28.911" x2="22.814" y2="-27.228" xlink:href="#bc"/><linearGradient id="bf" x1="118.975" y1="-32.504" x2="120.955" y2="-32.504" xlink:href="#as"/><linearGradient id="bg" x1="201.299" y1="-34.494" x2="208.944" y2="-34.494" xlink:href="#as"/></defs><g transform="translate(-2646.619 -605.733)"><g transform="translate(2646.619 605.733)"><path class="a" d="M2683.64,645.81c7.935-11.779,24.813-20.63,38.952-25.706,33.854-12.153,74.525-17.187,110.79-12.822,14.318,1.723,28.6,6.408,38.978,15.39,13.227,11.444,17.4,26.542,9.055,41.3-3.717,6.577-8.311,13.047-9.177,20.374-2.194,18.57,17.306,33.4,19.25,51.626,2.109,19.783-4.5,40.818-23.256,52.945-11.993,7.756-26.082,9.522-40.358,11.686a481.161,481.161,0,0,1-129.076,2c-21.473-2.577-39.985-10.579-48.476-29.676a44.691,44.691,0,0,1,.359-36.416c5.873-13.018,17.478-18.82,29.61-26.723,15.58-10.15,12.752-21.965,3.91-35.137C2676.907,663.794,2678.069,654.081,2683.64,645.81Z" transform="translate(-2646.619 -605.733)"/><circle class="b" cx="14.415" cy="14.415" r="14.415" transform="translate(11.1 70.574)"/><ellipse class="c" cx="18.831" cy="10.083" rx="18.831" ry="10.083" transform="translate(227.612 100.093) rotate(-86.562)"/></g><g transform="translate(2646.619 605.867)"><path class="a" d="M2714.992,1288.9a16.344,16.344,0,0,0-2.174-4.76,48.005,48.005,0,0,0-4.869,4.6C2710.3,1288.889,2712.648,1288.956,2714.992,1288.9Z" transform="translate(-2697.424 -1167.856)"/><path class="a" d="M2745.184,831.387c9.073-1.323,18.131-5.55,23.24-13.165a24.992,24.992,0,0,0,3.8-18.154c-.825-4.566-2.913-9.35-1.131-13.635,1.448-3.481,5.03-5.489,7.636-8.214a17.729,17.729,0,0,0,4.344-16.1c-.921-3.824-3.1-7.221-4.365-10.945a24.289,24.289,0,0,1,1.516-18.652c-9,4.849-17.355,11.023-22.271,18.321-5.571,8.271-6.733,17.984.559,28.846,8.843,13.172,11.67,24.987-3.91,35.137-6.513,4.243-12.874,7.881-18.277,12.354a16.349,16.349,0,0,1,2.175,4.76A56.049,56.049,0,0,0,2745.184,831.387Z" transform="translate(-2720.929 -710.898)"/><path class="a" d="M3886.12,678.884q-.212.531-.418,1.067a81.968,81.968,0,0,0,20.68-1.3,44.853,44.853,0,0,0-7.568-8.316,54.69,54.69,0,0,0-10.5-7.067A37.035,37.035,0,0,1,3886.12,678.884Z" transform="translate(-3673.073 -653.529)"/><path class="a" d="M3856.9,754.208c-6.815,17.605-9.471,38.26,1.22,54.974a39.729,39.729,0,0,0,14.846,13.555c-2.338-5.271-3.758-10.689-3.075-16.47.866-7.327,5.46-13.8,9.177-20.375,6.446-11.407,5.418-23.016-1.487-32.985A81.968,81.968,0,0,1,3856.9,754.208Z" transform="translate(-3644.271 -727.787)"/><path class="a" d="M3658.321,630.85a65.193,65.193,0,0,0,12.489,2.088q.207-.535.419-1.067a37.059,37.059,0,0,0,2.192-15.616,83.456,83.456,0,0,0-28.477-8.323c-6.11-.735-12.344-1.2-18.649-1.416C3632.786,618.459,3645.035,627.243,3658.321,630.85Z" transform="translate(-3458.181 -606.517)"/><path class="a" d="M2681.636,1371.7c-.12-.239-.243-.477-.373-.713-4.735-8.612-15.319-12.161-19.744-20.859-2.715-5.337-1.838-11.767-.268-17.546s3.786-11.54,3.558-17.523a17.219,17.219,0,0,0-.623-3.952c-2.344.059-4.694-.008-7.044-.159a36.736,36.736,0,0,0-6.463,9.768,44.691,44.691,0,0,0-.359,36.416,43.673,43.673,0,0,0,14.643,18.021,49.548,49.548,0,0,1,12.385-3.195A24.165,24.165,0,0,1,2681.636,1371.7Z" transform="translate(-2646.619 -1190.067)"/><path class="a" d="M3838.972,1571.43a64.966,64.966,0,0,0,.309,9.284,59.924,59.924,0,0,0,16.651-7.237,49.878,49.878,0,0,0,18.161-20.666,42.128,42.128,0,0,0-26.773,10.659C3844.454,1566.014,3841.854,1568.923,3838.972,1571.43Z" transform="translate(-3634.321 -1390.425)"/><path class="a" d="M3879.433,1280.17c-.654-6.131-3.294-11.877-6.427-17.51a13.54,13.54,0,0,0-1.85,7.116c.049,4.4,1.289,8.94-.086,13.124-1.522,4.634-5.841,7.654-9.7,10.642-11.2,8.685-20.207,19.14-21.865,33.716q-.216,1.9-.293,3.812c2.882-2.506,5.482-5.416,8.348-7.959a42.129,42.129,0,0,1,26.774-10.659A60.441,60.441,0,0,0,3879.433,1280.17Z" transform="translate(-3634.564 -1150.065)"/><path class="a" d="M2765.907,1665.155a49.559,49.559,0,0,0-12.384,3.195,60.218,60.218,0,0,0,19.364,8.89,28.917,28.917,0,0,0-2.691-12.343A24.17,24.17,0,0,0,2765.907,1665.155Z" transform="translate(-2735.178 -1483.263)"/><path class="a" d="M3692.575,1661.311a28.314,28.314,0,0,1-5.424,3.814c-5.1,2.67-11.068,3.148-16.4,5.327a27.343,27.343,0,0,0-8.555,5.595q3.493-.477,6.979-1c8.078-1.225,16.095-2.323,23.707-4.45A65.037,65.037,0,0,1,3692.575,1661.311Z" transform="translate(-3487.924 -1480.307)"/><path class="a" d="M2932.387,1648.028c-7.706-5.521-15.927-10.522-24.982-13.324-8.462-2.619-17.914-3.272-26.4-.383-7.022,2.39-14.345,8.791-22.174,6.1a59.153,59.153,0,0,0-5.738-2.1,13.276,13.276,0,0,0-2.413-.315,28.913,28.913,0,0,1,2.691,12.343,99.253,99.253,0,0,0,14.469,2.766,480.538,480.538,0,0,0,73.969,3.108A51.486,51.486,0,0,0,2932.387,1648.028Z" transform="translate(-2815.663 -1456.381)"/></g><g transform="translate(2699.332 630.116)"><g transform="translate(0 0)"><path class="d" d="M3145.237,869.125l-6.03-41.036-7.58-51.28-2.107-15.151c-1.267-8.62-8.055-14.762-15.163-13.718l-98.218,14.432,14.976,13.162.235.337c.011.069-.04-.242-.03-.173l15.96,108.561c1.26,8.572,7.979,14.69,15.043,13.732l84.021-20.933Z" transform="translate(-3005.443 -747.824)"/><path class="e" d="M2964.581,831.972c7.051-1.036,13.783,5,15.128,13.511l-25.7,3.989C2952.74,840.851,2957.475,833.016,2964.581,831.972Z" transform="translate(-2953.801 -817.436)"/></g><path class="f" d="M3296.55,1456.8l61.488-9.035,28.816-4.234c1.267,8.62-3.468,16.455-10.574,17.5l-.026,0-90.279,13.265C3293.083,1473.251,3297.817,1465.417,3296.55,1456.8Z" transform="translate(-3228.973 -1324.143)"/></g><g transform="translate(2755.045 644.158)"><g transform="translate(0)"><g transform="translate(1.074 21.064)"><path class="g" d="M3371.67,956.323l3.874,26.363a2.022,2.022,0,0,0,2.294,1.706l7.041-1.035a3.1,3.1,0,0,1,3.385,2.055,7.968,7.968,0,0,1,.429,2.181c.255,4.785-3.987,7.782-4.3,7.993l5.157-.757a23.243,23.243,0,0,0,2.354-5.817c.681-2.693,1.186-4.691.088-6.294a3.964,3.964,0,0,0-1.166-1.107,4.874,4.874,0,0,0-3.32-.666l-8.112,1.192a2.022,2.022,0,0,1-2.294-1.706l-3.874-26.363Z" transform="translate(-3356.749 -953.782)"/><g transform="translate(34.448 14.109)"><g transform="translate(0 13.711)"><path class="g" d="M3492.015,1116.512a2.855,2.855,0,0,1-1.844-.263,2.3,2.3,0,0,1-1.049-1.3l-3.427.5a.2.2,0,0,1-.058-.4l3.6-.529a.2.2,0,0,1,.226.162,1.943,1.943,0,0,0,.906,1.215,3.218,3.218,0,0,0,2.767-.108c.035.016.134.1.177.118s.116-.081.139-.024a.2.2,0,0,1-.115.259A6.18,6.18,0,0,1,3492.015,1116.512Z" transform="translate(-3485.464 -1114.524)"/></g><g transform="translate(3.603 1.03)"><path class="g" d="M3506.692,1053.706a.2.2,0,0,1-.182-.328l3.2-3.753-1.289-8.77a.2.2,0,1,1,.4-.058l1.3,8.859a.2.2,0,0,1-.045.159l-3.254,3.822A.2.2,0,0,1,3506.692,1053.706Z" transform="translate(-3506.463 -1040.626)"/></g><g transform="translate(6.222)"><path class="g" d="M3521.95,1040.58a.2.2,0,0,1-.159-.352l1.458-1.227a1.73,1.73,0,0,0,.6-1.583l-.377-2.566a.2.2,0,1,1,.4-.058l.377,2.567a2.126,2.126,0,0,1-.739,1.948l-1.457,1.227A.2.2,0,0,1,3521.95,1040.58Z" transform="translate(-3521.72 -1034.622)"/></g><g transform="translate(6.914 9.464)"><path class="g" d="M3528.826,1090.17l-2.843.418a.2.2,0,1,1-.058-.4l2.843-.417a.2.2,0,0,1,.058.4Z" transform="translate(-3525.753 -1089.772)"/></g><g transform="translate(0.815 3.702)"><path class="g" d="M3496.2,1060.834l-2.06.3a3.2,3.2,0,0,1-3.628-2.7l-.3-2.01a.2.2,0,0,1,.4-.058l.295,2.01a2.8,2.8,0,0,0,3.174,2.361l2.059-.3a.2.2,0,0,1,.059.4Z" transform="translate(-3490.216 -1056.198)"/></g></g><g transform="translate(13.889 28.159)"><path class="g" d="M3370.73,1116.9l-4.826.709c-.109.016-.308.109-.231.029.169-.177.076-.3.173-.426l4.826-.709a.2.2,0,1,1,.058.4Z" transform="translate(-3365.656 -1116.502)"/></g><g transform="translate(14.491 18.238)"><path class="g" d="M3372.606,1061.328a.2.2,0,0,1-.144-.034l-3.21-2.23a.2.2,0,0,1-.05-.279c.063-.091.043-.028.179-.1l3.31,2.281a.2.2,0,0,1-.085.363Z" transform="translate(-3369.167 -1058.684)"/></g><g transform="translate(13.79 11.865)"><path class="g" d="M3368.206,1024.392a.2.2,0,0,1-.159-.045l-2.9-2.444a.2.2,0,0,1,.259-.307l2.9,2.444a.2.2,0,0,1-.1.352Z" transform="translate(-3365.079 -1021.549)"/></g><path class="h" d="M3285.651,953.189l-.93-.785c.027.415.642,8.042,6.933,11.161a12.309,12.309,0,0,0,7.5,1.01l-.875-.738a11.943,11.943,0,0,1-5.945-1.182C3287.744,960.381,3286.176,955.713,3285.651,953.189Z" transform="translate(-3284.721 -952.404)"/><path class="i" d="M3296.823,966.443a11.941,11.941,0,0,0,5.945,1.181l-12.625-10.648C3290.667,959.5,3292.236,964.169,3296.823,966.443Z" transform="translate(-3289.213 -956.192)"/><g transform="translate(16.92 3.871)"><path class="g" d="M3383.552,978.117a.2.2,0,0,1-.12-.02.2.2,0,0,1-.088-.269l1.4-2.756a.2.2,0,1,1,.357.182l-1.4,2.756A.2.2,0,0,1,3383.552,978.117Z" transform="translate(-3383.323 -974.963)"/></g></g><path class="j" d="M3509.362,929.9c.817,5.559-.245,10.319-2.372,10.632s-4.514-3.941-5.331-9.5,2.372-10.632,2.372-10.632S3508.545,924.341,3509.362,929.9Z" transform="translate(-3463.249 -904.828)"/><path class="k" d="M3496.63,950.6c.7,4.792-.449,8.931-2.576,9.243s-4.422-3.319-5.126-8.112,2.576-9.243,2.576-9.243S3495.926,945.81,3496.63,950.6Z" transform="translate(-3452.73 -923.129)"/><path class="l" d="M3484.89,1032.5c.2,1.365-.162,2.548-.81,2.643s-1.336-.933-1.537-2.3a1.53,1.53,0,1,1,2.347-.345Z" transform="translate(-3447.501 -995.791)"/><path class="m" d="M3545.921,1078.615c-2.437.358-4.562-.365-4.746-1.616s1.644-2.555,4.081-2.913S3550,1075.7,3550,1075.7,3548.359,1078.257,3545.921,1078.615Z" transform="translate(-3496.083 -1032.106)"/><path class="n" d="M3301.156,895.889c3.893,3.494,5.884,7.623,4.448,9.223s-5.755.064-9.648-3.43-4.447-9.223-4.447-9.223S3297.264,892.4,3301.156,895.889Z" transform="translate(-3289.271 -881.683)"/><path class="o" d="M3323.3,836.21c2.644,4.771,3.1,9.572,1.022,10.724s-5.907-1.782-8.55-6.553-1.022-10.724-1.022-10.724S3320.654,831.439,3323.3,836.21Z" transform="translate(-3308.113 -829.657)"/><path class="p" d="M3345.763,842.8c.9,6.1-.794,11.4-3.777,11.84s-6.126-4.153-7.022-10.254,3.776-11.84,3.776-11.84S3344.867,836.7,3345.763,842.8Z" transform="translate(-3325.174 -832.049)"/><g transform="translate(0 39.301)"><path class="q" d="M3293.4,1058.808a10.117,10.117,0,0,1-4.38,4.141c-4.464,2.039-8.817-.744-10.41-1.967l-.141.021c.284.261,5.577,4.976,11.035,2.483a10.478,10.478,0,0,0,4.744-4.8Z" transform="translate(-3278.464 -1058.684)"/><path class="r" d="M3289.7,1063.551a10.117,10.117,0,0,0,4.38-4.141l-14.79,2.173C3280.881,1062.807,3285.234,1065.59,3289.7,1063.551Z" transform="translate(-3279.147 -1059.286)"/></g><path class="s" d="M3307.038,1120.647a10.456,10.456,0,0,1-2.138,5.915c-3.628,4.671-9.894,4.182-10.234,4.15Z" transform="translate(-3291.885 -1070.713)"/><path class="t" d="M3541.951,1124.414a7.888,7.888,0,0,1-4.484,1.549c-4.46.086-7.144-3.822-7.286-4.037Z" transform="translate(-3486.986 -1071.773)"/><path class="u" d="M3396.062,883.658c-2.731,4.881-6.114,8.184-7.558,7.377s-.4-5.419,2.332-10.3a20.445,20.445,0,0,1,7.558-7.377A20.444,20.444,0,0,1,3396.062,883.658Z" transform="translate(-3369.084 -865.859)"/></g><g transform="translate(4.611 59.305)"><path class="v" d="M3388.969,1197.064l-.958,2.312-1.769-1.911-1,.147,2.979,3.373Z" transform="translate(-3371.531 -1193.322)"/><g transform="translate(1.331 4.673)"><path class="w" d="M3464.259,1208.08c-1.1-1.658-3.3-4.028-7.989-5.593l-.9.057a12.867,12.867,0,0,1,4.627,4.135c5.068,7.638,1.19,21.719-10.839,34.68a10.033,10.033,0,0,1-5.9,3.1l-3.411.5-3.411.5a10.075,10.075,0,0,1-2.393.062l.113.067a10.035,10.035,0,0,0,6.538,1.271l3.411-.5,3.411-.5a10.031,10.031,0,0,0,5.9-3.1C3465.449,1229.8,3469.327,1215.718,3464.259,1208.08Z" transform="translate(-3413.293 -1202.487)"/><path class="x" d="M3339.649,1245.235l3.411-.5a10.032,10.032,0,0,0,5.9-3.1c12.029-12.961,15.907-27.042,10.839-34.68a12.864,12.864,0,0,0-4.627-4.135l-17.533,1.123-17.991,4.172c-4.044,2.849-5.465,5.75-6.042,7.655-2.65,8.751,5.07,21.081,20.243,30.028a10.059,10.059,0,0,0,2.393-.062Z" transform="translate(-3313.088 -1202.764)"/></g><g transform="translate(38.95 11.224)"><path class="y" d="M3547.692,1241.257l-15.035,2.209a.3.3,0,1,1-.088-.6l15.035-2.209a.3.3,0,0,1,.088.6Z" transform="translate(-3532.312 -1240.658)"/></g><g transform="translate(15.678 13.656)"><path class="z" d="M3418.791,1255.433l-21.752,3.2a.3.3,0,0,1-.087-.6l21.751-3.2a.3.3,0,1,1,.087.595Z" transform="translate(-3396.695 -1254.835)"/></g><g transform="translate(0 16.998)"><path class="aa" d="M3320.365,1274.908l-14.686,2.158a.3.3,0,1,1-.088-.595l14.686-2.158a.3.3,0,1,1,.087.6Z" transform="translate(-3305.334 -1274.309)"/></g><g transform="translate(41.634 35.668)"><path class="ab" d="M3556.505,1383.7l-8.2,1.206a.3.3,0,0,1-.088-.6l8.206-1.206a.3.3,0,0,1,.087.595Z" transform="translate(-3547.956 -1383.105)"/></g><g transform="translate(11.002 37.099)"><path class="ac" d="M3398.888,1392.045l-29.1,4.275a.3.3,0,1,1-.087-.595l29.095-4.275a.3.3,0,1,1,.087.595Z" transform="translate(-3369.448 -1391.447)"/></g><g transform="translate(30.876 18.818)"><path class="ad" d="M3509.831,1285.515l-24.225,3.56a.3.3,0,0,1-.088-.6l24.226-3.56a.3.3,0,1,1,.087.595Z" transform="translate(-3485.262 -1284.917)"/></g><g transform="translate(1.116 22.64)"><path class="ae" d="M3340.157,1307.787l-27.975,4.111a.3.3,0,0,1-.087-.6l27.975-4.11a.3.3,0,0,1,.088.595Z" transform="translate(-3311.837 -1307.189)"/></g><path class="af" d="M3383.366,1175.262l-25.666,3.772-1.242,2.811-2-2.335-6.011.883a.76.76,0,0,0-.642.863l.591,4.023,36.42-5.352-.591-4.024A.761.761,0,0,0,3383.366,1175.262Z" transform="translate(-3340.512 -1175.253)"/><g transform="translate(16.378 1.807)"><path class="ag" d="M3429.608,1186.383l-28.486,4.186a.3.3,0,0,1-.087-.595l28.486-4.186a.3.3,0,0,1,.088.6Z" transform="translate(-3400.778 -1185.785)"/></g><g transform="translate(6.027 6.211)"><path class="ah" d="M3349.663,1212.048l-8.864,1.3a.3.3,0,0,1-.088-.6l8.864-1.3a.3.3,0,0,1,.088.6Z" transform="translate(-3340.454 -1211.45)"/></g></g></g><g transform="translate(2674.955 707.516)"><path class="ai" d="M2860.171,1271.97c-14.792,1.543-28.307-5.6-34.562-17a2.092,2.092,0,0,1,2.392-3.022l.188.052a7.485,7.485,0,0,0,9.213-5.212h0a9.654,9.654,0,0,0-3.7-9.44l-.359-1.786c-6.273-5.551-6.375-10.023-6.266-11.574.646-9.148,15.659-14.481,26.462-15.608,19.187-2,36.227,10.611,38.059,28.171S2879.359,1269.968,2860.171,1271.97Z" transform="translate(-2823.01 -1206.574)"/><path class="aj" d="M2846.57,1262.667c-14.792,1.543-28.307-5.6-34.562-17a2.092,2.092,0,0,1,2.392-3.023l.188.052a7.485,7.485,0,0,0,9.213-5.213h0a7.485,7.485,0,0,0-5.212-9.213h0a8.981,8.981,0,0,1-5.115-13.587,36.04,36.04,0,0,1,26.462-15.608c19.188-2,36.227,10.61,38.06,28.171S2865.758,1260.665,2846.57,1262.667Z" transform="translate(-2811.744 -1198.868)"/><circle class="ak" cx="4.99" cy="4.99" r="4.99" transform="matrix(0.097, -0.995, 0.995, 0.097, 25.868, 56.914)"/><circle class="al" cx="4.99" cy="4.99" r="4.99" transform="translate(40.225 45.403) rotate(-43.387)"/><circle class="am" cx="4.99" cy="4.99" r="4.99" transform="translate(46.168 31.091) rotate(-54.14)"/><circle class="an" cx="4.99" cy="4.99" r="4.99" transform="translate(38.926 18.636) rotate(-74.527)"/><circle class="ao" cx="4.99" cy="4.99" r="4.99" transform="translate(21.208 12.609) rotate(-43.387)"/><circle class="ap" cx="4.99" cy="4.99" r="4.99" transform="translate(5.976 20.816) rotate(-54.14)"/></g><g transform="translate(2835.723 684.237)"><g transform="translate(0)"><path class="aq" d="M3757.075,1063.214l-1.3,5.675,4.168-.613Z" transform="translate(-3754.55 -1063.214)"/><path class="d" d="M3754.012,1092.714l-4.168.613-.953,4.174c-.057.248-.135.49-.21.733a1.824,1.824,0,0,0-.038.817c.325,2.216,2.844,4.8,4.493,4.614,2-.231,4.027-3.411,3.674-5.809a1.652,1.652,0,0,0-.132-.531,1.921,1.921,0,0,0-.14-.245c-.142-.211-.287-.42-.413-.642Z" transform="translate(-3748.615 -1087.652)"/><g transform="translate(6.83 56.488)"><rect class="ar" width="8.254" height="1.045" transform="matrix(0.989, -0.145, 0.145, 0.989, 0, 1.2)"/><rect class="as" width="8.254" height="1.045" transform="translate(0.286 3.145) rotate(-8.359)"/><rect class="at" width="8.254" height="0.921" transform="translate(0.152 2.234) rotate(-8.359)"/></g><path class="au" d="M3794.539,1415.3l2.485-.365c1.585-.233,2.674-1.363,2.5-2.535l-.393-2.647-8.167,1.2.389,2.648C3791.529,1414.776,3792.953,1415.537,3794.539,1415.3Z" transform="translate(-3783.7 -1350.29)"/></g><g transform="translate(0.057 10.394)"><path class="av" d="M3762.505,1127.341l6.445,43.865,2.084-.306-6.849-46.607Z" transform="translate(-3760.179 -1124.207)"/><path class="aw" d="M3748.948,1130.779l6.781,46.148-.008-.054,2-.294-6.445-43.865Z" transform="translate(-3748.948 -1129.579)"/><path class="ao" d="M3772.3,1124.294l6.849,46.607,2.115-.311-6.443-43.851Z" transform="translate(-3768.295 -1124.207)"/><path class="ax" d="M3795.349,1169.54l-6.724-45.754-1.638,2.532,6.443,43.851,1.968-.289Z" transform="translate(-3780.46 -1123.786)"/></g></g><g transform="translate(2771.096 771.069)"><path class="ao" d="M3448.846,1582.53l-74.4,10.816a.589.589,0,0,1-.668-.5l-1.766-12.136a.59.59,0,0,1,.5-.668l74.4-10.816a.59.59,0,0,1,.668.5l1.766,12.136A.589.589,0,0,1,3448.846,1582.53Z" transform="translate(-3372.003 -1569.222)"/><g transform="translate(2.437 0.288)"><path class="d" d="M3387.3,1636.824h0a.955.955,0,0,0,1.889-.277l-1.1-7.5-1.89.275Z" transform="translate(-3386.205 -1619.071)"/><path class="d" d="M3413.458,1629.409h0a.955.955,0,0,0,1.889-.277l-.58-3.961-1.89.275Z" transform="translate(-3408.301 -1615.859)"/><path class="d" d="M3440.124,1625.533a.955.955,0,0,0,1.89-.277l-.58-3.961-1.89.275.58,3.963Z" transform="translate(-3430.391 -1612.647)"/><path class="d" d="M3467.3,1625.2a.955.955,0,0,0,1.89-.277l-1.1-7.5-1.89.275,1.1,7.5Z" transform="translate(-3452.474 -1609.438)"/><path class="d" d="M3493.455,1617.78a.955.955,0,0,0,1.89-.277l-.58-3.961-1.89.275.58,3.963Z" transform="translate(-3474.57 -1606.225)"/><path class="d" d="M3520.121,1613.9a.955.955,0,0,0,1.889-.277l-.58-3.961-1.89.275.581,3.962Z" transform="translate(-3496.66 -1603.014)"/><path class="d" d="M3547.3,1613.567a.955.955,0,0,0,1.889-.277l-1.1-7.5-1.89.275,1.1,7.5Z" transform="translate(-3518.744 -1599.804)"/><path class="d" d="M3573.453,1606.151a.955.955,0,0,0,1.889-.277l-.58-3.961-1.89.275.58,3.963Z" transform="translate(-3540.841 -1596.592)"/><path class="d" d="M3600.118,1602.275a.955.955,0,0,0,1.889-.277l-.58-3.961-1.89.275.58,3.963Z" transform="translate(-3562.93 -1593.381)"/><path class="d" d="M3627.293,1601.937a.955.955,0,0,0,1.89-.277l-1.1-7.5-1.89.275,1.1,7.5Z" transform="translate(-3585.014 -1590.17)"/><path class="d" d="M3653.45,1594.522a.955.955,0,0,0,1.889-.277l-.58-3.961-1.89.275.581,3.963Z" transform="translate(-3607.11 -1586.958)"/><path class="d" d="M3680.116,1590.645a.955.955,0,0,0,1.89-.277l-.581-3.961-1.89.275.58,3.963Z" transform="translate(-3629.2 -1583.747)"/><path class="d" d="M3707.291,1590.308a.955.955,0,0,0,1.89-.277l-1.1-7.5-1.89.275,1.1,7.5Z" transform="translate(-3651.284 -1580.536)"/><path class="d" d="M3733.448,1582.893a.955.955,0,0,0,1.89-.277l-.58-3.961-1.89.275.58,3.962Z" transform="translate(-3673.38 -1577.325)"/><path class="d" d="M3760.114,1579.016a.955.955,0,0,0,1.89-.277l-.58-3.961-1.89.275.581,3.963Z" transform="translate(-3695.469 -1574.113)"/><path class="d" d="M3787.289,1578.679a.955.955,0,0,0,1.89-.277l-1.1-7.5-1.89.275,1.1,7.5Z" transform="translate(-3717.553 -1570.903)"/></g></g><g transform="translate(2740.876 618.499)"><g transform="translate(0 0)"><path class="ao" d="M3422.134,685.237a2.571,2.571,0,0,0-.666-5.1l-25.081,2.431.885,6.764Z" transform="translate(-3361.983 -680.129)"/><path class="ay" d="M3388.494,701.444l2.239-.313-.884-6.764-1.171.142.886,6.775Z" transform="translate(-3355.445 -691.923)"/><path class="az" d="M3371.4,696.719l-1.171.143.9,6.844,1.168-.163Z" transform="translate(-3340.316 -693.872)"/><path class="ba" d="M3377.054,695.458h0l2.147-.261Z" transform="translate(-3345.968 -692.611)"/><path class="bb" d="M3382.255,735.769l1.07-.16-1.072.15Z" transform="translate(-3350.275 -726.088)"/><path class="bc" d="M3379.018,702.131l1.069-.16-.886-6.775-2.147.261.892,6.823Z" transform="translate(-3345.968 -692.611)"/><path class="bd" d="M3379.018,702.131l1.069-.16-.886-6.775-2.147.261.892,6.823Z" transform="translate(-3345.968 -692.611)"/><path class="be" d="M3240.52,730.343a13.952,13.952,0,0,0-2.234,1.457,16.876,16.876,0,0,1-6.547,3.423c-.217.043-.435.075-.654.1,7.757,2.366,11.252-2.943,11.252-2.943l-.327-2.5A5.134,5.134,0,0,0,3240.52,730.343Z" transform="translate(-3225.047 -721.342)"/><path class="bf" d="M3224.038,708.372c1.271-.529,2.321-1.486,3.563-2.082a7.046,7.046,0,0,1,4.387-.543l-.174-1.333c-5.39-2.071-7.771-1.433-8.943-.423-.984.848-1,1.859-2.268,3.257a8.159,8.159,0,0,1-1.315,1.166c.072.026.142.056.215.08A6.59,6.59,0,0,0,3224.038,708.372Z" transform="translate(-3215.274 -699.113)"/><path class="bg" d="M3202.591,725.384a16.872,16.872,0,0,0,6.547-3.423,13.975,13.975,0,0,1,2.234-1.457,5.138,5.138,0,0,1,1.49-.464l-.249-1.9a7.046,7.046,0,0,0-4.387.543c-1.242.6-2.291,1.553-3.562,2.082a6.589,6.589,0,0,1-4.535.122c-.073-.024-.144-.054-.215-.08a10.636,10.636,0,0,1-4.014,1.674,22.8,22.8,0,0,0,6.038,3.008C3202.156,725.459,3202.374,725.427,3202.591,725.384Z" transform="translate(-3195.9 -711.503)"/></g><path class="ao" d="M3312.475,705.3l10.155-.906-.9-6.844-10.046,1.736Z" transform="translate(-3291.819 -694.56)"/><g transform="translate(16.539 4.725)"><path class="bh" d="M3298.867,711.48l.022,0-.022,0,.315,2.4,2.3-.205-.786-6.013-2.277.393Z" transform="translate(-3297.366 -707.666)"/><path class="bi" d="M3292.281,710.14l.174,1.333.249,1.9.327,2.5,1.065-.1-.314-2.4-.448-3.42Z" transform="translate(-3292.281 -709.565)"/></g></g></g></svg>