<svg xmlns="http://www.w3.org/2000/svg" xmlns:xlink="http://www.w3.org/1999/xlink" width="251" height="206.905" viewBox="0 0 251 206.905"><defs><style>.a{fill:url(#a);}.b{fill:#808285;}.c{fill:#fff;}.d{fill:url(#d);}.e{fill:url(#e);}.f{fill:url(#f);}.g{fill:url(#g);}.h{fill:#ffd633;}.i{fill:#fc0;}.j{fill:#fcd118;}.k{fill:#ffe066;}.l{fill:url(#h);}.m{fill:url(#i);}.n{fill:url(#j);}.o{fill:url(#k);}.p{fill:url(#l);}.q{fill:url(#m);}.r{fill:url(#n);}.s{fill:url(#o);}.t{fill:url(#p);}.u{fill:url(#q);}.v{fill:url(#r);}.w{fill:url(#s);}.x{fill:url(#t);}.y{fill:#fdd7ad;}.z{fill:#d1d3d4;}.aa{fill:url(#u);}.ab{fill:url(#v);}.ac{fill:url(#w);}.ad{fill:url(#x);}.ae{fill:url(#y);}.af{fill:url(#z);}.ag{fill:url(#aa);}.ah{fill:url(#ab);}.ai{fill:url(#ad);}.aj{fill:url(#ae);}.ak{fill:url(#af);}.al{fill:url(#ag);}.am{fill:url(#ao);}.an{fill:url(#ap);}.ao{fill:url(#aq);}</style><linearGradient id="a" y1="0.5" x2="1" y2="0.5" gradientUnits="objectBoundingBox"><stop offset="0" stop-color="#582d7f"/><stop offset="0.212" stop-color="#4a5094"/><stop offset="0.754" stop-color="#29a6c7"/><stop offset="1" stop-color="#1dc9dc"/></linearGradient><linearGradient id="d" y1="0.5" x2="1" y2="0.5" gradientUnits="objectBoundingBox"><stop offset="0" stop-color="#9d9e9f"/><stop offset="1" stop-color="#d1d3d4"/></linearGradient><linearGradient id="e" x1="-0.519" y1="0.5" x2="0.706" y2="0.5" xlink:href="#d"/><linearGradient id="f" x1="1.93" y1="0.5" x2="0.077" y2="0.5" xlink:href="#d"/><linearGradient id="g" x1="0.5" y1="4.118" x2="0.5" y2="0.271" gradientUnits="objectBoundingBox"><stop offset="0" stop-color="#ffde39"/><stop offset="0.094" stop-color="#fec63c"/><stop offset="0.286" stop-color="#fe9843"/><stop offset="0.415" stop-color="#fe7d4b"/><stop offset="0.652" stop-color="#fe4f59"/><stop offset="1" stop-color="#ed327f"/></linearGradient><linearGradient id="h" x1="0.313" y1="1.154" x2="0.398" y2="0.723" gradientUnits="objectBoundingBox"><stop offset="0" stop-color="#a7a9ac"/><stop offset="1" stop-color="#fff"/></linearGradient><linearGradient id="i" x1="-4.54" y1="1.148" x2="-1.147" y2="0.744" xlink:href="#h"/><linearGradient id="j" x1="-0.553" y1="0.317" x2="1.308" y2="0.719" gradientUnits="objectBoundingBox"><stop offset="0" stop-color="#a7a9ac"/><stop offset="0.833" stop-color="#fff"/></linearGradient><linearGradient id="k" x1="-0.088" y1="0.5" x2="6.098" y2="0.5" gradientUnits="objectBoundingBox"><stop offset="0" stop-color="#fbe18a"/><stop offset="0.132" stop-color="#fcbb45"/><stop offset="0.252" stop-color="#f88431"/><stop offset="0.379" stop-color="#f86738"/><stop offset="0.498" stop-color="#f74440"/><stop offset="0.638" stop-color="#f5326e"/><stop offset="0.816" stop-color="#8f39ce"/><stop offset="1" stop-color="#395dfb"/></linearGradient><linearGradient id="l" x1="-2.104" y1="0.5" x2="4.081" y2="0.5" xlink:href="#k"/><linearGradient id="m" x1="-4.121" y1="0.5" x2="2.065" y2="0.5" xlink:href="#k"/><linearGradient id="n" x1="0.049" y1="0.983" x2="0.907" y2="0.064" xlink:href="#k"/><linearGradient id="o" x1="0.5" y1="0.572" x2="0.5" y2="-0.469" gradientUnits="objectBoundingBox"><stop offset="0" stop-color="#fc0"/><stop offset="1" stop-color="#bf9900"/></linearGradient><linearGradient id="p" x1="1.288" y1="0.465" x2="-0.409" y2="0.548" gradientUnits="objectBoundingBox"><stop offset="0" stop-color="#f1f2f2"/><stop offset="0.418" stop-color="#d6d6d6"/><stop offset="1" stop-color="#b5b5b5"/></linearGradient><linearGradient id="q" x1="-1.177" y1="0.5" x2="2.21" y2="0.5" xlink:href="#d"/><linearGradient id="r" x1="-0.314" y1="0.5" x2="0.703" y2="0.5" xlink:href="#d"/><linearGradient id="s" x1="5.971" y1="-0.653" x2="1.418" y2="0.307" xlink:href="#d"/><linearGradient id="t" x1="2.714" y1="0.5" x2="-0.135" y2="0.5" xlink:href="#d"/><linearGradient id="u" x1="0.5" y1="0.133" x2="0.5" y2="0.784" gradientUnits="objectBoundingBox"><stop offset="0" stop-color="#42e397"/><stop offset="0.075" stop-color="#42e099"/><stop offset="1" stop-color="#3cb6b5"/></linearGradient><linearGradient id="v" x1="0.5" y1="-4.987" x2="0.5" y2="14.143" xlink:href="#a"/><linearGradient id="w" x1="0.5" y1="-4.986" x2="0.5" y2="14.141" xlink:href="#a"/><linearGradient id="x" x1="0.5" y1="-4.987" x2="0.5" y2="14.144" xlink:href="#a"/><linearGradient id="y" x1="0.5" y1="-10.733" x2="0.5" y2="8.399" xlink:href="#a"/><linearGradient id="z" x1="0.5" y1="-10.731" x2="0.5" y2="8.398" xlink:href="#a"/><linearGradient id="aa" x1="0.5" y1="-10.73" x2="0.5" y2="8.397" xlink:href="#a"/><linearGradient id="ab" x1="0.103" y1="0.926" x2="0.859" y2="0.115" xlink:href="#k"/><linearGradient id="ad" x1="1.27" y1="0.471" x2="-0.385" y2="0.544" xlink:href="#p"/><linearGradient id="ae" x1="-6.148" y1="7.148" x2="2.475" y2="-1.475" xlink:href="#a"/><linearGradient id="af" x1="-0.747" y1="1.389" x2="7.435" y2="-4.446" xlink:href="#a"/><linearGradient id="ag" x1="-23.166" y1="24.166" x2="3.235" y2="-2.235" xlink:href="#a"/><linearGradient id="ao" x1="1.337" y1="1.337" x2="-0.22" y2="-0.22" xlink:href="#a"/><linearGradient id="ap" x1="0.849" y1="0.199" x2="0.407" y2="0.581" xlink:href="#g"/><linearGradient id="aq" x1="0.589" y1="0.523" x2="0.436" y2="-0.193" gradientUnits="objectBoundingBox"><stop offset="0" stop-color="#d1d3d4"/><stop offset="1" stop-color="#9d9e9f"/></linearGradient></defs><g transform="translate(-9405.72 1105.248)"><g transform="translate(9409.558 -1105.248)"><path class="a" d="M9660.929-1004.9c-2.973-9.968-14.369-13.167-17.312-22.8-3.182-10.415.041-20.683-6.97-30.042-5.982-7.988-15.888-12.7-25.656-13.848-10.309-1.206-20.414,1.312-30.215,4.248-9.533,2.856-20.108,7.213-30.154,4.5-8.988-2.425-14.09-10.8-20.072-17.191-5.622-6.011-11.62-11.767-18.781-15.921-28.278-16.4-72.413-11.61-89.781,18.514a54.63,54.63,0,0,0-5.3,40.13c3.748,14.966,15.089,27.1,22.971,40.084,11.035,18.173-5.309,38.753-4.8,57.854.556,20.69,15.073,37.074,36.351,36.56,11.56-.28,22.567-5.043,32.525-10.921,15.948-9.413,32.217-25.425,50.755-29.1,11.133-2.21,22.03,2.019,33.077,2.713,24.988,1.57,53.345-12.7,67.394-33.354,6.064-8.92,9.105-20.771,6-31.325C9660.949-1004.837,9660.939-1004.87,9660.929-1004.9Z" transform="translate(-9415.031 1105.248)"/><path class="a" d="M9556.647-989.276c-2.738,1.774-5.15,4.186-8.193,5.454-4.03,1.679-7.14-.471-11.143-.016-8.555.973-12.226,11.77-11.865,18.99.263,5.276,2.18,10.325,2.308,15.615.2,8.06-5.172,14.852-5.992,22.731-1.008,9.683,4.517,18.884,12.707,23.782,9.421,5.634,21.68,4.285,30.823-1.25l17.536-70.9c-2.029-3.157-3.528-6.641-5.684-9.713C9572.467-991.256,9563.784-993.9,9556.647-989.276Z" transform="translate(-9477.701 1038.444)"/><path class="a" d="M9843.16-865.539c-3.119-3.762-7.466-.271-10.821.985a4.753,4.753,0,0,1-2.457.357,4.055,4.055,0,0,1-2.747-2.256c-1.052-2.056-1.033-4.553-1.8-6.72-1.309-3.7-5.211-4.552-8.637-5.19L9812.028-829c6.6,4.623,15.068,7.588,23.185,6.419,4.933-.71,9.492-3.589,11.284-8.394,2.5-6.69-2.308-13.6-2.718-20.258C9843.494-855.89,9846.539-861.47,9843.16-865.539Z" transform="translate(-9648.395 971.88)"/></g><g transform="translate(9502.036 -939.774)"><g transform="translate(0)"><g transform="translate(0 0)"><path class="b" d="M9645.61-693.351v-4.824l-6.213,2.412Z" transform="translate(-9639.397 700.489)"/><path class="c" d="M9660.754-703.788a2.086,2.086,0,0,0-.92.179c-.264.125-.525.255-.795.36l-4.568,1.774v4.825l4.568,1.774c.27.105.531.235.795.36a2.266,2.266,0,0,0,.3.118,1.92,1.92,0,0,0,.625.061c2.773,0,6.041-2.827,5.971-5.13C9666.672-701.366,9663.316-703.788,9660.754-703.788Z" transform="translate(-9648.258 703.788)"/></g><g transform="translate(66.07)"><rect class="d" width="1.197" height="9.451"/><rect class="e" width="1.197" height="9.451" transform="translate(2.251)"/><rect class="f" width="1.055" height="9.451" transform="translate(1.196)"/></g><path class="g" d="M9811.117-703.788h-3.063v9.451l3.063,0c1.356,0,2.456-1.422,2.456-3.257v-2.877C9813.573-702.3,9812.474-703.788,9811.117-703.788Z" transform="translate(-9738.536 703.788)"/></g><g transform="translate(12.13)"><path class="h" d="M9668.825-695.763h53.939v-2.412H9672Z" transform="translate(-9668.825 700.489)"/><path class="i" d="M9672.846-701.475h50.766v-2.314h-53.345Z" transform="translate(-9669.673 703.788)"/><path class="j" d="M9672.016-689.876h50.749v-2.448h-53.939Z" transform="translate(-9668.825 697.049)"/><path class="k" d="M9670.267-684.107h53.345v-2.278h-50.75Z" transform="translate(-9669.673 693.558)"/></g></g><g transform="translate(9482.624 -1060.243)"><g transform="translate(0 0)"><g transform="translate(14.708)"><path class="l" d="M9627.98-983.24l.1,12.43-.036,42.124v33.705l.046,6.509a346.08,346.08,0,0,0,68.878,6.907l1.146,0c5.793-.064,10.473-5.776,10.473-12.817l.007-89.031,0,.006h0c0-.034,0-.188,0-.142v.136l.146-.292,10.487-12.351H9638.55C9632.711-996.06,9627.98-990.32,9627.98-983.24Z" transform="translate(-9627.98 996.06)"/><path class="m" d="M9823.543-965.586l0-.006v-.136C9823.546-965.774,9823.545-965.62,9823.543-965.586Z" transform="translate(-9742.938 978.235)"/><path class="n" d="M9834.11-996.06c-5.791,0-10.493,5.648-10.567,12.65l21.138.17C9844.681-990.32,9839.947-996.06,9834.11-996.06Z" transform="translate(-9742.938 996.06)"/></g><path class="c" d="M9666.468-749.385H9592.3c0,7.08,4.732,12.82,10.57,12.82h74.17C9669.376-737.124,9666.468-742.3,9666.468-749.385Z" transform="translate(-9592.298 851.06)"/></g><g transform="translate(23.623 78.487)"><rect class="o" width="12.476" height="12.476" rx="2.509"/><path class="p" d="M2.509,0H9.967a2.509,2.509,0,0,1,2.509,2.509V9.967a2.509,2.509,0,0,1-2.509,2.509H2.508A2.508,2.508,0,0,1,0,9.968V2.509A2.509,2.509,0,0,1,2.509,0Z" transform="translate(25.161)"/><rect class="q" width="12.476" height="12.476" rx="2.509" transform="translate(50.322)"/></g><g transform="translate(27.713 15.285)"><rect class="r" width="54.617" height="54.617" rx="22.855"/><g transform="translate(18.084 21.427)"><g transform="translate(4.86 23.494)"><path class="s" d="M9715.2-849.962l.006,9.664h8.719l-.008-9.7Z" transform="translate(-9715.201 849.994)"/></g><path class="j" d="M9722.4-856.719h-12.335a.53.53,0,0,0-.529.53v2.6a.53.53,0,0,0,.529.53H9722.4a.53.53,0,0,0,.529-.53v-2.6A.53.53,0,0,0,9722.4-856.719Z" transform="translate(-9707.012 877.441)"/><path class="t" d="M9714.022-906.993v10.263a2.59,2.59,0,0,1,1.2,2.183,2.59,2.59,0,0,1-2.591,2.59,2.59,2.59,0,0,1-2.59-2.59,2.589,2.589,0,0,1,1.2-2.183v-10.263a46.35,46.35,0,0,1-3.078,6.018,74.77,74.77,0,0,1-4.757,6.491s3.54,5.475,5.307,8.213h7.836l5.306-8.213s-3.1-3.947-4.655-6.491A54.191,54.191,0,0,1,9714.022-906.993Z" transform="translate(-9703.408 906.993)"/></g><g transform="translate(18.033 3.683)"><path class="c" d="M9720.409-948.841c-1.9-1.9-5.01-1.406-6.911.494l-.94.94-.94-.94c-1.9-1.9-5.008-2.393-6.908-.494h0a4.9,4.9,0,0,0,0,6.909l.94.94,6.908,6.909,6.91-6.909.941-.94a4.9,4.9,0,0,0,0-6.909Z" transform="translate(-9703.285 950.043)"/></g></g></g><g transform="translate(9562.134 -1008.398)"><g transform="translate(14.65 0)"><path class="j" d="M9886.809-869.987l-24.6,12.179,3.518,6.547,23.734-13.794a2.8,2.8,0,0,0,1.062-3.747A2.8,2.8,0,0,0,9886.809-869.987Z" transform="translate(-9845.116 870.279)"/><g transform="translate(12.729 12.471)"><path class="u" d="M9851.63-835.412l3.557,6.624,1.258-.69-3.547-6.6Z" transform="translate(-9851.63 837.705)"/><path class="v" d="M9859.127-839.355l3.53,6.569,1.257-.69-3.519-6.547Z" transform="translate(-9856.037 840.023)"/><path class="w" d="M9854.71-837.445l3.546,6.6,1.8-.99-3.53-6.569Z" transform="translate(-9853.439 839.07)"/><path class="x" d="M9854.71-837.445l3.546,6.6,1.8-.99-3.53-6.569Z" transform="translate(-9853.439 839.07)"/></g><path class="j" d="M9820.745-826.93l2.985,5.554,13.3-6.459-3.56-6.624Z" transform="translate(-9820.745 849.224)"/></g><path class="y" d="M9790.582-813.163c-.674,1.244-.3,2.281-1.051,4.194a10.634,10.634,0,0,1-4.327,4.954c15.356,3.6,17.634-6.624,17.634-6.624l-2.984-5.554C9793.563-816.216,9791.384-814.646,9790.582-813.163Z" transform="translate(-9785.204 838.486)"/></g><g transform="translate(9443.627 -1036.906)"><g transform="translate(0 0)"><path class="z" d="M9498.058-805.936a4.421,4.421,0,0,0,2.29,5.819l26.158,11.379a4.422,4.422,0,0,0,5.818-2.291l.829-1.9-34.269-14.907Z" transform="translate(-9497.688 862.084)"/><path class="z" d="M9585.828-927.7l-26.156-11.379a4.426,4.426,0,0,0-5.822,2.291l-.824,1.9,34.266,14.907.828-1.9A4.423,4.423,0,0,0,9585.828-927.7Z" transform="translate(-9530.218 939.442)"/><g transform="translate(37.102 6.791)"><g transform="translate(2.569 1.161)"><path class="c" d="M9599.307-918.192l-4.359-1.9a.722.722,0,0,0-.951.375.722.722,0,0,0,.375.952l4.358,1.9a.728.728,0,0,0,.288.06.724.724,0,0,0,.665-.435A.725.725,0,0,0,9599.307-918.192Z" transform="translate(-9593.936 920.149)"/></g><path class="c" d="M9588.821-922.9a.8.8,0,0,0-1.052.415.8.8,0,0,0,.413,1.053.8.8,0,0,0,1.056-.415A.8.8,0,0,0,9588.821-922.9Z" transform="translate(-9587.702 922.967)"/></g><rect class="aa" width="20.148" height="37.37" transform="matrix(0.399, -0.917, 0.917, 0.399, 1.196, 54.244)"/><g transform="translate(9.307 44.593)"><path class="c" d="M9547.885-823.114l-18.326-7.972a2.023,2.023,0,0,0-2.662,1.049h0a2.02,2.02,0,0,0,1.048,2.663l18.326,7.972a2.023,2.023,0,0,0,2.662-1.049h0A2.023,2.023,0,0,0,9547.885-823.114Z" transform="translate(-9524.065 831.254)"/><path class="c" d="M9541.428-808.273l-18.326-7.972a2.025,2.025,0,0,0-2.664,1.049,2.023,2.023,0,0,0,1.049,2.664l18.326,7.971a2.025,2.025,0,0,0,2.664-1.049A2.026,2.026,0,0,0,9541.428-808.273Z" transform="translate(-9520.269 822.53)"/><g transform="translate(8.746 3.419)"><path class="ab" d="M9542.406-822.9a.656.656,0,0,0-.864.34.657.657,0,0,0,.339.864.656.656,0,0,0,.864-.34A.657.657,0,0,0,9542.406-822.9Z" transform="translate(-9541.487 822.959)"/><path class="ac" d="M9553.193-818.212a.654.654,0,0,0-.862.34.654.654,0,0,0,.339.864.654.654,0,0,0,.862-.341A.655.655,0,0,0,9553.193-818.212Z" transform="translate(-9547.829 820.201)"/><path class="ad" d="M9563.98-813.519a.659.659,0,0,0-.865.34.659.659,0,0,0,.341.864.655.655,0,0,0,.863-.34A.656.656,0,0,0,9563.98-813.519Z" transform="translate(-9554.169 817.442)"/></g><g transform="translate(6.084 9.537)"><path class="ae" d="M9535.948-808.062a.656.656,0,0,0-.863.34.656.656,0,0,0,.34.864.655.655,0,0,0,.863-.34A.654.654,0,0,0,9535.948-808.062Z" transform="translate(-9535.03 808.117)"/><path class="af" d="M9546.735-803.37a.656.656,0,0,0-.863.34.657.657,0,0,0,.339.864.657.657,0,0,0,.865-.34A.659.659,0,0,0,9546.735-803.37Z" transform="translate(-9541.371 805.358)"/><path class="ag" d="M9557.524-798.678a.656.656,0,0,0-.863.34.656.656,0,0,0,.34.864.658.658,0,0,0,.864-.34A.657.657,0,0,0,9557.524-798.678Z" transform="translate(-9547.715 802.601)"/></g></g><path class="c" d="M9520.089-897.168l11.435,4.974a2.353,2.353,0,0,0,1.222,3.093l7.081,3.081a2.355,2.355,0,0,0,3.1-1.215l11.435,4.974,13.574-31.205-34.267-14.907Z" transform="translate(-9510.855 932.935)"/><g transform="translate(18.604 13.068)"><g transform="translate(0 0)"><g transform="translate(0)"><rect class="ah" width="22.115" height="22.114" rx="11.057" transform="matrix(0.399, -0.917, 0.917, 0.399, 0, 20.279)"/></g></g><g transform="translate(8.522 12.142)"><g transform="translate(0 8.255)"><path class="s" d="M9563.5-854.662l3.236,1.408,1.563-3.6-3.24-1.4Z" transform="translate(-9563.5 858.252)"/></g><g transform="translate(0.621)"><path class="j" d="M9570.307-859.518l-4.581-1.992a.214.214,0,0,0-.281.111l-.42.968a.213.213,0,0,0,.11.282l2.678,1.165.125.054,1.776.773a.214.214,0,0,0,.282-.111l.422-.967A.217.217,0,0,0,9570.307-859.518Z" transform="translate(-9565.006 868.432)"/><path class="ai" d="M9573.181-877.83q-.828,1.9-1.658,3.81a1.042,1.042,0,0,1,.094,1,1.049,1.049,0,0,1-1.38.543,1.051,1.051,0,0,1-.545-1.38,1.055,1.055,0,0,1,.8-.617l1.658-3.811a18.831,18.831,0,0,1-2.118,1.737,30.158,30.158,0,0,1-2.813,1.642s.429,2.6.645,3.906l2.908,1.265,3.3-2.192s-.514-1.966-.682-3.162A22.557,22.557,0,0,1,9573.181-877.83Z" transform="translate(-9566.305 878.279)"/></g></g><g transform="translate(14.005 4.841)"><path class="c" d="M9581.237-894.273l-.5.2-.2-.5a2,2,0,0,0-2.486-1.3,1.983,1.983,0,0,0-1.116,2.565l.2.5,1.449,3.681,3.68-1.449.5-.2a1.984,1.984,0,0,0,1.116-2.565A2,2,0,0,0,9581.237-894.273Z" transform="translate(-9576.802 895.991)"/></g></g></g><path class="c" d="M9536.776-785.582l-5.1-2.219a1.149,1.149,0,0,0-1.513.6h0a1.149,1.149,0,0,0,.595,1.512l5.1,2.219a1.149,1.149,0,0,0,1.511-.6h0A1.149,1.149,0,0,0,9536.776-785.582Z" transform="translate(-9516.722 850.361)"/></g><g transform="translate(9408.974 -1105.247)"><circle class="aj" cx="10.563" cy="10.563" r="10.563" transform="matrix(0.973, -0.23, 0.23, 0.973, 128.237, 17.447)"/><ellipse class="ak" cx="10.563" cy="14.811" rx="10.563" ry="14.811" transform="translate(0 109.476) rotate(-8.915)"/><circle class="al" cx="3.45" cy="3.45" r="3.45" transform="translate(233.098 71.739)"/><g transform="translate(0.584 0)"><path class="a" d="M9427.558-1016.29a4.65,4.65,0,0,1,1.294-4.521,3.652,3.652,0,0,0-2.057-.376c-2.793-.041-5.509-.055-7.815-1.625a55.264,55.264,0,0,0-2.295,33.959c2.112,8.434,6.638,15.971,11.6,23.266a8.287,8.287,0,0,0,1.056-2.57c.891-4.05-1.381-7.755-2.562-11.477a12.667,12.667,0,0,1-.476-5.462,14.61,14.61,0,0,1,2.848-6.882c2.605-3.468,6.267-6.5,6.756-11.106C9436.6-1009.626,9428.816-1010.7,9427.558-1016.29Z" transform="translate(-9415.031 1056.79)"/><path class="a" d="M9427.6-1073.184a50.079,50.079,0,0,0-2.8,5.653c-.073.172-.142.345-.212.518-.205.519,2.575,1.364,2.887,1.472a14.777,14.777,0,0,0,4.642.924,14.971,14.971,0,0,0,13.258-7.669q.29-.537.54-1.1a17.587,17.587,0,0,0,.643-1.683,44.263,44.263,0,0,1,2.176-6.357c2.368-4.7,7.311-5.37,11.983-6.271,1.184-.228,4.528-.983,5.687-1.324l-6.027-8.989C9446.846-1093.973,9434.876-1085.8,9427.6-1073.184Z" transform="translate(-9420.647 1100.991)"/><path class="a" d="M9951.953-945.474c-2.064-6.76-1.433-13.459-2.651-19.887a8.639,8.639,0,0,1-1.29.623,13.615,13.615,0,0,1-4.922.778l-1.384.556c-.012,2.886-1.05,5.653-1.68,8.469s-.794,5.964.763,8.393c1.354,2.114,3.847,3.4,4.878,5.688,1.111,2.462.224,5.309.168,8.009a13.22,13.22,0,0,0,11.8,12.974c4.1.3,7.9-1.349,11.3-3.768C9965.549-932.861,9954.8-936.16,9951.953-945.474Z" transform="translate(-9723.368 1023.019)"/><path class="a" d="M9913.411-1009.929c-5.984-7.988-15.89-12.7-25.657-13.848-.427-.05-.853-.091-1.277-.128-1.8,6.183.494,13.216,5.042,17.833,4.76,4.832,11.6,7.226,18.368,7.643.541.034,1.083.054,1.629.055a13.618,13.618,0,0,0,4.922-.778,8.6,8.6,0,0,0,1.29-.623c-.064-.339-.132-.678-.209-1.015A23.258,23.258,0,0,0,9913.411-1009.929Z" transform="translate(-9691.794 1057.433)"/><path class="a" d="M9530.481-1105.224a73.07,73.07,0,0,0-19.05,2.962c.147-.044,1.937,4.431,2.093,4.8a19.227,19.227,0,0,0,4.626,6.447,24.127,24.127,0,0,0,5.564,3.861,29.972,29.972,0,0,0,22.561,1.634,35.885,35.885,0,0,0,13.244-7.868c.427-.394,4.463-4.91,4.472-4.906A74.286,74.286,0,0,0,9530.481-1105.224Z" transform="translate(-9471.698 1105.247)"/><path class="a" d="M9506.785-655.367c-8.118-1.688-16.608.1-24.2,3.532,6.406,8.258,16.283,13.386,28.332,13.095a47.123,47.123,0,0,0,6.026-.545,55.639,55.639,0,0,0,7.859-1.823,21.543,21.543,0,0,0-4.681-7.042A26.55,26.55,0,0,0,9506.785-655.367Z" transform="translate(-9454.744 841.177)"/><path class="a" d="M9593.847-657.992c-1.261.888-2.3,2.141-3.75,2.665a9.108,9.108,0,0,1-3.2.321c-4.877-.051-10.388.816-13.233,4.763a21.5,21.5,0,0,1,4.681,7.042,87.883,87.883,0,0,0,18.641-8.554c2.971-1.753,5.949-3.734,8.955-5.822C9602.281-659.814,9597.339-660.453,9593.847-657.992Z" transform="translate(-9508.276 843.268)"/></g><circle class="am" cx="6.216" cy="6.216" r="6.216" transform="translate(61.166 37.439) rotate(-4.065)"/></g><g transform="translate(9405.72 -966.778)"><circle class="an" cx="26.189" cy="26.189" r="26.189" transform="translate(0 20.044) rotate(-22.5)"/><g transform="translate(22.421 15.797)"><path class="j" d="M9469.864-730.807c-8.63,1.475-12.808,12.343-7.184,19.159,1.076,1.307,2.414,2.359,3.608,3.551a12.447,12.447,0,0,1,2.246,3.14l11.652-1.992a22.787,22.787,0,0,1,.943-4.034c.537-1.637,1.576-3.04,2.064-4.7a12.05,12.05,0,0,0,.35-5.435A11.853,11.853,0,0,0,9469.864-730.807Z" transform="translate(-9460.116 730.979)"/><g transform="translate(1.294 11.887)"><path class="c" d="M9465.343-701.172a1.042,1.042,0,0,0-1.119-.965,1.046,1.046,0,0,0-.966,1.12,10.1,10.1,0,0,0,.9,3.495,1.043,1.043,0,0,0,.949.607,1.036,1.036,0,0,0,.436-.1,1.044,1.044,0,0,0,.512-1.387A8.022,8.022,0,0,1,9465.343-701.172Z" transform="translate(-9463.255 702.14)"/></g><g transform="translate(1.898 4.555)"><path class="c" d="M9468.333-719.668a1.044,1.044,0,0,0-1.474.094,11.093,11.093,0,0,0-2.074,3.482,1.044,1.044,0,0,0,.617,1.343,1.035,1.035,0,0,0,.363.066,1.045,1.045,0,0,0,.979-.682,8.985,8.985,0,0,1,1.684-2.829A1.045,1.045,0,0,0,9468.333-719.668Z" transform="translate(-9464.72 719.928)"/></g><g transform="translate(11.914 15.39)"><path class="c" d="M9490.138-693.172a.563.563,0,0,0-.649-.459.563.563,0,0,0-.46.649l1.633,9.549a.562.562,0,0,0,.554.468.547.547,0,0,0,.1-.008.564.564,0,0,0,.46-.649Z" transform="translate(-9489.021 693.639)"/></g><path class="ao" d="M9492.04-671.325q.056-.68.15-1.355l-11.651,1.992c.19.359.375.729.561,1.113a25.483,25.483,0,0,1,1.689,5.585,4.915,4.915,0,0,0,5.577,4.05,4.887,4.887,0,0,0,3.708-3.066,8.935,8.935,0,0,0-.007-4.18A21.006,21.006,0,0,1,9492.04-671.325Z" transform="translate(-9472.121 696.71)"/><g transform="translate(7.766 11.242)"><g transform="translate(4.148)"><path class="c" d="M9492.846-703.6a.564.564,0,0,0-.785.134l-2.936,4.148a.56.56,0,0,0,.133.785.557.557,0,0,0,.323.1.564.564,0,0,0,.461-.237l2.938-4.148A.565.565,0,0,0,9492.846-703.6Z" transform="translate(-9489.02 703.703)"/></g><g transform="translate(0 1.211)"><path class="c" d="M9483.993-697.725l-4.147-2.937a.562.562,0,0,0-.784.134.564.564,0,0,0,.132.784l4.151,2.937a.549.549,0,0,0,.322.1.559.559,0,0,0,.46-.237A.562.562,0,0,0,9483.993-697.725Z" transform="translate(-9478.958 700.765)"/></g></g></g></g></g></svg>