<svg xmlns="http://www.w3.org/2000/svg" width="300.433" height="203.316" viewBox="0 0 300.433 203.316">
  <g id="그룹_751" data-name="그룹 751" transform="translate(0 0.031)">
    <circle id="타원_91" data-name="타원 91" cx="41.905" cy="41.905" r="41.905" transform="translate(0 116.569)" fill="#f2f2f2"/>
    <path id="패스_1150" data-name="패스 1150" d="M203.964,290.059a88.542,88.542,0,1,1,62.608-25.933A88.542,88.542,0,0,1,203.964,290.059Zm0-176.408a87.866,87.866,0,1,0,87.866,87.866,87.965,87.965,0,0,0-87.866-87.866Z" transform="translate(-111.367 -112.998)" fill="#2f2e41"/>
    <path id="패스_1151" data-name="패스 1151" d="M246.308,200.4l-.01.005-43.639,24.3-47.786-23.893-.823-.412,2.48-49.6,43.154-30.753.476.3,44.661,27.975Z" transform="translate(-107.582 -83.86)" fill="#6c63ff"/>
    <path id="패스_1152" data-name="패스 1152" d="M248.2,318.694l-43.639,24.3L156.779,319.1l42.33-29.677Z" transform="translate(-109.488 -202.144)" opacity="0.3"/>
    <path id="패스_1153" data-name="패스 1153" d="M346.218,201.094l-49.106-29.265,2.956-50.792,44.661,27.975Z" transform="translate(-207.491 -84.549)" opacity="0.1"/>
    <path id="패스_1154" data-name="패스 1154" d="M159.6,200.643l-.243-.343L203,169.5l46.094,28.9-.223.356L203.01,170Z" transform="translate(-111.291 -118.394)" fill="#f2f2f2"/>
    <path id="패스_1155" data-name="패스 1155" d="M156.815,259.565l-.236-.347,43.414-29.475.114.065,47.08,26.683-.208.366-46.966-26.619Z" transform="translate(-109.349 -160.465)" fill="#f2f2f2"/>
    <path id="패스_1156" data-name="패스 1156" d="M211.763,232.037l-.221-.357L255.3,204.568V152.594h.42V204.8Z" transform="translate(-147.733 -106.588)" fill="#f2f2f2"/>
    <path id="패스_1157" data-name="패스 1157" d="M268.692,263.169l-.223-.356,42.13-26.425v-51.51h.42v51.742Z" transform="translate(-187.488 -129.134)" fill="#f2f2f2"/>
    <path id="패스_1158" data-name="패스 1158" d="M294.173,234.617l-49-27.224.007-.131,2.579-50.982.42.021-2.573,50.851,48.768,27.1Z" transform="translate(-171.221 -109.162)" fill="#f2f2f2"/>
    <path id="패스_1159" data-name="패스 1159" d="M244.342,267.272,195.9,241.884l.008-.135,2.856-51.007.42.024-2.848,50.872L244.537,266.9Z" transform="translate(-136.805 -133.229)" fill="#f2f2f2"/>
    <circle id="타원_92" data-name="타원 92" cx="16.897" cy="16.897" r="16.897" transform="translate(130.109 2.344)" fill="#3f3d56"/>
    <rect id="사각형_320" data-name="사각형 320" width="290.633" height="0.676" transform="translate(9.8 199.704)" fill="#2f2e41"/>
    <path id="패스_1160" data-name="패스 1160" d="M986.137,470.7,990,481.281s-4.03,12.091,0,12.427,4.534-11.587,4.534-11.587l-2.183-12.763Z" transform="translate(-719.446 -361.888)" fill="#ffb9b9"/>
    <path id="패스_1161" data-name="패스 1161" d="M984.485,359.128l2.855,2.855v13.6s1.679,2.519,1.343,3.191-.672.672-.336,1.176.672.84.336,1.175a1.26,1.26,0,0,0,0,1.511c.336.336,1.008.84.5,1.343s-1.175.168-.5,2.015,1.847,2.351,1.511,3.023a7.564,7.564,0,0,0-.336,2.351l-7.221,1.008L981.127,373.4Z" transform="translate(-715.947 -284.907)" fill="#d0cde1"/>
    <path id="패스_1162" data-name="패스 1162" d="M889.75,352.464l-8.4.336.336,3.526,7.389-1.343Z" transform="translate(-615.502 -246.169)" fill="#3f3d56"/>
    <path id="패스_1163" data-name="패스 1163" d="M830.308,187.953,829.3,198.029l10.244,1.511.756-5.794.756-5.794Z" transform="translate(-579.15 -131.281)" fill="#ffb9b9"/>
    <path id="패스_1164" data-name="패스 1164" d="M830.308,187.953,829.3,198.029l10.244,1.511.756-5.794.756-5.794Z" transform="translate(-579.15 -131.281)" opacity="0.1"/>
    <path id="패스_1165" data-name="패스 1165" d="M860.875,459.894l5.71,12.259s1.008,5.71,2.519,5.878,3.023-5.878,3.023-5.878l-2.015-3.191-2.351-9.068Z" transform="translate(-631.968 -355.278)" fill="#ffb9b9"/>
    <path id="패스_1166" data-name="패스 1166" d="M880.417,486.918l-4.7,7.389s-4.534,70.362-3.862,69.858,2.855-.672,3.695-2.015,6.045,0,6.045,0l3.023-3.191V556.44c0-.5,6.045-38.959,6.045-38.959v9.74s-1.847,35.769,1.175,35.433a68.1,68.1,0,0,0,9.236-2.351s8.9-66.836,6.213-69.354-3.862-8.228-3.862-8.228Z" transform="translate(-639.587 -371.219)" fill="#2f2e41"/>
    <circle id="타원_93" data-name="타원 93" cx="8.061" cy="8.061" r="8.061" transform="translate(248.723 43.826)" fill="#ffb9b9"/>
    <path id="패스_1167" data-name="패스 1167" d="M864.1,338.088l-1.175-.672a19.049,19.049,0,0,0-6.885,11.419c-1.679,7.893-2.855,9.908-2.855,9.908s-1.679.336-.5,1.511,1.176,1.008.168,1.679-1.679-.672-1.008.672,1.511,1.008.84,1.847-1.847.84-1.175,1.511-.672,2.183.168,2.855,1.175.84,1.175,2.015a5.948,5.948,0,0,0,.336,2.015h8.732s-1.679-3.191-1.175-3.862.672-1.343.336-1.679-1.343.336-.336-.5,1.343-.336,1.008-1.343-1.008-.5-.336-1.008,1.176-.336.84-.84-1.008-.5-.336-.84,1.175,0,1.008-.84-.336-.5,0-.84,3.862-11.755,3.862-12.091S864.1,338.088,864.1,338.088Z" transform="translate(-625.283 -269.745)" fill="#d0cde1"/>
    <path id="패스_1168" data-name="패스 1168" d="M761.661,339.659l-10.58.672,2.687,2.519,7.389.168Z" transform="translate(-524.525 -237.226)" fill="#3f3d56"/>
    <path id="패스_1169" data-name="패스 1169" d="M893.121,494.411l-2.183,4.03a67.417,67.417,0,0,1,8.9,1.679c2.351.84,8.4,2.015,8.4,2.015l1.511-5.878Z" transform="translate(-652.963 -379.383)" fill="#3f3d56"/>
    <path id="패스_1170" data-name="패스 1170" d="M859.641,384.815l1.847,5.542,7.389-1.512-.84-5.206Z" transform="translate(-600.339 -267.941)" fill="#3f3d56"/>
    <path id="패스_1171" data-name="패스 1171" d="M914.51,311.284s-.5-.336-1.679.336-5.038,1.008-6.885-1.008-3.191-3.694-3.694-3.359-.84,4.2-.84,4.2l-1.679,1.343-9.908,3.527.84,22.67,1.511,5.206s-1.175,4.03.336,6.381-.84,3.191-.84,3.191a3.1,3.1,0,0,0-.168,2.351c.336,1.679-.336,7.893-.336,7.893s14.274,6.381,29.219.84l-1.679-6.381-.84-14.274a10.4,10.4,0,0,0,.672-3.359c-.168-1.008,5.038-15.114,5.038-15.114s-.84-7.053-5.206-8.564-5.038-3.023-5.038-3.023S915.35,311.956,914.51,311.284Z" transform="translate(-652.185 -248.65)" fill="#d0cde1"/>
    <path id="패스_1172" data-name="패스 1172" d="M925.02,260.652a3.7,3.7,0,0,1-.515-2.608,7.905,7.905,0,0,0,.225-2.35,23.258,23.258,0,0,1,1.352-3.413c.676-1.223.354-1.738,2.479-2.125s1.255-3.155,6.857-.161a1.643,1.643,0,0,0,1.706.644c1.159-.225,1.578,1.384,1.578,1.384s.773-.451,1.062.193,2.356-.386,2.356,3.96a18,18,0,0,1-2.351,8.229s.172-7.311-3.659-8.051-7.952-2.9-8.95-.129A21.108,21.108,0,0,1,925.02,260.652Z" transform="translate(-676.353 -207.733)" fill="#2f2e41"/>
    <ellipse id="타원_94" data-name="타원 94" cx="0.756" cy="1.008" rx="0.756" ry="1.008" transform="translate(262.745 52.642)" fill="#ffb9b9"/>
    <path id="패스_1173" data-name="패스 1173" d="M944.73,737.951l1.181,3.543s0,3.543,1.181,5.315,2.362,5.61-2.362,5.905-6.791-1.476-6.791-1.476.886-2.362,0-3.248,0-2.657,0-2.657l.886-7.086Z" transform="translate(-685.511 -549.462)" fill="#2f2e41"/>
    <path id="패스_1174" data-name="패스 1174" d="M877.179,737.951,876,741.494s0,3.543-1.181,5.315-2.362,5.61,2.362,5.905,6.791-1.476,6.791-1.476-.886-2.362,0-3.248,0-2.657,0-2.657l-.886-7.086Z" transform="translate(-640.967 -549.462)" fill="#2f2e41"/>
  </g>
</svg>
