<svg xmlns="http://www.w3.org/2000/svg" width="291" height="147.865" viewBox="0 0 291 147.865">
  <g id="그룹_890" data-name="그룹 890" transform="translate(-14 -3214.459)">
    <g id="그룹_750" data-name="그룹 750" transform="translate(14 3214.459)">
      <rect id="사각형_318" data-name="사각형 318" width="129.528" height="64.764" transform="translate(150.215 9.638)" fill="#e6e6e6"/>
      <path id="패스_1114" data-name="패스 1114" d="M541.353,616.124l3.068-.884a40.215,40.215,0,0,0,1.391-4.311l-1.441-.052,1.571-.453c.455-1.812.641-3.042.641-3.042a38.512,38.512,0,0,0-10.908,5.469l-.578,4.056-.553-3.119a16.24,16.24,0,0,0-1.44,1.45c-4.511,5.186-6.474,10.864-4.385,12.681s7.44-.914,11.951-6.1a21.4,21.4,0,0,0,3.349-5.6Z" transform="translate(-406.03 -480.663)" fill="#e6e6e6"/>
      <path id="패스_1115" data-name="패스 1115" d="M175.344,552.518l-1.749-6.9a89.551,89.551,0,0,0-9.5-3.409l-.221,3.205-.9-3.531c-4-1.143-6.728-1.647-6.728-1.647s3.68,13.992,11.4,24.689l8.993,1.58-6.986,1.007a36.247,36.247,0,0,0,3.125,3.312c11.227,10.421,23.732,15.2,27.93,10.679s-1.5-16.638-12.726-27.059a47.7,47.7,0,0,0-12.229-7.863Z" transform="translate(-156.25 -435.535)" fill="#e6e6e6"/>
      <path id="패스_1116" data-name="패스 1116" d="M238.178,513.067l2.068-6.808a89.545,89.545,0,0,0-6.372-7.829l-1.846,2.63,1.059-3.486c-2.837-3.049-4.908-4.888-4.908-4.888s-4.083,13.88-3.005,27.026l6.882,6-6.5-2.749a36.249,36.249,0,0,0,.963,4.45c4.224,14.724,12.457,25.281,18.389,23.579s7.316-15.018,3.092-29.741a47.7,47.7,0,0,0-6.4-13.053Z" transform="translate(-202.453 -403.574)" fill="#e6e6e6"/>
      <path id="패스_1117" data-name="패스 1117" d="M194.275,412.285l.722,3.25,5.055-.361-.361-3.61Z" transform="translate(-130.575 -274.293)" fill="#ffb8b8"/>
      <path id="패스_1118" data-name="패스 1118" d="M143.893,412.285l-.722,3.25-5.055-.361.361-3.61Z" transform="translate(-92.829 -274.293)" fill="#ffb8b8"/>
      <circle id="타원_88" data-name="타원 88" cx="6.86" cy="6.86" r="6.86" transform="translate(42.759 16.52)" fill="#ffb8b8"/>
      <path id="패스_1119" data-name="패스 1119" d="M134.416,76.812l-1.805,8.3L141.637,88l-.361-10.47Z" transform="translate(-89.13 -51.191)" fill="#ffb8b8"/>
      <path id="패스_1120" data-name="패스 1120" d="M285.034,325.133l-4.543-3.439s-.873-1.254-1.234-.171-3.611,5.055-3.611,5.055l2.527,29.606,19.136.361s-7.477-34.513-8.432-33.323S285.4,324.411,285.034,325.133Z" transform="translate(-236.498 -289.916)" fill="#d0cde1"/>
      <path id="패스_1121" data-name="패스 1121" d="M313.944,320.774s-1.444,1.444-.722,2.527.181,3.092.9,3.261-.722,12.445,1.444,15.695,1.083,11.554,1.083,13,2.166,10.11,2.166,10.11,7.221.722,7.221-1.083-2.527-14.442-2.527-14.442l2.166-22.385a3.179,3.179,0,0,0-2.527-2.889c-2.527-.722-7.582-2.527-7.582-2.527Z" transform="translate(-261.617 -289.652)" fill="#2f2e41"/>
      <path id="패스_1122" data-name="패스 1122" d="M325.678,389.647h-1.805s-9.387.722-8.665-3.25,7.943-1.083,7.943-1.083l2.166,1.083Z" transform="translate(-263.06 -332.2)" fill="#ffb8b8"/>
      <path id="패스_1123" data-name="패스 1123" d="M266.717,318.922s-2.965,1.871-3.327,2.593-8.665,4.694-8.665,7.582,2.527,6.138,2.527,6.138l3.249,31.773s5.416,1.805,5.777.361,1.805-33.217,1.083-34.661-.722-10.832-.722-10.832Z" transform="translate(-222.436 -288.391)" fill="#2f2e41"/>
      <path id="패스_1124" data-name="패스 1124" d="M261.693,478.79l-.361,2.166s.361,7.221,3.25,6.86,1.083-7.582,1.083-7.582l-.361-1.444Z" transform="translate(-226.877 -395.158)" fill="#ffb8b8"/>
      <path id="패스_1125" data-name="패스 1125" d="M275.647,422.631s.361,32.495,2.166,42.965,2.527,28.523,2.527,28.523a47.362,47.362,0,0,1,5.416,1.083c.722.361,2.527-.722,2.527-.722l.361-53.436,6.86,24.191s1.083,29.245,3.249,29.967,8.665-.722,8.665-.722-2.527-27.8-3.25-28.884-2.527-32.856-5.416-38.633l-1.083-3.972S277.091,423.714,275.647,422.631Z" transform="translate(-236.498 -356.489)" fill="#2f2e41"/>
      <path id="패스_1126" data-name="패스 1126" d="M348.683,643.733s-1.805-1.444-1.805-.361-1.805,7.763.361,7.763,16.609,1.264,16.248-1.625-9.049-7.5-9.049-7.5a23.3,23.3,0,0,0-3.588,1.363C350.488,643.733,348.683,643.733,348.683,643.733Z" transform="translate(-283.899 -503.936)" fill="#2f2e41"/>
      <path id="패스_1127" data-name="패스 1127" d="M278.324,643.733s1.805-1.444,1.805-.361,1.805,7.763-.361,7.763-16.609,1.264-16.247-1.625,9.049-7.5,9.049-7.5a23.3,23.3,0,0,1,3.588,1.363C276.518,643.733,278.324,643.733,278.324,643.733Z" transform="translate(-228.343 -503.936)" fill="#2f2e41"/>
      <path id="패스_1128" data-name="패스 1128" d="M343.918,340.044l2.527.361,5.055,14.442s1.444,7.221-.722,8.3-6.255.872-6.255.872l-.6-8.093,1.805.361-1.805-3.611Z" transform="translate(-282.384 -302.603)" fill="#2f2e41"/>
      <path id="패스_1129" data-name="패스 1129" d="M253.472,345.55l-1.805,1.444s-1.805,18.414-1.444,20.219,2.527,23.83,2.527,23.83l6.138-1.444-4.333-43.688Z" transform="translate(-219.378 -306.11)" fill="#2f2e41"/>
      <path id="패스_1130" data-name="패스 1130" d="M282.391,269.163s-2-2.534,0-3.8V266s4.28-4.751,6.848-3.484l2.283-.633v.633l1.427-.633-.285.95h2l-.856.633s6.563-.317,2.568,4.434c0,0,1.9,2.848.093,4.433,0,0-1.52-3.483-3.517-2.533a3.181,3.181,0,0,1-3.424-.317s-3.995-.317-3.424,1.583.285,2.534.285,2.534-1.427.95-1.141,1.584a9.848,9.848,0,0,1,.285,2.534s-1.427-2.217-2-1.9S279.824,272.964,282.391,269.163Z" transform="translate(-240.361 -250.769)" fill="#2f2e41"/>
      <path id="패스_1131" data-name="패스 1131" d="M331.6,88.925l-15.182.377-2.043-18.1H331.6Z" transform="translate(-211.296 -47.429)" fill="#2f2e41"/>
      <path id="패스_1132" data-name="패스 1132" d="M449.158,424.067l-5.541,38.421s-4.8,13.669-5.172,20.319l-1.478,9.605,6.65,1.478,7.019-26.969,9.605-24.383-1.108,28.077-2.217,22.905,6.65,1.108,4.064-29.185,4.433-21.427s3.325-18.472-1.847-20.319Z" transform="translate(-344.923 -357.206)" fill="#2f2e41"/>
      <path id="패스_1133" data-name="패스 1133" d="M441.276,626.076l-.739,8.992s7.913,4.575,5.374,5.462-6.014-.254-6.725-.456c-.751-.213-2.152-.552-3.213-.8a2.356,2.356,0,0,1-1.824-2.122l0-.033c-.064-1.106,2.432-10.722,2.432-10.722Z" transform="translate(-343.027 -493.227)" fill="#2f2e41"/>
      <path id="패스_1134" data-name="패스 1134" d="M504.087,626.761l.623,8.6s9.011,3.348,6.688,4.7-5.952.9-6.688.838c-1.357-.114-4.736-.228-4.736-.228s-.625.541-.9-.533.366-10.667.366-10.667Z" transform="translate(-386.621 -493.688)" fill="#2f2e41"/>
      <circle id="타원_89" data-name="타원 89" cx="7.019" cy="7.019" r="7.019" transform="translate(104.974 19.467)" fill="#ffb8b8"/>
      <path id="패스_1135" data-name="패스 1135" d="M326.136,93.171l-1.478,8.128,6.28,2.956,1.478-10.344Z" transform="translate(-218.207 -62.094)" fill="#ffb8b8"/>
      <path id="패스_1136" data-name="패스 1136" d="M483.161,433.044l7.758,5.542s3.325,8.5,5.911,7.019-2.956-8.866-2.956-8.866l-6.28-6.281Z" transform="translate(-375.971 -362.888)" fill="#ffb8b8"/>
      <path id="패스_1137" data-name="패스 1137" d="M542.259,430.458l.739,4.433s-1.847,9.236-4.064,7.389.739-7.758.739-7.758l-.37-3.694Z" transform="translate(-412.903 -362.917)" fill="#ffb8b8"/>
      <path id="패스_1138" data-name="패스 1138" d="M474.333,337.606l-.739-2.955-4.433-2.217-1.478,1.847-4.8,1.478,5.542,29.555s18.841,1.108,19.211-1.847-3.694-11.083-3.694-11.083,1.108-4.064.739-6.28l-1.478-8.866-5.911-1.847-1.35-1.633-1.236,2Z" transform="translate(-362.34 -297.482)" fill="#d0cde1"/>
      <path id="패스_1139" data-name="패스 1139" d="M457.35,343.313l-1.108-.739a4.1,4.1,0,0,0-2.955,3.325c-.739,2.955,0,16.255,1.847,18.841s7.019,10.344,7.019,10.344l7.019-3.325-7.389-8.5-1.847-10.714Z" transform="translate(-355.702 -304.233)" fill="#d0cde1"/>
      <path id="패스_1140" data-name="패스 1140" d="M515.836,347.82l2.955-.739a5,5,0,0,1,2.586,3.325c.739,2.586,4.8,15.516,4.433,16.625s3.325,8.5,3.325,8.5l-5.172.369-2.956-7.758-2.955-7.758Z" transform="translate(-397.932 -307.257)" fill="#d0cde1"/>
      <path id="패스_1141" data-name="패스 1141" d="M460.69,295.011a5.02,5.02,0,0,0,2.218-4.326c.049-1.688-.36-3.359-.392-5.047a3.9,3.9,0,0,1,.088-1.029,3.96,3.96,0,0,1,.566-1.172,10.939,10.939,0,0,1,8.8-5.057,3.907,3.907,0,0,1,1.488.274c.364.146.484.128.554.576a3.724,3.724,0,0,1,2.556.081,8.651,8.651,0,0,1,2.235,1.331,10.088,10.088,0,0,1,1.13.979,8.445,8.445,0,0,1,1.752,7.531c-.175.854.666,1.679,1.363,2.2a5.062,5.062,0,0,1,1.843,1.808,7.836,7.836,0,0,1,.215,2.49,4.259,4.259,0,0,0,2.717,3.578,1.311,1.311,0,0,1-1.265.445,3.112,3.112,0,0,1-1.318-.627,7.839,7.839,0,0,1-2.922-4.336,12.72,12.72,0,0,0-.118,2.843,7.94,7.94,0,0,0,.576,3.1,4.546,4.546,0,0,0,2.093,2.3,2.468,2.468,0,0,1-2.695-.537,5.631,5.631,0,0,1-1.551-2.584,12.88,12.88,0,0,1-.62-4.887,6.978,6.978,0,0,0-.876,4.758A7.273,7.273,0,0,0,481.59,304a14.172,14.172,0,0,1-6.486-1.633,3.672,3.672,0,0,1-1.33-1.025,4.253,4.253,0,0,1-.311-3.2c.143-.859-.93-2.1-.316-2.717a1.019,1.019,0,0,1,.683-.294,6.045,6.045,0,0,0,4.6-2.714,6.989,6.989,0,0,0,1.164-3.584,6.521,6.521,0,1,0-12.75,1.935,13.075,13.075,0,0,1,.475,2.21,17.342,17.342,0,0,0,.529,2.571,6.682,6.682,0,0,0,2.71,4.115,4.229,4.229,0,0,1-1.612.341,9.9,9.9,0,0,1-5.408-.646A4.785,4.785,0,0,1,460.69,295.011Z" transform="translate(-360.863 -261.859)" fill="#2f2e41"/>
      <path id="패스_1142" data-name="패스 1142" d="M472.876,292.885c5.252-2.105,10.43-2.554,15.473,0v-4.243a2.764,2.764,0,0,0-2.764-2.764H475.059a2.183,2.183,0,0,0-2.183,2.183Z" transform="translate(-369.058 -266.899)" fill="#2f2e41"/>
      <ellipse id="타원_90" data-name="타원 90" cx="0.774" cy="1.239" rx="0.774" ry="1.239" transform="translate(104.678 26.136)" fill="#ffb8b8"/>
      <rect id="사각형_319" data-name="사각형 319" width="169.559" height="1.696" transform="translate(0.063 146.169)" fill="#3f3d56"/>
      <path id="패스_1143" data-name="패스 1143" d="M776.895,293.415H646.71V228H776.895Zm-129.529-.656H776.239V228.651H647.366Z" transform="translate(-485.894 -227.995)" fill="#3f3d56"/>
      <path id="패스_1144" data-name="패스 1144" d="M822.386,379.431a5.281,5.281,0,1,1-1.547-3.749A5.292,5.292,0,0,1,822.386,379.431Z" transform="translate(-596.855 -325.393)" fill="#6c63ff"/>
      <path id="패스_1145" data-name="패스 1145" d="M822.386,379.431a5.281,5.281,0,1,1-1.547-3.749A5.292,5.292,0,0,1,822.386,379.431Z" transform="translate(-596.855 -325.393)" opacity="0.3"/>
      <path id="패스_1146" data-name="패스 1146" d="M810.938,281.994a12.264,12.264,0,0,1-1.046,5.027,12.533,12.533,0,0,1-1.085,1.951,16.151,16.151,0,0,1-3.1,3.344c-.2.171-.426.348-.725.577-.374.279-.79.57-1.269.885a26.5,26.5,0,0,0-2.436,1.78,5.407,5.407,0,0,0-1.183,1.279,9.182,9.182,0,0,0-.607,4.056v.328h-8.84v-1.534c0-1.2.03-2.21.085-3.089a22.089,22.089,0,0,1,.249-2.377,5.9,5.9,0,0,1,.616-1.984,17.885,17.885,0,0,1,4.276-4.02c.1-.072.2-.148.3-.223s.187-.134.282-.207a13.627,13.627,0,0,0,2.184-1.935,7.01,7.01,0,0,0,.531-.708l.043-.066a5.662,5.662,0,0,0,.728-2.99,5.218,5.218,0,0,0-.053-.79,4.179,4.179,0,0,0-1.331-2.662,4.762,4.762,0,0,0-2.987-1.246c-.141-.013-.272-.016-.407-.016a6.345,6.345,0,0,0-1.551.184,4.673,4.673,0,0,0-2.439,1.508,6.342,6.342,0,0,0-.853,1.3,19.016,19.016,0,0,0-1.469,5.62l-.033.344-8.322-2.217v-3.669c.039-.147.082-.3.128-.439a16.557,16.557,0,0,1,2.5-5.125,12.994,12.994,0,0,1,1.617-1.826c.141-.141.295-.279.449-.413a14.945,14.945,0,0,1,3.309-2.177l.1-.049a16.652,16.652,0,0,1,7.223-1.535c.259,0,.564,0,.865.02a16.5,16.5,0,0,1,7.112,1.813,14.5,14.5,0,0,1,2.764,1.862,11.81,11.81,0,0,1,4.266,7.764A13.86,13.86,0,0,1,810.938,281.994Z" transform="translate(-575.816 -255.474)" fill="#6c63ff"/>
      <path id="패스_1147" data-name="패스 1147" d="M810.938,281.994a12.264,12.264,0,0,1-1.046,5.027,12.533,12.533,0,0,1-1.085,1.951,16.151,16.151,0,0,1-3.1,3.344c-.2.171-.426.348-.725.577-.374.279-.79.57-1.269.885a26.5,26.5,0,0,0-2.436,1.78,5.407,5.407,0,0,0-1.183,1.279,9.182,9.182,0,0,0-.607,4.056v.328h-8.84v-1.534c0-1.2.03-2.21.085-3.089a22.089,22.089,0,0,1,.249-2.377,5.9,5.9,0,0,1,.616-1.984,17.885,17.885,0,0,1,4.276-4.02c.1-.072.2-.148.3-.223s.187-.134.282-.207a13.627,13.627,0,0,0,2.184-1.935,7.01,7.01,0,0,0,.531-.708l.043-.066a5.662,5.662,0,0,0,.728-2.99,5.218,5.218,0,0,0-.053-.79,4.179,4.179,0,0,0-1.331-2.662,4.762,4.762,0,0,0-2.987-1.246c-.141-.013-.272-.016-.407-.016a6.345,6.345,0,0,0-1.551.184,4.673,4.673,0,0,0-2.439,1.508,6.342,6.342,0,0,0-.853,1.3,19.016,19.016,0,0,0-1.469,5.62l-.033.344-8.322-2.217v-3.669c.039-.147.082-.3.128-.439a16.557,16.557,0,0,1,2.5-5.125,12.994,12.994,0,0,1,1.617-1.826c.141-.141.295-.279.449-.413a14.945,14.945,0,0,1,3.309-2.177l.1-.049a16.652,16.652,0,0,1,7.223-1.535c.259,0,.564,0,.865.02a16.5,16.5,0,0,1,7.112,1.813,14.5,14.5,0,0,1,2.764,1.862,11.81,11.81,0,0,1,4.266,7.764A13.86,13.86,0,0,1,810.938,281.994Z" transform="translate(-575.816 -255.474)" opacity="0.3"/>
      <path id="패스_1148" data-name="패스 1148" d="M811.386,379.431a5.28,5.28,0,1,1-1.547-3.749A5.292,5.292,0,0,1,811.386,379.431Z" transform="translate(-589.462 -325.393)" fill="#6c63ff"/>
      <path id="패스_1149" data-name="패스 1149" d="M798.486,281.994a12.261,12.261,0,0,1-1.046,5.027,12.523,12.523,0,0,1-1.085,1.951,16.149,16.149,0,0,1-3.1,3.344c-.2.171-.426.348-.725.577-.374.279-.79.57-1.269.885a26.494,26.494,0,0,0-2.436,1.78,5.4,5.4,0,0,0-1.184,1.279,9.185,9.185,0,0,0-.607,4.056v.328H778.2v-1.534c0-1.2.03-2.21.085-3.089a22.12,22.12,0,0,1,.249-2.377,5.9,5.9,0,0,1,.616-1.984,17.88,17.88,0,0,1,4.276-4.02c.1-.072.2-.148.3-.223s.187-.134.282-.207a13.6,13.6,0,0,0,2.184-1.935,6.967,6.967,0,0,0,.531-.708l.043-.066a5.662,5.662,0,0,0,.728-2.99,5.234,5.234,0,0,0-.052-.79,4.18,4.18,0,0,0-1.331-2.662,4.762,4.762,0,0,0-2.987-1.246c-.141-.013-.272-.016-.407-.016a6.345,6.345,0,0,0-1.551.184,4.675,4.675,0,0,0-2.44,1.508,6.35,6.35,0,0,0-.852,1.3A13.034,13.034,0,0,0,776.731,285l-.033.344-9.358-1.335.046-.325a23.462,23.462,0,0,1,.79-3.682,16.556,16.556,0,0,1,2.5-5.125,13,13,0,0,1,1.616-1.826c.141-.141.3-.279.449-.413a14.936,14.936,0,0,1,3.308-2.177l.1-.049a16.653,16.653,0,0,1,7.223-1.535c.259,0,.564,0,.866.02a16.5,16.5,0,0,1,7.112,1.813,14.5,14.5,0,0,1,2.764,1.862,11.809,11.809,0,0,1,4.266,7.764,13.86,13.86,0,0,1,.1,1.653Z" transform="translate(-566.971 -255.474)" fill="#6c63ff"/>
    </g>
  </g>
</svg>
