<svg xmlns="http://www.w3.org/2000/svg" xmlns:xlink="http://www.w3.org/1999/xlink" width="291" height="202.667" viewBox="0 0 291 202.667">
  <defs>
    <linearGradient id="linear-gradient" x1="0.5" y1="1" x2="0.5" gradientUnits="objectBoundingBox">
      <stop offset="0" stop-color="gray" stop-opacity="0.251"/>
      <stop offset="0.54" stop-color="gray" stop-opacity="0.122"/>
      <stop offset="1" stop-color="gray" stop-opacity="0.102"/>
    </linearGradient>
    <linearGradient id="linear-gradient-2" x1="0.495" y1="1.014" x2="0.495" y2="0" xlink:href="#linear-gradient"/>
    <linearGradient id="linear-gradient-3" x1="0.5" y1="1" x2="0.5" y2="0" xlink:href="#linear-gradient"/>
    <linearGradient id="linear-gradient-4" x1="0.5" y1="1" x2="0.5" y2="0" xlink:href="#linear-gradient"/>
  </defs>
  <g id="그룹_789" data-name="그룹 789" transform="translate(0.02 -0.02)">
    <circle id="타원_459" data-name="타원 459" cx="14.243" cy="14.243" r="14.243" transform="translate(14.888 6.001)" fill="#6c63ff"/>
    <path id="패스_1334" data-name="패스 1334" d="M175.133,168.479c5.98,13.508-1.648,29.063-10.628,40.775-3.006,3.928-6.324,8.045-6.74,12.972-.5,6.026,3.578,11.566,8.419,15.187a35.451,35.451,0,0,0,31.4,5.309c9.081-2.877,16.716-9.375,25.876-11.995,15.319-4.387,31.557,2.886,44.675,11.949,9.286,6.406,19.231,14.213,30.426,12.84,7.877-.965,14.562-6.5,19.1-13.006,2.191-3.143,4.1-6.667,7.286-8.787a18.237,18.237,0,0,1,6.351-2.408c20.34-4.347,41.927,6.262,62,.806,13.557-3.676,24.366-14.4,31.088-26.737s9.859-26.269,12.473-40.071c1.857-9.8,3.4-20.4-.87-29.412-4.516-9.547-14.969-15.334-25.475-16.419s-21.042,1.909-30.72,6.131c-12.093,5.288-23.946,12.69-37.145,12.715-8.989.018-17.561-3.431-26.155-6.063-14.369-4.4-29.311-6.581-44.2-8.6-14.256-1.93-28.652-3.726-42.993-2.586-10.147.806-19.109,4.684-28.955,6.48-6.419,1.17-12.868.306-19.167,2.267-7.757,2.426-15.735,8.048-16.164,16.9C164.6,155.161,171.962,161.313,175.133,168.479Z" transform="translate(-147.742 -119.24)" fill="#6c63ff" opacity="0.1"/>
    <path id="패스_1335" data-name="패스 1335" d="M530.425,270.483c-1.308-3.41-4.681-11.425-6.9-9.835-2.806,2.01,2.806,10.889,2.806,10.889.159,1.63-3,5.021-4.687,6.713v-.211a.734.734,0,0,1-.074.184l-.141-.077a.916.916,0,0,1-.2.365,3.594,3.594,0,0,0-.015-.365c-.325,1.376-5.993,3.119-5.993,3.119H514.8c-1.575,0-5.674-.355-7.574-3.395a16.807,16.807,0,0,0-3.716-4.335,3.165,3.165,0,0,0-1.762-.668,22.667,22.667,0,0,1-10.346-3.56l-.156-.107-.034.1c-.2-.285-.392-.588-.573-.9h0l-.092-.169a7.7,7.7,0,0,0,4.243-6.844v-.159a5.242,5.242,0,0,0,.7-2.626v-.919l1.2-1.066a4.926,4.926,0,0,0,1.394-1.673,1.982,1.982,0,0,0,.147-.858,1.486,1.486,0,0,0-.564-1.33c-.919-.634-2.451,0-3.116-.882-.306-.4-.251-.941-.4-1.409a2.522,2.522,0,0,0-2.43-1.483,10.5,10.5,0,0,0-2.978.634,17.484,17.484,0,0,1-6.342.594,4.143,4.143,0,0,0-1.737.061,2.393,2.393,0,0,0-1.409,1.639,3.85,3.85,0,0,0-.135.839,5.282,5.282,0,0,0-1.33,3.5V258.6a5.279,5.279,0,0,0,1.272,3.428,7.659,7.659,0,0,0,3.208,5.588v.187l.04.025a12.67,12.67,0,0,1-.337,2.166v-.156a22.143,22.143,0,0,1-8.885,2.338h-.506a3.422,3.422,0,0,0-2.451.919c-1.36,1.281-3.744,3.306-5.208,3.306-.306,0-8.039,1.51-9.32,1.762l-2.393-2.344-.074.138-.141-.138a5.814,5.814,0,0,0-.778.113,18.544,18.544,0,0,1-4.243-9.36s5.291-6.026,3.346-11.642c-1.661-4.786-6.235,5.472-7.534,8.563a2.47,2.47,0,0,0-.08,1.7l4.3,13.854a6.5,6.5,0,0,0-.34,3.37h-.049l3.131,4.017a16.532,16.532,0,0,0,6.042.987,21.12,21.12,0,0,0,7.886-1.513h.726l-.138.052H469l2.371,7.172c-.08.653-1.225,9.761-2.145,11.8a5.118,5.118,0,0,0-.362,2.145,16.372,16.372,0,0,0,.683,4.151l2.077-.077-.08.162a108.127,108.127,0,0,0-6.434,16.036l-3.024,6.128,2.267,27.482h.092l.175.028h0c.245.037.613.092,1.1.153l-.178.306-5,8.272s-3.563,7.295,4.32,5.919c0,0,2.914-.846,4.1-5.821l5.184-4.862s.242-3.229-1.225-4.519c-.092-1.492-.325-5.849.034-6.9.432-1.268-1.838-15.855-1.838-15.855s8.2-17.019,13.174-17.442a2.723,2.723,0,0,1,1.075.141c4.084,1.33,9.032,11.2,10.487,14.277h0l.067.141v.028l.055.119v.034l.049.1v.028l.043.1v.021l.037.077v.031l.028.058v.024l.018.043v.052h0l.015.037.646,19.133h0l.064.034h.031l-.055.4-.282,1.976s3.563,7.506,3.346,8.456,2.374,4.758,6.045,3.7,1.486-7.016,1.486-7.016l-3.536-7.286-.156-.325a6.95,6.95,0,0,0,.993-.738s-1.078-7.822,0-9.513,1.4-9.409,1.4-9.409-.757-5.285-2.053-7.61l-5.429-19.378c1.627,1.513,2.892,2.1,3.949,2.065h.175a2.637,2.637,0,0,0,1.33-.331,3.745,3.745,0,0,0,.613-.432.972.972,0,0,0,.1-.1h0c1.51-1.268-1.728-6.238-3.563-9.191-1.768-2.849.668-10.591.852-11.167a2.929,2.929,0,0,1,.524-.306,3.233,3.233,0,0,1,1.2-.26c1.759.061,3.922,1.072,6.6,1.581a31.132,31.132,0,0,0,5.634.438h.11c.751,0,1.431-.015,1.982-.037a3.348,3.348,0,0,0,1.44-.389h0a4.35,4.35,0,0,0,1.023-.827l4.7-5.309-.123.058a2.641,2.641,0,0,0,0-1.869l4.966-8.579A3.263,3.263,0,0,0,530.425,270.483Z" transform="translate(-346.032 -209.216)" fill="url(#linear-gradient)"/>
    <path id="패스_1336" data-name="패스 1336" d="M513.39,613.631l-5,4.795c-1.146,4.9-3.961,5.732-3.961,5.732-7.607,1.354-4.17-5.821-4.17-5.821l4.825-8.165.594-1.008s3.441-1.042,5.732-.417a1.961,1.961,0,0,1,.781.423C513.626,610.418,513.39,613.631,513.39,613.631Z" transform="translate(-384.795 -458.623)" fill="#444176"/>
    <path id="패스_1337" data-name="패스 1337" d="M625.059,603.479c-3.545,1.042-6.045-2.708-5.821-3.649S616,591.5,616,591.5l.27-1.948.251-1.8,5.821.417.548,1.152L626.3,596.5S628.6,602.437,625.059,603.479Z" transform="translate(-465.615 -444.197)" fill="#444176"/>
    <path id="패스_1338" data-name="패스 1338" d="M524.93,609.951c-.548.941-4.994.466-7.16.172l.594-1.008s3.44-1.042,5.732-.417a1.96,1.96,0,0,1,.781.423C524.909,609.629,524.93,609.951,524.93,609.951Z" transform="translate(-397.48 -458.588)" opacity="0.1"/>
    <path id="패스_1339" data-name="패스 1339" d="M623.493,589.3a6.74,6.74,0,0,1-6.633.236l.251-1.8,5.821.417Z" transform="translate(-466.212 -444.183)" opacity="0.1"/>
    <path id="패스_1340" data-name="패스 1340" d="M547.982,467.494c-1.042,1.667,0,9.381,0,9.381-3.44,3.128-7.5.833-7.5.833l-.613-18.863s-6.774-15.53-11.569-15.113-12.715,17.2-12.715,17.2,2.188,14.381,1.771,15.625,0,7.295,0,7.295c-.729,1.25-8.336,0-8.336,0l-2.187-27.1,2.9-6.048a107.213,107.213,0,0,1,6.2-15.809c.843-1.768,1.406-2.846,1.406-2.846l5.545-1.155,18-3.732,6.467,23.542c1.25,2.292,1.979,7.5,1.979,7.5S549.024,465.827,547.982,467.494Z" transform="translate(-389.892 -332.807)" fill="#565387"/>
    <g id="그룹_783" data-name="그룹 783" transform="translate(116.926 94.341)" opacity="0.1">
      <path id="패스_1341" data-name="패스 1341" d="M593.1,515.208l-.613-18.863s-6.774-15.53-11.569-15.113a2.611,2.611,0,0,0-.628.141c4.675,1.553,10.53,14.973,10.53,14.973l.613,18.863a7.353,7.353,0,0,0,4.145.757,7.372,7.372,0,0,1-2.479-.757Z" transform="translate(-557.772 -464.647)"/>
      <path id="패스_1342" data-name="패스 1342" d="M510.644,483.83l-2.187-27.1,2.917-6.057a107.209,107.209,0,0,1,6.2-15.809c.843-1.768,1.406-2.846,1.406-2.846l5.545-1.155,16.431-3.416-.089-.328-18.009,3.744-5.545,1.155s-.564,1.078-1.406,2.846a107.078,107.078,0,0,0-6.2,15.809l-2.917,6.045,2.188,27.1a39.153,39.153,0,0,0,6.618.533A49.248,49.248,0,0,1,510.644,483.83Z" transform="translate(-506.79 -427.12)"/>
    </g>
    <path id="패스_1343" data-name="패스 1343" d="M466.256,338.21s-5.941.306-5.107,6.566l1.667.208,2.5-2.708,1.25-2.292v-.521Z" transform="translate(-358.151 -271.109)" fill="#ced2df"/>
    <path id="패스_1344" data-name="패스 1344" d="M466.256,338.21s-5.941.306-5.107,6.566l1.667.208,2.5-2.708,1.25-2.292v-.521Z" transform="translate(-358.151 -271.109)" opacity="0.1"/>
    <path id="패스_1345" data-name="패스 1345" d="M693.023,345.69s4.9,2.6,3.649,5.628l-1.563.613-2.083-1.146-.306-2.708.208-1.875Z" transform="translate(-518.83 -276.297)" fill="#ced2df"/>
    <path id="패스_1346" data-name="패스 1346" d="M693.023,345.69s4.9,2.6,3.649,5.628l-1.563.613-2.083-1.146-.306-2.708.208-1.875Z" transform="translate(-518.83 -276.297)" opacity="0.1"/>
    <rect id="사각형_322" data-name="사각형 322" width="17.093" height="12.923" rx="6.461" transform="translate(132.088 42.502)" fill="#88455e"/>
    <path id="패스_1347" data-name="패스 1347" d="M457.443,289.656l-3.649,5.821-.306-1.036-4.957-16.152a2.485,2.485,0,0,1,.077-1.676c1.253-3.045,5.671-13.174,7.273-8.441,1.875,5.515-3.232,11.465-3.232,11.465a18.358,18.358,0,0,0,4.36,9.54C457.278,289.493,457.443,289.656,457.443,289.656Z" transform="translate(-349.378 -221.669)" fill="#ec8c9c"/>
    <path id="패스_1348" data-name="패스 1348" d="M691.16,307.3s5.732-5.42,5.515-7.607c0,0-5.42-8.753-2.708-10.723,2.145-1.569,5.4,6.336,6.664,9.7a3.278,3.278,0,0,1-.218,2.757l-6.851,12.129Z" transform="translate(-517.748 -236.813)" fill="#ec8c9c"/>
    <path id="패스_1349" data-name="패스 1349" d="M564.439,299.912s1.042,6.67-1.979,9.173,8.652,2.488,8.652,2.488l4.17-3.857s-4.795-4.482-3.336-7.816Z" transform="translate(-428.132 -244.536)" fill="#ec8c9c"/>
    <path id="패스_1350" data-name="패스 1350" d="M549.89,323.827a7.307,7.307,0,0,0,8.961-.417l7.295,15.113-.417,18.447s-15.113,7.816-21.367,3.024-1.042-7.295-1.042-7.295l-1.458-14.173,1.562-9.173s2.813-4.378,3.024-4.378S549.89,323.827,549.89,323.827Z" transform="translate(-413.791 -260.843)" opacity="0.1"/>
    <path id="패스_1351" data-name="패스 1351" d="M549.9,323.147a7.3,7.3,0,0,0,8.964-.417l7.295,15.113-.417,18.447s-15.113,7.816-21.366,3.024-1.042-7.295-1.042-7.295l-1.458-14.173,1.563-9.173s2.813-4.378,3.024-4.378S549.9,323.147,549.9,323.147Z" transform="translate(-413.798 -260.372)" fill="#ebf1f6"/>
    <path id="패스_1352" data-name="패스 1352" d="M494.805,319a19.34,19.34,0,0,1-8.863,2.3,3.266,3.266,0,0,0-2.356.9c-1.314,1.262-3.615,3.26-5.04,3.26-.306,0-9.173,1.771-9.173,1.771l-2.344-2.344s-3.493,6.826-5.159,6.513l3.024,3.962s5.732,2.5,13.235-.521h4.378l2.292,7.086s-1.146,9.59-2.083,11.673.306,6.149.306,6.149l8.232-.306s.417-4.066,1.042-4.6-2.187-18.447-2.187-18.447-1.875-10.11,5-13.756Z" transform="translate(-358.707 -257.785)" opacity="0.1"/>
    <path id="패스_1353" data-name="패스 1353" d="M543.509,439.38a27.206,27.206,0,0,0-.646,3.759l-6.3.239c.843-1.768,1.406-2.846,1.406-2.846Z" transform="translate(-410.514 -341.283)" opacity="0.1"/>
    <path id="패스_1354" data-name="패스 1354" d="M468.915,340.011l-3.649,5.821-.306-1.036a26.941,26.941,0,0,0,3.532-5.267A6.173,6.173,0,0,0,468.915,340.011Z" transform="translate(-360.85 -272.025)" opacity="0.1"/>
    <path id="패스_1355" data-name="패스 1355" d="M494.313,319a20.711,20.711,0,0,1-9.072,2.3,3.266,3.266,0,0,0-2.356.9c-1.314,1.262-3.615,3.26-5.04,3.26-.306,0-9.173,1.771-9.173,1.771l-2.353-2.347s-3.493,6.826-5.159,6.514l3.024,3.961s5.732,2.5,13.235-.521H481.8l2.292,7.083s-1.146,9.589-2.083,11.673.306,6.149.306,6.149l8.232-.306s.417-4.066,1.042-4.6S489.4,336.4,489.4,336.4s-1.875-10.11,5-13.756Z" transform="translate(-358.214 -257.785)" fill="#ced2df"/>
    <path id="패스_1356" data-name="패스 1356" d="M595.377,316.94a20.281,20.281,0,0,0,9.93,3.615,3.018,3.018,0,0,1,1.7.659,16.457,16.457,0,0,1,3.588,4.289c2.292,3.753,7.92,3.336,7.92,3.336s5.472-1.719,5.784-3.064c0,0,.156,7.353,3.6,5.576l-4.525,5.215a3.192,3.192,0,0,1-2.283,1.1,33.549,33.549,0,0,1-7.148-.4c-3.753-.729-6.461-2.5-8.441-.937,0,0-2.6,8.128-.833,11.048s4.9,7.816,3.441,9.069-3.232,1.146-6.149-1.875-3.232-8.128-3.232-8.128l.729-13.131s-2.812-9.9-5.515-11.881Z" transform="translate(-450.314 -256.356)" opacity="0.1"/>
    <path id="패스_1357" data-name="패스 1357" d="M629.225,331.449l-4.537,5.236a3.187,3.187,0,0,1-1.094.815h0a3.178,3.178,0,0,1-1.183.279,33.154,33.154,0,0,1-7.148-.4c-3.511-.683-6.109-2.276-8.052-1.2a2.849,2.849,0,0,0-.392.26s-2.6,8.128-.833,11.048,4.9,7.816,3.441,9.069a3.37,3.37,0,0,1-.815.53c-1.311.591-2.938.08-5.334-2.405-2.917-3.024-3.232-8.128-3.232-8.128l.729-13.131s-2.813-9.9-5.515-11.881l1.192-4.274a21.636,21.636,0,0,0,9.988,3.511,3.017,3.017,0,0,1,1.7.659,16.468,16.468,0,0,1,3.588,4.289c2.292,3.753,7.92,3.336,7.92,3.336a30.416,30.416,0,0,0,3.943-1.569h0a6.01,6.01,0,0,0,1.838-1.225.918.918,0,0,0,.2-.368S625.787,333.22,629.225,331.449Z" transform="translate(-451.229 -256.585)" opacity="0.1"/>
    <path id="패스_1358" data-name="패스 1358" d="M628.524,331.331l-4.534,5.242a3.186,3.186,0,0,1-.882.711h0a3.179,3.179,0,0,1-1.391.383,33.151,33.151,0,0,1-7.148-.4c-3.385-.659-5.925-2.166-7.84-1.305a2.837,2.837,0,0,0-.613.365s-2.6,8.128-.833,11.048,4.9,7.816,3.441,9.069a3.617,3.617,0,0,1-.613.426c-1.348.744-3.015.306-5.542-2.3-2.917-3.024-3.232-8.128-3.232-8.128l.729-13.131s-2.812-9.9-5.515-11.881l1.25-4.482.15.1a21.637,21.637,0,0,0,9.988,3.511,3.018,3.018,0,0,1,1.7.659,16.469,16.469,0,0,1,3.588,4.289c2.292,3.753,7.92,3.336,7.92,3.336a30.417,30.417,0,0,0,3.943-1.569h0c.947-.484,1.719-1.014,1.838-1.5v.263C625.019,327.312,625.479,332.9,628.524,331.331Z" transform="translate(-450.737 -256.363)" fill="#ced2df"/>
    <path id="패스_1359" data-name="패스 1359" d="M577.509,300.45H569.85a18.734,18.734,0,0,1,.144,3.677,7.874,7.874,0,0,0,8.094.582A4.888,4.888,0,0,1,577.509,300.45Z" transform="translate(-433.604 -244.918)" opacity="0.1"/>
    <circle id="타원_460" data-name="타원 460" cx="7.607" cy="7.607" r="7.607" transform="translate(133.286 45.266)" fill="#ec8c9c"/>
    <path id="패스_1360" data-name="패스 1360" d="M566.371,263.2a8.122,8.122,0,0,1,2.534-.233c.76.153,1.406.677,2.166.836,1.465.306,2.825-.772,3.931-1.777l2.39-2.175a4.877,4.877,0,0,0,1.348-1.648,1.655,1.655,0,0,0-.4-1.949c-.873-.613-2.377,0-3.009-.87a4.539,4.539,0,0,1-.389-1.388,2.439,2.439,0,0,0-2.347-1.461,10.383,10.383,0,0,0-2.874.613,16.543,16.543,0,0,1-6.128.585,3.916,3.916,0,0,0-1.676.058,2.343,2.343,0,0,0-1.36,1.615c-.472,1.667.334,4.354,1.143,5.846S564.756,263.4,566.371,263.2Z" transform="translate(-427.059 -211.686)" opacity="0.1"/>
    <path id="패스_1361" data-name="패스 1361" d="M566.371,262.524a8.124,8.124,0,0,1,2.534-.233c.76.153,1.406.677,2.166.836,1.465.306,2.825-.772,3.931-1.777l2.39-2.175a4.877,4.877,0,0,0,1.348-1.648,1.654,1.654,0,0,0-.4-1.949c-.873-.613-2.377,0-3.009-.87a4.539,4.539,0,0,1-.389-1.388,2.439,2.439,0,0,0-2.347-1.461,10.382,10.382,0,0,0-2.874.613,16.544,16.544,0,0,1-6.128.585,3.915,3.915,0,0,0-1.676.058,2.343,2.343,0,0,0-1.36,1.615c-.472,1.667.334,4.354,1.143,5.846S564.756,262.708,566.371,262.524Z" transform="translate(-427.059 -211.214)" fill="#88455e"/>
    <path id="패스_1362" data-name="패스 1362" d="M536.55,394a4.3,4.3,0,0,1,2.5,1.25,4.491,4.491,0,0,0,2.292,1.354" transform="translate(-410.507 -309.807)" opacity="0.1"/>
    <path id="패스_1363" data-name="패스 1363" d="M487.426,349.09s1.36,3.036.521,3.343-.521,2.5-.521,2.5" transform="translate(-376.392 -278.656)" opacity="0.1"/>
    <g id="그룹_784" data-name="그룹 784" transform="translate(111.408 61.264)" opacity="0.1">
      <path id="패스_1364" data-name="패스 1364" d="M488.875,332.5s8.857-1.771,9.164-1.771c1.428,0,3.726-2,5.04-3.26a3.217,3.217,0,0,1,1.428-.793h-.113a3.266,3.266,0,0,0-2.356.9c-1.314,1.262-3.615,3.26-5.04,3.26-.248,0-5.916,1.124-8.217,1.581Z" transform="translate(-488.78 -324.372)"/>
      <path id="패스_1365" data-name="패스 1365" d="M554.039,319.549v-.389a22.112,22.112,0,0,1-6.789,2.172A20.979,20.979,0,0,0,554.039,319.549Z" transform="translate(-529.336 -319.16)"/>
      <path id="패스_1366" data-name="패스 1366" d="M521.965,395.428s-1.25-4.066-.306-6.149,2.083-11.673,2.083-11.673l-2.286-7.086h-4.39l-.267.1h3.6l2.283,7.089s-1.146,9.59-2.083,11.673.306,6.149.306,6.149l8.232-.306v-.064Z" transform="translate(-508.215 -354.785)"/>
    </g>
    <g id="그룹_785" data-name="그룹 785" transform="translate(148.703 74.975)" opacity="0.1">
      <path id="패스_1367" data-name="패스 1367" d="M619.9,419.115a3.6,3.6,0,0,1-.613.426c-1.348.745-3.015.306-5.542-2.3-2.316-2.4-2.99-6.128-3.171-7.54l-.061,1.078s.306,5.107,3.232,8.128c2.528,2.616,4.194,3.045,5.542,2.3a3.611,3.611,0,0,0,.613-.426c.438-.377.463-1.085.233-1.967A.967.967,0,0,1,619.9,419.115Z" transform="translate(-610.51 -395.671)"/>
      <path id="패스_1368" data-name="패스 1368" d="M650.2,364.06l-2.95,3.41a3.187,3.187,0,0,1-.882.711h0a3.179,3.179,0,0,1-1.391.383,33.151,33.151,0,0,1-7.148-.4c-3.385-.659-5.925-2.166-7.84-1.305a2.834,2.834,0,0,0-.613.365s-1.682,5.251-1.425,8.827a34.466,34.466,0,0,1,1.425-7.16,2.834,2.834,0,0,1,.613-.365c1.918-.861,4.455.646,7.84,1.305a33.55,33.55,0,0,0,7.148.4,3.18,3.18,0,0,0,1.391-.383h0a3.185,3.185,0,0,0,.882-.7l4.537-5.236A1.786,1.786,0,0,1,650.2,364.06Z" transform="translate(-622.588 -363.91)"/>
    </g>
    <path id="패스_1369" data-name="패스 1369" d="M265.74,486.89a.236.236,0,0,0,.279.037A.95.95,0,0,1,265.74,486.89Z" transform="translate(-222.666 -374.237)" fill="url(#linear-gradient-2)"/>
    <path id="패스_1370" data-name="패스 1370" d="M199.4,286.375c-.551-.159-1.339-.42-2.286-.751a11.985,11.985,0,0,0,2.117-4.265l-.08.031c.028-.1.055-.187.08-.285-1.817.738-3.827-.512-5.107-2.117s-2.145-3.6-3.548-5.074a16.238,16.238,0,0,0-1.881-1.621,2.6,2.6,0,0,0-1.363-.668c-.818-.025-1.458.778-2.246,1.014a3.064,3.064,0,0,1-1.566-.058c-2.031-.466-3.983-1.327-6.057-1.553a7.1,7.1,0,0,0-3.287.371c-1.042.4-1.517,1.183-2.359,1.814-.919.677-2.714.662-3.784.781a27.118,27.118,0,0,1-3.909.162,9.151,9.151,0,0,0-2.249.083c-1.553.34-2.8,1.575-3.964,2.757a2.043,2.043,0,0,0-.656,1.026,1.3,1.3,0,0,0,0,.34,2.209,2.209,0,0,0,.156.9,11.949,11.949,0,0,0,1.5,2.993,8.645,8.645,0,0,1,1.3,2.126,4.126,4.126,0,0,1,.2,1.225,8.906,8.906,0,0,1-.138,1.317,16.543,16.543,0,0,1-1.008,3.508,6.373,6.373,0,0,0-.588,1.838,2.927,2.927,0,0,0,0,.392c-.077,2.022,1.964,3.477,2.359,5.487a3.279,3.279,0,0,1,.058.505,3.424,3.424,0,0,1-1.811,2.966c.092.037.187.067.282.1a2.551,2.551,0,0,1-.282.153,5.731,5.731,0,0,0,.588.19,13.665,13.665,0,0,0-2.975,3.677c-3.545,6.6-27.552,19.525-27.552,19.525l.355.2-.288.187c-2.077,1.382-6.952,5.411-2.546,10.506,0,0,3.441-5.429,5.852-7.742.107-.1.214-.2.306-.288a.7.7,0,0,1,.092.558l15.784-8.87s5.61-3.928,7.175-4.813a12.914,12.914,0,0,1,3.557-1.532l-.184.077a7.207,7.207,0,0,1,1.811-.257c2.794.043,5.821,2.089,6.817,10.193,1.336,10.852.717,12.81.288,13.076a.787.787,0,0,1-.156-.028.266.266,0,0,0,.043.031.823.823,0,0,1-.172-.031.245.245,0,0,0,.233.055.218.218,0,0,0,.175-.021h0a1.843,1.843,0,0,0,.211,0,2.255,2.255,0,0,1-.021.306c-.021,0-.126.058,0,.064h0c-.034.613-.031,1.278,0,1.973-1.388.077-2.776.159-3.983.233l.107-.573.049-.257c1.066-.086,2.077-.4,2.2-1.262.26-1.9-2.347-2.914-4.565-3.039s-15.521.76-15.521.76-1.994,2.583,4.332,3.37l.585.306a70.325,70.325,0,0,1,7.451,5.294l.224.178-.723.588c3.912.885,7.7,15.836,9.783,22.672s6.651,6.587,10.435,5.573c3.545-.95,3.983-11.244,4.041-12.537v-.132l6.305,7.788.478.591q.276.144.545.27c4.773,2.27,10.046-2.083,8.548-7.047-1.517-5-3.87-12.4-5.438-15.53-1.314-2.62-3.012-6.97-4.041-9.694a3.273,3.273,0,0,0,.389-.187s-.025-.123-.064-.346l.064-.034a93.932,93.932,0,0,1-1.6-13.48v-.487c1.14-.26,1.863-.362,1.863-.362l.021-.245-.132.028.634-7.258s2.328-4.954.545-7.016a4.332,4.332,0,0,1-1.045-2.145c-.306-1.9,0-5.061,4.151-7.69,6.391-4.053,8.885-7.353,8.885-7.353S203.309,287.527,199.4,286.375ZM186.7,291.412v-3.355c1.186-.058,2.4.08,3.588,0a9.081,9.081,0,0,0,1.731-.291l.288.2A31.555,31.555,0,0,1,186.7,291.412ZM168.582,344c.469.325.941.662,1.4,1,.288,1.654.542,2.822.561,2.9A22.937,22.937,0,0,0,168.582,344Z" transform="translate(-125.1 -224.473)" fill="url(#linear-gradient-3)"/>
    <path id="패스_1371" data-name="패스 1371" d="M267.086,500.32l-.276,1.5-.211,1.146-.386,2.1-3.744,2.619s-.337-.288-.895-.744a65.621,65.621,0,0,0-7.126-5.208,7.97,7.97,0,0,0-1.958-.9Z" transform="translate(-213.475 -383.553)" fill="#ffbdc6"/>
    <path id="패스_1372" data-name="패스 1372" d="M267.079,500.32l-.276,1.5a11.643,11.643,0,0,1-2.469-.126l-8.735.126c-.414-.024-.8-.058-1.161-.095a7.968,7.968,0,0,0-1.958-.9Z" transform="translate(-213.468 -383.553)" opacity="0.1"/>
    <path id="패스_1373" data-name="패스 1373" d="M257.473,494.63s4.369.748,4.617-1.124-2.246-2.858-4.363-3-14.853.754-14.853.754-2.246,2.993,5.864,3.493Z" transform="translate(-206.607 -376.735)" fill="#7679b4"/>
    <path id="패스_1374" data-name="패스 1374" d="M267.086,500.32l-.276,1.5-.211,1.146-.386,2.1-3.744,2.619s-.337-.288-.895-.744a65.621,65.621,0,0,0-7.126-5.208,7.97,7.97,0,0,0-1.958-.9Z" transform="translate(-213.475 -383.553)" opacity="0.1"/>
    <path id="패스_1375" data-name="패스 1375" d="M267.079,500.32l-.276,1.5a11.643,11.643,0,0,1-2.469-.126l-8.735.126c-.414-.024-.8-.058-1.161-.095a7.968,7.968,0,0,0-1.958-.9Z" transform="translate(-213.468 -383.553)" opacity="0.1"/>
    <path id="패스_1376" data-name="패스 1376" d="M257.473,494.63s4.369.748,4.617-1.124-2.246-2.858-4.363-3-14.853.754-14.853.754-2.246,2.993,5.864,3.493Z" transform="translate(-206.607 -376.735)" opacity="0.1"/>
    <rect id="사각형_323" data-name="사각형 323" width="22.834" height="27.077" transform="translate(37.575 56.372)" fill="#a66477"/>
    <rect id="사각형_324" data-name="사각형 324" width="22.834" height="27.077" transform="translate(37.575 56.372)" opacity="0.1"/>
    <path id="패스_1377" data-name="패스 1377" d="M140.74,449.409a3.658,3.658,0,0,0-1.391.983,54.722,54.722,0,0,0-5.6,7.626c-4.216-5.018.45-8.986,2.451-10.349.484-.331.809-.509.809-.509Z" transform="translate(-129.93 -346.68)" fill="#ffbdc6"/>
    <path id="패스_1378" data-name="패스 1378" d="M271.915,331.09s1.124,7.862,4.991,9.734-4.991,5.365-4.991,5.365l-12.1-4.491s6.863-2.246,5.49-8.86Z" transform="translate(-218.553 -266.171)" fill="#ffbdc6"/>
    <path id="패스_1379" data-name="패스 1379" d="M223.956,485.45l-.276,1.5-.211,1.146-.386,2.1-3.744,2.62s-.337-.288-.895-.745a65.621,65.621,0,0,0-7.126-5.208,7.963,7.963,0,0,0-1.958-.9Z" transform="translate(-183.559 -373.239)" fill="#ffbdc6"/>
    <path id="패스_1380" data-name="패스 1380" d="M223.949,485.45l-.276,1.5a11.641,11.641,0,0,1-2.469-.126l-8.735.126c-.414-.025-.8-.058-1.161-.1a7.965,7.965,0,0,0-1.958-.9Z" transform="translate(-183.552 -373.239)" opacity="0.1"/>
    <path id="패스_1381" data-name="패스 1381" d="M214.3,479.771s4.369.748,4.617-1.124-2.246-2.871-4.369-2.993-14.85.748-14.85.748-2.246,2.993,5.864,3.493Z" transform="translate(-176.657 -366.435)" fill="#7679b4"/>
    <path id="패스_1382" data-name="패스 1382" d="M243.995,493.889l-.386,2.1-3.744,2.619s-.337-.288-.895-.744l4.951-4.059Z" transform="translate(-204.097 -379.03)" opacity="0.1"/>
    <path id="패스_1383" data-name="패스 1383" d="M267.6,509.887q-.257-.126-.521-.267l-.456-.582-6.029-7.659v.135c-.04,1.271-.475,11.412-3.863,12.347-3.618,1-7.987,1.247-9.982-5.49s-5.616-21.461-9.36-22.335l5.551-4.556a33.085,33.085,0,0,1,5.178,8.419c-.055-.263-2.595-12.123-.5-14.219h18.217s2.806,8.009,4.743,11.979c1.5,3.082,3.753,10.368,5.208,15.3A5.86,5.86,0,0,1,267.6,509.887Z" transform="translate(-203.001 -366.462)" fill="#7679b4"/>
    <path id="패스_1384" data-name="패스 1384" d="M288.312,443.463c-2.809,1.664-15.162.987-19.188.717l-1.094-.08c-.12,0,.018-.067.018-.067l.113-1.134,2.993-7.61L287.19,426a13.875,13.875,0,0,0-.407,4.194A97.759,97.759,0,0,0,288.312,443.463Z" transform="translate(-224.22 -332.003)" opacity="0.1"/>
    <path id="패스_1385" data-name="패스 1385" d="M288.013,442.267c-2.809,1.664-15.162.987-19.188.717l-1.094-.08h-.181l.2-.052.987-.26,2.12-8.487,16.036-9.3a13.876,13.876,0,0,0-.407,4.194A97.839,97.839,0,0,0,288.013,442.267Z" transform="translate(-223.921 -331.177)" fill="#f2f1f2"/>
    <path id="패스_1386" data-name="패스 1386" d="M286.9,428.93c-3.26.751-10.435,2.96-13.192,8.272-1.838,3.548-3.37,5.07-4.464,5.708l-1.094-.08.018-.067.986-.26,2.12-8.487,16.036-9.3A13.875,13.875,0,0,0,286.9,428.93Z" transform="translate(-224.337 -331.115)" opacity="0.1"/>
    <path id="패스_1387" data-name="패스 1387" d="M146.379,447.17l3.744,2.246a3.658,3.658,0,0,0-1.391.984c-.306-.919-2.273-2.181-3.162-2.721C146.054,447.348,146.379,447.17,146.379,447.17Z" transform="translate(-139.313 -346.687)" opacity="0.1"/>
    <path id="패스_1388" data-name="패스 1388" d="M265.4,484.264a.224.224,0,0,1-.263-.034A.9.9,0,0,0,265.4,484.264Z" transform="translate(-222.25 -372.392)" opacity="0.1"/>
    <path id="패스_1389" data-name="패스 1389" d="M190.773,318.045a7.423,7.423,0,0,1-5.741-2.12s-9.982,2.871-13.352,9.36S145.35,344.5,145.35,344.5s3.983,2.246,3.618,3.37l15.1-8.735s5.365-3.87,6.863-4.743,9.734-6.238,11.48,8.361,0,12.868,0,12.868,2.5.873,6.127-6.128,14.85-8.609,14.85-8.609l.613-7.353s2.227-4.878.521-6.912a4.32,4.32,0,0,1-1-2.111c-.285-1.869,0-4.985,3.983-7.574,6.127-3.983,8.487-7.237,8.487-7.237s.126-2.371-3.618-3.493S193.4,298.97,193.4,298.97l-.5,2.12,11.979,8.487s-5.99,4.865-10.723,4.743C194.143,314.3,195.016,317.919,190.773,318.045Z" transform="translate(-139.16 -243.891)" fill="#565388"/>
    <path id="패스_1390" data-name="패스 1390" d="M284.284,335.324a24.515,24.515,0,0,1-.689-3.064l-6.615,1.759a7.292,7.292,0,0,1-.15,3.814,7.114,7.114,0,0,0,7.454-2.512Z" transform="translate(-230.358 -266.982)" opacity="0.1"/>
    <circle id="타원_461" data-name="타원 461" cx="7.114" cy="7.114" r="7.114" transform="translate(41.319 56.494)" fill="#ffbdc6"/>
    <path id="패스_1391" data-name="패스 1391" d="M251.737,273.858a50.78,50.78,0,0,1,5.793,1.532,2.862,2.862,0,0,0,1.5.058c.754-.233,1.366-1.023,2.145-1a2.254,2.254,0,0,1,1.305.659,15.662,15.662,0,0,1,1.8,1.6c1.339,1.455,2.172,3.416,3.395,5s3.15,2.813,4.887,2.086c-1.18,4.6-5.052,8.11-9.237,8.395-1.67.113-3.37-.233-5,.257a4.374,4.374,0,0,1-1.262.306c-.919,0-1.679-.855-2.261-1.685a71.4,71.4,0,0,0-3.983-5.953A3.256,3.256,0,0,0,249,283.852a3.364,3.364,0,0,0-2.01.564,9.542,9.542,0,0,0-2.941,2.04,4.078,4.078,0,0,0-.993,3.588,8.763,8.763,0,0,1,.613,2.007c0,1.134-.987,1.964-1.186,3.064a11.816,11.816,0,0,0-.049,1.4,5.7,5.7,0,0,1-2.111,3.7,2.664,2.664,0,0,0-.965,1.339c-.08.389,0,.8-.052,1.2a2.175,2.175,0,0,1-2,1.609,5.791,5.791,0,0,1-3-.355,3.444,3.444,0,0,0,1.676-3.677c-.386-2.025-2.42-3.477-2.249-5.542a6.413,6.413,0,0,1,.564-1.823,16.681,16.681,0,0,0,.962-3.456,5.855,5.855,0,0,0-.058-2.757,8.7,8.7,0,0,0-1.244-2.1,11.9,11.9,0,0,1-1.44-2.95,2.068,2.068,0,0,1-.138-.974,2.019,2.019,0,0,1,.613-1.011c1.115-1.167,2.31-2.384,3.793-2.721a8.5,8.5,0,0,1,2.145-.083,25.205,25.205,0,0,0,3.741-.159c1.023-.12,2.757-.1,3.621-.772.806-.613,1.262-1.394,2.258-1.786A6.609,6.609,0,0,1,251.737,273.858Z" transform="translate(-199.524 -226.429)" opacity="0.1"/>
    <path id="패스_1392" data-name="패스 1392" d="M308.48,513.76s4.118,8.11,2.871,10.607" transform="translate(-252.311 -392.875)" opacity="0.1"/>
    <path id="패스_1393" data-name="패스 1393" d="M319.086,563.419l-6.029-7.659v.135s-.349-2.475.8-1.642c2.515,1.82,6.541,4.8,6.627,5.319S319.668,562.15,319.086,563.419Z" transform="translate(-255.451 -420.842)" opacity="0.1"/>
    <g id="그룹_786" data-name="그룹 786" transform="translate(6.315 55.057)" opacity="0.1">
      <path id="패스_1394" data-name="패스 1394" d="M302.427,348.771a3.059,3.059,0,0,1-1.137,3.162,2.826,2.826,0,0,0,2.567-3.263A7.99,7.99,0,0,1,302.427,348.771Z" transform="translate(-253.64 -333.422)"/>
      <path id="패스_1395" data-name="패스 1395" d="M147.136,382.851s22.96-12.727,26.33-19.216c2.417-4.657,8.241-7.448,11.336-8.655-2.258.757-9.856,3.658-12.711,9.154-3.37,6.489-26.33,19.216-26.33,19.216Z" transform="translate(-145.76 -337.799)"/>
      <path id="패스_1396" data-name="패스 1396" d="M306.651,313.26a27.343,27.343,0,0,0,7.641-4.249l-11.979-8.487.273-1.164-1.146-.46-.5,2.12,11.979,8.487A28.906,28.906,0,0,1,306.651,313.26Z" transform="translate(-253.397 -298.9)"/>
      <path id="패스_1397" data-name="패스 1397" d="M319.83,436.4a29.685,29.685,0,0,1,4.7-1.186l.021-.242A31.781,31.781,0,0,0,319.83,436.4Z" transform="translate(-266.499 -393.282)"/>
      <path id="패스_1398" data-name="패스 1398" d="M249.516,430.4h-.11a.223.223,0,0,1-.263-.034.917.917,0,0,0,.263.034c.411-.239,1.026-2.1-.263-12.886-1.379-11.514-6.789-10.61-9.752-9.286,3.027-.833,7.194-.113,8.379,9.786,1.29,10.784.674,12.65.263,12.886A2.757,2.757,0,0,0,249.516,430.4Z" transform="translate(-210.704 -374.206)"/>
      <path id="패스_1399" data-name="패스 1399" d="M267,483.864a.919.919,0,0,1-.263-.034A.224.224,0,0,0,267,483.864Z" transform="translate(-229.675 -427.172)"/>
    </g>
    <path id="패스_1400" data-name="패스 1400" d="M251.737,273.068a50.8,50.8,0,0,1,5.794,1.532,2.862,2.862,0,0,0,1.5.058c.754-.233,1.366-1.023,2.145-1a2.254,2.254,0,0,1,1.305.659,15.654,15.654,0,0,1,1.8,1.6c1.339,1.455,2.172,3.416,3.395,5s3.15,2.813,4.887,2.086c-1.18,4.6-5.052,8.11-9.237,8.395-1.67.113-3.37-.233-5,.257a4.373,4.373,0,0,1-1.262.306c-.919,0-1.679-.855-2.261-1.685a71.368,71.368,0,0,0-3.983-5.953A3.256,3.256,0,0,0,249,283.062a3.364,3.364,0,0,0-2.01.564,9.541,9.541,0,0,0-2.941,2.04,4.079,4.079,0,0,0-.993,3.588,8.764,8.764,0,0,1,.613,2.007c0,1.134-.987,1.964-1.186,3.064a11.816,11.816,0,0,0-.049,1.4,5.7,5.7,0,0,1-2.111,3.7,2.664,2.664,0,0,0-.965,1.339c-.08.389,0,.8-.052,1.2a2.175,2.175,0,0,1-2,1.608,5.791,5.791,0,0,1-3-.355,3.444,3.444,0,0,0,1.676-3.677c-.386-2.025-2.42-3.477-2.249-5.542a6.413,6.413,0,0,1,.564-1.823,16.68,16.68,0,0,0,.962-3.456,5.855,5.855,0,0,0-.058-2.757,8.7,8.7,0,0,0-1.244-2.1,11.893,11.893,0,0,1-1.44-2.95,2.069,2.069,0,0,1-.138-.974,2.019,2.019,0,0,1,.613-1.011c1.115-1.167,2.31-2.384,3.793-2.721a8.506,8.506,0,0,1,2.145-.083,25.189,25.189,0,0,0,3.741-.159c1.023-.12,2.757-.1,3.621-.772.806-.613,1.262-1.394,2.258-1.786A6.609,6.609,0,0,1,251.737,273.068Z" transform="translate(-199.524 -225.881)" fill="#a66477"/>
    <path id="패스_1401" data-name="패스 1401" d="M811.59,202.993h0v-.113a.256.256,0,0,0-.019-.116h-.049v-.254c-.123-2.84-4.05-8.885-5.625-7.12-1.379,1.55.7,5.472,1.762,7.237l.095.159-.052-.034s-4.384,13.076-4.9,13.585-4.127,10.79-8.885,11.949c-.941.224-1.722.426-2.378.613l.052-.175a18.954,18.954,0,0,0,.836-3.064,3.967,3.967,0,0,0-.564-3.009c-.276-.27-.613-.306-.839-.735a3.393,3.393,0,0,1-.233-1.18l-.4-4.957.282-.086c1.7-.545,3.355-1.838,3.548-3.578a1.828,1.828,0,0,1-.181.058q.034-.152.052-.306c-1.431.564-2.757-.919-4.136-1.584-2.27-1.112-4.865-.064-7.209.19-2.656.291-5.178-.812-7.892-.613-1.477.113-3.119,1.115-3.039,2.57a10.287,10.287,0,0,0,.846,2.243c.588,1.854-.72,3.713-1.866,5.294a7.88,7.88,0,0,0-1.605,3.523c-2.638-2.757-5.49-5.944-5.821-7.142l-7.632-13.076s-.181.193-.472.478c-.046-.141-.1-.306-.162-.472-.974-2.73-3.732-9.344-7.227-8.131s1.449,7.993,3.6,10.7l.306.374a.968.968,0,0,1-.545-.024l8.511,14.6s1.547,2.794,2.966,3.554c0,0,10.573,13.33,10.7,16s4.755,9.776,4.755,9.776S779.711,261.67,777,263.7h.447q-.193.188-.4.414c-2.007,2.224-4.571,6.991-1.066,15.1,5.156,11.949,5.931,16.63,5.931,16.63s-9.8.509-11.734.888c-1.71.337-8.355.573-9.874.613-.542-.631-2.145-2.028-4.308,0-2.708,2.54-4.642,11.029-4.642,11.029s-1.032,6.857,2.451,5.077c0,0,4.127-5.714,5.285-5.968.576-.126,1.186-.974,1.651-1.792l.025.015h0c.027,0,.141-.061.325-.135h0a9.933,9.933,0,0,1,5.083-.751,93.607,93.607,0,0,0,9.982.264c-1.036,2.482-2.892,8.885-2.892,8.885s-.775,5.971,1.8,5.726c1.838-.181,4.657-4.878,6.128-7.558,1.066-.781,4.121-3.582,6.379-3.37l15.215-5.839s3.609-2.031,1.676-8.759c-1.532-5.349-5.892-16.3-7.613-20.567h0l-.052-.11c-.417-1.032-.668-1.645-.668-1.645h0a25.182,25.182,0,0,1-1.382-6.039c-.015-.162-.028-.328-.04-.49a2.708,2.708,0,0,0,.6-.346s-1.419-14.344,0-15.87h0l.025-.028h0v-.018h0l.024-.031h0l.055-.07h0l.067-.086h0c.077-.1.169-.227.273-.38h0a10.517,10.517,0,0,0,1.89-7.108h0q-.028-.208-.067-.42h0a8.757,8.757,0,0,0-.882-2.488,6.887,6.887,0,0,1-.113-.983v-.87a2.942,2.942,0,0,1,.046-.441v-.055a.552.552,0,0,1,.028-.169v-.07a.8.8,0,0,1,.037-.165v-.058c.018-.074.037-.147.061-.221V235.4c.018-.061.039-.122.061-.181l.028-.07L796.9,235l.031-.074c.024-.055.052-.11.08-.165l.021-.046q.055-.1.116-.2l.034-.052.1-.144.049-.064.107-.129.049-.055c.055-.058.11-.116.172-.172,1.676-1.532,9.155-12.822,9.155-12.822s1.8-2.54,1.8-4.188C808.722,216.857,811.911,206.226,811.59,202.993Zm-20.077,94.9c-.184-1.74-.368-3.9-.536-6.128l2.917,4.547S793.618,297.7,791.513,297.893Z" transform="translate(-556.241 -171.775)" fill="url(#linear-gradient-4)"/>
    <path id="패스_1402" data-name="패스 1402" d="M773.437,524.751s-1.746-2.757-4.369-.248-4.491,10.855-4.491,10.855-1,6.74,2.371,4.991c0,0,3.983-5.616,5.117-5.864s2.371-3.37,2.371-3.37Z" transform="translate(-568.576 -399.596)" fill="#493545"/>
    <path id="패스_1403" data-name="패스 1403" d="M840.256,548.372s-2.371-1.124-3.119-.248-3.245,9.608-3.245,9.608-.748,5.741,1.746,5.49,6.863-9.24,6.863-9.24Z" transform="translate(-616.678 -416.479)" fill="#493545"/>
    <path id="패스_1404" data-name="패스 1404" d="M840.256,548.372s-2.371-1.124-3.119-.248-3.245,9.608-3.245,9.608-.748,5.741,1.746,5.49,6.863-9.24,6.863-9.24Z" transform="translate(-616.678 -416.479)" opacity="0.05"/>
    <path id="패스_1405" data-name="패스 1405" d="M860.266,459.882l5.365,8.361s-.374,1.872-3.618,1.5l-11.106,6.988s-.965,8.508,2.12,7.736c.5-.126,3.983-3.744,6.489-3.493l14.727-5.741s3.493-2,1.621-8.609S867.8,444.68,867.8,444.68l-9.782,5.472Z" transform="translate(-628.453 -344.96)" fill="#3e3d77"/>
    <path id="패스_1406" data-name="패스 1406" d="M860.266,459.882l5.365,8.361s-.374,1.872-3.618,1.5l-11.106,6.988s-.965,8.508,2.12,7.736c.5-.126,3.983-3.744,6.489-3.493l14.727-5.741s3.493-2,1.621-8.609S867.8,444.68,867.8,444.68l-9.782,5.472Z" transform="translate(-628.453 -344.96)" opacity="0.05"/>
    <path id="패스_1407" data-name="패스 1407" d="M820.307,451.856c.748,4.743-3.493,5.116-3.493,5.116s-19.093.374-21.339-.126-5.242.873-5.242.873c-3.869-2.371-.747-8.235-.747-8.235s7.987-.248,9.859-.613,11.354-.882,11.354-.882-.747-4.617-5.742-16.345c-3.391-7.966-.919-12.653,1.033-14.838A8.214,8.214,0,0,1,807.7,415.3l15.349.748a19.919,19.919,0,0,0,.086,2.319,24.7,24.7,0,0,0,2.037,7.659c-.873,0-6.489,5.242-6.489,5.242S819.557,447.117,820.307,451.856Z" transform="translate(-585.124 -324.581)" fill="#3e3d77"/>
    <path id="패스_1408" data-name="패스 1408" d="M790.61,450.005s7.987-.248,9.859-.613,11.354-.873,11.354-.873-.748-4.617-5.742-16.345c-3.391-7.966-.919-12.653,1.032-14.838a8.221,8.221,0,0,1,1.713-1.507l14.222.692v-.444L807.7,415.33a8.22,8.22,0,0,0-1.713,1.507c-1.942,2.188-4.424,6.872-1.032,14.838,5.006,11.719,5.748,16.336,5.748,16.336s-9.5.5-11.354.873-9.859.613-9.859.613-3.119,5.867.748,8.247c0,0,.116-.055.306-.135C787.972,454.966,790.61,450.005,790.61,450.005Z" transform="translate(-585.127 -324.602)" opacity="0.1"/>
    <rect id="사각형_325" data-name="사각형 325" width="7.736" height="19.59" transform="translate(220.581 44.919)" fill="#493545"/>
    <rect id="사각형_326" data-name="사각형 326" width="7.736" height="19.59" transform="translate(220.581 44.919)" opacity="0.1"/>
    <path id="패스_1409" data-name="패스 1409" d="M876.858,248.932c.267.074.567.083.748.45a2.762,2.762,0,0,1,.181.919l.487,6.054a3.373,3.373,0,0,0,.227,1.158c.205.411.545.46.812.723a4.005,4.005,0,0,1,.545,2.957,19.421,19.421,0,0,1-.809,3,28.256,28.256,0,0,1-1.278,4.182c-.585,1.189-1.648,1.838-2.335.84s-.594-3.015-.723-4.666c-.214-2.757-1.29-5.135-1.363-7.911a31.706,31.706,0,0,1,.919-6.471c.27-1.461.285-3.235.677-4.55C875.274,247.182,875.9,248.668,876.858,248.932Z" transform="translate(-644.117 -206.886)" fill="#493545"/>
    <path id="패스_1410" data-name="패스 1410" d="M876.858,248.932c.267.074.567.083.748.45a2.762,2.762,0,0,1,.181.919l.487,6.054a3.373,3.373,0,0,0,.227,1.158c.205.411.545.46.812.723a4.005,4.005,0,0,1,.545,2.957,19.421,19.421,0,0,1-.809,3,28.256,28.256,0,0,1-1.278,4.182c-.585,1.189-1.648,1.838-2.335.84s-.594-3.015-.723-4.666c-.214-2.757-1.29-5.135-1.363-7.911a31.706,31.706,0,0,1,.919-6.471c.27-1.461.285-3.235.677-4.55C875.274,247.182,875.9,248.668,876.858,248.932Z" transform="translate(-644.117 -206.886)" opacity="0.1"/>
    <path id="패스_1411" data-name="패스 1411" d="M758.594,207.4l-2.993,2.5s-.355-.417-.885-1.091c-2.08-2.656-6.863-9.32-3.484-10.512s6.051,5.306,6.995,7.99C758.466,206.963,758.594,207.4,758.594,207.4Z" transform="translate(-558.601 -173.959)" fill="#c77485"/>
    <path id="패스_1412" data-name="패스 1412" d="M941.419,206.7c-1.247,1.872-2.993,0-2.993,0s-.224-.334-.539-.873c-1.026-1.737-3.039-5.588-1.706-7.114,1.532-1.743,5.328,4.207,5.444,7A1.66,1.66,0,0,1,941.419,206.7Z" transform="translate(-687.394 -174.129)" fill="#c77485"/>
    <path id="패스_1413" data-name="패스 1413" d="M854.08,286.684s2.5,7.987,1.746,10.355,5.368,5.126,5.368,5.126h6.988s2.5-5.116,1.872-6.615-5.99-2.62-5.99-2.62-3.119,0-2.993-8.361Z" transform="translate(-630.754 -233.903)" fill="#c77485"/>
    <path id="패스_1414" data-name="패스 1414" d="M769.139,225.815l-2.993,2.5s-.355-.417-.885-1.091c1.088-.193,2.776-1.78,3.514-2.521C769.01,225.38,769.139,225.815,769.139,225.815Z" transform="translate(-569.146 -192.376)" opacity="0.1"/>
    <path id="패스_1415" data-name="패스 1415" d="M946.282,223.229c-1.247,1.872-2.993,0-2.993,0s-.224-.334-.539-.873l.04-.126c.809.579,3.324.086,3.7,0a1.66,1.66,0,0,1-.205,1Z" transform="translate(-692.257 -190.662)" opacity="0.1"/>
    <path id="패스_1416" data-name="패스 1416" d="M863.157,418.35c-3.86,1.762-16.4-1.376-17.157-1.562a8.213,8.213,0,0,1,1.713-1.507l15.349.747a19.881,19.881,0,0,0,.095,2.322Z" transform="translate(-625.149 -324.567)" opacity="0.1"/>
    <path id="패스_1417" data-name="패스 1417" d="M793.569,250.9s-2.993,1-7.237-2.871c0,0-9.5-9.36-10.11-11.605l-7.353-12.868s-3.119,3.37-4.369,2.871l8.235,14.351s1.5,2.757,2.871,3.493c0,0,10.233,13.1,10.355,15.723s4.611,9.635,4.611,9.635,1.5,11.354-1.124,13.352c0,0,14.6,3.744,17.718,1.247,0,0-1.373-14.093,0-15.6,0,0,4.243-4.991,1.373-10.481,0,0-.613-2.993,1-4.491s8.86-12.6,8.86-12.6,1.746-2.5,1.746-4.118c0,0,3.245-10.98,2.757-13.851,0,0-2.871.613-3.744,0,0,0-4.243,12.868-4.743,13.352s-3.983,10.607-8.609,11.731-5.365,1.621-5.365,1.621,8.983,5.616,4.617,8.11S793.569,250.9,793.569,250.9Z" transform="translate(-568.619 -191.252)" fill="#ffaac4"/>
    <path id="패스_1418" data-name="패스 1418" d="M861.659,289.715a23.842,23.842,0,0,1-.181-3.545l-6.989,2.12a9.421,9.421,0,0,1,.438,1.434c.8.352,1.878,1.186,2.806,1.186A6.364,6.364,0,0,0,861.659,289.715Z" transform="translate(-631.038 -235.013)" opacity="0.1"/>
    <circle id="타원_462" data-name="타원 462" cx="6.489" cy="6.489" r="6.489" transform="translate(220.082 42.548)" fill="#c77485"/>
    <path id="패스_1419" data-name="패스 1419" d="M827.028,246.421c-1.428.11-3.021,1.1-2.941,2.528a9.612,9.612,0,0,0,.818,2.206c.567,1.823-.7,3.652-1.8,5.208s-2.145,3.618-1.195,5.267a13,13,0,0,0,.876,1.143c1.173,1.584,1.158,3.722,1.679,5.625a9.868,9.868,0,0,0,11.593,7.047,6.171,6.171,0,0,1-1.3-4.173c.071-1.091.423-2.23,0-3.238-.545-1.3-2.145-1.808-2.969-2.941a4.7,4.7,0,0,1-.371-4.056c.4-1.351,1.088-2.6,1.419-3.983a11.931,11.931,0,0,1,.307-1.192c.576-1.636,2.3-2.586,3.983-2.993s3.456-.432,5.1-.968,3.244-1.792,3.434-3.517c-1.385.555-2.669-.892-4-1.556-2.2-1.091-4.709-.064-6.976.187C832.093,247.3,829.642,246.231,827.028,246.421Z" transform="translate(-608.178 -207.381)" opacity="0.1"/>
    <path id="패스_1420" data-name="패스 1420" d="M826.618,245.611c-1.428.11-3.021,1.1-2.941,2.528a9.614,9.614,0,0,0,.818,2.206c.567,1.823-.7,3.652-1.8,5.208s-2.145,3.618-1.195,5.267a12.988,12.988,0,0,0,.876,1.143c1.174,1.584,1.158,3.722,1.679,5.625a9.868,9.868,0,0,0,11.593,7.047,6.171,6.171,0,0,1-1.3-4.173c.07-1.091.423-2.23,0-3.238-.545-1.3-2.145-1.808-2.969-2.941a4.7,4.7,0,0,1-.371-4.056c.4-1.351,1.088-2.6,1.418-3.983a12.012,12.012,0,0,1,.306-1.192c.576-1.636,2.3-2.586,3.983-2.993s3.456-.432,5.1-.968,3.245-1.792,3.434-3.517c-1.385.555-2.668-.892-4-1.556-2.2-1.091-4.709-.064-6.976.187C831.689,246.488,829.247,245.406,826.618,245.611Z" transform="translate(-607.894 -206.82)" fill="#493545"/>
    <path id="패스_1421" data-name="패스 1421" d="M885.65,326.3a20.913,20.913,0,0,1,3.11,3.343" transform="translate(-652.651 -262.848)" opacity="0.1"/>
    <path id="패스_1422" data-name="패스 1422" d="M881.679,371.51a27.943,27.943,0,0,0-4.743.374,22.3,22.3,0,0,1-5.116,0" transform="translate(-643.059 -294.207)" opacity="0.1"/>
    <g id="그룹_787" data-name="그룹 787" transform="translate(195.878 31.819)" opacity="0.1">
      <path id="패스_1423" data-name="패스 1423" d="M886.4,318.32a3.123,3.123,0,0,1-.9.343,3.431,3.431,0,0,0,2.4-.343c4.369-2.5-4.617-8.11-4.617-8.11h-1.5S890.766,315.826,886.4,318.32Z" transform="translate(-845.845 -283.506)"/>
      <path id="패스_1424" data-name="패스 1424" d="M951.6,223.277a1.316,1.316,0,0,0-.031-.227,14.674,14.674,0,0,1-1.553.236A6.881,6.881,0,0,0,951.6,223.277Z" transform="translate(-893.178 -223.05)"/>
      <path id="패스_1425" data-name="패스 1425" d="M790.942,290.576c2.619-2,1.124-13.352,1.124-13.352s-4.491-6.988-4.617-9.608-10.355-15.723-10.355-15.723c-1.373-.748-2.871-3.493-2.871-3.493s-8.487-13.851-9.733-14.351l8.235,14.351s1.5,2.757,2.871,3.493c0,0,10.233,13.1,10.355,15.723s4.614,9.617,4.614,9.617,1.5,11.354-1.124,13.352c0,0,8.974,2.3,14.354,2.093A75.092,75.092,0,0,1,790.942,290.576Z" transform="translate(-764.49 -230.68)"/>
      <path id="패스_1426" data-name="패스 1426" d="M858.864,313.975l-.074-.095a1.968,1.968,0,0,1-.26.058C858.646,313.954,858.757,313.966,858.864,313.975Z" transform="translate(-829.719 -286.052)"/>
    </g>
    <g id="그룹_788" data-name="그룹 788" transform="translate(238.428 31.803)" opacity="0.1">
      <path id="패스_1427" data-name="패스 1427" d="M922.055,223l-.077.015c-.132,3.833-2.791,12.837-2.791,12.837,0,1.621-1.746,4.118-1.746,4.118s-7.237,11.106-8.86,12.6-1,4.491-1,4.491l.015.031a4.53,4.53,0,0,1,1.106-3.526c1.621-1.5,8.86-12.6,8.86-12.6s1.746-2.5,1.746-4.118C919.31,236.867,922.555,225.886,922.055,223Z" transform="translate(-906.21 -223)"/>
      <path id="패스_1428" data-name="패스 1428" d="M903.37,352.517c.187,1.06.061-.061.126,1,0,0,3.064-3.594,2.227-8.036A10.925,10.925,0,0,1,903.37,352.517Z" transform="translate(-903.37 -307.955)"/>
    </g>
    <ellipse id="타원_463" data-name="타원 463" cx="131.027" cy="12.586" rx="131.027" ry="12.586" transform="translate(12.89 177.515)" fill="#6c63ff" opacity="0.1"/>
    <path id="패스_1429" data-name="패스 1429" d="M425.134,588.518s-4.461-15.15.836-26.3a23.928,23.928,0,0,0,1.936-15.012,40.247,40.247,0,0,0-2.126-7.047" transform="translate(-332.007 -411.187)" fill="none" stroke="#535461" stroke-miterlimit="10" stroke-width="2"/>
    <path id="패스_1430" data-name="패스 1430" d="M426.719,508.987c0,1.857-3.37,7.24-3.37,7.24s-3.37-5.383-3.37-7.24a3.37,3.37,0,1,1,6.722,0Z" transform="translate(-329.644 -387.054)" fill="#6c63ff"/>
    <path id="패스_1431" data-name="패스 1431" d="M444.816,538.524c-1.008,1.559-6.756,4.249-6.756,4.249s.1-6.345,1.112-7.9a3.37,3.37,0,1,1,5.643,3.655Z" transform="translate(-342.191 -406.309)" fill="#6c63ff"/>
    <path id="패스_1432" data-name="패스 1432" d="M441.286,593.427c-1.657.836-7.966.257-7.966.257s3.294-5.426,4.951-6.262a3.37,3.37,0,1,1,3.027,6Z" transform="translate(-338.904 -443.635)" fill="#6c63ff"/>
    <path id="패스_1433" data-name="패스 1433" d="M431.242,638.017c-1.492,1.1-7.822,1.6-7.822,1.6s2.328-5.9,3.824-7.01a3.37,3.37,0,0,1,3.983,5.4Z" transform="translate(-332.037 -474.972)" fill="#6c63ff"/>
    <path id="패스_1434" data-name="패스 1434" d="M412.282,552.322c1.333,1.293,7.537,2.635,7.537,2.635s-1.532-6.161-2.852-7.457a3.37,3.37,0,1,0-4.685,4.822Z" transform="translate(-323.478 -415.496)" fill="#6c63ff"/>
    <path id="패스_1435" data-name="패스 1435" d="M399.826,602.4c1.657.836,7.966.257,7.966.257s-3.281-5.426-4.939-6.247a3.37,3.37,0,0,0-3.027,6Z" transform="translate(-314.537 -450.028)" fill="#6c63ff"/>
    <path id="패스_1436" data-name="패스 1436" d="M395.5,653.253c1.492,1.1,7.822,1.6,7.822,1.6s-2.328-5.9-3.824-7.01a3.37,3.37,0,1,0-3.983,5.4Z" transform="translate(-311.555 -485.293)" fill="#6c63ff"/>
    <path id="패스_1437" data-name="패스 1437" d="M426.719,508.987c0,1.857-3.37,7.24-3.37,7.24s-3.37-5.383-3.37-7.24a3.37,3.37,0,1,1,6.722,0Z" transform="translate(-329.644 -387.054)" fill="#6c63ff" opacity="0.1"/>
    <path id="패스_1438" data-name="패스 1438" d="M444.816,538.524c-1.008,1.559-6.756,4.249-6.756,4.249s.1-6.345,1.112-7.9a3.37,3.37,0,1,1,5.643,3.655Z" transform="translate(-342.191 -406.309)" fill="#6c63ff" opacity="0.1"/>
    <path id="패스_1439" data-name="패스 1439" d="M441.286,593.427c-1.657.836-7.966.257-7.966.257s3.294-5.426,4.951-6.262a3.37,3.37,0,1,1,3.027,6Z" transform="translate(-338.904 -443.635)" fill="#6c63ff" opacity="0.1"/>
    <path id="패스_1440" data-name="패스 1440" d="M431.242,638.017c-1.492,1.1-7.822,1.6-7.822,1.6s2.328-5.9,3.824-7.01a3.37,3.37,0,0,1,3.983,5.4Z" transform="translate(-332.037 -474.972)" fill="#6c63ff" opacity="0.1"/>
    <path id="패스_1441" data-name="패스 1441" d="M412.282,552.322c1.333,1.293,7.537,2.635,7.537,2.635s-1.532-6.161-2.852-7.457a3.37,3.37,0,1,0-4.685,4.822Z" transform="translate(-323.478 -415.496)" fill="#6c63ff" opacity="0.1"/>
    <path id="패스_1442" data-name="패스 1442" d="M399.826,602.4c1.657.836,7.966.257,7.966.257s-3.281-5.426-4.939-6.247a3.37,3.37,0,0,0-3.027,6Z" transform="translate(-314.537 -450.028)" fill="#6c63ff" opacity="0.1"/>
    <path id="패스_1443" data-name="패스 1443" d="M395.5,653.253c1.492,1.1,7.822,1.6,7.822,1.6s-2.328-5.9-3.824-7.01a3.37,3.37,0,1,0-3.983,5.4Z" transform="translate(-311.555 -485.293)" fill="#6c63ff" opacity="0.1"/>
    <path id="패스_1444" data-name="패스 1444" d="M719.774,589.228s-4.461-15.15.836-26.3a23.929,23.929,0,0,0,1.936-15.012,40.236,40.236,0,0,0-2.126-7.047" transform="translate(-536.377 -411.679)" fill="none" stroke="#535461" stroke-miterlimit="10" stroke-width="2"/>
    <path id="패스_1445" data-name="패스 1445" d="M721.36,510.813c0,1.857-3.37,7.24-3.37,7.24s-3.37-5.383-3.37-7.24a3.37,3.37,0,0,1,6.722,0Z" transform="translate(-534.021 -388.666)" fill="#6c63ff"/>
    <path id="패스_1446" data-name="패스 1446" d="M739.466,539.224c-1.008,1.559-6.756,4.249-6.756,4.249s.1-6.345,1.112-7.9a3.37,3.37,0,1,1,5.643,3.655Z" transform="translate(-546.568 -406.795)" fill="#6c63ff"/>
    <path id="패스_1447" data-name="패스 1447" d="M735.966,594.112c-1.657.836-7.966.257-7.966.257s3.293-5.426,4.951-6.262a3.37,3.37,0,1,1,3.015,6Z" transform="translate(-543.301 -444.107)" fill="#6c63ff"/>
    <path id="패스_1448" data-name="패스 1448" d="M725.882,638.717c-1.492,1.1-7.822,1.6-7.822,1.6s2.328-5.9,3.823-7.01a3.37,3.37,0,0,1,3.983,5.4Z" transform="translate(-536.407 -475.458)" fill="#6c63ff"/>
    <path id="패스_1449" data-name="패스 1449" d="M706.942,553.021c1.333,1.293,7.537,2.635,7.537,2.635s-1.532-6.161-2.852-7.457a3.37,3.37,0,1,0-4.684,4.822Z" transform="translate(-527.862 -415.981)" fill="#6c63ff"/>
    <path id="패스_1450" data-name="패스 1450" d="M694.439,603.07c1.657.836,7.966.257,7.966.257s-3.294-5.426-4.951-6.262a3.37,3.37,0,0,0-3.027,6Z" transform="translate(-518.879 -450.479)" fill="#6c63ff"/>
    <path id="패스_1451" data-name="패스 1451" d="M691.24,654.757c1.492,1.1,7.822,1.6,7.822,1.6s-2.328-5.9-3.824-7.01a3.37,3.37,0,0,0-3.983,5.4Z" transform="translate(-517.025 -486.584)" fill="#6c63ff"/>
    <path id="패스_1452" data-name="패스 1452" d="M721.36,510.813c0,1.857-3.37,7.24-3.37,7.24s-3.37-5.383-3.37-7.24a3.37,3.37,0,0,1,6.722,0Z" transform="translate(-534.021 -388.666)" fill="#6c63ff" opacity="0.1"/>
    <path id="패스_1453" data-name="패스 1453" d="M739.466,539.224c-1.008,1.559-6.756,4.249-6.756,4.249s.1-6.345,1.112-7.9a3.37,3.37,0,1,1,5.643,3.655Z" transform="translate(-546.568 -406.795)" fill="#6c63ff" opacity="0.1"/>
    <path id="패스_1454" data-name="패스 1454" d="M735.966,594.112c-1.657.836-7.966.257-7.966.257s3.293-5.426,4.951-6.262a3.37,3.37,0,1,1,3.015,6Z" transform="translate(-543.301 -444.107)" fill="#6c63ff" opacity="0.1"/>
    <path id="패스_1455" data-name="패스 1455" d="M725.882,638.717c-1.492,1.1-7.822,1.6-7.822,1.6s2.328-5.9,3.823-7.01a3.37,3.37,0,0,1,3.983,5.4Z" transform="translate(-536.407 -475.458)" fill="#6c63ff" opacity="0.1"/>
    <path id="패스_1456" data-name="패스 1456" d="M706.942,553.021c1.333,1.293,7.537,2.635,7.537,2.635s-1.532-6.161-2.852-7.457a3.37,3.37,0,1,0-4.684,4.822Z" transform="translate(-527.862 -415.981)" fill="#6c63ff" opacity="0.1"/>
    <path id="패스_1457" data-name="패스 1457" d="M694.439,603.07c1.657.836,7.966.257,7.966.257s-3.294-5.426-4.951-6.262a3.37,3.37,0,0,0-3.027,6Z" transform="translate(-518.879 -450.479)" fill="#6c63ff" opacity="0.1"/>
    <path id="패스_1458" data-name="패스 1458" d="M691.24,654.757c1.492,1.1,7.822,1.6,7.822,1.6s-2.328-5.9-3.824-7.01a3.37,3.37,0,0,0-3.983,5.4Z" transform="translate(-517.025 -486.584)" fill="#6c63ff" opacity="0.1"/>
    <path id="패스_1459" data-name="패스 1459" d="M750.386,128.45h-1.924a1.348,1.348,0,1,0,0-2.693h-15.6a1.348,1.348,0,0,0,0,2.693h1.924a1.348,1.348,0,0,0,0,2.693h-2.693a1.348,1.348,0,1,0,0,2.693h15.588a1.348,1.348,0,1,0,0-2.693h2.705a1.348,1.348,0,0,0,0-2.693Z" transform="translate(-545.16 -123.745)" fill="#dee3f3" opacity="0.5"/>
    <path id="패스_1460" data-name="패스 1460" d="M466.832,155.546h-1.465a1.026,1.026,0,1,0,0-2.05H453.5a1.026,1.026,0,0,0,0,2.05h1.464a1.026,1.026,0,1,0,0,2.05h-2.05a1.026,1.026,0,1,0,0,2.05h11.863a1.026,1.026,0,1,0,0-2.05h2.05a1.026,1.026,0,0,0,0-2.05Z" transform="translate(-351.748 -142.986)" fill="#dee3f3" opacity="0.5"/>
    <path id="패스_1461" data-name="패스 1461" d="M173.853,634s5.362,10.524.993,16.281.4,21.446.4,21.446" transform="translate(-158.341 -476.277)" fill="none" stroke="#6c63ff" stroke-miterlimit="10" stroke-width="1"/>
    <path id="패스_1462" data-name="패스 1462" d="M174.258,614.937a6.2,6.2,0,0,1-1.489,3.677,5.283,5.283,0,0,1,0-7.353A6.2,6.2,0,0,1,174.258,614.937Z" transform="translate(-157.146 -460.504)" fill="#6c63ff"/>
    <path id="패스_1463" data-name="패스 1463" d="M178.722,634s-5.362,10.524-.993,16.281-.4,21.446-.4,21.446" transform="translate(-160.43 -476.277)" fill="none" stroke="#6c63ff" stroke-miterlimit="10" stroke-width="1"/>
    <path id="패스_1464" data-name="패스 1464" d="M179.67,614.937a6.2,6.2,0,0,0,1.489,3.677,5.283,5.283,0,0,0,0-7.353A6.2,6.2,0,0,0,179.67,614.937Z" transform="translate(-162.965 -460.504)" fill="#6c63ff"/>
    <path id="패스_1465" data-name="패스 1465" d="M179.67,614.937a6.2,6.2,0,0,0,1.489,3.677,5.283,5.283,0,0,0,0-7.353A6.2,6.2,0,0,0,179.67,614.937Z" transform="translate(-162.965 -460.504)" opacity="0.1"/>
    <path id="패스_1466" data-name="패스 1466" d="M190.073,634s5.362,10.524.993,16.281.4,21.446.4,21.446" transform="translate(-169.591 -476.277)" fill="none" stroke="#6c63ff" stroke-miterlimit="10" stroke-width="1"/>
    <path id="패스_1467" data-name="패스 1467" d="M190.428,614.937a6.2,6.2,0,0,1-1.489,3.677,5.283,5.283,0,0,1,0-7.353A6.2,6.2,0,0,1,190.428,614.937Z" transform="translate(-168.362 -460.504)" fill="#6c63ff"/>
    <path id="패스_1468" data-name="패스 1468" d="M186.241,642.456a6.19,6.19,0,0,1-3.621,1.615,5.275,5.275,0,0,1,5.095-5.291A6.255,6.255,0,0,1,186.241,642.456Z" transform="translate(-165.012 -479.592)" fill="#6c63ff"/>
    <path id="패스_1469" data-name="패스 1469" d="M186.7,666.157a6.191,6.191,0,0,1-3.621,1.615,5.275,5.275,0,0,1,5.1-5.291A6.187,6.187,0,0,1,186.7,666.157Z" transform="translate(-165.331 -496.031)" fill="#6c63ff"/>
    <path id="패스_1470" data-name="패스 1470" d="M162,683.438a6.187,6.187,0,0,1,1.284,3.75,5.277,5.277,0,0,1-4.816-5.548A6.187,6.187,0,0,1,162,683.438Z" transform="translate(-148.26 -509.321)" fill="#6c63ff"/>
    <path id="패스_1471" data-name="패스 1471" d="M165.2,635.108a6.189,6.189,0,0,1,2.24,3.272,5.274,5.274,0,0,1-6.124-4.059A6.127,6.127,0,0,1,165.2,635.108Z" transform="translate(-150.237 -476.466)" fill="#6c63ff"/>
    <path id="패스_1472" data-name="패스 1472" d="M165.2,635.108a6.189,6.189,0,0,1,2.24,3.272,5.274,5.274,0,0,1-6.124-4.059A6.127,6.127,0,0,1,165.2,635.108Z" transform="translate(-150.237 -476.466)" opacity="0.1"/>
    <path id="패스_1473" data-name="패스 1473" d="M194.922,634s-5.362,10.524-.993,16.281-.4,21.446-.4,21.446" transform="translate(-171.667 -476.277)" fill="none" stroke="#6c63ff" stroke-miterlimit="10" stroke-width="1"/>
    <path id="패스_1474" data-name="패스 1474" d="M195.87,614.937a6.2,6.2,0,0,0,1.489,3.677,5.283,5.283,0,0,0,0-7.353A6.2,6.2,0,0,0,195.87,614.937Z" transform="translate(-174.202 -460.504)" fill="#6c63ff"/>
    <path id="패스_1475" data-name="패스 1475" d="M195.87,614.937a6.2,6.2,0,0,0,1.489,3.677,5.283,5.283,0,0,0,0-7.353A6.2,6.2,0,0,0,195.87,614.937Z" transform="translate(-174.202 -460.504)" opacity="0.1"/>
    <path id="패스_1476" data-name="패스 1476" d="M193.8,647.732a6.274,6.274,0,0,0-1.532,3.676,6.182,6.182,0,0,0,3.64-1.572,6.274,6.274,0,0,0,1.532-3.676A6.182,6.182,0,0,0,193.8,647.732Z" transform="translate(-171.705 -484.711)" fill="#6c63ff"/>
    <path id="패스_1477" data-name="패스 1477" d="M193.8,647.732a6.274,6.274,0,0,0-1.532,3.676,6.182,6.182,0,0,0,3.64-1.572,6.274,6.274,0,0,0,1.532-3.676A6.182,6.182,0,0,0,193.8,647.732Z" transform="translate(-171.705 -484.711)" opacity="0.1"/>
    <path id="패스_1478" data-name="패스 1478" d="M202.912,680.542a6.274,6.274,0,0,0-1.532,3.677,6.182,6.182,0,0,0,3.64-1.572,6.274,6.274,0,0,0,1.532-3.677A6.161,6.161,0,0,0,202.912,680.542Z" transform="translate(-178.024 -507.469)" fill="#6c63ff"/>
    <path id="패스_1479" data-name="패스 1479" d="M193,665.1s3.226-5.086,7.757-5.208" transform="translate(-172.211 -494.235)" fill="none" stroke="#6c63ff" stroke-miterlimit="10" stroke-width="1"/>
    <path id="패스_1480" data-name="패스 1480" d="M167.207,655.068s-3.226-5.086-7.757-5.208" transform="translate(-148.94 -487.278)" fill="none" stroke="#6c63ff" stroke-miterlimit="10" stroke-width="1"/>
    <path id="패스_1481" data-name="패스 1481" d="M183.4,678.768s3.226-5.086,7.757-5.208" transform="translate(-165.553 -503.717)" fill="none" stroke="#6c63ff" stroke-miterlimit="10" stroke-width="1"/>
    <circle id="타원_464" data-name="타원 464" cx="0.836" cy="0.836" r="0.836" transform="translate(27.553 164.791)" fill="#6c63ff"/>
    <circle id="타원_465" data-name="타원 465" cx="0.836" cy="0.836" r="0.836" transform="translate(9.753 161.789)" fill="#6c63ff"/>
    <path id="패스_1482" data-name="패스 1482" d="M173.587,684.208s-3.226-5.086-7.757-5.208" transform="translate(-153.366 -507.49)" fill="none" stroke="#6c63ff" stroke-miterlimit="10" stroke-width="1"/>
    <circle id="타원_466" data-name="타원 466" cx="0.836" cy="0.836" r="0.836" transform="translate(11.708 170.723)" fill="#6c63ff"/>
    <circle id="타원_467" data-name="타원 467" cx="0.836" cy="0.836" r="0.836" transform="translate(24.83 169.05)" fill="#6c63ff"/>
    <path id="패스_1483" data-name="패스 1483" d="M180.253,719.854s-7.776-1.556-9.853-3.631-11.4-5.7-12.442-3.11-14,11.406-5.184,12.963,20.738,2.074,23.33,1.036S180.253,719.854,180.253,719.854Z" transform="translate(-142.191 -530.528)" fill="#a8a8a8"/>
    <path id="패스_1484" data-name="패스 1484" d="M152.782,742.283c8.814,1.556,20.738,2.074,23.33,1.036,1.973-.791,3.346-4.6,3.888-6.348l.26.055s-1.556,6.222-4.148,7.258-14.516.518-23.33-1.036c-2.543-.45-3.272-1.5-3-2.837C150,741.269,150.889,741.949,152.782,742.283Z" transform="translate(-142.199 -547.699)" opacity="0.2"/>
    <path id="패스_1485" data-name="패스 1485" d="M1003.939,641.78s2.568,3.37-1.186,8.425-6.847,9.348-5.594,12.509c0,0,5.662-9.415,10.27-9.547S1009.01,647.439,1003.939,641.78Z" transform="translate(-729.801 -481.673)" fill="#6c63ff"/>
    <path id="패스_1486" data-name="패스 1486" d="M1004.268,641.78a4.155,4.155,0,0,1,.524,1.054c4.5,5.282,6.89,10.211,2.571,10.337-4.026.116-8.854,7.313-10.012,9.133a3.912,3.912,0,0,0,.138.414s5.662-9.415,10.27-9.547S1009.338,647.439,1004.268,641.78Z" transform="translate(-730.129 -481.673)" opacity="0.1"/>
    <path id="패스_1487" data-name="패스 1487" d="M1034.123,654.039c0,1.183-.132,2.145-.306,2.145s-.306-.959-.306-2.145.165-.613.328-.613S1034.123,652.86,1034.123,654.039Z" transform="translate(-755.211 -489.656)" fill="#ffd037"/>
    <path id="패스_1488" data-name="패스 1488" d="M1036.277,658.518c-1.039.567-1.943.919-2.019.763s.7-.72,1.737-1.284.628-.153.708,0S1037.313,657.952,1036.277,658.518Z" transform="translate(-755.726 -492.722)" fill="#ffd037"/>
    <path id="패스_1489" data-name="패스 1489" d="M962.625,641.78s-2.567,3.37,1.186,8.425,6.847,9.348,5.594,12.509c0,0-5.662-9.415-10.27-9.547S957.554,647.439,962.625,641.78Z" transform="translate(-702.046 -481.673)" fill="#6c63ff"/>
    <path id="패스_1490" data-name="패스 1490" d="M962.625,641.78a4.163,4.163,0,0,0-.524,1.054c-4.5,5.282-6.89,10.211-2.571,10.337,4.026.116,8.854,7.313,10.012,9.133a3.913,3.913,0,0,1-.138.414s-5.662-9.415-10.27-9.547S957.554,647.439,962.625,641.78Z" transform="translate(-702.046 -481.673)" opacity="0.1"/>
    <path id="패스_1491" data-name="패스 1491" d="M960.09,654.039c0,1.183.132,2.145.306,2.145s.306-.959.306-2.145-.165-.613-.328-.613S960.09,652.86,960.09,654.039Z" transform="translate(-704.285 -489.656)" fill="#ffd037"/>
    <path id="패스_1492" data-name="패스 1492" d="M953.306,658.518c1.039.567,1.942.919,2.019.763s-.7-.72-1.737-1.284-.628-.153-.708,0S952.268,657.952,953.306,658.518Z" transform="translate(-699.14 -492.722)" fill="#ffd037"/>
    <path id="패스_1493" data-name="패스 1493" d="M962.76,699.892s7.178-.221,9.341-1.762,11.03-3.37,11.578-.919,10.787,12.289,2.684,12.353-18.83-1.262-20.99-2.577S962.76,699.892,962.76,699.892Z" transform="translate(-706.137 -519.292)" fill="#a8a8a8"/>
    <path id="패스_1494" data-name="패스 1494" d="M986.507,717.48c-8.1.064-18.83-1.262-20.99-2.577-1.645-1-2.3-4.6-2.518-6.253h-.239s.453,5.79,2.613,7.1,12.886,2.644,20.99,2.577c2.341-.018,3.146-.852,3.1-2.083C989.142,717,988.263,717.464,986.507,717.48Z" transform="translate(-706.137 -528.056)" opacity="0.2"/>
    <path id="패스_1495" data-name="패스 1495" d="M258.645,187.78h-1.924a1.348,1.348,0,1,0,0-2.693H241.133a1.348,1.348,0,0,0,0,2.693h1.924a1.348,1.348,0,0,0,0,2.693h-2.693a1.348,1.348,0,0,0,0,2.693h15.588a1.348,1.348,0,1,0,0-2.693h2.693a1.348,1.348,0,0,0,0-2.693Z" transform="translate(-204.174 -164.898)" fill="#dee3f3" opacity="0.5"/>
  </g>
</svg>
