<svg id="그룹_889" data-name="그룹 889" xmlns="http://www.w3.org/2000/svg" width="291" height="182.698" viewBox="0 0 291 182.698">
  <path id="패스_996" data-name="패스 996" d="M376.337,215l-65.575,40.39H174.676L140.39,199.72,304.622,98.565Z" transform="translate(-104.236 -73.182)" fill="#e6e6e6"/>
  <path id="패스_997" data-name="패스 997" d="M897.838,546.186l-.118,3.575-.943,7.647-3.184.5-.825-3.079v-3.973s1.769-2.781,1.3-4.668S897.838,546.186,897.838,546.186Z" transform="translate(-671.874 -429.446)" fill="#fbbebe"/>
  <circle id="타원_71" data-name="타원 71" cx="3.9" cy="3.9" r="3.9" transform="translate(221.48 109.247)" fill="#2f2e41"/>
  <path id="패스_998" data-name="패스 998" d="M837.622,665.95l.236,4.834,2.594-.707-.236-3.891Z" transform="translate(-621.916 -494.453)" fill="#fbbebe"/>
  <path id="패스_999" data-name="패스 999" d="M905.844,663.1l1.238,5.011,2.122-.471-1.12-4.893Z" transform="translate(-672.569 -492.074)" fill="#fbbebe"/>
  <path id="패스_1000" data-name="패스 1000" d="M856.628,649.513l-.472,1.533s-1.415,4.127,0,4.363,1.769-3.773,1.769-3.773l.825-1.415Z" transform="translate(-644.224 -506.786)" fill="#fbbebe"/>
  <path id="패스_1001" data-name="패스 1001" d="M824.974,537.289l-2,4.6,3.035,1.337,1.681-5.936Z" transform="translate(-611.037 -398.925)" fill="#575a89"/>
  <path id="패스_1002" data-name="패스 1002" d="M844.341,519.681l3.773,19.574,4.481,17.215-6.014,1.061L838.917,532.3l-3.891,25.469-5.188-.589,1.3-26.766,2.83-11.438Z" transform="translate(-616.136 -385.327)" fill="#2f2e41"/>
  <path id="패스_1003" data-name="패스 1003" d="M866.025,775.912a2.673,2.673,0,0,1,1.061,2.712,20.97,20.97,0,0,0-.472,3.066s-4.3,1.474-6.544.059,2.3-3.007,2.3-3.007l.236-3.066,3.419-.707Z" transform="translate(-647.135 -599.935)" fill="#2f2e41"/>
  <path id="패스_1004" data-name="패스 1004" d="M936.308,775.912a2.673,2.673,0,0,1,1.061,2.712,20.954,20.954,0,0,0-.472,3.066s-4.3,1.474-6.544.059,2.3-3.007,2.3-3.007l.236-3.066,3.419-.707Z" transform="translate(-699.319 -599.935)" fill="#2f2e41"/>
  <circle id="타원_72" data-name="타원 72" cx="3.184" cy="3.184" r="3.184" transform="translate(221.012 110.89)" fill="#fbbebe"/>
  <path id="패스_1005" data-name="패스 1005" d="M887.869,561.038l2.358-8.136.826.472,4.6,11.555-2.122,5.66s-10.376-.708-10.376-.825,1.061-13.678,1.061-13.678l2.059-2.382.063,1.674Z" transform="translate(-664.735 -435.055)" fill="#575a89"/>
  <path id="패스_1006" data-name="패스 1006" d="M916.79,553.629s-.118-1.061-.943-.825a34.641,34.641,0,0,1-5.043-.034s-1.206,1.449.327,4.4,3.243,23.288,3.243,23.288l5.483-1.356-2.83-18.394Z" transform="translate(-684.93 -434.956)" fill="#2f2e41"/>
  <path id="패스_1007" data-name="패스 1007" d="M841.106,458.306l-5.6,4.54.354,7.9L833.5,486.782l3.066.707,4.363-28.417Z" transform="translate(-618.856 -340.282)" fill="#2f2e41"/>
  <path id="패스_1008" data-name="패스 1008" d="M923.027,600.063l-2.594.825s-1.887,3.891-.59,4.363,1.826-2.943,1.826-2.943l2.419-.831Z" transform="translate(-691.638 -470.071)" fill="#fbbebe"/>
  <path id="패스_1009" data-name="패스 1009" d="M867.813,569.626l-.121-.393-.586.393a9.554,9.554,0,0,0-1.179,3.3c-.236,1.769-2,13.324-2,13.324l3.537-.354Z" transform="translate(-650.456 -447.18)" fill="#2f2e41"/>
  <path id="패스_1010" data-name="패스 1010" d="M900.7,498.828l-4.009,1.415,1.3,2.594,4.716-2Z" transform="translate(-665.77 -370.369)" fill="#575a89"/>
  <path id="패스_1011" data-name="패스 1011" d="M930.313,555.191c.118,0,11.673,6.721,10.376,9.433a7.135,7.135,0,0,1-3.891,3.537l-2.83-2.948,1.415-1.061-4.363-2.83Z" transform="translate(-699.75 -436.755)" fill="#2f2e41"/>
  <path id="패스_1012" data-name="패스 1012" d="M900.157,515.58a2.241,2.241,0,0,0-1.055-1.822,2.914,2.914,0,0,0,.4-2.092,1.6,1.6,0,0,0-1.2-1.076,3.133,3.133,0,0,0-.934.012l-1.457.165a3.183,3.183,0,0,0-1.366.368,1.582,1.582,0,0,0-.183,2.539,5.825,5.825,0,0,0-2.164,2.654,4.383,4.383,0,0,1,2.753-.985,2.624,2.624,0,0,1,2.757,2.4,4.861,4.861,0,0,0,.09,1.018.749.749,0,0,0,.736.586,1.807,1.807,0,0,1-.132-1.261l0-.007a.382.382,0,0,1,.207-.178.6.6,0,0,1,.793.415c.113.434.294.989.452.841.207-.193.12-1.892.176-2.155a4.943,4.943,0,0,0,.127-1.427Z" transform="translate(-671.449 -403.617)" fill="#2f2e41"/>
  <path id="패스_1013" data-name="패스 1013" d="M905.292,522.729a27.542,27.542,0,0,1-4.737-.07" transform="translate(-677.656 -412.6)" fill="#d0cde1"/>
  <path id="패스_1014" data-name="패스 1014" d="M917.788,512.969a2.914,2.914,0,0,0,.4-2.092,1.581,1.581,0,0,0-.559-.786,1.6,1.6,0,0,1,.855.963,2.914,2.914,0,0,1-.4,2.092C917.826,513.108,918.434,513.313,917.788,512.969Z" transform="translate(-690.333 -403.269)" fill="#2f2e41"/>
  <path id="패스_1015" data-name="패스 1015" d="M94.6,534.745l4.764-4.669a26.833,26.833,0,0,1-5.439-2,27,27,0,1,1,38.981-24.194q0,.865-.057,1.72a27.144,27.144,0,0,1-.409,3.294,25.5,25.5,0,0,1-.973,4.942c-2.135,7.159-7.172,13.78-12.5,18.925L105.8,545.468h12.15a15.325,15.325,0,0,1,15.323,15.32l-49.614,0a36.465,36.465,0,0,1,10.083-25.174Q94.161,535.174,94.6,534.745Z" transform="translate(-67.599 -378.61)" fill="#6c63ff"/>
  <path id="패스_1016" data-name="패스 1016" d="M127.847,503.407l-11.607,6.7L93.164,523.432l-11.609,6.7a26.828,26.828,0,0,1-1.694-6.459l13.559-7.829,16.131-9.312,13.553-7.829A26.956,26.956,0,0,1,127.847,503.407Z" transform="translate(-68.308 -394.817)" fill="#3f3d56"/>
  <path id="패스_1017" data-name="패스 1017" d="M175.62,588.407a27.139,27.139,0,0,1-.409,3.294,25.5,25.5,0,0,1-.973,4.942L136.51,618.424q.421-.444.86-.873l4.764-4.669a26.83,26.83,0,0,1-5.439-2Z" transform="translate(-110.369 -461.417)" fill="#3f3d56"/>
  <circle id="타원_73" data-name="타원 73" cx="13.863" cy="13.863" r="13.863" transform="translate(24.449 111.407)" fill="#fff"/>
  <path id="패스_1018" data-name="패스 1018" d="M424.175,619.711a27,27,0,0,1-53.933,1.81c-.041-.6-.062-1.2-.062-1.81a27,27,0,0,1,53.052-7.087v0a26.791,26.791,0,0,1,.94,6.891v0C424.175,619.584,424.175,619.646,424.175,619.711Z" transform="translate(-283.864 -464.611)" fill="#6c63ff"/>
  <path id="패스_1019" data-name="패스 1019" d="M412.215,600.768l-14.833,8.563-12.317,7.113L370.242,625c-.041-.6-.062-1.2-.062-1.81a27.023,27.023,0,0,1,.664-5.975L405.172,597.4A26.906,26.906,0,0,1,412.215,600.768Z" transform="translate(-283.864 -468.092)" fill="#3f3d56"/>
  <path id="패스_1020" data-name="패스 1020" d="M446.781,676.939v0l-17.038,9.835-.005,0-6.585,3.8-17.032,9.835a26.89,26.89,0,0,1-5.49-4.267l12.183-7.035,20.836-12.029,12.191-7.038A26.793,26.793,0,0,1,446.781,676.939Z" transform="translate(-306.472 -522.033)" fill="#3f3d56"/>
  <circle id="타원_74" data-name="타원 74" cx="13.863" cy="13.863" r="13.863" transform="translate(99.451 141.236)" fill="#fff"/>
  <path id="패스_1021" data-name="패스 1021" d="M661.6,532.045l.528-.518a26.974,26.974,0,0,1-20.4-24.58q-.05-.8-.049-1.615a26.994,26.994,0,1,1,53.988-.391c0,.131,0,.26,0,.391a27.251,27.251,0,0,1-.465,5.008,23.749,23.749,0,0,1-.369,2.514v0c-1.612,8.086-7.177,15.632-13.108,21.356L668.563,546.92h12.15a15.325,15.325,0,0,1,15.323,15.32l-49.617,0A36.466,36.466,0,0,1,657.363,536.2Z" transform="translate(-485.444 -379.547)" fill="#6c63ff"/>
  <path id="패스_1022" data-name="패스 1022" d="M688.865,500.688l-45.733,26.4a26.757,26.757,0,0,1-1.262-6.708l41.822-24.145a27.031,27.031,0,0,1,5.174,4.45Z" transform="translate(-485.588 -392.983)" fill="#3f3d56"/>
  <path id="패스_1023" data-name="패스 1023" d="M733.605,582.6a27.231,27.231,0,0,1-.465,5.008,23.749,23.749,0,0,1-.369,2.514v0l-33.236,19.188.528-.518a26.826,26.826,0,0,1-7.293-3.013l40.83-23.573C733.605,582.339,733.605,582.468,733.605,582.6Z" transform="translate(-523.38 -456.814)" fill="#3f3d56"/>
  <circle id="타원_75" data-name="타원 75" cx="13.863" cy="13.863" r="13.863" transform="translate(169.366 111.922)" fill="#fff"/>
  <path id="패스_1024" data-name="패스 1024" d="M995.332,622.029c0,.191,0,.384-.005.574a27,27,0,0,1-53.866,1.965c-.083-.837-.121-1.682-.121-2.539a27,27,0,1,1,53.992,0Z" transform="translate(-707.937 -466.33)" fill="#6c63ff"/>
  <path id="패스_1025" data-name="패스 1025" d="M983.975,604.315l-42.514,24.547c-.083-.837-.121-1.682-.121-2.539a26.74,26.74,0,0,1,.487-5.109l35.345-20.406A26.864,26.864,0,0,1,983.975,604.315Z" transform="translate(-707.937 -470.624)" fill="#3f3d56"/>
  <path id="패스_1026" data-name="패스 1026" d="M1019.336,681.37c0,.19,0,.384-.005.574l-39.993,23.089a26.952,26.952,0,0,1-5.668-4.164l44.9-25.922A26.923,26.923,0,0,1,1019.336,681.37Z" transform="translate(-731.942 -525.671)" fill="#3f3d56"/>
  <circle id="타원_76" data-name="타원 76" cx="13.863" cy="13.863" r="13.863" transform="translate(246.536 141.837)" fill="#fff"/>
  <path id="패스_1027" data-name="패스 1027" d="M318.6,639.741v2.29s-16.389-1.205-17.232-2.531,1.085-10.122,1.085-10.122l14.219,2.772Z" transform="translate(-232.617 -491.837)" fill="#2f2e41"/>
  <path id="패스_1028" data-name="패스 1028" d="M318.6,639.741v2.29s-16.389-1.205-17.232-2.531,1.085-10.122,1.085-10.122l14.219,2.772Z" transform="translate(-232.617 -491.837)" opacity="0.3"/>
  <path id="패스_1029" data-name="패스 1029" d="M295.085,693.681,304,706.213l1.205.844-3.495,5.182-10.966-12.773s-3.254-3.133-1.687-4.941S295.085,693.681,295.085,693.681Z" transform="translate(-223.317 -539.389)" fill="#2f2e41"/>
  <path id="패스_1030" data-name="패스 1030" d="M335.565,745.841a2.544,2.544,0,0,1,2.892.723l-1.567,3.615s-3.856,5.9-5.423,5.784-1.205-2.41-.723-2.651a11.486,11.486,0,0,0,1.678-2.581Z" transform="translate(-254.278 -578.174)" fill="#2f2e41"/>
  <path id="패스_1031" data-name="패스 1031" d="M325.25,781.033l.007,3.6a3.343,3.343,0,0,1-3.977,1.807c-2.892-.723-.482-3.013-.482-3.013l.723-1.928Z" transform="translate(-246.5 -604.437)" fill="#2f2e41"/>
  <circle id="타원_77" data-name="타원 77" cx="3.615" cy="3.615" r="3.615" transform="translate(76.046 106.632)" fill="#a0616a"/>
  <path id="패스_1032" data-name="패스 1032" d="M294.851,427.874l-.723,4.7,3.374,4.82,2.41-7.351Z" transform="translate(-218.383 -317.687)" fill="#a0616a"/>
  <path id="패스_1033" data-name="패스 1033" d="M282.265,444.616l3.248-1.386L286,466.91l-10.122-.723,3.495-22.655,1.363-1.386Z" transform="translate(-204.833 -328.284)" fill="#575a89"/>
  <path id="패스_1034" data-name="패스 1034" d="M336.141,543.514l.09-.9.995.182,2.234-3.415,1.863,1,5.061,3.254-2.169,13.858v9.52s2.651,4.941.482,8.194l-3.013-6.266s-5.664-9.761-5.543-12.773S336.141,543.514,336.141,543.514Z" transform="translate(-258.59 -425.012)" fill="#2f2e41"/>
  <path id="패스_1035" data-name="패스 1035" d="M302.709,540.008l.558-3.569-1.161.8-5.423,2.531L294.033,572.3l6.387,2.29S304.637,542.9,302.709,540.008Z" transform="translate(-227.326 -422.831)" fill="#2f2e41"/>
  <path id="패스_1036" data-name="패스 1036" d="M295.109,627.506l11.809.482a42.912,42.912,0,0,1,.241,11.689c-.844,5.182-3.977,28.2-3.977,28.2h-4.1l1.567-18.317-.482-11.086-3.495,6.748-6.387.362Z" transform="translate(-224.547 -490.447)" fill="#2f2e41"/>
  <path id="패스_1037" data-name="패스 1037" d="M333.167,498.639c.281-.046.592-.176.83-.02a1.1,1.1,0,0,1,.287.383,3.784,3.784,0,0,0,1.195,1.019,1.959,1.959,0,0,1,.95,1.21,8.391,8.391,0,0,1-.151,1.349c-.008.575.3,1.2.009,1.692-.135.226-.374.371-.521.589-.26.385-.259,1-.7,1.156a9.034,9.034,0,0,0-.092-1.643,1.073,1.073,0,0,0-.14-.447c-.2-.293-.6-.338-.944-.412a3.244,3.244,0,0,1-2.116-1.566c.221.262-.03.7-.366.767a1.118,1.118,0,0,1-.919-.366,2.2,2.2,0,0,1-1.517,3.011,1.194,1.194,0,0,0-.49-1.061c-.348-.246-.846-.319-1.054-.692a1.306,1.306,0,0,1,0-.947l.3-1.173a1.8,1.8,0,0,1,.972-1.446l.885-.566a3.184,3.184,0,0,1,.907-.457c.29-.073.583.017.867-.061.235-.064.425-.233.669-.286C332.4,498.59,332.788,498.7,333.167,498.639Z" transform="translate(-252.056 -394.695)" fill="#2f2e41"/>
  <path id="패스_1038" data-name="패스 1038" d="M296.2,640.141s2.049,5.3-.12,5.543-2.049-4.7-2.049-4.7Z" transform="translate(-227.322 -499.828)" fill="#a0616a"/>
  <path id="패스_1039" data-name="패스 1039" d="M258.372,453.358l-.58-.412-.625.171-3.254,12.171-.964,13.255,4.459-1.808-.241-9.4Z" transform="translate(-187.809 -336.302)" fill="#2f2e41"/>
  <path id="패스_1040" data-name="패스 1040" d="M318.086,549.495l-1.325,1.446-.59-2.6Z" transform="translate(-234.75 -407.133)" fill="#a0616a"/>
  <path id="패스_1041" data-name="패스 1041" d="M355.033,555.156l.611-.425.473.184s4.1,11.809,3.254,14.7-7.23,10.6-7.23,10.6l-2.892-3.133,5.423-8.074-1.687-1.928Z" transform="translate(-268.323 -436.413)" fill="#2f2e41"/>
  <path id="패스_1042" data-name="패스 1042" d="M292.747,623.846l-.559,6.534.559-9.216.3.425Z" transform="translate(-216.943 -461.2)" opacity="0.3"/>
  <path id="패스_1043" data-name="패스 1043" d="M307.239,645.1l-1.44,10.468,2-9.832Z" transform="translate(-227.049 -478.973)" opacity="0.3"/>
  <rect id="사각형_292" data-name="사각형 292" width="291" height="0.515" transform="translate(0 181.946)" fill="#3f3d56"/>
  <circle id="타원_78" data-name="타원 78" cx="6.953" cy="6.953" r="6.953" transform="translate(147.303 147.18)" fill="#3f3d56"/>
  <path id="패스_1044" data-name="패스 1044" d="M884.24,214.571s-9.518,4.3-11.343,8.267S884.24,214.571,884.24,214.571Z" transform="translate(-656.991 -183.852)" fill="#e6e6e6"/>
  <path id="패스_1045" data-name="패스 1045" d="M882.719,196.905s-8.771-1.182-11.432.838S882.719,196.905,882.719,196.905Z" transform="translate(-655.677 -170.48)" fill="#e6e6e6"/>
  <path id="패스_1046" data-name="패스 1046" d="M916.272,145.778s-4.412-13.892-3.343-15.268S916.272,145.778,916.272,145.778Z" transform="translate(-686.719 -121.379)" fill="#e6e6e6"/>
  <path id="패스_1047" data-name="패스 1047" d="M932.867,161.407s2.368-14.042,4.849-14.042S932.867,161.407,932.867,161.407Z" transform="translate(-701.646 -133.952)" fill="#e6e6e6"/>
  <path id="패스_1048" data-name="패스 1048" d="M938.264,187.8s8.141-6.747,24.821-4.687S938.264,187.8,938.264,187.8Z" transform="translate(-705.654 -160.201)" fill="#e6e6e6"/>
  <path id="패스_1049" data-name="패스 1049" d="M958.312,205.48s14.261-.25,15.062,1.747S958.312,205.48,958.312,205.48Z" transform="translate(-720.539 -177.095)" fill="#e6e6e6"/>
  <path id="패스_1050" data-name="패스 1050" d="M947.517,213.56s8.614,5.221,6.931,6.827S947.517,213.56,947.517,213.56Z" transform="translate(-712.524 -183.101)" fill="#e6e6e6"/>
  <path id="패스_1051" data-name="패스 1051" d="M1003.035,237.829s7.149,3.906,5.56,6.51S1003.035,237.829,1003.035,237.829Z" transform="translate(-753.745 -201.12)" fill="#e6e6e6"/>
  <path id="패스_1052" data-name="패스 1052" d="M951.373,225.694s14.893,21.353,13.5,22.655S951.373,225.694,951.373,225.694Z" transform="translate(-715.387 -192.11)" fill="#e6e6e6"/>
  <path id="패스_1053" data-name="패스 1053" d="M940.578,219.627s6.27,13.7,4.991,15.026S940.578,219.627,940.578,219.627Z" transform="translate(-707.371 -187.606)" fill="#e6e6e6"/>
  <path id="패스_1054" data-name="패스 1054" d="M920.75,217.6s-5.643,21.837-2.18,21.612S920.75,217.6,920.75,217.6Z" transform="translate(-690.196 -186.104)" fill="#e6e6e6"/>
  <path id="패스_1055" data-name="패스 1055" d="M897.734,221.82s-9.473,14.208-8.606,15.7S897.734,221.82,897.734,221.82Z" transform="translate(-669.13 -189.234)" fill="#e6e6e6"/>
  <path id="패스_1056" data-name="패스 1056" d="M861.442,151.113s-8.259-12.793-15.9-11.553S861.442,151.113,861.442,151.113Z" transform="translate(-635.68 -128.095)" fill="#e6e6e6"/>
  <path id="패스_1057" data-name="패스 1057" d="M857.285,180.608s-10.921-1.042-10.127,1.562S857.285,180.608,857.285,180.608Z" transform="translate(-637.979 -158.482)" fill="#e6e6e6"/>
  <path id="패스_1058" data-name="패스 1058" d="M892.162,135.212s-.6-3.646-1.589-2.864S892.162,135.212,892.162,135.212Z" transform="translate(-670.075 -122.721)" fill="#e6e6e6"/>
  <path id="패스_1059" data-name="패스 1059" d="M936.465,110.353s2.725-15.015,1.49-15.07S936.465,110.353,936.465,110.353Z" transform="translate(-704.318 -95.283)" fill="#e6e6e6"/>
  <path id="패스_1060" data-name="패스 1060" d="M985.3,153.221s1.192-3.906,2.383-2.864S985.3,153.221,985.3,153.221Z" transform="translate(-740.577 -136.043)" fill="#e6e6e6"/>
  <path id="패스_1061" data-name="패스 1061" d="M940.129,296.478s-1.589,15.364,1.39,15.1S940.129,296.478,940.129,296.478Z" transform="translate(-706.724 -244.666)" fill="#e6e6e6"/>
  <path id="패스_1062" data-name="패스 1062" d="M258.075,372.535s-9.011,2.928-10.739,5.631S258.075,372.535,258.075,372.535Z" transform="translate(-192.533 -301.136)" fill="#e6e6e6"/>
  <path id="패스_1063" data-name="패스 1063" d="M256.636,360.5s-8.3-.805-10.823.571S256.636,360.5,256.636,360.5Z" transform="translate(-191.289 -292.028)" fill="#e6e6e6"/>
  <path id="패스_1064" data-name="패스 1064" d="M288.4,325.677s-4.177-9.463-3.165-10.4S288.4,325.677,288.4,325.677Z" transform="translate(-220.676 -258.583)" fill="#e6e6e6"/>
  <path id="패스_1065" data-name="패스 1065" d="M304.11,336.323s2.242-9.565,4.59-9.565S304.11,336.323,304.11,336.323Z" transform="translate(-234.808 -267.148)" fill="#e6e6e6"/>
  <path id="패스_1066" data-name="패스 1066" d="M309.22,354.3s7.707-4.6,23.5-3.193S309.22,354.3,309.22,354.3Z" transform="translate(-238.602 -285.026)" fill="#e6e6e6"/>
  <path id="패스_1067" data-name="패스 1067" d="M328.2,366.343s13.5-.17,14.259,1.19S328.2,366.343,328.2,366.343Z" transform="translate(-252.694 -296.534)" fill="#e6e6e6"/>
  <path id="패스_1068" data-name="패스 1068" d="M317.98,371.846s8.154,3.556,6.561,4.651S317.98,371.846,317.98,371.846Z" transform="translate(-245.106 -300.625)" fill="#e6e6e6"/>
  <path id="패스_1069" data-name="패스 1069" d="M370.539,388.377s6.768,2.661,5.264,4.434S370.539,388.377,370.539,388.377Z" transform="translate(-284.13 -312.898)" fill="#e6e6e6"/>
  <path id="패스_1070" data-name="패스 1070" d="M321.63,380.111s14.1,14.545,12.783,15.431S321.63,380.111,321.63,380.111Z" transform="translate(-247.816 -306.762)" fill="#e6e6e6"/>
  <path id="패스_1071" data-name="패스 1071" d="M311.41,375.979s5.936,9.328,4.725,10.235S311.41,375.979,311.41,375.979Z" transform="translate(-240.228 -303.693)" fill="#e6e6e6"/>
  <path id="패스_1072" data-name="패스 1072" d="M292.639,374.6s-5.342,14.874-2.064,14.721S292.639,374.6,292.639,374.6Z" transform="translate(-223.968 -302.67)" fill="#e6e6e6"/>
  <path id="패스_1073" data-name="패스 1073" d="M270.85,377.472s-8.968,9.678-8.147,10.7S270.85,377.472,270.85,377.472Z" transform="translate(-204.025 -304.802)" fill="#e6e6e6"/>
  <path id="패스_1074" data-name="패스 1074" d="M236.492,329.311s-7.818-8.714-15.048-7.869S236.492,329.311,236.492,329.311Z" transform="translate(-172.358 -263.158)" fill="#e6e6e6"/>
  <path id="패스_1075" data-name="패스 1075" d="M232.557,349.4s-10.339-.71-9.587,1.064S232.557,349.4,232.557,349.4Z" transform="translate(-174.534 -283.856)" fill="#e6e6e6"/>
  <path id="패스_1076" data-name="패스 1076" d="M265.575,318.48s-.564-2.483-1.5-1.951S265.575,318.48,265.575,318.48Z" transform="translate(-204.92 -259.498)" fill="#e6e6e6"/>
  <path id="패스_1077" data-name="패스 1077" d="M307.516,301.548s2.58-10.228,1.41-10.265S307.516,301.548,307.516,301.548Z" transform="translate(-237.337 -240.808)" fill="#e6e6e6"/>
  <path id="패스_1078" data-name="패스 1078" d="M353.749,330.747s1.128-2.661,2.256-1.951S353.749,330.747,353.749,330.747Z" transform="translate(-271.664 -268.572)" fill="#e6e6e6"/>
  <path id="패스_1079" data-name="패스 1079" d="M310.985,428.325s-1.5,10.465,1.316,10.288S310.985,428.325,310.985,428.325Z" transform="translate(-239.615 -342.559)" fill="#e6e6e6"/>
  <path id="패스_1080" data-name="패스 1080" d="M558.075,352.535s-9.011,2.928-10.739,5.631S558.075,352.535,558.075,352.535Z" transform="translate(-415.276 -286.287)" fill="#6c63ff"/>
  <path id="패스_1081" data-name="패스 1081" d="M556.636,340.5s-8.3-.805-10.823.571S556.636,340.5,556.636,340.5Z" transform="translate(-414.032 -277.179)" fill="#6c63ff"/>
  <path id="패스_1082" data-name="패스 1082" d="M588.4,305.677s-4.177-9.463-3.165-10.4S588.4,305.677,588.4,305.677Z" transform="translate(-443.42 -243.734)" fill="#6c63ff"/>
  <path id="패스_1083" data-name="패스 1083" d="M604.11,316.323s2.242-9.565,4.59-9.565S604.11,316.323,604.11,316.323Z" transform="translate(-457.552 -252.298)" fill="#6c63ff"/>
  <path id="패스_1084" data-name="패스 1084" d="M609.22,331.434s14.3-7.129,15.137-3.344S609.22,331.434,609.22,331.434Z" transform="translate(-461.346 -267.314)" fill="#6c63ff"/>
  <path id="패스_1085" data-name="패스 1085" d="M628.2,346.343s13.5-.17,14.259,1.19S628.2,346.343,628.2,346.343Z" transform="translate(-475.438 -281.684)" fill="#6c63ff"/>
  <path id="패스_1086" data-name="패스 1086" d="M617.98,351.846s8.154,3.556,6.561,4.65S617.98,351.846,617.98,351.846Z" transform="translate(-467.85 -285.775)" fill="#6c63ff"/>
  <path id="패스_1087" data-name="패스 1087" d="M670.538,368.377s6.768,2.661,5.264,4.434S670.538,368.377,670.538,368.377Z" transform="translate(-506.873 -298.049)" fill="#6c63ff"/>
  <path id="패스_1088" data-name="패스 1088" d="M621.63,360.111s14.1,14.545,12.783,15.431S621.63,360.111,621.63,360.111Z" transform="translate(-470.56 -291.912)" fill="#6c63ff"/>
  <path id="패스_1089" data-name="패스 1089" d="M611.41,355.979s5.936,9.328,4.725,10.235S611.41,355.979,611.41,355.979Z" transform="translate(-462.972 -288.844)" fill="#6c63ff"/>
  <path id="패스_1090" data-name="패스 1090" d="M595.346,354.6s-4.22,9.085-.942,8.931S595.346,354.6,595.346,354.6Z" transform="translate(-449.419 -287.821)" fill="#6c63ff"/>
  <path id="패스_1091" data-name="패스 1091" d="M570.85,357.472s-8.968,9.678-8.147,10.7S570.85,357.472,570.85,357.472Z" transform="translate(-426.769 -289.953)" fill="#6c63ff"/>
  <path id="패스_1092" data-name="패스 1092" d="M550.64,317.167a9.329,9.329,0,0,0-9.8-5.12C533.614,312.891,550.64,317.167,550.64,317.167Z" transform="translate(-409.25 -256.164)" fill="#6c63ff"/>
  <path id="패스_1093" data-name="패스 1093" d="M532.557,329.4s-10.339-.709-9.587,1.064S532.557,329.4,532.557,329.4Z" transform="translate(-397.277 -269.007)" fill="#6c63ff"/>
  <path id="패스_1094" data-name="패스 1094" d="M565.575,298.48s-.564-2.483-1.5-1.951S565.575,298.48,565.575,298.48Z" transform="translate(-427.664 -244.648)" fill="#6c63ff"/>
  <path id="패스_1095" data-name="패스 1095" d="M607.516,281.548s2.58-10.228,1.41-10.265S607.516,281.548,607.516,281.548Z" transform="translate(-460.081 -225.959)" fill="#6c63ff"/>
  <path id="패스_1096" data-name="패스 1096" d="M653.749,310.747s1.128-2.661,2.256-1.951S653.749,310.747,653.749,310.747Z" transform="translate(-494.407 -253.722)" fill="#6c63ff"/>
  <path id="패스_1097" data-name="패스 1097" d="M610.985,408.325s-1.5,10.465,1.316,10.288S610.985,408.325,610.985,408.325Z" transform="translate(-462.359 -327.71)" fill="#6c63ff"/>
</svg>
