<svg xmlns="http://www.w3.org/2000/svg" xmlns:xlink="http://www.w3.org/1999/xlink" width="206.376" height="203.843" viewBox="0 0 206.376 203.843"><defs><style>.a{fill:none;}.b{fill:#f4f7fa;}.c{fill:url(#a);}.d,.n,.s{mix-blend-mode:soft-light;}.ac,.am,.ar,.d,.n,.o,.p,.s,.w{isolation:isolate;}.e{clip-path:url(#b);}.f{fill:#fcfdfe;}.g{fill:url(#c);}.h{clip-path:url(#d);}.i{fill:url(#e);}.j{fill:url(#f);}.k,.o{fill:url(#g);}.l{fill:#d8dee8;}.av,.m,.n{fill:#fff;}.n{opacity:0.48;}.ac,.am,.ar,.o,.p,.w{opacity:0.3;mix-blend-mode:multiply;}.p{fill:#c7ccd3;}.q{fill:url(#j);}.r{fill:url(#k);}.s{opacity:0.5;}.t{clip-path:url(#l);}.u{fill:url(#m);}.v{fill:url(#n);}.w{fill:url(#o);}.x{fill:url(#p);}.y{fill:url(#q);}.z{fill:url(#r);}.aa{fill:url(#s);}.ab{fill:url(#t);}.ac{fill:url(#u);}.ad{fill:url(#v);}.ae{fill:url(#w);}.af{fill:url(#x);}.ag{fill:url(#y);}.ah{fill:url(#z);}.ai{fill:url(#aa);}.aj{fill:url(#ab);}.ak{fill:url(#ac);}.al{fill:url(#ad);}.am{fill:url(#ae);}.an{fill:url(#af);}.ao{fill:url(#ag);}.ap{fill:url(#ah);}.aq{fill:url(#ai);}.as{fill:url(#aj);}.at{fill:url(#al);}.au{fill:url(#am);}.av{opacity:0.8;}</style><linearGradient id="a" x1="2.156" y1="0.315" x2="2.374" y2="0.878" gradientUnits="objectBoundingBox"><stop offset="0" stop-color="#ffc444"/><stop offset="0.996" stop-color="#f36f56"/></linearGradient><clipPath id="b"><path class="a" d="M1532.34,317.688c5.237-11.779,19.165-32.492,13.418-46.3-6.547-15.726-19.475-8.925-22.765-21.1-5.141-19.031-21.351-32.262-38.751-22.791-17.174,9.347-16.575,43.459,6.084,80.763,13.225,28.6,11.035,34.425,3.173,47.476C1487.993,364.88,1512.648,361.976,1532.34,317.688Z" transform="translate(-1472.242 -224.362)"/></clipPath><linearGradient id="c" x1="2.363" y1="0.686" x2="2.875" y2="-0.301" gradientUnits="objectBoundingBox"><stop offset="0.004" stop-color="#e38ddd"/><stop offset="1" stop-color="#9571f6"/></linearGradient><clipPath id="d"><path class="a" d="M1378.2,467.988c-6.569-.555-21.838-2.16-19.416-14.568,2.017-10.33,5.43-16.583-5.577-23.386s-14.708-16.853-8.424-26.772c6.613-10.439-2.956-27.174,6.7-33.415,16.826-10.874,34.188,16.758,31.182,39.5s9.644,15.655,19.2,20.21C1414.915,435.777,1383.5,468.436,1378.2,467.988Z" transform="translate(-1341.724 -367.404)"/></clipPath><linearGradient id="e" x1="0.422" y1="0.514" x2="0.352" y2="0.835" gradientUnits="objectBoundingBox"><stop offset="0" stop-color="#40447e"/><stop offset="0.996" stop-color="#3c3b6b"/></linearGradient><linearGradient id="f" x1="0.479" y1="0.466" x2="0.37" y2="0.525" xlink:href="#e"/><linearGradient id="g" x1="0" y1="0.5" x2="1" y2="0.5" xlink:href="#e"/><linearGradient id="j" y1="0.5" x2="1" y2="0.5" gradientUnits="objectBoundingBox"><stop offset="0" stop-color="#fff"/><stop offset="0.996" stop-color="#ebeff2"/></linearGradient><linearGradient id="k" x1="0.507" y1="-1.079" x2="0.495" y2="1.516" gradientUnits="objectBoundingBox"><stop offset="0" stop-color="#ff9085"/><stop offset="1" stop-color="#fb6fbb"/></linearGradient><clipPath id="l"><path class="a" d="M1497.861,437.819l78.3-4.519,61.484-69.565-39.357-62.205-134.711,18.837L1461.521,432.1Z" transform="translate(-1461.521 -301.531)"/></clipPath><linearGradient id="m" x1="-15.35" y1="-20.507" x2="-15.687" y2="-17.857" xlink:href="#a"/><linearGradient id="n" x1="0.871" y1="-0.088" x2="0.298" y2="0.633" gradientUnits="objectBoundingBox"><stop offset="0" stop-color="#aa80f9"/><stop offset="0.996" stop-color="#6165d7"/></linearGradient><linearGradient id="o" x1="0.425" y1="0.81" x2="0.592" y2="0.168" xlink:href="#n"/><linearGradient id="p" x1="-24.183" y1="5.52" x2="-23.194" y2="5.52" gradientUnits="objectBoundingBox"><stop offset="0" stop-color="#444b8c"/><stop offset="0.996" stop-color="#26264f"/></linearGradient><linearGradient id="q" x1="-104.072" y1="3.07" x2="-102.717" y2="1.26" xlink:href="#a"/><linearGradient id="r" x1="-31.886" y1="8.701" x2="-30.925" y2="8.701" xlink:href="#p"/><linearGradient id="s" x1="-91.091" y1="6.087" x2="-89.996" y2="4.194" xlink:href="#a"/><linearGradient id="t" x1="3.866" y1="0.596" x2="2.905" y2="-0.067" gradientUnits="objectBoundingBox"><stop offset="0" stop-color="#311944"/><stop offset="1" stop-color="#893976"/></linearGradient><linearGradient id="u" x1="4.238" y1="0.61" x2="3.144" y2="-0.062" xlink:href="#t"/><linearGradient id="v" x1="1.576" y1="0.987" x2="0.444" y2="0.335" xlink:href="#t"/><linearGradient id="w" x1="0.261" y1="0.843" x2="0.923" y2="-0.298" xlink:href="#n"/><linearGradient id="x" x1="5.626" y1="-8.862" x2="5.683" y2="-10.612" gradientUnits="objectBoundingBox"><stop offset="0" stop-color="#ffc444"/><stop offset="0.463" stop-color="#fec244"/><stop offset="0.63" stop-color="#fdbb45"/><stop offset="0.749" stop-color="#fcaf48"/><stop offset="0.845" stop-color="#f99e4b"/><stop offset="0.926" stop-color="#f68850"/><stop offset="0.996" stop-color="#f36f56"/></linearGradient><linearGradient id="y" x1="-41.797" y1="-3.102" x2="-42.494" y2="-4.642" gradientUnits="objectBoundingBox"><stop offset="0" stop-color="#311944"/><stop offset="1" stop-color="#6b3976"/></linearGradient><linearGradient id="z" x1="-6.656" y1="-5.177" x2="-6.693" y2="-2.015" xlink:href="#a"/><linearGradient id="aa" x1="-49.87" y1="-4.715" x2="-50.708" y2="-6.851" xlink:href="#y"/><linearGradient id="ab" x1="-225.973" y1="-83.987" x2="-225.786" y2="-79.129" gradientUnits="objectBoundingBox"><stop offset="0" stop-color="#ffc444"/><stop offset="1" stop-color="#f36f56"/></linearGradient><linearGradient id="ac" x1="0.419" y1="0.12" x2="0.584" y2="1.164" xlink:href="#a"/><linearGradient id="ad" x1="0.271" y1="0.951" x2="1.384" y2="-0.755" xlink:href="#n"/><linearGradient id="ae" x1="0.315" y1="0.827" x2="1.148" y2="-0.842" xlink:href="#n"/><linearGradient id="af" x1="-1.23" y1="0.5" x2="-0.23" y2="0.5" xlink:href="#n"/><linearGradient id="ag" x1="0.531" y1="-1.154" x2="-0.164" y2="1.068" xlink:href="#c"/><linearGradient id="ah" x1="-0.008" y1="0.35" x2="0.749" y2="0.573" xlink:href="#t"/><linearGradient id="ai" x1="-28.357" y1="0.094" x2="-27.708" y2="1.596" xlink:href="#c"/><linearGradient id="aj" x1="-42.122" y1="-0.027" x2="-41.194" y2="2" xlink:href="#c"/><linearGradient id="al" x1="-32.499" y1="0.094" x2="-31.85" y2="1.596" xlink:href="#c"/><linearGradient id="am" x1="-48.168" y1="-0.027" x2="-47.24" y2="2" xlink:href="#c"/></defs><g transform="translate(-1341.724 -198.008)"><path class="b" d="M1490.677,198.052c-49.01-1.488-91.463,35.082-97.877,83.067-7.012,52.465,31.584,99.671,79.076,107.232,59.072,9.4,116.368-45,111.223-104.022C1579.224,239.862,1540.5,199.565,1490.677,198.052Z" transform="translate(-37.561)"/><g transform="translate(1341.724 204.663)"><g transform="translate(0 0)"><g transform="translate(32.958)"><path class="c" d="M1493.5,355.738c-1.505,2.5-4.13,5.893-6.97,9.828l47.46,6.841c-5.318-14.448-12.81-29.62-1.65-54.721,5.237-11.779,19.165-32.492,13.418-46.295-6.547-15.726-19.475-8.925-22.764-21.1-5.141-19.031-21.352-32.262-38.752-22.791-17.174,9.347-16.575,43.459,6.084,80.763C1503.552,336.865,1501.362,342.688,1493.5,355.738Z" transform="translate(-1472.242 -224.362)"/><g class="d"><g class="e"><g transform="translate(-2.416 -13.834)"><path class="f" d="M1528.616,325.4c.339-6.233.342-12.128.346-18.37l0-2.081c-.184-3.006-.283-5.975-.379-8.845A139.24,139.24,0,0,0,1527.062,277c-.022-.38-.024-.749-.026-1.139a7.926,7.926,0,0,0-.827-4.215l-.019-.057c-3.283-34.38-13.714-68.659-31-101.884l.247-.128c17.3,33.246,27.738,67.549,31.028,101.955a8.3,8.3,0,0,1,.85,4.328c0,.387,0,.753.024,1.11a139.315,139.315,0,0,1,1.525,19.127c.1,2.869.2,5.836.378,8.846v2.09c0,6.246-.007,12.145-.346,18.385Z" transform="translate(-1486.979 -169.577)"/><path class="f" d="M1626.194,446.19c-.315-16.26,8.249-35.58,15.489-48.925a230.9,230.9,0,0,1,15.939-25.309l.223.167a230.535,230.535,0,0,0-15.92,25.278c-7.223,13.314-15.767,32.585-15.453,48.783Z" transform="translate(-1584.896 -320.852)"/><path class="f" d="M1581.751,256.624c-1.3-17.235,1.336-35.624,2.2-41.666.165-1.156.274-1.919.27-2.068l.278-.009c.005.166-.08.769-.273,2.117-.863,6.035-3.492,24.4-2.2,41.606Z" transform="translate(-1551.419 -201.945)"/><path class="f" d="M1499.225,411.236c-5.826-14.846-36.242-27.993-36.549-28.124l.109-.256c.308.131,30.831,13.325,36.7,28.278Z" transform="translate(-1462.676 -328.999)"/></g></g></g></g><g transform="translate(0 36.121)"><path class="g" d="M1382.661,409.348c-2.887,21.841,8.665,16.173,18.052,19.722,8.858,17.807,7.746,32.983-10.834,43.549l-18.218-5.471c-6.862-1.316-14.665-4.6-12.881-13.73,2.017-10.33,5.43-16.583-5.577-23.386s-14.708-16.853-8.424-26.772c6.613-10.439-2.956-27.174,6.7-33.415C1368.3,358.972,1385.668,386.6,1382.661,409.348Z" transform="translate(-1341.724 -367.404)"/><g class="d" transform="translate(0 0)"><g class="h"><g transform="translate(-2.377 -2.863)"><path class="f" d="M1426.843,440.561a144.174,144.174,0,0,1-15.97-30.975,139.679,139.679,0,0,1-7.97-33.86,131.785,131.785,0,0,1-.6-19.658l.284.013a131.444,131.444,0,0,0,.6,19.615,139.363,139.363,0,0,0,7.954,33.791,143.892,143.892,0,0,0,15.938,30.914Z" transform="translate(-1384.53 -356.067)"/><path class="f" d="M1402.154,721.193l-.091-.269a48.816,48.816,0,0,1,12.713-2.336,47.585,47.585,0,0,1,6.582.044l-.022.284a47.216,47.216,0,0,0-6.542-.044A48.53,48.53,0,0,0,1402.154,721.193Z" transform="translate(-1384.449 -626.977)"/><path class="f" d="M1361.379,555.967c-8.274-10.687-28.864-12.787-29.07-12.805l.027-.284c.209.021,20.918,2.13,29.268,12.915Z" transform="translate(-1332.309 -495.705)"/><path class="f" d="M1414.251,400.2c-.739-15.253,12.853-30.8,12.99-30.952l.213.189c-.137.154-13.653,15.613-12.919,30.75Z" transform="translate(-1393.537 -365.917)"/></g></g></g></g></g></g><g transform="translate(1345.329 281.487)"><path class="i" d="M1564.678,934.071l-200.278-1.76v5.209a2.759,2.759,0,0,0,2.057,2.83l56.633,10.257a7.719,7.719,0,0,0,2.032.1l137.38-11.694a2.624,2.624,0,0,0,2.177-2.763Z" transform="translate(-1362.279 -830.365)"/><g transform="translate(0 0)"><path class="j" d="M1489.077,532.836v87.131a4.613,4.613,0,0,1-1.008,2.889,3.4,3.4,0,0,1-2.348,1.305l-63.315,4.805-28.823,2.149-32.447,2.427h0l-.942.109c-.114.008-.225.032-.336.029a4.019,4.019,0,0,1-.467-.026,3.941,3.941,0,0,1-1.327-.42,4.092,4.092,0,0,1-2.062-3.594V533.252a4.232,4.232,0,0,1,4.192-4.252h125.526A3.587,3.587,0,0,1,1489.077,532.836Z" transform="translate(-1356 -528.897)"/><path class="k" d="M1497.076,532.836v87.131a4.565,4.565,0,0,1-1.119,2.995,4.215,4.215,0,0,1-1.424.985h0c-.081,0-.161.071-.245.094a2.871,2.871,0,0,1-.586.114l-92.346,7.014-33.181,2.52a3.755,3.755,0,0,1-.735-.055c-.109-.013-.217-.09-.323-.09h0a.9.9,0,0,1-.26-.028,3.863,3.863,0,0,1-2.641-2.688,4.333,4.333,0,0,1-.212-1.186V533.252a4.215,4.215,0,0,1,4.174-4.252H1493.7A3.6,3.6,0,0,1,1497.076,532.836Z" transform="translate(-1361.98 -528.897)"/><path class="l" d="M1506.252,634.279l-116.915,8.276a3.164,3.164,0,0,1-3.314-3.322V554.846a3.461,3.461,0,0,1,3.314-3.571l116.915-.52a3.012,3.012,0,0,1,2.761,3.227v76.862A3.3,3.3,0,0,1,1506.252,634.279Z" transform="translate(-1378.442 -545.159)"/><path class="m" d="M1638.078,534.237a1.455,1.455,0,1,1-1.444-1.621A1.546,1.546,0,0,1,1638.078,534.237Z" transform="translate(-1564.688 -531.6)"/><path class="n" d="M1463.756,597.42c-9.677-5.593-17.286,1.494-24.629-5.5-4.452-4.239-2.266-7.4-7.744-13.734-6.067-7.016-10.017-4.658-16.115-10.972-7.71-7.984-3.854-14.2-10.495-19.929-8.057-6.954-16.745-.518-24.415-7.187-3.308-2.877-5.123-7.059-6.071-11.506h-7.5a2.475,2.475,0,0,0-2.383,2.557v99.914a2.261,2.261,0,0,0,2.383,2.375l127.932-9.754a2.046,2.046,0,0,0,1.542-1.012c-9.365-.367-15.118-3.739-18.8-7.225C1470.266,608.629,1471.514,601.9,1463.756,597.42Z" transform="translate(-1362.279 -528.593)"/></g><path class="k" d="M1499,904.052l-134.6,10.029,58.689,10.629a7.717,7.717,0,0,0,2.032.1l139.557-11.879-63.534-8.807A10.111,10.111,0,0,0,1499,904.052Z" transform="translate(-1362.279 -809.221)"/><path class="o" d="M1442.179,919.766l112.061-8.474,34.682,4.769-111.1,9.059Z" transform="translate(-1420.417 -814.654)"/></g><path class="p" d="M1531.461,532.836v82.343l-2.015.121-2.6.154-2.377.141-12.287.732-93.394,5.571a8.458,8.458,0,0,1-1.761-.073,8.019,8.019,0,0,1-6.222-4.707,8.185,8.185,0,0,1-.469-1.177,8.329,8.329,0,0,1-.335-2.134V529h118.084A3.6,3.6,0,0,1,1531.461,532.836Z" transform="translate(-51.035 -247.411)"/><g transform="translate(1361.469 224.15)"><path class="l" d="M1573.489,419.125a7.787,7.787,0,0,0-5.593-7.664c-.114-.028-.24-.054-.356-.076a6.521,6.521,0,0,0-1.071-.115l-68.185-1.684-69.7-1.721c-.149,0-.3,0-.445,0a8.46,8.46,0,0,0-5.014,1.794l-.076.06q-.3.239-.574.5l-.013.012c-.108.1-.213.213-.316.323a8.34,8.34,0,0,0-2.229,5.7v6.176h0v96.921a8.363,8.363,0,0,0,.274,2.135,7.994,7.994,0,0,0,6.631,5.883,8.616,8.616,0,0,0,1.76.074l105.678-6.3h0l32.225-1.922c3.864-.231,7-3.857,7-8.1V424.636h0Z" transform="translate(-1419.919 -381.012)"/><g transform="translate(2.197 26.841)"><path class="m" d="M1575.063,411.233l-137.785-3.4a8.388,8.388,0,0,0-8.659,8.392V519.282a8.048,8.048,0,0,0,8.659,8.089l137.785-8.222c3.862-.23,6.975-3.854,6.975-8.1V419.085C1582.038,414.844,1578.925,411.328,1575.063,411.233Z" transform="translate(-1428.619 -407.826)"/><path class="q" d="M1445.5,532.729a5.484,5.484,0,0,1-5.882-5.507V424.362a5.716,5.716,0,0,1,5.882-5.713l137.785,3.138a5.157,5.157,0,0,1,4.756,5.345v92.129a5.382,5.382,0,0,1-4.756,5.511Z" transform="translate(-1436.838 -415.915)"/><path class="l" d="M1575.063,411.233l-137.785-3.4a8.388,8.388,0,0,0-8.659,8.392v6.174l153.419,2.2v-5.509C1582.038,414.844,1578.925,411.328,1575.063,411.233Z" transform="translate(-1428.619 -407.826)"/><path class="m" d="M1472.913,430.517a2.732,2.732,0,0,1-2.8,2.738,2.862,2.862,0,0,1-2.807-2.846,2.732,2.732,0,0,1,2.807-2.738A2.863,2.863,0,0,1,1472.913,430.517Z" transform="translate(-1457.541 -422.659)"/><path class="m" d="M1511.68,431.318a2.7,2.7,0,0,1-2.757,2.719,2.832,2.832,0,0,1-2.768-2.826,2.7,2.7,0,0,1,2.768-2.719A2.833,2.833,0,0,1,1511.68,431.318Z" transform="translate(-1486.576 -423.273)"/><path class="m" d="M1549.913,432.108a2.677,2.677,0,0,1-2.719,2.7,2.8,2.8,0,0,1-2.73-2.806,2.676,2.676,0,0,1,2.73-2.7A2.8,2.8,0,0,1,1549.913,432.108Z" transform="translate(-1515.211 -423.879)"/><path class="r" d="M1603.761,600.735l-135.186,7.254V527.17l135.186.465Z" transform="translate(-1458.486 -497.034)"/><g transform="translate(10.09 21.767)"><path class="l" d="M1542.357,494.715l-73.781-.69v4.366l73.781.462Z" transform="translate(-1468.576 -494.025)"/><path class="l" d="M1974.29,498.755v3.972l7.484.047v-3.949Z" transform="translate(-1846.589 -497.561)"/></g><g class="s" transform="translate(0 0)"><path class="m" d="M1522.5,463.4c-16.038-23.21-44.069-15.251-61.983-41.221a56.759,56.759,0,0,1-6.964-13.95l-16.279-.4a8.389,8.389,0,0,0-8.659,8.392V519.282a8.048,8.048,0,0,0,8.659,8.089l105.606-6.3a84.483,84.483,0,0,1-8.353-14.864C1525.24,484.892,1532.125,477.325,1522.5,463.4Z" transform="translate(-1428.619 -407.826)"/></g></g><g transform="translate(10.505)"><g class="t"><g transform="translate(96.454 46.755)"><path class="u" d="M2073.252,543.884a6.2,6.2,0,0,1,4.362-2c2.842-.118,6.71-1.89,8.37-2.059.4-.041.6-.161.633-.312.07-.31-1.772-.743-3.407-.783-2.9-.07-4.594,1.092-4.986.507-.438-.654,1.437-2.469,1.093-2.867-.266-.309-1.54.7-2.905,1.328-.969.443-4.762,5.14-4.762,5.14Z" transform="translate(-2014.035 -523.783)"/><path class="v" d="M1904.78,506.046c-.232,11.278-5.7,21.522-14.455,26.566-.362.209-.732.41-1.107.6-16,8.167-32.026-5.653-33.955-7.372a35.651,35.651,0,0,1-5.376-6.255,34.888,34.888,0,0,1-6.247-17.272c-.206-2.983-.836-12.076,3.879-14.833,4.853-2.838,12.576,2.666,15.714,4.9,13.269,9.454,13.587,21.06,20.885,22.238,3.27.528,8.466-.956,16.27-11.527Z" transform="translate(-1843.493 -486.686)"/><path class="w" d="M1909.25,605.8q-.543.313-1.107.6c-16,8.167-32.026-5.653-33.955-7.372a35.662,35.662,0,0,1-5.376-6.255c.774-3.5,1.827-8.151,1.827-8.151s6.865-.853,10.122,7.283c1.177,2.94,2.6,5.8,5,7.866,2.426,2.084,4.3,1.766,7.363,1.289,2.814-.437,5.755,1.709,8.194,2.743C1903.845,604.872,1906.463,605.976,1909.25,605.8Z" transform="translate(-1862.418 -559.871)"/></g><path class="x" d="M1732.126,1186.665c-.558.519-.593,1.76-.616,2.571a2.084,2.084,0,0,0,.031.67c.339.918,2.082.945,4.827,1.123,4.339.28,5.644.581,5.942-.1.28-.637-.546-1.627-.639-1.736a4.014,4.014,0,0,0-2.2-1.114c-2.075-.611-3.472-.934-3.895-1.032C1732.934,1186.435,1732.493,1186.325,1732.126,1186.665Z" transform="translate(-1663.328 -963.011)"/><path class="y" d="M1735.826,1169.75l.169,5.118a2.579,2.579,0,0,1-2.76.138l-.85-5.083Z" transform="translate(-1663.986 -950.51)"/><path class="z" d="M1876.817,1185.812a2.57,2.57,0,0,0-.41,3c.568.767,1.505.3,4.082.576,2.761.3,3.449,1.029,5.357.64.771-.158,2.141-.579,2.144-1.141,0-.4-.67-.651-2.911-1.616a29.64,29.64,0,0,0-3.844-1.6C1879.525,1185.248,1877.807,1184.819,1876.817,1185.812Z" transform="translate(-1771.401 -962.063)"/><path class="aa" d="M1876.79,1169.718l1.141,4.867a2.6,2.6,0,0,1-2.754.358l-1.819-4.778Z" transform="translate(-1769.361 -950.486)"/><path class="ab" d="M1786.177,753.308a463.575,463.575,0,0,0,8.183,106.639l-5.382,1.066a48.171,48.171,0,0,1-11.792-21.692c-1.383-6.084-.661-9.1-1.356-16.509-1.105-11.791-4.248-18.154-7.335-27.816a161.244,161.244,0,0,1-7.1-38.054Z" transform="translate(-1685.671 -639.227)"/><path class="ac" d="M1783.7,832.677c-1.973-8.116-5.772-10.323-5.907-17.948-.1-5.394,1.777-5.8,1.653-10.966-.189-7.833-4.621-12.009-6.847-16.967-2.35-5.234-3.25-13.6,3.084-27.4l-14.291,2.1a161.237,161.237,0,0,0,7.1,38.054c3.087,9.662,6.23,16.025,7.335,27.816.694,7.406-.028,10.425,1.356,16.509a48.172,48.172,0,0,0,11.792,21.692l1.369-.271c-4.607-5.783-6.231-10.892-6.645-15.018C1783.029,843.564,1785.691,840.864,1783.7,832.677Z" transform="translate(-1685.671 -643.779)"/><path class="ad" d="M1706.149,747.235q-3.191,30.36-5.84,61.865-1.979,23.633-3.533,46.68l-5.426.273a68,68,0,0,1-4.843-15.442c-1.506-8.1-.819-12.8-1.234-21.107-.466-9.321-1.731-11.437-3.555-23.283-3.7-24.03-5.549-36.04.318-43.023C1683.941,750.93,1689.841,745.313,1706.149,747.235Z" transform="translate(-1623.535 -634.393)"/><path class="ae" d="M1603.515,478.726a113.93,113.93,0,0,1,42.82-6.1c10.584.535,20.765,1.773,27.992,3.926.978,5.66.891,12.039,1.869,17.7a208.641,208.641,0,0,1-.319,22.419c-.616,9.065-1.22,9.195-2.632,21.982-2.3,20.843-1.339,26.311-5.4,28.756-2.638,1.59-3.592-.392-17.035-1.975-9-1.059-13.585-1.557-18.134-.03-6.189,2.077-8.259,5.69-10.809,4.465-2.445-1.174-2.756-5.559-3.051-13.2-.456-11.784-.427-19.789-.469-22.655-.193-13.149-3.4-23.222-7.5-36.116A179.486,179.486,0,0,0,1603.515,478.726Z" transform="translate(-1567.659 -429.312)"/><g transform="translate(66.259 24.704)"><path class="af" d="M1735.124,421.325a39.924,39.924,0,0,1-1.066,7.69c-.493,2.035-.8,2.55-1.176,2.959-.568.616-1.407,1.11-6.044,2-2.522.482-2.841.444-2.91.7-.332,1.231,6.238,5.918,13.312,5.339,4.334-.355,8.381-2.647,8.209-4s-4.509-.909-5.664-3.418c-.8-1.745.319-4.08,1.6-5.993C1740.357,424.311,1736.151,423.612,1735.124,421.325Z" transform="translate(-1723.915 -415.779)"/><g transform="translate(8.013)"><path class="ag" d="M1766.756,406.713a4.822,4.822,0,0,0,.185-5.379,4.914,4.914,0,0,0-3.456-1.847c-2.73-.5-6.256.475-7.6,3.017-.794,1.506.584,4.823.8,5.417.24.672.725.927,1.159,1.451.6.727,1.542,1.881,3.075,3.809a11.914,11.914,0,0,1,.724-1.89,10.289,10.289,0,0,1,1.422-2.186C1764.59,407.388,1765.725,407.976,1766.756,406.713Z" transform="translate(-1755.646 -399.362)"/><path class="ah" d="M1761.614,427.527a6.2,6.2,0,0,0,5.256,3.164c3.232-.014,4.09-7.461,2.114-9.175a3.974,3.974,0,0,0-3.157-.622c-.67.151-.908.42-2.007.644-1.014.206-1.29.074-1.605.318-.394.306-.712,1.094-.195,3.318a1.733,1.733,0,0,0-1.84-.752,1.1,1.1,0,0,0-.451.406C1759.236,425.651,1759.932,426.787,1761.614,427.527Z" transform="translate(-1758.582 -415.388)"/><path class="ai" d="M1762.885,423.1c.149.129-.356.7-.435,1.545a4.1,4.1,0,0,0,2.989,3.99c.967.16,1.265-.429,2.88-.5a7.158,7.158,0,0,1,2.337.287,4.07,4.07,0,0,1-1.367,4.374c-1.3.821-2.88.174-3.539-.1a4.689,4.689,0,0,1-2.535-2.169c-.709-1.471.1-2.28-.745-3.3a7.715,7.715,0,0,1-1.542-1.736,4.758,4.758,0,0,1-.294-.653C1761.512,423.982,1762.67,422.914,1762.885,423.1Z" transform="translate(-1759.375 -417.091)"/><path class="aj" d="M1789.494,446.566a3.791,3.791,0,0,1-1.914.187c-.058-.007-.124.007-.133.038a1.466,1.466,0,0,0,1.431.532c.512-.115.931-.585.869-.715C1789.722,446.553,1789.607,446.553,1789.494,446.566Z" transform="translate(-1779.417 -434.641)"/></g></g><path class="ak" d="M1636.615,707.129l3.222-.146s3.532-3.023,5.141-2.812a13.676,13.676,0,0,1,4.31,1.647c.293.247-.881,1.593-2.055,1.446s-3.793.477-4.261,1.543-2.5,1.688-2.845,1.055l-4.331.836Z" transform="translate(-1591.788 -602.489)"/><path class="al" d="M1529.991,545.884a8.251,8.251,0,0,1-1.311,5.869c-4.256,5.607-18.7,3.1-27.267-4.586a30.062,30.062,0,0,1-9.563-22.208c.241-15.2,13.786-29.98,33.988-34.967l8.992,27.989c-12.48.068-20.05,9.746-18.928,16.726C1516.738,539.907,1522.565,544.648,1529.991,545.884Z" transform="translate(-1484.189 -442.402)"/><path class="am" d="M1690.644,651.722c-6.614-3.016-6.575-9.056-12.747-11.661-8.8-3.714-18.5,4.495-20.012,2.161-1.575-2.428,10.01-9.652,8.468-16.955-1.226-5.8-9.311-4.876-13.638-12.842-4.1-7.552-.125-14.448-3.757-17.094-1.3-.949-3.6-1.341-7.949.6,3.033,9.868,5.209,18.569,5.367,29.325.042,2.866.014,10.871.469,22.655.3,7.639.606,12.024,3.051,13.2,2.551,1.225,4.62-2.387,10.809-4.465,4.549-1.527,9.136-1.029,18.134.03,13.443,1.582,14.4,3.565,17.035,1.975,1.718-1.036,2.536-2.62,3.083-5.68A16.072,16.072,0,0,1,1690.644,651.722Z" transform="translate(-1595.686 -520.554)"/></g></g><g transform="translate(56.107 116.209)"><path class="m" d="M1653.011,773.636a5.719,5.719,0,0,1-5.428,5.628,5.145,5.145,0,0,1-5.473-5.152,5.716,5.716,0,0,1,5.473-5.63A5.145,5.145,0,0,1,1653.011,773.636Z" transform="translate(-1642.109 -766.775)"/><path class="m" d="M1739.84,770.127a5.578,5.578,0,0,1-5.251,5.531,5.017,5.017,0,0,1-5.294-5.07,5.574,5.574,0,0,1,5.294-5.533A5.018,5.018,0,0,1,1739.84,770.127Z" transform="translate(-1707.279 -764.213)"/><path class="m" d="M1823.842,766.731a5.444,5.444,0,0,1-5.082,5.438,4.9,4.9,0,0,1-5.123-4.991,5.44,5.44,0,0,1,5.123-5.44A4.9,4.9,0,0,1,1823.842,766.731Z" transform="translate(-1770.323 -761.733)"/></g></g><g transform="translate(1462.132 230.885)"><path class="an" d="M1883.075,329.987l-55.6-1.782a2.558,2.558,0,0,0-2.746,2.382v20.84l-6.173,5.1,64.486.852a2.458,2.458,0,0,0,2.544-2.335V332.433A2.561,2.561,0,0,0,1883.075,329.987Z" transform="translate(-1818.554 -328.203)"/><g transform="translate(1.093)"><path class="ao" d="M1822.881,356.523l64.383.852a2.367,2.367,0,0,0,2.442-2.335V332.433a2.5,2.5,0,0,0-2.442-2.446l-55.5-1.782a2.463,2.463,0,0,0-2.642,2.382v20.84Z" transform="translate(-1822.881 -328.203)"/><path class="m" d="M1885.243,355.678l42.214,1.107v-2.739l-42.214-1.187Z" transform="translate(-1869.495 -346.634)"/><path class="m" d="M1885.243,378l42.214.948V376.21l-42.214-1.028Z" transform="translate(-1869.495 -363.319)"/><path class="m" d="M1885.243,400.323l42.214.79v-2.739l-42.214-.869Z" transform="translate(-1869.495 -380.005)"/></g></g><g transform="translate(1426.394 207.582)"><path class="ap" d="M1701.519,235.931c8.69.267,15.99,5.573,17.412,12.29l.006.026q.115.552.177,1.115l.008.074q.027.263.042.529c0,.032,0,.064,0,.1.009.181.014.362.014.545,0,7.805-7.966,13.721-17.664,13.218-.258-.013-.514-.032-.769-.054l-.075-.006c-.241-.022-.481-.048-.72-.077l-.112-.014q-.346-.044-.688-.1l-.129-.021q-.336-.056-.667-.122l-.134-.027c-.22-.045-.438-.093-.655-.145l-.126-.031q-.323-.079-.641-.166l-.114-.033q-.286-.081-.568-.17l-.143-.044c-.19-.061-.379-.126-.567-.192l-.122-.042h0c-6.447-2.325-10.979-7.559-10.979-13.411C1684.314,241.566,1691.962,235.638,1701.519,235.931Z" transform="translate(-1682.474 -235.921)"/><path class="aq" d="M1677.028,249.169c0,7.6,7.647,14.162,17.205,14.656,9.7.5,17.664-5.413,17.664-13.218s-7.966-14.378-17.664-14.675C1684.675,235.638,1677.028,241.566,1677.028,249.169Z" transform="translate(-1677.028 -235.921)"/><g class="ar" transform="translate(10.977 5.984)"><path class="as" d="M1722.507,277.779c2.092-4.009-.023-7.945,2.808-10.482,2.889-2.589,6.661.082,10.745-1.968,1.586-.8,3.353-2.372,4.67-5.711a12.766,12.766,0,0,1,3.659,8.7c0,7.805-7.966,13.721-17.664,13.219a21.685,21.685,0,0,1-6.228-1.244A8.552,8.552,0,0,0,1722.507,277.779Z" transform="translate(-1720.498 -259.618)"/></g><g transform="translate(7.15 5.355)"><path class="m" d="M1740.379,287.379a1.378,1.378,0,0,1-1.4,1.4,1.445,1.445,0,0,1-1.4-1.448,1.378,1.378,0,0,1,1.391-1.4A1.444,1.444,0,0,1,1740.379,287.379Z" transform="translate(-1729.443 -278.658)"/><g transform="translate(2.449)"><path class="m" d="M1718.617,274.425a3.475,3.475,0,0,1-2.029-.693c-2.433-1.854-1.942-6.73,1.125-11.159,2.285-3.3,5.41-5.447,7.967-5.447a3.548,3.548,0,0,1,2.1.632c2.569,1.824,2.062,6.849-1.149,11.377C1724.284,272.447,1721.136,274.514,1718.617,274.425Zm7.066-16.4c-2.246,0-5.164,2.041-7.264,5.069-2.707,3.9-3.314,8.429-1.335,9.933a2.62,2.62,0,0,0,1.532.511c2.209.074,5.138-1.9,7.285-4.938,2.813-3.976,3.442-8.626,1.365-10.106A2.679,2.679,0,0,0,1725.683,258.023Z" transform="translate(-1715.044 -257.127)"/></g><g transform="translate(2.446)"><path class="m" d="M1725.714,274.675h0c-2.566-.09-5.708-2.36-8.005-5.753-3.074-4.54-3.568-9.418-1.144-11.177a3.361,3.361,0,0,1,2.021-.618c2.51,0,5.657,2.165,8.016,5.546,3.237,4.638,3.779,9.7,1.214,11.441A3.442,3.442,0,0,1,1725.714,274.675Zm-7.128-16.665a2.539,2.539,0,0,0-1.526.454c-1.973,1.427-1.361,5.964,1.353,9.962,2.113,3.112,5.046,5.271,7.3,5.346a2.6,2.6,0,0,0,1.585-.416c2.074-1.415,1.415-6.1-1.421-10.173C1723.718,260.083,1720.789,258.015,1718.587,258.011Z" transform="translate(-1715.03 -257.127)"/></g><g transform="translate(0 3.302)"><path class="m" d="M1715.071,280.759h0l-.261.108a14.7,14.7,0,0,1-6.66-1.7c-1.834-1.069-2.827-2.433-2.805-3.9.042-2.881,4.1-5.1,9.343-5.061l.261.011c3.606.076,6.935,1.23,8.655,3.016a3.576,3.576,0,0,1,1.192,2.563C1724.76,278.794,1720.443,281.011,1715.071,280.759Zm-.383-9.648c-4.689-.04-8.465,1.849-8.5,4.212-.016,1.124.821,2.234,2.366,3.132a13.84,13.84,0,0,0,6.265,1.636l.25.009c4.794.128,8.786-1.762,8.814-4.213a2.888,2.888,0,0,0-.929-2.026c-1.555-1.619-4.638-2.668-8.018-2.745Z" transform="translate(-1705.344 -270.204)"/></g></g></g><g transform="translate(1498.614 327.275)"><path class="ap" d="M1987.519,709.931c8.691.267,15.99,5.573,17.412,12.29l.006.026q.115.551.177,1.115c0,.025.005.049.008.074q.027.263.042.529c0,.032,0,.064,0,.1.009.181.014.362.014.545,0,7.805-7.966,13.72-17.664,13.219-.258-.013-.514-.032-.77-.054l-.075-.006c-.241-.022-.481-.048-.72-.077l-.111-.014q-.346-.044-.688-.1l-.129-.021q-.336-.056-.667-.122l-.134-.027c-.22-.045-.438-.093-.655-.145l-.126-.031q-.323-.079-.641-.166l-.114-.033c-.191-.054-.38-.111-.568-.17l-.143-.044c-.191-.061-.379-.126-.567-.192l-.122-.042h0c-6.446-2.325-10.979-7.559-10.979-13.411C1970.314,715.566,1977.961,709.638,1987.519,709.931Z" transform="translate(-1968.474 -709.921)"/><path class="at" d="M1963.028,723.169c0,7.6,7.647,14.162,17.205,14.656,9.7.5,17.664-5.413,17.664-13.219s-7.966-14.377-17.664-14.675C1970.675,709.638,1963.028,715.566,1963.028,723.169Z" transform="translate(-1963.028 -709.921)"/><g class="ar" transform="translate(10.977 5.984)"><path class="au" d="M2008.507,751.779c2.093-4.009-.023-7.945,2.808-10.482,2.889-2.589,6.661.082,10.745-1.968,1.586-.8,3.353-2.372,4.67-5.711a12.765,12.765,0,0,1,3.659,8.7c0,7.805-7.966,13.721-17.664,13.219a21.687,21.687,0,0,1-6.228-1.244A8.549,8.549,0,0,0,2008.507,751.779Z" transform="translate(-2006.498 -733.618)"/></g><g transform="translate(10.255 4.503)"><path class="av" d="M2016.789,747.538c-.822-2.994-1.836-5.953-2.352-8.868l.029-7.046-8.183-.013-.126,6.952c-.564,2.858-1.61,5.728-2.464,8.622a1.566,1.566,0,0,0,.277,1.349,1.652,1.652,0,0,0,1.261.645l9.917.3a1.656,1.656,0,0,0,1.322-.58A1.542,1.542,0,0,0,2016.789,747.538Z" transform="translate(-2003.638 -730.637)"/><path class="m" d="M2019.317,774.717a1.279,1.279,0,0,1-1.01.456l-7.563-.217a1.287,1.287,0,0,1-.972-.505,1.207,1.207,0,0,1-.212-1.036c.6-2.057,1.329-4.1,1.77-6.134.149.008.3.024.447.046a10.925,10.925,0,0,1,2.517.882,7.526,7.526,0,0,0,3.382.493c.163-.007.326-.025.484-.048.4,1.655.943,3.337,1.4,5.023A1.187,1.187,0,0,1,2019.317,774.717Z" transform="translate(-2008.033 -757.3)"/><path class="m" d="M2020.828,728.866a.889.889,0,0,1-.912.865l-7.941-.025a.853.853,0,0,1-.867-.857l0-.243a.887.887,0,0,1,.9-.851h7.914a.883.883,0,0,1,.9.864Z" transform="translate(-2009.222 -727.754)"/></g></g></g></svg>