<svg xmlns="http://www.w3.org/2000/svg" xmlns:xlink="http://www.w3.org/1999/xlink" width="204" height="205.137" viewBox="0 0 204 205.137"><defs><style>.a{fill:none;}.b{fill:#f4f7fa;}.c{fill:#c9ced6;}.ah,.d{fill:#d8dee8;}.e{clip-path:url(#a);}.f{fill:url(#b);}.ab,.g{opacity:0.5;}.ab,.au,.g,.u{mix-blend-mode:soft-light;}.ab,.ah,.al,.au,.av,.cj,.g,.u{isolation:isolate;}.h{fill:#beb8f2;}.i{fill:url(#c);}.j{clip-path:url(#d);}.k{fill:#fcfdfe;}.l{fill:url(#e);}.m{clip-path:url(#f);}.n{fill:#97a6b7;}.o{fill:url(#g);}.p{fill:url(#h);}.q{fill:url(#i);}.r{fill:url(#j);}.ab,.au,.s,.u{fill:#fff;}.t{fill:url(#k);}.u{opacity:0.1;}.v{fill:url(#l);}.w{fill:url(#m);}.x{fill:url(#n);}.y{fill:url(#o);}.z{fill:url(#p);}.aa{fill:url(#q);}.ac{fill:url(#s);}.ad{fill:url(#t);}.ae{fill:url(#u);}.af{fill:url(#v);}.ag{fill:url(#w);}.ah,.al,.av,.cj{mix-blend-mode:multiply;}.ai{fill:url(#x);}.aj{fill:url(#y);}.ak{fill:url(#z);}.al,.ar,.au,.cj{opacity:0.3;}.am{fill:url(#ac);}.an{fill:url(#ad);}.ao{fill:url(#ae);}.ap{fill:url(#af);}.aq{fill:url(#ag);}.ar{fill:url(#ah);}.as{fill:url(#ai);}.at{fill:url(#aj);}.aw{fill:url(#ak);}.ax{fill:url(#al);}.ay{fill:url(#am);}.az{fill:url(#an);}.ba{fill:url(#ao);}.bb{fill:url(#ap);}.bc{fill:url(#aq);}.bd{fill:url(#ar);}.be{fill:url(#as);}.bf{fill:url(#at);}.bg{fill:url(#au);}.bh{fill:url(#av);}.bi{fill:url(#aw);}.bj{fill:url(#ax);}.bk{fill:url(#ay);}.bl{fill:url(#az);}.bm{fill:url(#ba);}.bn{fill:url(#bb);}.bo{fill:url(#bc);}.bp{fill:url(#bd);}.bq{fill:url(#be);}.br{fill:url(#bf);}.bs{fill:url(#bg);}.bt{fill:url(#bh);}.bu{fill:url(#bi);}.bv{fill:url(#bj);}.bw{fill:url(#bk);}.bx{fill:url(#bl);}.by{fill:url(#bm);}.bz{fill:url(#bn);}.ca{fill:url(#bo);}.cb{fill:url(#bp);}.cc{fill:url(#bq);}.cd{fill:url(#br);}.ce{fill:url(#bs);}.cf{fill:url(#bt);}.cg{fill:url(#bu);}.ch{fill:url(#bv);}.ci{fill:url(#bw);}.cj{fill:url(#bx);}.ck{fill:url(#by);}.cl{fill:url(#bz);}.cm{fill:url(#ca);}.cn{fill:url(#cb);}</style><clipPath id="a"><path class="a" d="M553.84,393.578l17.285-12.5s-3.159-11.22-11.921-14.414c-17.877-6.517-10.921-21.719-8.961-28.522,2.957-10.26,1.088-20.59-11.345-16.684s-13.594-18.9-6.431-34.781c7.01-15.541-16.571-36.969-34.831-4.726-10.9,19.256,4.15,34.694,9.9,44.3s-7.148,20.071,5.434,27.782c10.747,6.587,23.184,8.064,22.176,18.665S538.8,390.989,553.84,393.578Z" transform="translate(-493.774 -265.174)"/></clipPath><linearGradient id="b" x1="5.675" y1="-3.876" x2="5.126" y2="-2.936" gradientUnits="objectBoundingBox"><stop offset="0.004" stop-color="#e38ddd"/><stop offset="1" stop-color="#9571f6"/></linearGradient><linearGradient id="c" x1="-3.412" y1="-3.346" x2="-2.767" y2="-2.127" gradientUnits="objectBoundingBox"><stop offset="0" stop-color="#ffc444"/><stop offset="0.996" stop-color="#f36f56"/></linearGradient><clipPath id="d"><path class="a" d="M359.341,440.547l-16.08,14.761s-15.451-3.4-14.392-11.96-12.529-13.675-19.394-17.269c-18.627-9.752-3.434-28.836-26.222-43.37-6.061-3.865-19.067-9.1-20.251-17.568-1.349-9.648,7.083-10.7,5.151-17.58-3.018-10.754,1.177-22.418,12.618-23.682,11.292-1.247,20.992,15.173,20.641,40.422,1.8,17.985,4.595,20.028,12.335,23.629,5.422,2.522,21.792,5.768,22.152,16.2s2.274,19.452,9.76,20.284C357.05,425.683,359.341,440.547,359.341,440.547Z" transform="translate(-262.855 -323.814)"/></clipPath><linearGradient id="e" x1="15.435" y1="-5.589" x2="16.188" y2="-4.724" gradientUnits="objectBoundingBox"><stop offset="0" stop-color="#ff9085"/><stop offset="1" stop-color="#fb6fbb"/></linearGradient><clipPath id="f"><path class="a" d="M426.613,334.292l-13.647,21.4c-3.682-.541-10.023-2.246-8.48-7.535,2.144-7.354-8.273-13.893-13.07-14.435-5.937-.67-19.714-2.52-16.573-13.932,2.615-9.5,6.193-15.2-3.313-21.75s-12.116-15.931-5.648-24.949c6.806-9.49-.642-25.189,8.617-30.726,16.134-9.648,29.854,16.31,25.4,37.261s7.6,14.7,15.955,19.142c11.409,6.061-.739,20.244,1,27C418.221,331.057,423.278,333.3,426.613,334.292Z" transform="translate(-362.321 -240.287)"/></clipPath><linearGradient id="g" x1="0.491" y1="0.225" x2="0.5" y2="0.781" gradientUnits="objectBoundingBox"><stop offset="0" stop-color="#444b8c"/><stop offset="0.996" stop-color="#26264f"/></linearGradient><linearGradient id="h" x1="0.348" y1="0.42" x2="0.992" y2="0.914" gradientUnits="objectBoundingBox"><stop offset="0" stop-color="#444b8c"/><stop offset="0.645" stop-color="#313365"/><stop offset="0.996" stop-color="#26264f"/></linearGradient><linearGradient id="i" y1="0.5" x2="1" y2="0.5" gradientUnits="objectBoundingBox"><stop offset="0" stop-color="#fff"/><stop offset="0.996" stop-color="#ebeff2"/></linearGradient><linearGradient id="j" x1="0.291" y1="-6.367" x2="0.621" y2="4.667" gradientUnits="objectBoundingBox"><stop offset="0" stop-color="#aa80f9"/><stop offset="0.996" stop-color="#6165d7"/></linearGradient><linearGradient id="k" x1="0.21" y1="-0.363" x2="0.855" y2="1.495" xlink:href="#g"/><linearGradient id="l" x1="0" y1="0.5" x2="1" y2="0.5" xlink:href="#c"/><linearGradient id="m" x1="0.382" y1="0.982" x2="0.555" y2="0.213" xlink:href="#j"/><linearGradient id="n" x1="0.015" y1="0.121" x2="1.41" y2="1.129" gradientUnits="objectBoundingBox"><stop offset="0" stop-color="#f4f7fa"/><stop offset="0.996" stop-color="#d8dee8"/></linearGradient><linearGradient id="o" x1="0" y1="0.5" x2="1" y2="0.5" xlink:href="#j"/><linearGradient id="p" x1="0.617" y1="-0.203" x2="0.322" y2="1.548" xlink:href="#c"/><linearGradient id="q" x1="0.079" y1="0.212" x2="1.473" y2="1.042" xlink:href="#n"/><linearGradient id="s" x1="0.788" y1="0.206" x2="1.029" y2="1.276" gradientUnits="objectBoundingBox"><stop offset="0" stop-color="#ab316d"/><stop offset="1" stop-color="#792d3d"/></linearGradient><linearGradient id="t" x1="1.792" y1="-72.857" x2="1.674" y2="-72.682" xlink:href="#s"/><linearGradient id="u" x1="8.199" y1="-110.62" x2="7.951" y2="-102.438" xlink:href="#c"/><linearGradient id="v" x1="21.072" y1="-260.762" x2="21.018" y2="-253.884" xlink:href="#s"/><linearGradient id="w" x1="0" y1="0.5" x2="1" y2="0.5" xlink:href="#s"/><linearGradient id="x" x1="1.089" y1="-0.249" x2="-0.224" y2="1.421" xlink:href="#e"/><linearGradient id="y" x1="0.468" y1="2.148" x2="0.492" y2="0.807" xlink:href="#g"/><linearGradient id="z" x1="0.468" y1="2.148" x2="0.492" y2="0.807" xlink:href="#j"/><linearGradient id="ac" x1="0.513" y1="-0.617" x2="0.434" y2="5.692" xlink:href="#b"/><linearGradient id="ad" x1="0.623" y1="-0.475" x2="-0.07" y2="5.032" gradientUnits="objectBoundingBox"><stop offset="0" stop-color="#311944"/><stop offset="1" stop-color="#a03976"/></linearGradient><linearGradient id="ae" x1="0.625" y1="-0.475" x2="-0.077" y2="5.032" xlink:href="#ad"/><linearGradient id="af" x1="0.631" y1="-0.475" x2="-0.112" y2="5.031" xlink:href="#ad"/><linearGradient id="ag" x1="0.644" y1="-0.475" x2="-0.158" y2="5.031" xlink:href="#ad"/><linearGradient id="ah" x1="474.719" y1="-1462.372" x2="474.478" y2="-1447.469" xlink:href="#ad"/><linearGradient id="ai" x1="473.233" y1="-1475.579" x2="472.992" y2="-1460.495" xlink:href="#ad"/><linearGradient id="aj" x1="442.317" y1="-1450.075" x2="442.076" y2="-1434.214" xlink:href="#ad"/><linearGradient id="ak" x1="4.954" y1="-4.205" x2="-3.253" y2="4.457" gradientUnits="objectBoundingBox"><stop offset="0" stop-color="#444b8c"/><stop offset="0.996" stop-color="#3e4177"/></linearGradient><linearGradient id="al" x1="3.989" y1="-3.128" x2="-4.243" y2="5.421" xlink:href="#ak"/><linearGradient id="am" x1="3.018" y1="-2.079" x2="-5.238" y2="6.363" xlink:href="#ak"/><linearGradient id="an" x1="2.042" y1="-1.056" x2="-6.24" y2="7.281" xlink:href="#ak"/><linearGradient id="ao" x1="5.372" y1="-4.558" x2="-2.878" y2="4" xlink:href="#ak"/><linearGradient id="ap" x1="4.404" y1="-3.489" x2="-3.872" y2="4.959" xlink:href="#ak"/><linearGradient id="aq" x1="3.429" y1="-2.449" x2="-4.872" y2="5.897" xlink:href="#ak"/><linearGradient id="ar" x1="2.448" y1="-1.433" x2="-5.878" y2="6.811" xlink:href="#ak"/><linearGradient id="as" x1="5.794" y1="-4.904" x2="-2.499" y2="3.555" xlink:href="#ak"/><linearGradient id="at" x1="4.822" y1="-3.844" x2="-3.497" y2="4.509" xlink:href="#ak"/><linearGradient id="au" x1="3.843" y1="-2.811" x2="-4.501" y2="5.443" xlink:href="#ak"/><linearGradient id="av" x1="2.858" y1="-1.802" x2="-5.51" y2="6.352" xlink:href="#ak"/><linearGradient id="aw" x1="6.22" y1="-5.245" x2="-2.116" y2="3.121" xlink:href="#ak"/><linearGradient id="ax" x1="5.243" y1="-4.192" x2="-3.117" y2="4.071" xlink:href="#ak"/><linearGradient id="ay" x1="4.261" y1="-3.167" x2="-4.125" y2="5" xlink:href="#ak"/><linearGradient id="az" x1="6.652" y1="-5.573" x2="-1.729" y2="2.695" xlink:href="#ak"/><linearGradient id="ba" x1="5.671" y1="-4.529" x2="-2.735" y2="3.64" xlink:href="#ak"/><linearGradient id="bb" x1="4.684" y1="-3.512" x2="-3.746" y2="4.564" xlink:href="#ak"/><linearGradient id="bc" x1="3.451" y1="-0.581" x2="-4.91" y2="2.465" xlink:href="#ak"/><linearGradient id="bd" x1="0.524" y1="-0.538" x2="0.388" y2="5.323" xlink:href="#g"/><linearGradient id="be" x1="0.524" y1="-0.537" x2="0.387" y2="5.319" xlink:href="#g"/><linearGradient id="bf" x1="0.525" y1="-0.536" x2="0.385" y2="5.314" xlink:href="#g"/><linearGradient id="bg" x1="0.525" y1="-0.535" x2="0.383" y2="5.31" xlink:href="#g"/><linearGradient id="bh" x1="0.524" y1="-0.537" x2="0.386" y2="5.319" xlink:href="#g"/><linearGradient id="bi" x1="0.525" y1="-0.536" x2="0.385" y2="5.315" xlink:href="#g"/><linearGradient id="bj" x1="0.525" y1="-0.535" x2="0.383" y2="5.31" xlink:href="#g"/><linearGradient id="bk" x1="0.525" y1="-0.534" x2="0.381" y2="5.306" xlink:href="#g"/><linearGradient id="bl" x1="0.525" y1="-0.536" x2="0.385" y2="5.316" xlink:href="#g"/><linearGradient id="bm" x1="0.525" y1="-0.535" x2="0.383" y2="5.311" xlink:href="#g"/><linearGradient id="bn" x1="0.525" y1="-0.534" x2="0.381" y2="5.307" xlink:href="#g"/><linearGradient id="bo" x1="0.526" y1="-0.533" x2="0.38" y2="5.303" xlink:href="#g"/><linearGradient id="bp" x1="0.525" y1="-0.535" x2="0.383" y2="5.312" xlink:href="#g"/><linearGradient id="bq" x1="0.525" y1="-0.534" x2="0.381" y2="5.308" xlink:href="#g"/><linearGradient id="br" x1="0.526" y1="-0.533" x2="0.379" y2="5.303" xlink:href="#g"/><linearGradient id="bs" x1="0.525" y1="-0.534" x2="0.381" y2="5.308" xlink:href="#g"/><linearGradient id="bt" x1="0.526" y1="-0.534" x2="0.379" y2="5.304" xlink:href="#g"/><linearGradient id="bu" x1="0.526" y1="-0.533" x2="0.378" y2="5.3" xlink:href="#g"/><linearGradient id="bv" x1="0.566" y1="-0.496" x2="0.189" y2="5.13" xlink:href="#g"/><linearGradient id="bw" x1="0.261" y1="8.983" x2="0.509" y2="0.004" xlink:href="#j"/><linearGradient id="bx" x1="0.488" y1="0.997" x2="0.508" y2="0.032" xlink:href="#j"/><linearGradient id="by" x1="0.547" y1="-0.228" x2="0.481" y2="0.779" xlink:href="#j"/><linearGradient id="bz" x1="0.538" y1="-0.489" x2="0.452" y2="1.743" xlink:href="#j"/><linearGradient id="ca" x1="1.065" y1="-0.904" x2="-0.079" y2="1.937" xlink:href="#c"/><linearGradient id="cb" x1="-0.233" y1="2.633" x2="0.86" y2="-0.427" xlink:href="#c"/></defs><g transform="translate(-262.855 -199.992)"><path class="b" d="M381.5,203.043c-21.656,8.611-23.73,30.623-43.23,32.511-16.99,1.646-23.448-14.288-35.37-11.433-18.16,4.349-29.577,47.644-22.284,83.244,7.531,36.759,39.173,85.625,91.594,88.96,58.854,3.744,103.386-52.481,106.1-101.821.294-5.336,2.03-50.045-32.15-76.455C444.456,216.729,410.774,191.4,381.5,203.043Z" transform="translate(-11.565 0)"/><g transform="translate(396.055 218.576)"><path class="c" d="M831.655,316.886a4.692,4.692,0,0,0,4.235-8.34c-.11-.056-.223-.1-.336-.148a26.975,26.975,0,0,0,.893-3.844c.122,0,.244,0,.368-.014a4.893,4.893,0,0,0,4.3-4.981,4.144,4.144,0,0,0-4.486-4.2c-.127.012-.251.031-.375.053a24.744,24.744,0,0,0-1.039-3.67c.112-.065.223-.133.331-.209a4.894,4.894,0,0,0,1.483-6.412A4.144,4.144,0,0,0,831,283.98c-.107.075-.207.155-.305.237A21.926,21.926,0,0,0,828,281.7c.068-.112.136-.226.2-.345,1.169-2.3,2.7-4.819.554-5.865-4.959-2.421-7.087-.349-8.256,1.955-.061.119-.113.241-.163.362a21.923,21.923,0,0,0-3.618-.691c.008-.128.013-.256.011-.386-.051-2.534.7-3.906-1.735-3.953-5.312-.1-7.1,2.2-7.053,4.737,0,.133.014.262.027.391a24.714,24.714,0,0,0-3.576,1.327c-.055-.113-.113-.225-.178-.334a4.144,4.144,0,0,0-6.036-1.145,4.894,4.894,0,0,0-1.483,6.412c.065.107.135.207.207.306a26.956,26.956,0,0,0-2.576,2.989c-.1-.065-.207-.128-.317-.184a4.692,4.692,0,0,0-4.235,8.34c.11.056.223.1.336.148a27,27,0,0,0-.893,3.843c-.122,0-.244,0-.368.013a4.894,4.894,0,0,0-4.3,4.981,4.144,4.144,0,0,0,4.486,4.2c.127-.011.251-.031.375-.053a24.749,24.749,0,0,0,1.039,3.671c-.112.065-.223.133-.331.209a4.893,4.893,0,0,0-1.482,6.412c1.257,2.087,5.42,3.056,7.5,1.6.106-.075-1.254-.612-1.155-.694a21.92,21.92,0,0,0,2.693,2.513c-.068.112-.136.226-.2.345a4.333,4.333,0,1,0,7.7,3.911c.06-.119.113-.241.163-.362a21.921,21.921,0,0,0,3.618.691c-.008.128-.013.256-.011.386a4.144,4.144,0,0,0,4.486,4.2,4.894,4.894,0,0,0,4.3-4.981c0-.133-.014-.262-.027-.391a24.741,24.741,0,0,0,3.576-1.327c.055.113.113.225.178.334a4.144,4.144,0,0,0,6.036,1.145A4.894,4.894,0,0,0,828.969,320c-.065-.107-.135-.207-.207-.305a26.957,26.957,0,0,0,2.576-2.989C831.441,316.767,831.545,316.83,831.655,316.886Zm-26.515.336c-7.722-3.921-10.541-13.878-6.3-22.24s13.948-11.962,21.67-8.041,10.541,13.878,6.3,22.24S812.863,321.143,805.141,317.222Z" transform="translate(-784.537 -272.776)"/><path class="d" d="M902.844,318.46a4.894,4.894,0,0,0,4.3-4.981,4.144,4.144,0,0,0-4.486-4.2c-.127.011-.251.031-.375.053a24.729,24.729,0,0,0-1.039-3.67c.112-.065.223-.133.331-.209,2.076-1.454,4.645-4.969,3.18-6.916-2.78-3.695-5.657-2.1-7.733-.641-.106.075-.207.155-.305.237a21.927,21.927,0,0,0-2.693-2.513c.068-.112.136-.226.2-.345a4.832,4.832,0,0,0,.272-3.81q-3.008,5.294-5.926,10.637c6.161,4.514,8.122,13.411,4.271,21a17,17,0,0,1-16.084,9.584c-.282.733-.56,1.469-.863,2.2-.821,1.969-1.754,3.9-2.688,5.824q.881.166,1.769.26c-.008.128-.014.256-.011.386.051,2.535,1.589,4.688,5.987,4.455,2.433-.129,2.851-2.7,2.8-5.238,0-.132-.014-.262-.027-.39a24.741,24.741,0,0,0,3.576-1.327c.055.113.113.225.178.334,1.257,2.087,5.619,2.973,7.7,1.519s1.08-4.7-.177-6.786c-.065-.107-.135-.207-.207-.305a26.957,26.957,0,0,0,2.576-2.989c.1.065.207.128.317.183a4.692,4.692,0,0,0,4.235-8.34c-.11-.056-.223-.1-.336-.148a26.988,26.988,0,0,0,.893-3.843C902.6,318.473,902.72,318.471,902.844,318.46Z" transform="translate(-850.566 -286.695)"/><path class="d" d="M840.615,317.154a4.692,4.692,0,0,0,4.234-8.34c-.11-.056-.223-.1-.336-.148a26.941,26.941,0,0,0,.893-3.844c.122,0,.244,0,.369-.014a4.893,4.893,0,0,0,4.3-4.981,4.144,4.144,0,0,0-4.486-4.2c-.127.011-.251.031-.375.053a24.731,24.731,0,0,0-1.039-3.67c.112-.065.223-.133.331-.209a4.894,4.894,0,0,0,1.483-6.412,4.144,4.144,0,0,0-6.036-1.145c-.107.075-.207.155-.306.237a21.923,21.923,0,0,0-2.692-2.513c.068-.112.136-.226.2-.345a4.333,4.333,0,1,0-7.7-3.911c-.06.119-.113.241-.163.362a21.924,21.924,0,0,0-3.618-.691c.008-.128.013-.256.011-.386a4.144,4.144,0,0,0-4.486-4.2,4.894,4.894,0,0,0-4.3,4.981c0,.132.014.262.027.391a24.713,24.713,0,0,0-3.576,1.327c-.055-.113-.113-.225-.178-.334a4.144,4.144,0,0,0-6.036-1.145,4.894,4.894,0,0,0-1.483,6.412c.064.107.135.207.207.306a27.006,27.006,0,0,0-2.576,2.989c-.1-.064-.207-.127-.317-.183a4.692,4.692,0,0,0-4.235,8.34c.11.056.223.1.335.148a26.979,26.979,0,0,0-.893,3.843c-.122,0-.244,0-.368.013a4.894,4.894,0,0,0-4.3,4.981,4.144,4.144,0,0,0,4.486,4.2c.127-.011.251-.031.375-.053a24.75,24.75,0,0,0,1.039,3.671c-.112.065-.223.133-.331.209a4.893,4.893,0,0,0-1.482,6.412,4.144,4.144,0,0,0,6.036,1.145c.106-.075.207-.155.305-.237a21.934,21.934,0,0,0,2.692,2.513c-.068.112-.135.226-.2.345a4.333,4.333,0,1,0,7.7,3.911c.061-.119.113-.241.163-.362a21.927,21.927,0,0,0,3.618.691c-.007.128-.014.256-.011.386a4.144,4.144,0,0,0,4.486,4.2,4.894,4.894,0,0,0,4.3-4.981c0-.132-.014-.262-.027-.391a24.765,24.765,0,0,0,3.576-1.327c.055.113.113.225.178.334a4.144,4.144,0,0,0,6.036,1.145,4.894,4.894,0,0,0,1.483-6.412c-.065-.107-.135-.207-.207-.305a26.97,26.97,0,0,0,2.576-2.989C840.4,317.035,840.5,317.1,840.615,317.154Zm-26.515.336c-7.723-3.921-10.541-13.878-6.3-22.24s13.948-11.962,21.67-8.041,10.542,13.878,6.3,22.24S821.822,321.411,814.1,317.49Z" transform="translate(-791.209 -272.783)"/></g><g transform="translate(262.855 210.281)"><g transform="translate(58.96 6.354)"><g class="e"><path class="f" d="M553.84,393.578l17.285-12.5s-3.159-11.22-11.921-14.414c-17.877-6.517-10.921-21.719-8.961-28.522,2.957-10.26.976-19.32-10.449-17.864-12.927,1.648-14.49-17.721-7.327-33.6,7.01-15.541-16.571-36.969-34.831-4.726-10.9,19.256,4.15,34.694,9.9,44.3s-7.148,20.071,5.434,27.782c10.747,6.587,23.184,8.064,22.176,18.665S538.8,390.989,553.84,393.578Z" transform="translate(-493.774 -265.174)"/><g class="g" transform="translate(2.869 -2.866)"><path class="h" d="M621.249,381.412l.311-.325c-.2-.193-20.31-19.572-34.45-44.794-13.028-23.236-23.509-56.331.539-82.036l-.329-.308c-10.705,11.443-15.576,25.275-14.478,41.112.877,12.651,5.547,26.6,13.879,41.46C600.9,361.8,621.047,381.218,621.249,381.412Z" transform="translate(-555.41 -253.948)"/><path class="h" d="M523.187,347.711l.329-.307C513.3,336.437,505.509,316,505.431,315.791l-.421.159C505.088,316.156,512.91,336.68,523.187,347.711Z" transform="translate(-505.01 -300.001)"/><path class="h" d="M573.252,336.286c6.749-16.538,20.881-21.166,21.023-21.211l-.135-.429c-.144.045-14.474,4.73-21.305,21.47Z" transform="translate(-555.517 -299.148)"/><path class="h" d="M661.75,517.018c-8.363-20.155,11.985-41.3,12.2-41.488l-.274-.357c-.229.166-20.779,21.683-12.341,42.017Z" transform="translate(-619.907 -418.689)"/><path class="h" d="M567.19,585.5l.3-.333c-10.287-9.385-27.767-8.319-27.942-8.307l.03.449C539.755,577.3,557.047,576.25,567.19,585.5Z" transform="translate(-530.732 -494.383)"/><path class="h" d="M745.881,682.48c-4.317-7.077,1.409-19.294,1.467-19.416l-.406-.194c-.243.509-5.889,12.559-1.445,19.844Z" transform="translate(-682.828 -558.461)"/><path class="h" d="M669.734,707.128l.315-.321c-4.68-4.589-16.812-4.7-20.8-4.733-.563-.005-1.05-.01-1.136-.027l-.1.44a10.534,10.534,0,0,0,1.229.038C653.189,702.559,665.183,702.666,669.734,707.128Z" transform="translate(-611.504 -587.634)"/></g></g></g><g transform="translate(0 21.327)"><path class="i" d="M345.677,424.416c6.548.728,9.923,6.153,11.75,10.462a6.678,6.678,0,0,0-.655,1.527c-2.131,5.485-4.208,7.372-7.162,12.447a30.75,30.75,0,0,1-4.707,4.735l-2.323,1.835s-14.753-3.509-13.693-12.073-12.529-13.675-19.394-17.269c-4.216-2.207-5.437-4.567-6.855-5.627-15.019-11.217-22.752-9.557-25.395-16.2-2.918-7.339,5.67-11.463,2.918-19.614-3.108-9.2-16.146-10.125-17.141-19.492a12.339,12.339,0,0,1,.33-5.32c1.559-5.084,6.323-6.909,4.822-12.259-3.018-10.754,1.177-22.418,12.618-23.682,11.292-1.247,20.992,15.173,20.641,40.422,1.8,17.985,4.595,20.028,12.335,23.628,5.421,2.522,21.791,5.768,22.151,16.2S338.191,423.584,345.677,424.416Z" transform="translate(-262.873 -323.813)"/><g transform="translate(0 0)"><g class="j"><g class="g" transform="translate(-1.228 -10.031)"><path class="k" d="M397.52,417.181l-.282.328c-1.827-1.54-3.648-3.117-5.414-4.687a232.79,232.79,0,0,1-33.946-37.208A190.112,190.112,0,0,1,337.935,341.1a163.61,163.61,0,0,1-9.715-28.86,135.492,135.492,0,0,1-3.148-19.812c-.089-1.111-.118-2.256-.146-3.364-.037-1.476-.075-3-.257-4.458l.413-.083c.185,1.476.223,3.012.26,4.5.028,1.1.056,2.243.145,3.342a135.119,135.119,0,0,0,3.139,19.753,163.238,163.238,0,0,0,9.692,28.791,189.729,189.729,0,0,0,19.9,34.442A232.388,232.388,0,0,0,392.114,412.5C393.877,414.069,395.7,415.643,397.52,417.181Z" transform="translate(-307.658 -284.526)"/><path class="k" d="M295.676,487.791l-.363.232c-8.768-14.909-36.984-24.674-37.269-24.77l.161-.4C258.49,462.954,286.837,472.763,295.676,487.791Z" transform="translate(-258.044 -417.323)"/><path class="k" d="M504.488,619.2l-.337.271c-7.2-9.339-1.877-32.638-1.823-32.872l.405.065C502.68,586.893,497.4,610,504.488,619.2Z" transform="translate(-438.508 -509.469)"/><path class="k" d="M442.493,703.284l-.288.323c-5.766-5.081-16.581-8.7-30.452-10.2-.7-.075-.7-.075-.755-.125l.284-.326-.142.163.075-.2c.045.01.309.039.614.072C425.778,694.5,436.668,698.152,442.493,703.284Z" transform="translate(-371.944 -588.648)"/><path class="k" d="M590.739,735.383l-.362.234c-4.344-7.314.443-19.819.491-19.945l.387.125C591.207,715.921,586.495,728.236,590.739,735.383Z" transform="translate(-504.167 -605.588)"/><path class="k" d="M541.308,799.169c-6.542-2.235-14.085-2.6-23.058-1.128l-.036-.413c9.042-1.487,16.649-1.112,23.255,1.144Z" transform="translate(-451.785 -665.956)"/><path class="k" d="M303.67,356.422l-.374.212c-4.392-8.6-11.077-16.453-13.274-19.034-.532-.625-.718-.845-.769-.935l.366-.227c.04.068.344.425.728.877C292.551,339.905,299.257,347.785,303.67,356.422Z" transform="translate(-281.284 -323.184)"/><path class="k" d="M363.677,399.543l-.411.1c-1.469-9.108,9.541-25.035,10.011-25.708l.336.221C373.5,374.317,362.236,390.606,363.677,399.543Z" transform="translate(-336.299 -351.104)"/></g></g></g></g><g transform="translate(25.396)"><path class="l" d="M442.249,351.345c-.694.848-4.768-3.219-12.536-4.355-1.94-.284-12.417-2.566-16.939,4.108l-2.634,3.887c-3.691-.726-7.036-2.094-5.655-6.83,2.144-7.354-8.273-13.893-13.07-14.434-5.937-.67-19.714-2.521-16.573-13.932,2.615-9.5,6.193-15.2-3.313-21.751s-12.116-15.931-5.648-24.949c6.806-9.49-.642-25.189,8.617-30.726,16.134-9.648,29.854,16.31,25.4,37.261s7.6,14.7,15.955,19.142a16.358,16.358,0,0,1,3.048,2.378c7.166,7.121,3.14,16.737,6.067,27.256C428.964,342.745,443.419,349.917,442.249,351.345Z" transform="translate(-362.321 -240.287)"/><g class="m"><g class="g" transform="translate(-2.066 -2.703)"><path class="k" d="M465.453,334.5l-.376.4c-27.524-26.171-41.589-66.482-36.707-105.2l.527.038C424.036,268.293,438.043,308.435,465.453,334.5Z" transform="translate(-408.728 -229.699)"/><path class="k" d="M433.729,566.326l-.294.465c-12.734-7.8-29.886-2.448-30.058-2.393l-.134-.512C403.417,563.83,420.794,558.4,433.729,566.326Z" transform="translate(-390.728 -477.17)"/><path class="k" d="M549.57,507.094l-.469.28c-7.3-13.39,6.641-38.98,6.783-39.237l.461.242C556.2,468.634,542.409,493.959,549.57,507.094Z" transform="translate(-497.77 -407.258)"/><path class="k" d="M380.077,411.01l-.446.319c-6.694-10.031-25.217-12.456-25.4-12.479l.094-.534C354.511,398.339,373.259,400.794,380.077,411.01Z" transform="translate(-354.228 -355.263)"/><path class="k" d="M432.05,271.3l-.532.012c.479-14.172,14.062-28.255,14.2-28.4l.368.367C445.949,243.421,432.521,257.348,432.05,271.3Z" transform="translate(-411.784 -239.541)"/></g></g></g></g><g transform="translate(283.645 239.515)"><path class="n" d="M506.236,454.293V364.478c0-1.842-1.528-2.053-3.388-2.128l-154.294-7.559a3.873,3.873,0,0,0-4.275,3.606v99.259Z" transform="translate(-344.279 -354.786)"/><path class="n" d="M344.279,746.188v19.823a3.864,3.864,0,0,0,4.275,3.6l153.605-7.847c1.86-.079,4.076-.326,4.076-2.168V742.249Z" transform="translate(-344.279 -643.319)"/><path class="n" d="M623.416,825.262a8.211,8.211,0,0,1-5.445-6.183l-4.047-20.03-34.62,1.229-4.261,20.867c-.6,2.922,1.792,5.854,4.543,6.931l14.484,5.667a18.833,18.833,0,0,0,8.468,1.228l30.61-2.619a1.9,1.9,0,0,0,1.717-1.682c.1-.9.731-1.916-.122-2.2Z" transform="translate(-516.054 -685.616)"/><path class="o" d="M627.163,821.452a8.14,8.14,0,0,1-5.44-6.1l-4.043-19.779L583.9,796.784l-4.257,20.6a6.028,6.028,0,0,0,3.73,6.842l14.47,5.6a19.013,19.013,0,0,0,8.459,1.212l30.58-2.586a1.887,1.887,0,0,0,.429-3.673Z" transform="translate(-519.458 -683.024)"/><path class="p" d="M510.133,364.476v89.817L414.6,456.274,348,457.655V358.394a3.912,3.912,0,0,1,4.316-3.605l13.035.523L506.7,360.993A3.59,3.59,0,0,1,510.133,364.476Z" transform="translate(-347.05 -354.785)"/><g transform="translate(5.806 5.221)"><path class="q" d="M367.017,423.027v77.536a3.651,3.651,0,0,0,3.969,3.406L517.43,499.8a3.276,3.276,0,0,0,3.174-3.229V427.422Z" transform="translate(-367.017 -410.824)"/><path class="r" d="M520.6,391.832V383.9a3.244,3.244,0,0,0-3.109-3.19l-146.59-5.469a3.539,3.539,0,0,0-3.888,3.3v8.9Z" transform="translate(-367.017 -375.234)"/><g transform="translate(7.997 4.913)"><path class="s" d="M401.057,395.728a1.241,1.241,0,0,1-1.357,1.164,1.343,1.343,0,0,1-1.361-1.253,1.241,1.241,0,0,1,1.361-1.163A1.343,1.343,0,0,1,401.057,395.728Z" transform="translate(-398.339 -394.474)"/><path class="s" d="M424.064,396.5a1.229,1.229,0,0,1-1.341,1.157,1.33,1.33,0,0,1-1.345-1.245,1.229,1.229,0,0,1,1.345-1.157A1.33,1.33,0,0,1,424.064,396.5Z" transform="translate(-415.495 -395.058)"/><path class="s" d="M446.8,397.269a1.217,1.217,0,0,1-1.326,1.151,1.318,1.318,0,0,1-1.329-1.238,1.218,1.218,0,0,1,1.329-1.15A1.317,1.317,0,0,1,446.8,397.269Z" transform="translate(-432.45 -395.633)"/></g></g><path class="t" d="M510.133,742.25v17.344a3.591,3.591,0,0,1-3.425,3.49l-5.618.237-148.762,6.286a3.912,3.912,0,0,1-4.328-3.6V746.19l66.4-1.614Z" transform="translate(-347.05 -643.319)"/><path class="u" d="M501.067,474.788l-148.75,6.286a3.9,3.9,0,0,1-4.316-3.6V358.394a3.912,3.912,0,0,1,4.316-3.605l13.035.523a20.6,20.6,0,0,1,5.219,4.961c.064.087.13.174.189.26a18.416,18.416,0,0,1,2.456,4.92,20.994,20.994,0,0,1,.6,2.247,30.6,30.6,0,0,1,.611,5.127c.159,3.669-.13,7.435-.114,11.145.031,7.519.5,15.034,5.49,21.088,3.695,4.484,9.713,6.187,14.707,8.794,5.829,3.043,10.943,7.08,13.905,13.075,3.636,7.359.222,15.35,2.546,22.951a15.584,15.584,0,0,0,.633,1.713,18.034,18.034,0,0,0,2.8,4.448c.064.079.13.156.2.232,4.445,5.109,11.561,8.3,17.73,9.845,12.659,3.166,25.788-2.321,38.355-2.752,9.054-.309,21.575,1.734,28.234,8.543A14.59,14.59,0,0,1,501.067,474.788Z" transform="translate(-347.05 -354.785)"/></g><g transform="translate(266.335 361.51)"><path class="v" d="M301.289,834.425l42.434-1.845,48.891,1.713-48.232,10.543Z" transform="translate(-294.955 -832.58)"/><g transform="translate(0 20.713)"><path class="w" d="M317.006,935.724l-34.372-9.251a8.479,8.479,0,0,1-6.151-7.688v-.037c0-3.326,2.689-5.558,6.151-4.947l36.866,6.033Z" transform="translate(-276.483 -913.702)"/><g transform="translate(34.347 1.832)"><path class="x" d="M478.73,936.069l-55.538,6.2a5.483,5.483,0,0,1-6.339-5.423v-2.3a6.893,6.893,0,0,1,6.339-6.636l55.538-4.421C476.273,928.069,475.706,932.349,478.73,936.069Z" transform="translate(-415.361 -922.826)"/><path class="y" d="M474.859,934.736l-55.556,6.3a7.179,7.179,0,0,1-8.3-7.094v-.049a9.027,9.027,0,0,1,8.3-8.681l55.556-4.333a.583.583,0,0,1,.6.622.705.705,0,0,1-.6.718L419.3,926.741a7.277,7.277,0,0,0-6.664,7v.048a5.785,5.785,0,0,0,6.664,5.72l55.556-6.109a.561.561,0,0,1,.6.6A.734.734,0,0,1,474.859,934.736Z" transform="translate(-411.006 -920.876)"/></g></g><g transform="translate(0 1.739)"><path class="z" d="M318.45,864.668l-35.816-6.07c-3.462-.611-6.151-5.148-6.151-10.142V848.4c0-4.994,2.689-8.957,6.151-8.829l37.994,1.411Z" transform="translate(-276.483 -839.524)"/><g transform="translate(34.347)"><path class="aa" d="M478.73,862.018,426.3,865.972a8.561,8.561,0,0,1-9.451-8.493v-3.449a9.678,9.678,0,0,1,9.451-9.464l52.425-1.429C476.265,849.991,475.714,856.411,478.73,862.018Z" transform="translate(-415.361 -842.18)"/><path class="v" d="M474.859,860.2,419.3,864.531c-4.537.354-8.3-4.765-8.3-11.416v-.073c0-6.652,3.76-12.157,8.3-12.27l55.556-1.381c.335-.008.6.435.6.989s-.27,1.012-.6,1.023L419.3,843.068c-3.65.11-6.664,4.546-6.664,9.889v.073c0,5.343,3.014,9.47,6.664,9.2l55.556-4.048c.335-.024.6.405.6.96S475.193,860.172,474.859,860.2Z" transform="translate(-411.006 -839.391)"/></g></g><path class="ab" d="M371.256,871.436,363.6,870.1c-1.788-4.879-1.653-9.362,0-14.719l7.656.544A28.152,28.152,0,0,0,371.256,871.436Z" transform="translate(-340.396 -849.558)"/></g><g transform="translate(358.078 393.112)"><path class="ac" d="M793.376,956.351l-83.634,5.976.432,6.04,83.634-5.977A7.148,7.148,0,0,0,793.376,956.351Z" transform="translate(-690.862 -956.351)"/><path class="ad" d="M794.645,965.942a6.859,6.859,0,0,0-.154-2.272l-84.214,6.018.162,2.272Z" transform="translate(-691.261 -961.801)"/><path class="ae" d="M654.679,979.758a5.649,5.649,0,0,1,.432,6.04l-19.133-1.471a.2.2,0,0,1-.028-.393Z" transform="translate(-635.799 -973.782)"/><path class="af" d="M635.977,991.771l7.438.572a5.291,5.291,0,0,0-.182-2.589l-7.284,1.624A.2.2,0,0,0,635.977,991.771Z" transform="translate(-635.799 -981.225)"/></g><path class="ag" d="M870.729,367.823v-.092a2.333,2.333,0,0,1,2.342-2.368l.878-.044,4.208,1.628v1.312Z" transform="translate(-452.666 -123.114)"/><path class="ah" d="M897.759,403.245l-9.366-7.2-9.462,6.763V380.08a5.973,5.973,0,0,0-2.231-4.617l-.073-.059,17.858.68a3.434,3.434,0,0,1,3.275,3.41Z" transform="translate(-457.058 -130.624)"/><path class="ai" d="M904.472,394.788l-9.366-7.623-9.462,7.158V370.269a6.467,6.467,0,0,0-2.231-4.888l-.073-.063,17.858.72a3.549,3.549,0,0,1,3.275,3.609Z" transform="translate(-462.057 -123.114)"/><g transform="translate(403.995 327.721)"><path class="aj" d="M862.05,704.793l-.148,50.13a5.1,5.1,0,0,1-4.486,4.949l-36.648,3.752a4.444,4.444,0,0,1-5.133-4.307V705.357a5,5,0,0,1,4.65-4.821c.166-.016.335-.021.5-.022l36.785-.175A4.426,4.426,0,0,1,862.05,704.793Z" transform="translate(-815.635 -700.315)"/><path class="ak" d="M873.092,704.688l-.154,49.974a4.976,4.976,0,0,1-4.354,4.921l-36.4,3.726a4.511,4.511,0,0,1-5.212-4.283l.007-53.778a5.024,5.024,0,0,1,4.676-4.805c.165-.016.39-.022.558-.022l36.534-.174A4.318,4.318,0,0,1,873.092,704.688Z" transform="translate(-824.079 -700.247)"/><g class="al" transform="translate(2.901 0)"><path class="y" d="M873.109,704.617l-.039,12.56L827,718.691l0-13.518a4.973,4.973,0,0,1,4.493-4.745,6.334,6.334,0,0,1,.741-.006l36.534-.174A4.259,4.259,0,0,1,873.109,704.617Z" transform="translate(-826.996 -700.247)"/><path class="y" d="M873.081,746.758l-.016,5.219c-4.47,1.414-12.7,2.557-22.136,2.921-4.169.161-8.2.155-11.842,0a77.772,77.772,0,0,1-12.092-1.308v-5.617c1.184-.291,2.271-.561,3.562-.816,2.805-.554,6.183-1.021,9.874-1.364,3.3-.308,6.876-.516,10.567-.6,4.75-.11,9.16,0,12.95.276.295.021.589.044.876.067.906.074,1.777.159,2.6.253.293.033.581.067.864.1.649.082,1.207.17,1.8.264C871.224,746.338,872.228,746.539,873.081,746.758Z" transform="translate(-826.995 -733.688)"/></g><path class="s" d="M880.031,727.584a1.41,1.41,0,0,1-1.36,1.394l-37.813,1.157a1.438,1.438,0,0,1-1.537-1.4l0-9.031a1.517,1.517,0,0,1,1.539-1.464l37.84-.46a1.33,1.33,0,0,1,1.353,1.337Z" transform="translate(-833.273 -713.307)"/><path class="am" d="M880.312,728.439a.891.891,0,0,1-.86.88l-37.628,1.108a.909.909,0,0,1-.97-.882l0-8.989a.958.958,0,0,1,.971-.924l37.652-.479a.842.842,0,0,1,.856.845Z" transform="translate(-834.414 -714.326)"/><g transform="translate(39.809 5.891)"><g transform="translate(0 1.013)"><g transform="translate(0.009)"><path class="an" d="M972.464,729.662a.4.4,0,0,1-.43.392h-.02a.384.384,0,0,1-.428-.375l0-1.742a.423.423,0,0,1,.43-.416h.02a.4.4,0,0,1,.428.4Z" transform="translate(-971.586 -727.461)"/><path class="ao" d="M986.15,729.428a.405.405,0,0,1-.425.4h-.02a.386.386,0,0,1-.423-.38l0-1.737a.425.425,0,0,1,.426-.419h.02a.4.4,0,0,1,.423.4Z" transform="translate(-981.785 -727.289)"/></g><g transform="translate(0 3.622)"><path class="ap" d="M972.427,744.639a.475.475,0,0,1-.43.474h-.02a.447.447,0,0,1-.428-.452l0-1.792a.471.471,0,0,1,.43-.47H972a.445.445,0,0,1,.428.45Z" transform="translate(-971.549 -742.163)"/><path class="aq" d="M986.109,743.88c0,.233-.191.307-.425.492h-.02a.463.463,0,0,1-.423-.47l0-1.872c0-.233.191-.552.426-.556h.02c.234,0,.423.3.423.537Z" transform="translate(-981.745 -741.474)"/></g></g><g transform="translate(0.879)"><path class="ar" d="M978.177,737.978a.443.443,0,0,1-.432.433l-1.677.039c-.236.005-.339-.181-.339-.415v-.02c0-.234.1-.427.338-.432l1.726-.037a.38.38,0,0,1,.384.413Z" transform="translate(-975.54 -733.913)"/><path class="as" d="M978.177,723.755a.435.435,0,0,1-.427.43l-1.68.028c-.236,0-.341-.183-.341-.417v-.02c0-.234.107-.426.343-.43l1.724-.026a.381.381,0,0,1,.382.415Z" transform="translate(-975.54 -723.32)"/><path class="at" d="M977.627,752.871a.45.45,0,0,1-.437.436l-1.769.049a.415.415,0,0,1-.431-.412v-.019a.438.438,0,0,1,.428-.434l1.775-.048a.417.417,0,0,1,.434.41Z" transform="translate(-974.99 -745.006)"/></g></g><path class="au" d="M853.733,758.268a10.221,10.221,0,0,1-.766,2.482c-.131.284-.28.581-.443.884l-20.338,2.082a4.511,4.511,0,0,1-5.212-4.283l.007-53.854a5.013,5.013,0,0,1,4.493-4.786c.061.017.151.036.212.055a12.382,12.382,0,0,1,7.192,5.045,11.675,11.675,0,0,1,1.559,6.87,19.669,19.669,0,0,1-.266,2.391q-.127.736-.255,1.5-.161.957-.316,1.954c-.164,1.062-.315,2.153-.437,3.254-.116,1.056-.2,2.122-.249,3.186-.008.205-.015.411-.02.617-.017.665-.015,1.327.009,1.983q.024.674.081,1.338a16.754,16.754,0,0,0,1.976,6.909,13.511,13.511,0,0,0,3.621,3.82c.369.287.743.568,1.115.848a29.85,29.85,0,0,1,3.566,3.076l.079.083a17.189,17.189,0,0,1,1.462,1.746,12.809,12.809,0,0,1,1.269,2.173c.135.291.26.589.376.89.2.516.371,1.047.521,1.589.067.243.133.49.2.739a.177.177,0,0,1,.007.029,25.6,25.6,0,0,1,.606,3.079A14.251,14.251,0,0,1,853.733,758.268Z" transform="translate(-824.079 -700.653)"/><g transform="translate(6.033 22.868)"><g class="av" transform="translate(0 0.015)"><g transform="translate(0.01)"><path class="aw" d="M848.176,798.482a1.048,1.048,0,0,1-1.012,1.008l-6.824.336a.948.948,0,0,1-1.036-.92v-2.449a1.06,1.06,0,0,1,1.037-1.015l6.826-.29a.936.936,0,0,1,1.011.915Z" transform="translate(-839.304 -793.802)"/><path class="ax" d="M892.263,796.584a1.02,1.02,0,0,1-.978.989l-6.588.325a.921.921,0,0,1-1-.9l0-2.406a1.032,1.032,0,0,1,1-1l6.59-.28a.91.91,0,0,1,.975.9Z" transform="translate(-872.363 -792.431)"/><path class="ay" d="M933.417,794.812a1,1,0,0,1-.947.972l-6.372.314a.9.9,0,0,1-.965-.891l0-2.366a1.006,1.006,0,0,1,.969-.98l6.374-.271a.887.887,0,0,1,.943.886Z" transform="translate(-903.218 -791.15)"/><path class="az" d="M974.6,793.037a.971.971,0,0,1-.916.955l-6.159.3a.873.873,0,0,1-.932-.876l.006-2.326a.982.982,0,0,1,.937-.963l6.161-.262a.864.864,0,0,1,.911.872Z" transform="translate(-934.092 -789.869)"/></g><g transform="translate(0.008 7.385)"><path class="ba" d="M848.161,828.9a1.063,1.063,0,0,1-1.012,1.019l-6.821.419a.934.934,0,0,1-1.035-.906v-2.447a1.075,1.075,0,0,1,1.036-1.027l6.822-.373a.922.922,0,0,1,1.01.9Z" transform="translate(-839.293 -823.851)"/><path class="bb" d="M892.227,826.478a1.035,1.035,0,0,1-.977,1l-6.585.4a.907.907,0,0,1-1-.892l0-2.4a1.047,1.047,0,0,1,1-1.008l6.587-.36a.9.9,0,0,1,.975.887Z" transform="translate(-872.336 -822.088)"/><path class="bc" d="M933.362,824.214a1.01,1.01,0,0,1-.946.983l-6.369.391a.884.884,0,0,1-.965-.878l0-2.364a1.021,1.021,0,0,1,.969-.991l6.371-.348a.873.873,0,0,1,.942.874Z" transform="translate(-903.177 -820.441)"/><path class="bd" d="M974.526,821.949a.986.986,0,0,1-.916.966l-6.156.378a.86.86,0,0,1-.932-.864l.006-2.324a1,1,0,0,1,.937-.973l6.158-.337a.851.851,0,0,1,.91.86Z" transform="translate(-934.037 -818.794)"/></g><g transform="translate(0.005 14.592)"><path class="be" d="M848.146,858.584a1.077,1.077,0,0,1-1.011,1.03l-6.817.5a.92.92,0,0,1-1.035-.893v-2.444a1.09,1.09,0,0,1,1.036-1.038l6.819-.454a.909.909,0,0,1,1.01.889Z" transform="translate(-839.283 -853.172)"/><path class="bf" d="M892.192,855.648a1.05,1.05,0,0,1-.977,1.011l-6.582.483a.9.9,0,0,1-1-.879l0-2.4a1.061,1.061,0,0,1,1-1.019l6.584-.438a.883.883,0,0,1,.974.875Z" transform="translate(-872.31 -851.027)"/><path class="bg" d="M933.308,852.906a1.024,1.024,0,0,1-.946.993l-6.366.467a.871.871,0,0,1-.965-.866l0-2.362a1.035,1.035,0,0,1,.968-1l6.368-.424a.861.861,0,0,1,.942.862Z" transform="translate(-903.137 -849.024)"/><path class="bh" d="M974.453,850.161a1,1,0,0,1-.915.976l-6.154.451a.848.848,0,0,1-.932-.852l.006-2.322a1.01,1.01,0,0,1,.936-.983l6.155-.409a.839.839,0,0,1,.91.848Z" transform="translate(-933.983 -847.019)"/></g><path class="bi" d="M848.132,887.531a1.092,1.092,0,0,1-1.011,1.041l-6.814.579a.908.908,0,0,1-1.034-.88v-2.442a1.1,1.1,0,0,1,1.035-1.049l6.816-.532a.9.9,0,0,1,1.009.877Z" transform="translate(-839.27 -860.147)"/><path class="bj" d="M892.158,884.1a1.064,1.064,0,0,1-.977,1.021l-6.579.559a.882.882,0,0,1-1-.867l0-2.4a1.076,1.076,0,0,1,1-1.03l6.581-.514a.871.871,0,0,1,.974.863Z" transform="translate(-872.283 -857.629)"/><path class="bk" d="M933.254,880.888a1.038,1.038,0,0,1-.945,1l-6.364.54a.859.859,0,0,1-.964-.853l0-2.36a1.049,1.049,0,0,1,.968-1.011l6.365-.5a.849.849,0,0,1,.941.85Z" transform="translate(-903.095 -855.279)"/><path class="bl" d="M848.118,918.566a1.109,1.109,0,0,1-1.01,1.052l-6.811.663a.894.894,0,0,1-1.034-.867v-2.44a1.122,1.122,0,0,1,1.035-1.061l6.812-.617a.882.882,0,0,1,1.008.863Z" transform="translate(-839.263 -883.268)"/><path class="bm" d="M892.12,914.6a1.08,1.08,0,0,1-.976,1.032l-6.576.64a.869.869,0,0,1-1-.853l0-2.4a1.092,1.092,0,0,1,1-1.041l6.578-.6a.858.858,0,0,1,.974.85Z" transform="translate(-872.258 -880.353)"/><path class="bn" d="M933.2,910.889a1.054,1.054,0,0,1-.945,1.014l-6.361.619a.846.846,0,0,1-.964-.841l0-2.357a1.065,1.065,0,0,1,.967-1.022l6.362-.576a.836.836,0,0,1,.941.837Z" transform="translate(-903.056 -877.63)"/><path class="bo" d="M973.4,874.562l-6.153.481a1.137,1.137,0,0,0-.9,1.131l0,1.307,0,1.091-.012,4.926,0,1.449,0,.947a.863.863,0,0,0,.9.913l6.149-.6a1.143,1.143,0,0,0,.946-1.08l0-.934,0-1.43.014-4.862,0-1.077,0-1.29A.963.963,0,0,0,973.4,874.562Z" transform="translate(-933.874 -852.936)"/></g><g transform="translate(0.39)"><g transform="translate(0.012)"><path class="bp" d="M849.7,798.417a1.046,1.046,0,0,1-1.011,1.007l-6.815.336a.947.947,0,0,1-1.035-.919v-2.448a1.059,1.059,0,0,1,1.036-1.015l6.817-.29A.935.935,0,0,1,849.7,796Z" transform="translate(-840.835 -793.74)"/><path class="bq" d="M892.263,796.584a1.02,1.02,0,0,1-.978.989l-6.588.325a.921.921,0,0,1-1-.9l0-2.406a1.032,1.032,0,0,1,1-1l6.59-.28a.91.91,0,0,1,.975.9Z" transform="translate(-872.754 -792.416)"/><path class="br" d="M934.836,794.751a1,1,0,0,1-.946.972l-6.365.314a.9.9,0,0,1-.964-.89l0-2.365a1,1,0,0,1,.968-.979l6.366-.27a.886.886,0,0,1,.942.885Z" transform="translate(-904.674 -791.092)"/><path class="bs" d="M975.971,792.979a.971.971,0,0,1-.915.955l-6.152.3a.872.872,0,0,1-.931-.876l.006-2.325a.98.98,0,0,1,.936-.962l6.154-.261a.863.863,0,0,1,.91.871Z" transform="translate(-935.511 -789.812)"/></g><g transform="translate(0.009 7.381)"><path class="bt" d="M849.681,828.818a1.061,1.061,0,0,1-1.01,1.018l-6.812.418a.932.932,0,0,1-1.034-.906V826.9a1.074,1.074,0,0,1,1.035-1.026l6.814-.373a.921.921,0,0,1,1.009.9Z" transform="translate(-840.824 -823.771)"/><path class="bu" d="M892.227,826.478a1.035,1.035,0,0,1-.977,1l-6.585.4a.907.907,0,0,1-1-.892l0-2.4a1.047,1.047,0,0,1,1-1.008l6.587-.36a.9.9,0,0,1,.975.887Z" transform="translate(-872.727 -822.069)"/><path class="bv" d="M934.78,824.136a1.009,1.009,0,0,1-.945.982l-6.362.391a.883.883,0,0,1-.964-.877l0-2.363a1.02,1.02,0,0,1,.967-.99l6.363-.348a.873.873,0,0,1,.941.873Z" transform="translate(-904.631 -820.366)"/><path class="bw" d="M975.9,821.874a.984.984,0,0,1-.914.965l-6.15.378a.859.859,0,0,1-.931-.864l.006-2.323a1,1,0,0,1,.936-.972l6.151-.336a.85.85,0,0,1,.909.859Z" transform="translate(-935.455 -818.721)"/></g><g transform="translate(0.006 14.584)"><path class="bx" d="M849.665,858.483a1.077,1.077,0,0,1-1.01,1.029l-6.809.5a.919.919,0,0,1-1.034-.893v-2.443a1.089,1.089,0,0,1,1.035-1.038l6.811-.453a.907.907,0,0,1,1.008.889Z" transform="translate(-840.813 -853.075)"/><path class="by" d="M892.192,855.648a1.05,1.05,0,0,1-.977,1.011l-6.582.483a.9.9,0,0,1-1-.879l0-2.4a1.061,1.061,0,0,1,1-1.019l6.584-.438a.883.883,0,0,1,.974.875Z" transform="translate(-872.701 -851.004)"/><path class="bz" d="M934.725,852.811a1.023,1.023,0,0,1-.945.992l-6.359.466a.87.87,0,0,1-.964-.865l0-2.36a1.034,1.034,0,0,1,.967-1l6.36-.423a.86.86,0,0,1,.941.861Z" transform="translate(-904.59 -848.932)"/><path class="ca" d="M975.823,850.07a1,1,0,0,1-.914.975l-6.147.451a.847.847,0,0,1-.931-.852l.006-2.321a1.008,1.008,0,0,1,.935-.983l6.149-.409a.838.838,0,0,1,.909.848Z" transform="translate(-935.4 -846.93)"/></g><path class="cb" d="M849.65,887.413a1.092,1.092,0,0,1-1.01,1.04l-6.806.578a.907.907,0,0,1-1.033-.88v-2.44a1.1,1.1,0,0,1,1.034-1.049l6.808-.532a.9.9,0,0,1,1.008.876Z" transform="translate(-840.799 -860.045)"/><path class="cc" d="M892.158,884.1a1.064,1.064,0,0,1-.977,1.021l-6.579.559a.882.882,0,0,1-1-.867l0-2.4a1.076,1.076,0,0,1,1-1.03l6.581-.514a.871.871,0,0,1,.974.863Z" transform="translate(-872.672 -857.615)"/><path class="cd" d="M934.672,880.777a1.038,1.038,0,0,1-.945,1l-6.356.54a.858.858,0,0,1-.963-.853l0-2.358a1.048,1.048,0,0,1,.966-1.011l6.358-.5a.848.848,0,0,1,.94.849Z" transform="translate(-904.547 -855.183)"/><path class="ce" d="M849.634,918.43a1.107,1.107,0,0,1-1.009,1.051l-6.8.662a.893.893,0,0,1-1.033-.866v-2.438a1.121,1.121,0,0,1,1.034-1.061l6.8-.616a.882.882,0,0,1,1.008.863Z" transform="translate(-840.79 -883.153)"/><path class="cf" d="M892.12,914.6a1.08,1.08,0,0,1-.976,1.032l-6.576.64a.869.869,0,0,1-1-.853l0-2.4a1.092,1.092,0,0,1,1-1.041l6.578-.6a.858.858,0,0,1,.974.85Z" transform="translate(-872.648 -880.338)"/><path class="cg" d="M934.615,910.761a1.053,1.053,0,0,1-.944,1.013l-6.353.618a.845.845,0,0,1-.963-.84l0-2.356a1.064,1.064,0,0,1,.966-1.022l6.355-.575a.835.835,0,0,1,.94.837Z" transform="translate(-904.508 -877.522)"/><path class="ch" d="M974.779,874.453l-6.146.48a1.148,1.148,0,0,0-.916,1.131l0,1.306,0,1.091-.012,4.923,0,1.448,0,.946a.871.871,0,0,0,.91.911l6.142-.6a1.129,1.129,0,0,0,.932-1.077l0-.934,0-1.43.014-4.859,0-1.076,0-1.289A.953.953,0,0,0,974.779,874.453Z" transform="translate(-935.291 -852.84)"/></g></g></g><g transform="translate(328.709 269.623)"><path class="ci" d="M626.576,541v26.5c0,2.849-1.772,5.487-4.787,7.642a21.261,21.261,0,0,1-2.377,1.463c-4.693,2.5-11.3,4.06-18.624,4.06s-13.931-1.557-18.624-4.06c-4.44-2.364-7.164-5.571-7.164-9.105V541Z" transform="translate(-561.154 -523.562)"/><path class="cj" d="M621.789,612.5a21.261,21.261,0,0,1-2.377,1.463c-4.693,2.5-11.3,4.06-18.624,4.06s-13.931-1.558-18.624-4.06c-4.44-2.364-7.164-5.571-7.164-9.105V591.17c3.587,1.6,8.748,4.729,9.7,9.787,1.486,7.915,12.363,10.6,23.179,8.809A22,22,0,0,1,621.789,612.5Z" transform="translate(-561.154 -560.922)"/><path class="ck" d="M599.862,495.281l-38.684-19.1-38.684,19.1H521v.645h0l40.214,19.87,40.214-19.87h0v-.645Z" transform="translate(-520.942 -475.29)"/><path class="cl" d="M561.008,472.7l-40.235,19.87,40.235,19.87,40.235-19.87Z" transform="translate(-520.773 -472.702)"/><g transform="translate(39.701 18.715)"><path class="cm" d="M716.793,574.743a.515.515,0,0,1-.511-.534V548.162a1.091,1.091,0,0,0-1.016-1.141H676.8a.511.511,0,1,1,0-1.021h38.468a2.078,2.078,0,0,1,2.038,2.162v26.047A.515.515,0,0,1,716.793,574.743Z" transform="translate(-676.263 -546)"/></g><path class="cn" d="M832.631,636.249l-.455-.809a.962.962,0,0,0-1.689.027l-.383.842a1.377,1.377,0,0,0-.1.659v7.086c0,.152.593.275,1.4.275s1.4-.123,1.4-.275v-7.106A1.412,1.412,0,0,0,832.631,636.249Z" transform="translate(-751.046 -593.525)"/></g></g></svg>