<svg xmlns="http://www.w3.org/2000/svg" xmlns:xlink="http://www.w3.org/1999/xlink" width="275.966" height="185.351" viewBox="0 0 275.966 185.351"><defs><style>.a{fill:url(#a);}.b{clip-path:url(#c);}.c{fill:url(#n);}.d{fill:url(#o);}.e{fill:url(#p);}.f{fill:url(#q);}.g{fill:url(#r);}.h{fill:#fff;}.i{fill:url(#t);}.j{fill:url(#u);}.k{fill:#fcd118;}.l{fill:url(#v);}.m{fill:url(#w);}.n{fill:url(#x);}.o{fill:url(#y);}.p{fill:url(#ab);}.q{fill:url(#ac);}.r{fill:#808285;}.s{fill:url(#ad);}.t{fill:url(#ae);}.u{fill:url(#af);}.v{fill:url(#ag);}.w{fill:#ffd633;}.x{fill:#fc0;}.y{fill:#ffe066;}</style><linearGradient id="a" y1="0.5" x2="1" y2="0.5" gradientUnits="objectBoundingBox"><stop offset="0" stop-color="#582d7f"/><stop offset="0.212" stop-color="#4a5094"/><stop offset="0.754" stop-color="#29a6c7"/><stop offset="1" stop-color="#1dc9dc"/></linearGradient><clipPath id="c"><path class="a" d="M1157.739-964.336a59.287,59.287,0,0,0-19.3-10.312c-21.271-6.79-41.7,3.08-61.349,10.531a118.453,118.453,0,0,1-46.136,8.026c-16.362-.593-29.667-6.023-44.4-12.674-31.635-14.281-65.764,2.966-77.422,35.337-6.717,18.649-5.4,40.508,4.05,57.94,7.253,13.382,19.409,23.034,32.908,29.254,12.562,5.789,26.4,7.511,39.45,11.647,13.486,4.275,25.836,10.995,39.022,16.041,22.559,8.635,45.585,5.373,62.994-12.229,8.767-8.864,14.326-20.842,28.171-21.4,15.776-.638,36.711-.974,48.047-14.08C1188.809-895.206,1186.03-941.529,1157.739-964.336Z" transform="translate(-904.924 976.923)"/></clipPath><linearGradient id="n" x1="-12.61" y1="-10.488" x2="-2.394" y2="-1.925" xlink:href="#a"/><linearGradient id="o" x1="-1.767" y1="-2.015" x2="5.172" y2="5.684" xlink:href="#a"/><linearGradient id="p" x1="-4.13" y1="-3.381" x2="1.858" y2="1.638" xlink:href="#a"/><radialGradient id="q" cx="0.569" cy="0.553" r="0.808" gradientTransform="translate(0.017) scale(0.966 1)" gradientUnits="objectBoundingBox"><stop offset="0" stop-color="#e6e7e8"/><stop offset="1" stop-color="#fff"/></radialGradient><linearGradient id="r" y1="0.5" x2="1" y2="0.5" gradientUnits="objectBoundingBox"><stop offset="0" stop-color="#42e397"/><stop offset="1" stop-color="#3cb6b5"/></linearGradient><linearGradient id="t" x1="-0.566" y1="-0.638" x2="0.813" y2="0.834" xlink:href="#a"/><linearGradient id="u" x1="0.708" y1="1.322" x2="0.217" y2="0.441" gradientUnits="objectBoundingBox"><stop offset="0" stop-color="#9d9e9f"/><stop offset="1" stop-color="#d1d3d4"/></linearGradient><linearGradient id="v" x1="1.995" y1="1.535" x2="0.696" y2="0.738" xlink:href="#u"/><linearGradient id="w" x1="3.046" y1="0.5" x2="-0.047" y2="0.5" xlink:href="#r"/><linearGradient id="x" x1="1.686" y1="0.5" x2="-1.406" y2="0.5" xlink:href="#r"/><linearGradient id="y" x1="0.326" y1="0.5" x2="-2.766" y2="0.5" xlink:href="#r"/><linearGradient id="ab" x1="0.995" y1="0.5" x2="-0.069" y2="0.5" gradientTransform="matrix(1, 0, 0, 1, 0, 0)" xlink:href="#q"/><linearGradient id="ac" x1="0.725" y1="0.5" x2="0.031" y2="0.5" xlink:href="#r"/><linearGradient id="ad" x1="0" y1="0.5" x2="1" y2="0.5" xlink:href="#u"/><linearGradient id="ae" x1="-0.519" y1="0.5" x2="0.706" y2="0.5" xlink:href="#u"/><linearGradient id="af" x1="1.93" y1="0.5" x2="0.077" y2="0.5" xlink:href="#u"/><linearGradient id="ag" x1="0.5" y1="4.118" x2="0.5" y2="0.271" gradientUnits="objectBoundingBox"><stop offset="0" stop-color="#ffde39"/><stop offset="0.094" stop-color="#fec63c"/><stop offset="0.286" stop-color="#fe9843"/><stop offset="0.415" stop-color="#fe7d4b"/><stop offset="0.652" stop-color="#fe4f59"/><stop offset="1" stop-color="#ed327f"/></linearGradient></defs><g transform="translate(-904.924 1004.2)"><g transform="translate(904.924 -981.816)"><path class="a" d="M1157.739-964.336a59.287,59.287,0,0,0-19.3-10.312c-21.271-6.79-41.7,3.08-61.349,10.531a118.453,118.453,0,0,1-46.136,8.026c-16.362-.593-29.667-6.023-44.4-12.674-31.635-14.281-65.764,2.966-77.422,35.337-6.717,18.649-5.4,40.508,4.05,57.94,7.253,13.382,19.409,23.034,32.908,29.254,12.562,5.789,26.4,7.511,39.45,11.647,13.486,4.275,25.836,10.995,39.022,16.041,22.559,8.635,45.585,5.373,62.994-12.229,8.767-8.864,14.326-20.842,28.171-21.4,15.776-.638,36.711-.974,48.047-14.08C1188.809-895.206,1186.03-941.529,1157.739-964.336Z" transform="translate(-904.924 976.923)"/><g class="b"><path class="a" d="M1226.256-878.31a23.833,23.833,0,0,0-6.868,1.2,26.971,26.971,0,0,0-5.753,2.8,23.876,23.876,0,0,0-8.843,9.911,19.188,19.188,0,0,0-1.718,6.437c-.21,2.528.355,5.143-.529,7.588a3.1,3.1,0,0,1-2.294,2.121c-1.008.224-2.061.135-3.061.408a3.919,3.919,0,0,0-2.816,3.335c-.228,2.457,1.906,3.978,4.01,4.6a8.126,8.126,0,0,0,3.791.487,28.55,28.55,0,0,0,7.652-3.961c6.258-4.261,9.478-9.376,12.354-14.053a71.794,71.794,0,0,0,8.562-20.654C1230.76-878.154,1226.536-878.32,1226.256-878.31Z" transform="translate(-956.842 959.233)"/><path class="a" d="M950.69-968.862a20.607,20.607,0,0,0,.105,3.332,28.8,28.8,0,0,0,.379,3.726,9.007,9.007,0,0,0,2.525,5.326,8.072,8.072,0,0,0,5.323,1.579c6.151-.048,12.486-3.194,17.07-7.143a43.342,43.342,0,0,0,8.177-9.632,53.582,53.582,0,0,0-10.73-1.443A54.966,54.966,0,0,0,950.69-968.862Z" transform="translate(-913.123 976.245)"/><path class="a" d="M1220.945-950.361a40.192,40.192,0,0,0-4.217,2.913c-1.774,1.429-3.854,3.241-3.245,5.781.441,1.837,2,3.011,3.1,4.441a8.7,8.7,0,0,1,1.8,5.067c.093,4.306-3.462,7.24-6.459,9.769-5,4.226-7.685,10.162-3.242,15.987,2.633,3.451,6.742,5.054,10.913,5.782a61.838,61.838,0,0,0,9.483.665c2.125-4.769,3.54-9.625,5.65-14.4a61.957,61.957,0,0,0-5.669-23.077A61.366,61.366,0,0,0,1220.945-950.361Z" transform="translate(-959.008 972.158)"/><path class="a" d="M976.856-813.6c-.179-.721-.332-1.45-.487-2.178-.047-.218-.1-.436-.149-.652a15.394,15.394,0,0,0-2.476-5.516,6.83,6.83,0,0,0-4.12-2.973,4.617,4.617,0,0,0-2.481.3c-2,.805-3.353,3.169-5.776,2.734-2.13-.383-3.478-2.637-4.545-4.308-1.235-1.934-2.454-3.972-4.564-5.061-2.687-1.386-5.857-1.057-8.654-.206-1.841.56-5.922,2.48-3.017,4.632a71.909,71.909,0,0,0,18.219,9.179,117.843,117.843,0,0,0,18.424,5.133C977.028-812.545,976.893-813.447,976.856-813.6Z" transform="translate(-911.139 950.96)"/><path class="a" d="M933.517-848.3q-.143-.224-.288-.446c-.053-.082-.107-.164-.161-.245-3.447-5.247-9.253-8.657-15.316-9.981-.94-.206-1.9-.366-2.85-.5a19.142,19.142,0,0,1-3.042-.3A58.823,58.823,0,0,0,923.8-841.655a69.283,69.283,0,0,0,13.731,11.193q.5.3,1,.586c.549.319.908.556.908.556s-.193-3.9-.385-5.341C938.409-839.548,936.176-844.135,933.517-848.3Z" transform="translate(-906.168 955.906)"/><path class="a" d="M917.657-947.391c-3.718,4.405-6.425,12.233-6.425,12.234a6.674,6.674,0,0,1,1.762-.033,14.753,14.753,0,0,0,10.929-4.6c2.811-2.986,4.023-7.141,7.076-9.93,3.133-2.862,7.344-3.571,11.119-5.228a16.557,16.557,0,0,0,2.663-1.444c5.758-3.914,11.265-8.805,11.8-16.015a47.262,47.262,0,0,0-14.666,4.42A58.827,58.827,0,0,0,917.657-947.391Z" transform="translate(-906.055 976.112)"/><path class="a" d="M990.943-971.436a51.3,51.3,0,0,0-7.582-1.336c.725,5.61,2.75,9.367,8.371,11.6,5.331,2.118,11.851.248,16.111-3.662-2.592-1.228-5.023-2.4-7.151-3.271A67.535,67.535,0,0,0,990.943-971.436Z" transform="translate(-918.994 976.178)"/><path class="a" d="M1224.759-904.843c-.482,2.9-1.2,9.628,1.274,16.1a32,32,0,0,0,3.086,5.929,43.115,43.115,0,0,0,4.338,5.092,70.874,70.874,0,0,0,4.837-23.969,70.871,70.871,0,0,0-3.116-22.635A35.921,35.921,0,0,0,1224.759-904.843Z" transform="translate(-962.21 967.488)"/><path class="a" d="M1169.009-892.862c-1.328-1.131-2.95-1.855-4.189-3.111a5.572,5.572,0,0,1-1.763-3.932,11.353,11.353,0,0,1,1.164-3.737c1.673-4.25-1.836-6.681-4.989-8.762a14.453,14.453,0,0,1-3.6-3.025c-2.474-3.184-.793-6.872,1.4-9.673a41.932,41.932,0,0,0,3.65-4.826c1.566-2.736,1.965-6.808-1.271-8.522-2.639-1.4-6.265.208-8.525,1.718a30.9,30.9,0,0,0-6.6,6.523c-2.121,2.628-4.983,5.606-8.266,4.816l-11.251,59.978a52.424,52.424,0,0,0,31.12,5.057,26.96,26.96,0,0,0,13.136-5.431c3.432-2.8,4.564-8.083,4.769-12.313C1174.041-883.181,1173.091-889.389,1169.009-892.862Z" transform="translate(-944.361 970.117)"/><path class="a" d="M991.554-916.713a11.524,11.524,0,0,0-5.1,4.392c-2.64,4.508,1.034,7.961,1.063,12.473a8.384,8.384,0,0,1-3.309,6.394c-4.432,3.544-10.5,2.936-15.78,3.661-2.443.336-4.919.7-7.319,1.266a41.752,41.752,0,0,0-6.5,1.615c-2.066.856-4.2,2.425-4.652,4.738a4.65,4.65,0,0,0,2.07,4.677c1.98,1.431,4.468,2,6.785,2.628,2.437.664,4.97,1.8,6.365,4.017,1.5,2.382,1.187,5.467.854,8.122-.935,7.446,3.987,14.85,12.111,13.8a21.919,21.919,0,0,0,9.2-4L998.6-916.987C996.513-918.276,993.77-917.765,991.554-916.713Z" transform="translate(-912.988 966.309)"/></g></g><g transform="translate(907.533 -1004.2)"><circle class="c" cx="9.608" cy="9.608" r="9.608" transform="translate(200.229 150.98)"/><ellipse class="d" cx="12.719" cy="9.608" rx="12.719" ry="9.608" transform="translate(0 16.072) rotate(-22.024)"/><circle class="e" cx="16.393" cy="16.393" r="16.393" transform="translate(143.859)"/></g><g transform="translate(978.939 -967.49)"><path class="f" d="M995.118-853.438a2.4,2.4,0,0,0,2.4,2.4h103.948V-953.789H995.118Z" transform="translate(-995.118 958.448)"/><path class="g" d="M1099.339-959.466H997.244a2.126,2.126,0,0,0-2.126,2.126v2.532h106.348v-2.532A2.126,2.126,0,0,0,1099.339-959.466Z" transform="translate(-995.118 959.466)"/><g transform="translate(11.182 11.182)"><path class="h" d="M1008.744-839.812a2.4,2.4,0,0,0,2.4,2.4h101.546a2.4,2.4,0,0,0,2.4-2.4V-940.163H1008.744Z" transform="translate(-1008.744 944.822)"/><path class="g" d="M1112.966-945.84h-102.1a2.126,2.126,0,0,0-2.126,2.126v2.532h106.348v-2.532A2.126,2.126,0,0,0,1112.966-945.84Z" transform="translate(-1008.744 945.84)"/></g><g transform="translate(27.522 18.858)"><g transform="translate(9.277)"><rect class="i" width="89.451" height="31.432"/><path class="j" d="M1073.542-902.787h48.98l-24.49-21.062Z" transform="translate(-1045.984 934.219)"/><circle class="k" cx="3.452" cy="3.452" r="3.452" transform="translate(12.096 7.003) rotate(-29.629)"/><g transform="translate(48.129 6.861)"><path class="l" d="M1098.61-903.554h41.322v-9.363l-15.8-15.209Z" transform="translate(-1098.61 928.126)"/></g></g><g transform="translate(0 39.082)"><g transform="translate(9.277)"><rect class="m" width="24.048" height="26.65" rx="1.394"/><rect class="h" width="12.859" height="3.168" rx="0.538" transform="translate(2.772 3.168)"/><g transform="translate(2.772 10.119)"><rect class="h" width="12.386" height="1.266" rx="0.633" transform="translate(0 0)"/><rect class="h" width="4.132" height="1.266" rx="0.633" transform="translate(14.372)"/><g transform="translate(0 3.579)"><rect class="h" width="6.832" height="1.266" rx="0.633" transform="translate(0 0)"/><rect class="h" width="10.426" height="1.266" rx="0.633" transform="translate(8.078)"/></g><g transform="translate(0 7.159)"><rect class="h" width="2.519" height="1.266" rx="0.633" transform="translate(0 0)"/><rect class="h" width="9.613" height="1.266" rx="0.633" transform="translate(8.89)"/><rect class="h" width="4.132" height="1.266" rx="0.633" transform="translate(3.701)"/></g><g transform="translate(0 10.738)"><rect class="h" width="18.504" height="1.266" rx="0.633"/></g></g><g transform="translate(32.702)"><rect class="n" width="24.048" height="26.65" rx="1.394"/><rect class="h" width="12.859" height="3.168" rx="0.538" transform="translate(2.772 3.168)"/><g transform="translate(2.772 10.119)"><rect class="h" width="3.067" height="1.266" rx="0.633" transform="translate(0 0)"/><rect class="h" width="14.196" height="1.266" rx="0.633" transform="translate(4.308)"/><g transform="translate(0 3.579)"><rect class="h" width="12.423" height="1.266" rx="0.633" transform="translate(0 0)"/><rect class="h" width="4.835" height="1.266" rx="0.633" transform="translate(13.669)"/></g><g transform="translate(0 7.159)"><rect class="h" width="2.519" height="1.266" rx="0.633" transform="translate(0 0)"/><rect class="h" width="2.159" height="1.266" rx="0.633" transform="translate(16.345)"/><rect class="h" width="11.586" height="1.266" rx="0.633" transform="translate(3.701)"/></g><g transform="translate(0 10.738)"><rect class="h" width="7.322" height="1.266" rx="0.633"/></g><g transform="translate(9.318 10.738)"><rect class="h" width="9.186" height="1.266" rx="0.633"/></g></g></g><g transform="translate(65.404)"><rect class="o" width="24.048" height="26.65" rx="1.394"/><rect class="h" width="12.859" height="3.168" rx="0.538" transform="translate(2.772 3.168)"/><g transform="translate(2.772 10.119)"><rect class="h" width="3.067" height="1.266" rx="0.633" transform="translate(0 0)"/><rect class="h" width="14.196" height="1.266" rx="0.633" transform="translate(4.308)"/><g transform="translate(0 3.579)"><rect class="h" width="12.423" height="1.266" rx="0.633" transform="translate(0 0)"/><rect class="h" width="4.835" height="1.266" rx="0.633" transform="translate(13.669)"/></g><g transform="translate(0 7.159)"><rect class="h" width="2.519" height="1.266" rx="0.633" transform="translate(0 0)"/><rect class="h" width="2.159" height="1.266" rx="0.633" transform="translate(16.345)"/><rect class="h" width="11.586" height="1.266" rx="0.633" transform="translate(3.701)"/></g><g transform="translate(0 10.738)"><rect class="h" width="7.322" height="1.266" rx="0.633"/></g><g transform="translate(9.318 10.738)"><rect class="h" width="9.186" height="1.266" rx="0.633"/></g></g></g></g><g transform="translate(0 6.63)"><path class="g" d="M1033.754-880.662a.706.706,0,0,0-.98.2l-4,5.988a.7.7,0,0,0,0,.784l4,5.989a.707.707,0,0,0,.589.313.7.7,0,0,0,.391-.119.707.707,0,0,0,.2-.979l-3.738-5.6,3.738-5.6A.706.706,0,0,0,1033.754-880.662Z" transform="translate(-1028.656 880.781)"/><g transform="translate(102.593)"><path class="g" d="M1154.967-880.467a.705.705,0,0,0-.979-.2.706.706,0,0,0-.2.979l3.738,5.6-3.738,5.6a.706.706,0,0,0,.2.979.7.7,0,0,0,.391.119.7.7,0,0,0,.588-.313l4-5.989a.7.7,0,0,0,0-.784Z" transform="translate(-1153.674 880.781)"/></g></g></g><g transform="translate(9.277 72)"><path class="p" d="M1127.149-848.748h-84.928a2.262,2.262,0,0,0-2.262,2.262v1.714h89.452v-1.714A2.262,2.262,0,0,0,1127.149-848.748Z" transform="translate(-1039.96 848.748)"/><path class="q" d="M1039.96-828.9a2.147,2.147,0,0,0,2.147,2.147h85.158a2.146,2.146,0,0,0,2.147-2.147v-15H1039.96Z" transform="translate(-1039.96 847.879)"/></g></g></g><g transform="translate(974.063 -896.225)"><g transform="translate(0)"><path class="r" d="M992.057-866.273h4.93l-2.465-6.35Z" transform="translate(-989.693 872.623)"/><path class="h" d="M998.652-859.4c-.128-.269-.26-.536-.368-.813l-1.813-4.67H991.54l-1.813,4.67c-.107.277-.24.544-.368.813a2.119,2.119,0,0,0-.183.94c0,2.62,2.475,6.047,4.417,6.106,2.354.072,5.243-3.264,5.243-6.1a1.962,1.962,0,0,0-.062-.638A2.328,2.328,0,0,0,998.652-859.4Z" transform="translate(-989.176 871.235)"/></g><g transform="translate(0 67.524)"><rect class="s" width="9.659" height="1.223"/><rect class="t" width="9.659" height="1.223" transform="translate(0 2.301)"/><rect class="u" width="9.659" height="1.078" transform="translate(0 1.223)"/></g><path class="v" d="M989.176-786.044v3.131c0,1.386,1.52,2.51,3.395,2.51h2.94c1.875,0,3.328-1.123,3.328-2.51l0-3.131Z" transform="translate(-989.176 857.092)"/><g transform="translate(0 12.398)"><path class="w" d="M992.057-802.389h2.465v-55.127l-2.465,3.242Z" transform="translate(-989.693 857.515)"/><path class="x" d="M989.176-802.256h2.364V-854.14l-2.364-2.636Z" transform="translate(-989.176 857.383)"/><path class="k" d="M995.061-802.389h2.5v-51.867l-2.5-3.259Z" transform="translate(-990.232 857.515)"/><path class="y" d="M998.11-854.123v51.867h2.328v-54.52Z" transform="translate(-990.779 857.383)"/></g></g><g transform="translate(1069.558 -997.556)"><path class="k" d="M1156.682-961.118l-3.857-2.216a22.008,22.008,0,0,0-8.236-29.841,22.008,22.008,0,0,0-29.926,7.917l-3.857-2.216a.968.968,0,0,0-1.322.357l-3.81,6.631a.969.969,0,0,0,.358,1.322l3.653,2.1,2.978-5.168a.856.856,0,0,1,1.082-.374.832.832,0,0,1,.378,1.173l-3,5.2,3.093,1.777.989-1.717a.857.857,0,0,1,1.082-.374.832.832,0,0,1,.377,1.173l-1.006,1.746,3.09,1.775,2.971-5.154a.856.856,0,0,1,1.081-.374.831.831,0,0,1,.378,1.173l-2.987,5.183,3.092,1.778.981-1.7a.857.857,0,0,1,1.082-.374.832.832,0,0,1,.378,1.174l-1,1.731,3.09,1.775,2.962-5.139a.858.858,0,0,1,1.082-.374.831.831,0,0,1,.378,1.174l-2.979,5.169,3.093,1.777.973-1.688a.858.858,0,0,1,1.082-.374.833.833,0,0,1,.378,1.174l-.99,1.718,3.09,1.775,2.954-5.125a.856.856,0,0,1,1.082-.374.832.832,0,0,1,.378,1.173l-2.972,5.154,3.093,1.777.96-1.667a.858.858,0,0,1,1.082-.374.832.832,0,0,1,.378,1.173l-.977,1.7,3.09,1.775,2.963-5.142a.832.832,0,0,1,1.206-.262.857.857,0,0,1,.218,1.123L1147.4-955.4l4.512,2.592a.968.968,0,0,0,1.322-.357l3.809-6.631A.968.968,0,0,0,1156.682-961.118Zm-10.552-6.062-24.773-14.232a14.287,14.287,0,0,1,19.386-5.068A14.288,14.288,0,0,1,1146.13-967.18Z" transform="translate(-1105.545 996.103)"/><path class="h" d="M1158.887-954.175a.833.833,0,0,0-1.137.306l-2.963,5.142,1.442.829,2.963-5.14A.832.832,0,0,0,1158.887-954.175Z" transform="translate(-1114.378 988.602)"/><path class="h" d="M1151.379-953.15a.831.831,0,0,0-1.136.305l-.979,1.7,1.443.829.977-1.7A.831.831,0,0,0,1151.379-953.15Z" transform="translate(-1113.388 988.419)"/><path class="h" d="M1147.846-960.54a.833.833,0,0,0-1.136.305l-2.972,5.157,1.443.829,2.971-5.154A.832.832,0,0,0,1147.846-960.54Z" transform="translate(-1112.396 989.744)"/><path class="h" d="M1140.342-959.524a.832.832,0,0,0-1.136.305l-.991,1.719,1.442.829.99-1.718A.832.832,0,0,0,1140.342-959.524Z" transform="translate(-1111.406 989.562)"/><path class="h" d="M1136.8-966.905a.831.831,0,0,0-1.136.305l-2.98,5.171,1.443.829,2.979-5.169A.831.831,0,0,0,1136.8-966.905Z" transform="translate(-1110.414 990.886)"/><path class="h" d="M1129.3-965.889a.831.831,0,0,0-1.136.305l-1,1.734,1.443.828,1-1.732A.831.831,0,0,0,1129.3-965.889Z" transform="translate(-1109.424 990.704)"/><path class="h" d="M1125.763-973.27a.831.831,0,0,0-1.136.305l-2.989,5.185,1.443.828,2.987-5.183A.831.831,0,0,0,1125.763-973.27Z" transform="translate(-1108.432 992.028)"/><path class="h" d="M1118.259-972.255a.832.832,0,0,0-1.136.305l-1.008,1.749,1.443.829,1.006-1.746A.832.832,0,0,0,1118.259-972.255Z" transform="translate(-1107.442 991.845)"/><path class="h" d="M1114.723-979.636a.832.832,0,0,0-1.136.305l-3,5.2,1.442.829,3-5.2A.832.832,0,0,0,1114.723-979.636Z" transform="translate(-1106.45 993.169)"/></g><g transform="translate(954.5 -970.131)"><rect class="k" width="75.864" height="13.355" rx="0.739" transform="translate(0 75.864) rotate(-89.922)"/><g transform="translate(4.875 2.538)"><path class="h" d="M972.356-959.591a.949.949,0,0,0-.949.949.949.949,0,0,0,.948.949l7.529,0,0-1.9-7.53-.006Z" transform="translate(-971.3 959.591)"/><path class="h" d="M976.675-953.987a.949.949,0,0,0-.949.949.948.948,0,0,0,.948.949l3.978,0,0-1.9-3.978,0Z" transform="translate(-972.075 958.586)"/><path class="h" d="M976.667-948.389a.948.948,0,0,0-.949.949.948.948,0,0,0,.948.949l3.977,0,0-1.9-3.979,0Z" transform="translate(-972.074 957.582)"/><path class="h" d="M972.33-942.8a.948.948,0,0,0-.949.948.948.948,0,0,0,.948.95l7.529.006,0-1.9-7.53-.006Z" transform="translate(-971.296 956.578)"/><path class="h" d="M976.649-937.193a.949.949,0,0,0-.949.949.948.948,0,0,0,.949.949l3.977,0,0-1.9-3.979,0Z" transform="translate(-972.07 955.573)"/><path class="h" d="M976.641-931.595a.948.948,0,0,0-.949.948.949.949,0,0,0,.948.949l3.977,0,0-1.9-3.978,0Z" transform="translate(-972.069 954.569)"/><path class="h" d="M972.3-926a.948.948,0,0,0-.949.948.948.948,0,0,0,.948.949l7.529.006,0-1.9L972.3-926Z" transform="translate(-971.291 953.566)"/><path class="h" d="M976.623-920.4a.949.949,0,0,0-.949.948.949.949,0,0,0,.949.949l3.977,0,0-1.9-3.979,0Z" transform="translate(-972.066 952.561)"/><path class="h" d="M976.615-914.8a.948.948,0,0,0-.949.948.949.949,0,0,0,.948.949l3.978,0,0-1.9-3.978,0Z" transform="translate(-972.064 951.557)"/><path class="h" d="M972.278-909.209a.949.949,0,0,0-.949.948.949.949,0,0,0,.948.949l7.529.006,0-1.9-7.531-.006Z" transform="translate(-971.286 950.553)"/><path class="h" d="M976.6-903.6a.948.948,0,0,0-.949.948.949.949,0,0,0,.948.949l3.977,0,0-1.9-3.979,0Z" transform="translate(-972.061 949.548)"/><path class="h" d="M976.589-898.007a.948.948,0,0,0-.949.948.949.949,0,0,0,.948.949l3.978,0,0-1.9-3.978,0Z" transform="translate(-972.06 948.544)"/><path class="h" d="M972.252-892.415a.949.949,0,0,0-.949.948.95.95,0,0,0,.948.949l7.529.006,0-1.9-7.531-.006Z" transform="translate(-971.282 947.541)"/><path class="h" d="M976.572-886.811a.948.948,0,0,0-.949.948.949.949,0,0,0,.948.949l3.978,0,0-1.9-3.978,0Z" transform="translate(-972.057 946.536)"/><path class="h" d="M976.563-881.214a.95.95,0,0,0-.949.949.95.95,0,0,0,.949.949l3.977,0,0-1.9-3.979,0Z" transform="translate(-972.055 945.532)"/><path class="h" d="M972.226-875.621a.949.949,0,0,0-.949.948.95.95,0,0,0,.949.949l7.528.006,0-1.9-7.531,0Z" transform="translate(-971.277 944.528)"/></g></g></g></svg>