<svg xmlns="http://www.w3.org/2000/svg" xmlns:xlink="http://www.w3.org/1999/xlink" width="236" height="197.319" viewBox="0 0 236 197.319"><defs><style>.a{fill:url(#a);}.b{fill:url(#b);}.c{fill:url(#c);}.d{fill:url(#d);}.e{fill:url(#e);}.f{fill:url(#f);}.g{fill:url(#g);}.h{fill:url(#h);}.i{fill:url(#i);}.j{fill:url(#j);}.k{fill:url(#k);}.l{fill:url(#l);}.m{fill:#a97c50;}.n{fill:#c49a6c;}.o{fill:#8b5e3c;}.p{fill:url(#m);}.q{fill:url(#n);}.r{fill:url(#o);}.s{fill:url(#p);}.t{fill:url(#q);}.u{fill:url(#r);}.v{fill:url(#s);}.w{fill:#fff;}.x{fill:#c5dcf2;}.y{fill:#a3c7ea;}.z{fill:#e58b25;}.aa{fill:#ffcb47;}.ab{fill:#f9b721;}.ac{fill:url(#t);}.ad{fill:#fcd118;}.ae{fill:#c8d9e8;}.af{fill:#a7a9ac;}.ag{fill:#d1d3d4;}.ah{fill:url(#u);}.ai{fill:url(#v);}.aj{fill:#e6e7e8;}.ak{fill:url(#w);}.al{fill:url(#x);}.am{fill:url(#y);}.an{fill:url(#z);}.ao{fill:#808285;}.ap{fill:#6d6e71;}.aq{fill:url(#aa);}.ar{fill:url(#ab);}.as{fill:url(#ac);}.at{fill:url(#ad);}.au{fill:url(#ae);}.av{fill:url(#af);}.aw{fill:url(#ag);}.ax{fill:#2b3990;}.ay{fill:#58595b;}</style><linearGradient id="a" x1="0.88" y1="-0.286" x2="0.325" y2="0.968" gradientUnits="objectBoundingBox"><stop offset="0" stop-color="#582d7f"/><stop offset="0.212" stop-color="#4a5094"/><stop offset="0.754" stop-color="#29a6c7"/><stop offset="1" stop-color="#1dc9dc"/></linearGradient><linearGradient id="b" x1="0.844" y1="-0.909" x2="0.32" y2="1.129" xlink:href="#a"/><linearGradient id="c" x1="1.152" y1="-0.312" x2="0.425" y2="0.796" xlink:href="#a"/><linearGradient id="d" x1="0.63" y1="-0.082" x2="0.386" y2="0.561" xlink:href="#a"/><linearGradient id="e" x1="1.66" y1="-0.132" x2="0.373" y2="0.784" xlink:href="#a"/><linearGradient id="f" x1="1.127" y1="-0.064" x2="0.449" y2="0.897" xlink:href="#a"/><linearGradient id="g" x1="0.932" y1="-0.025" x2="0.254" y2="0.793" xlink:href="#a"/><linearGradient id="h" x1="0.823" y1="-0.328" x2="-0.024" y2="0.852" xlink:href="#a"/><linearGradient id="i" x1="1.127" y1="-0.392" x2="0.197" y2="0.893" xlink:href="#a"/><linearGradient id="j" x1="1.063" y1="-0.032" x2="0.198" y2="0.902" xlink:href="#a"/><linearGradient id="k" x1="0.874" y1="-0.6" x2="0.43" y2="0.773" xlink:href="#a"/><linearGradient id="l" x1="0.74" y1="-0.033" x2="0.271" y2="0.701" xlink:href="#a"/><linearGradient id="m" x1="4.295" y1="-6.152" x2="0.593" y2="0.337" xlink:href="#a"/><linearGradient id="n" x1="1.894" y1="-1.944" x2="-1.808" y2="4.545" xlink:href="#a"/><linearGradient id="o" x1="0.497" y1="0.997" x2="0.508" y2="-0.594" gradientUnits="objectBoundingBox"><stop offset="0" stop-color="#d1d3d4"/><stop offset="1" stop-color="#9d9e9f"/></linearGradient><linearGradient id="p" x1="0.167" y1="3.219" x2="0.357" y2="1.567" gradientUnits="objectBoundingBox"><stop offset="0" stop-color="#9d9e9f"/><stop offset="1" stop-color="#d1d3d4"/></linearGradient><linearGradient id="q" x1="0.5" y1="-0.419" x2="0.5" y2="2.014" xlink:href="#o"/><linearGradient id="r" x1="0.5" y1="-0.611" x2="0.5" y2="2.799" xlink:href="#o"/><linearGradient id="s" x1="0.5" y1="1.685" x2="0.5" y2="0.733" gradientUnits="objectBoundingBox"><stop offset="0" stop-color="#bbb"/><stop offset="0.045" stop-color="#ccc"/><stop offset="0.108" stop-color="#dcdddd"/><stop offset="0.187" stop-color="#e8e9e9"/><stop offset="0.297" stop-color="#eff0f0"/><stop offset="0.602" stop-color="#f1f2f2"/><stop offset="1" stop-color="#fff"/></linearGradient><linearGradient id="t" x1="1.643" y1="-0.449" x2="0.58" y2="0.489" gradientUnits="objectBoundingBox"><stop offset="0" stop-color="#ffde39"/><stop offset="0.327" stop-color="#fec63c"/><stop offset="1" stop-color="#fe9843"/></linearGradient><linearGradient id="u" x1="0.5" y1="-0.09" x2="0.5" y2="1.415" gradientUnits="objectBoundingBox"><stop offset="0" stop-color="#42e397"/><stop offset="1" stop-color="#3cb6b5"/></linearGradient><linearGradient id="v" x1="0.5" y1="1.316" x2="0.5" y2="-0.114" xlink:href="#u"/><linearGradient id="w" x1="0.5" y1="0.162" x2="0.5" y2="1.531" xlink:href="#t"/><linearGradient id="x" x1="0.5" y1="1.588" x2="0.5" y2="0.12" xlink:href="#t"/><linearGradient id="y" x1="0.828" y1="0.49" x2="-0.805" y2="0.89" xlink:href="#u"/><linearGradient id="z" x1="1.432" y1="0.5" x2="0.56" y2="0.5" xlink:href="#u"/><linearGradient id="aa" x1="15.294" y1="0.5" x2="14.28" y2="0.5" gradientUnits="objectBoundingBox"><stop offset="0" stop-color="#fcde8a"/><stop offset="1" stop-color="#f38381"/></linearGradient><linearGradient id="ab" x1="5.625" y1="0.19" x2="5.625" y2="1.182" xlink:href="#aa"/><linearGradient id="ac" x1="5.625" y1="0.477" x2="5.625" y2="1.667" xlink:href="#aa"/><linearGradient id="ad" x1="5.625" y1="-0.868" x2="5.625" y2="1.39" xlink:href="#aa"/><linearGradient id="ae" x1="0.239" y1="0.107" x2="0.74" y2="0.673" xlink:href="#u"/><linearGradient id="af" x1="0.5" y1="0.065" x2="0.5" y2="1.495" xlink:href="#u"/><linearGradient id="ag" x1="0.725" y1="0.861" x2="0.725" y2="-0.174" xlink:href="#a"/></defs><g transform="translate(-4789.639 -576.79)"><g transform="translate(4789.639 576.79)"><g transform="translate(8.803 0)"><path class="a" d="M5057.365,676.534a55.124,55.124,0,0,0-8.158-7.364c-7.049-5.25-14.2-11.049-14.717-20.527-.761-13.919,7.261-27.556.824-41.144-3.725-7.862-10.69-13.82-18.375-17.9-28.762-15.257-63.625-14.488-94.92-9.925-16.92,2.467-49.826,13.206-66.881,43.087-4.506,7.894-11.677,20.457-9.371,35.5,3.228,21.049,21.951,27.013,27.825,50.905,3.035,12.344,1.181,23.54-.92,31.18,90.8.021,155.937-.019,157.51-.019,2.01,0,1.544,3.629.351,5.266-.389.535-1.236,1.611-.859,2.343.274.533,1.067.533,1.579.533,9.258,0,16.065-8.425,21.167-15.1,6-7.854,11.369-16.517,13.469-26.3C5068.5,694.928,5064.753,684.781,5057.365,676.534Z" transform="translate(-4845.321 -576.79)"/></g><g transform="translate(8.803 0.17)"><path class="b" d="M5037.4,609.258a16.822,16.822,0,0,0,8.133,1.656c5.625-.572,10-4.492,14.888-6.9,5.854-2.888,12.672-2.986,18.965-4.378,5.593-1.237,11.127-3.453,15.266-7.414a19.065,19.065,0,0,0,5.451-9.5c-5.529.5-11,1.169-16.372,1.952a103.651,103.651,0,0,0-45.207,18.8A18.127,18.127,0,0,1,5037.4,609.258Z" transform="translate(-5007.033 -581.947)"/><path class="c" d="M5017.682,713.957q-2.562,1.921-5.039,4.078c1.3.566,2.6,1.174,3.914,1.719A18.154,18.154,0,0,0,5017.682,713.957Z" transform="translate(-4986.19 -692.442)"/><path class="d" d="M5618.559,588.63c2.161.535,4.431.325,6.644.567,6.844.75,12.475,5.715,16.792,11.077,5.839,7.251,10.19,14.2,17.968,18.863a8.983,8.983,0,0,1,0-1.756c.4-3.951,3.472-7,6.019-10.048a29.555,29.555,0,0,0,5.265-8.79,48.743,48.743,0,0,0-11.2-8.032c-15.662-8.309-33.136-11.864-50.855-12.642a19.712,19.712,0,0,0,1.653,4.3A12.556,12.556,0,0,0,5618.559,588.63Z" transform="translate(-5488.434 -577.868)"/><path class="e" d="M4873.6,817.933c.085.429.158.86.221,1.294a30.9,30.9,0,0,0,2.29-5.265c4.118-12.591-1.021-22.015-6.917-32.662-3.329-6.011-6.126-12.909-4.615-19.612,1.353-6,5.882-10.68,9.069-15.941a23.81,23.81,0,0,0,2.042-4.276c-1.312-.545-2.614-1.153-3.914-1.719a78.391,78.391,0,0,0-16.636,20.212c-4.506,7.894-11.677,20.456-9.371,35.5.14.905.309,1.781.5,2.633a32.763,32.763,0,0,1,15.118,3.877C4867.433,805.326,4872.241,811.154,4873.6,817.933Z" transform="translate(-4845.321 -714.159)"/><path class="f" d="M5930.1,727.479a9.022,9.022,0,0,0,0,1.756,33.832,33.832,0,0,0,4.05,2.075,41.119,41.119,0,0,0,16.709,3.3c.532-5.387.243-10.751-2.294-16.109a34.471,34.471,0,0,0-7.179-9.865,29.594,29.594,0,0,1-5.264,8.79C5933.568,720.476,5930.493,723.528,5930.1,727.479Z" transform="translate(-5758.566 -687.966)"/><path class="g" d="M5927.9,840.989a33.818,33.818,0,0,1-4.049-2.075c.486,5.2,5.057,9.906,4.614,15.237-.3,3.657-2.731,6.281-4.094,9.507-4.729,11.2.842,24.574,9.01,32.657,5.887,5.825,14.795,10.683,23.267,10.264a43.535,43.535,0,0,0,12.608-2.687,40.616,40.616,0,0,0-4.891-6.674,55.122,55.122,0,0,0-8.158-7.364c-7.049-5.25-14.2-11.049-14.717-20.527-.46-8.431,2.3-16.759,3.118-25.035A41.12,41.12,0,0,1,5927.9,840.989Z" transform="translate(-5752.321 -797.645)"/><path class="h" d="M6096.044,1577.446a55.058,55.058,0,0,0,7.9-8.519,26.68,26.68,0,0,0-7.639-1.677A40.209,40.209,0,0,0,6096.044,1577.446Z" transform="translate(-5898.144 -1410.837)"/><path class="i" d="M6104.059,1410.022a35.274,35.274,0,0,0-5.251,13.928,26.67,26.67,0,0,1,7.638,1.678c.443-.567.875-1.129,1.294-1.678,6-7.854,11.369-16.517,13.47-26.3q.065-.307.126-.612A32.336,32.336,0,0,0,6104.059,1410.022Z" transform="translate(-5900.644 -1267.538)"/><path class="j" d="M5004.174,1276.92c-3.542-5.7-8.185-10.634-12.95-15.363-2.992-2.97-6.147-6.03-7.543-10.008-1.017-2.9-1.006-6.035-1.449-9.08a32.886,32.886,0,0,1-8.138,9.7,52.409,52.409,0,0,1,7.912,17.439c3.034,12.344,1.18,23.54-.92,31.18l28.483,0a28.362,28.362,0,0,0,.485-4.9C5010.128,1289.186,5007.717,1282.622,5004.174,1276.92Z" transform="translate(-4953.736 -1137.401)"/><path class="k" d="M5956.031,1566.7c-9.23-.722-19.521,2.465-26.421,6.721-.129.08-.259.162-.389.244l13.506-.006c2.009,0,1.543,3.629.351,5.266-.39.535-1.237,1.611-.86,2.343.275.533,1.067.533,1.58.533,4.554,0,8.514-2.038,11.97-4.9A40.275,40.275,0,0,1,5956.031,1566.7Z" transform="translate(-5757.866 -1410.291)"/><path class="l" d="M4878.867,1129.944c-.062-.433-.134-.865-.221-1.294-1.355-6.778-6.164-12.606-12.208-15.958a32.764,32.764,0,0,0-15.118-3.877c2.972,13.063,12.149,20.188,19.41,30.833A32.875,32.875,0,0,0,4878.867,1129.944Z" transform="translate(-4850.37 -1024.877)"/></g><g transform="translate(30.267 163.552)"><path class="m" d="M5027.4,1694.4a29.762,29.762,0,0,0,3.141,1.655,2.049,2.049,0,0,1-.065-.508v-13.088a2.11,2.11,0,0,1,2.11-2.11h49.157a2.11,2.11,0,0,1,2.11,2.11v12.3q3.092-1.216,6.073-2.688c6.931-3.432,13.7-8.068,21.188-10.294a2.109,2.109,0,0,1,1.994-1.424h49.158a2.1,2.1,0,0,1,1.232.4,66.627,66.627,0,0,0,11.022-3.827h-157.39C5017.55,1684.312,5020.532,1690.217,5027.4,1694.4Z" transform="translate(-5011.429 -1666.549)"/><path class="m" d="M5136.984,1809.933a80.1,80.1,0,0,0,31.8-1.854h-40.236A54.168,54.168,0,0,0,5136.984,1809.933Z" transform="translate(-5105.235 -1776.974)"/><path class="n" d="M5105.817,1715.906h40.236a79.761,79.761,0,0,0,8.873-2.9v-12.3a2.11,2.11,0,0,0-2.11-2.11h-49.156a2.11,2.11,0,0,0-2.11,2.11V1713.8a2.124,2.124,0,0,0,.064.508Zm45.881-5.263a2.11,2.11,0,0,1-2.109,2.11h-42.7a2.11,2.11,0,0,1-2.11-2.11v-6.782a2.11,2.11,0,0,1,2.11-2.11h42.7a2.11,2.11,0,0,1,2.109,2.11Z" transform="translate(-5082.506 -1684.802)"/><path class="m" d="M5166.775,1718.544h-42.7a2.109,2.109,0,0,0-2.109,2.11v6.782a2.11,2.11,0,0,0,2.109,2.11h42.7a2.11,2.11,0,0,0,2.11-2.11v-6.782A2.11,2.11,0,0,0,5166.775,1718.544Zm-21.352,8.056a2.556,2.556,0,1,1,2.556-2.556A2.555,2.555,0,0,1,5145.423,1726.6Z" transform="translate(-5099.691 -1701.594)"/><path class="n" d="M5613.611,1698.6a2.11,2.11,0,0,0-1.994,1.425,31.105,31.105,0,0,1,5.81-1.169c9.813-.971,19.63,2.146,29.431,2.214A68.263,68.263,0,0,0,5664,1699a2.1,2.1,0,0,0-1.231-.4Z" transform="translate(-5511.936 -1684.802)"/><circle class="o" cx="2.556" cy="2.556" r="2.556" transform="matrix(0.189, -0.982, 0.982, 0.189, 42.739, 24.477)"/><path class="o" d="M4986.745,1620.691q-.018-.731-.008-1.481c.042-2.615.247-5.3.168-7.881h-.63a5.184,5.184,0,0,0-5.184,5.185h0a5.184,5.184,0,0,0,5.184,5.185h.16v-1.008Z" transform="translate(-4981.091 -1611.33)"/><path class="o" d="M6026.193,1649.906h1.419v1.008h.159a5.183,5.183,0,0,0,5.175-4.883q-1.557,1.034-3.15,1.953Q6028.026,1649,6026.193,1649.906Z" transform="translate(-5860.972 -1640.544)"/><path class="o" d="M5183.125,1616.514a5.184,5.184,0,0,0-5.184-5.185H5016.957c.078,2.579-.126,5.266-.168,7.881q-.012.75.007,1.481h159.567q1.83-.9,3.6-1.922,1.592-.918,3.151-1.953c.006-.1.009-.2.009-.3Z" transform="translate(-5011.141 -1611.33)"/><path class="o" d="M6014.822,1670.545q-1.058.523-2.134,1.008h3.555v-1.008Z" transform="translate(-5849.602 -1661.183)"/><path class="o" d="M5015.2,1670.545h-.311v1.008h.353Q5015.214,1671.053,5015.2,1670.545Z" transform="translate(-5009.546 -1661.183)"/><path class="o" d="M5174.292,1671.552q1.077-.484,2.135-1.008H5016.86q.012.509.042,1.008Z" transform="translate(-5011.205 -1661.183)"/></g><g transform="translate(0 50.725)"><circle class="p" cx="16.592" cy="16.592" r="16.592" transform="translate(0 69.394)"/><circle class="q" cx="16.592" cy="16.592" r="16.592" transform="translate(202.816)"/></g></g><g transform="translate(4865.5 630.941)"><g transform="translate(0 0)"><g transform="translate(0 70.549)"><g transform="translate(46.649 9.092)"><path class="r" d="M5564.577,1423.088c.013,7.377.041,23.286.041,23.286h26.287v-23.286Z" transform="translate(-5564.577 -1423.088)"/></g><path class="s" d="M5269.5,1365.576v2.533a7.308,7.308,0,0,0,7.308,7.309h105.01a7.308,7.308,0,0,0,7.309-7.309v-2.533Z" transform="translate(-5269.499 -1365.576)"/><g transform="translate(37.71 31.223)"><path class="t" d="M5549.138,1563.075h-38l-3.1,3.442h44.206Z" transform="translate(-5508.033 -1563.075)"/><rect class="u" width="44.206" height="4.186" transform="translate(0 3.442)"/></g></g><path class="v" d="M5381.816,919.319h-105.01a7.308,7.308,0,0,0-7.308,7.308v63.241h119.626V926.627A7.308,7.308,0,0,0,5381.816,919.319Z" transform="translate(-5269.499 -919.319)"/></g><g transform="translate(54.326 74.292)"><path class="w" d="M5622.945,1391.576H5614.3a1.163,1.163,0,0,1,0-2.326h8.649a1.163,1.163,0,1,1,0,2.326Z" transform="translate(-5613.133 -1389.25)"/></g><path class="x" d="M5329.544,1024.217a41.386,41.386,0,0,1,4.792,2.154,53.385,53.385,0,0,1,7.584.28,82.109,82.109,0,0,0,8.953.9c3.933-.005,7.786-1,11.618-1.888,11.947-2.764,24.284-4.515,36.472-3.17,2.022.223,4.042.54,6.044.949a35.975,35.975,0,0,1,5.446-3.091V990.778H5300.691v31.476C5309.893,1019.125,5320.359,1020.708,5329.544,1024.217Z" transform="translate(-5295.76 -979.481)"/><rect class="y" width="27.082" height="2.951" transform="translate(4.931 6.326)"/><g transform="translate(56.676 21.744)"><path class="z" d="M5651.542,1124.707l-7.575-8.015-15.967,17.1h19.366Z" transform="translate(-5628 -1107.233)"/><path class="aa" d="M5725.662,1083.418l21.159-26.559,10.908,26.559Z" transform="translate(-5710.223 -1056.859)"/><path class="z" d="M5880.087,1077.053l-20.587-20.195,10.908,26.559Z" transform="translate(-5822.902 -1056.859)"/></g><g transform="translate(4.931 40.866)"><path class="z" d="M5966,1182.271v-4.454a35.958,35.958,0,0,0-5.446,3.091C5962.384,1181.283,5964.2,1181.736,5966,1182.271Z" transform="translate(-5856.233 -1177.818)"/><path class="z" d="M5329.544,1182.9c-9.186-3.509-19.651-5.091-28.854-1.962v9.311h12.2a54.446,54.446,0,0,1,21.445-5.2A41.427,41.427,0,0,0,5329.544,1182.9Z" transform="translate(-5300.691 -1179.03)"/><path class="ab" d="M5919.9,1198.731c-1.792-.535-3.612-.988-5.446-1.363q-1.27.874-2.464,1.852a32.741,32.741,0,0,0-6.191,6.276h14.1Z" transform="translate(-5810.139 -1194.277)"/><path class="ab" d="M5399.306,1215.917a54.45,54.45,0,0,0-21.444,5.2h27.965A20.475,20.475,0,0,0,5399.306,1215.917Z" transform="translate(-5365.661 -1209.894)"/><path class="ab" d="M5581.721,1191.7q1.19-.979,2.464-1.851c-2-.409-4.022-.726-6.044-.949-12.188-1.345-24.526.406-36.473,3.17-3.832.887-7.686,1.883-11.618,1.888a82.109,82.109,0,0,1-8.952-.9,53.485,53.485,0,0,0-7.586-.28,20.474,20.474,0,0,1,6.52,5.2h55.5A32.708,32.708,0,0,1,5581.721,1191.7Z" transform="translate(-5479.866 -1186.762)"/></g><g transform="translate(52.71 17.537)"><path class="ac" d="M5604.073,1033.594a3.087,3.087,0,0,1,.895-2.178,3.1,3.1,0,1,0,3.251,5.093,3.093,3.093,0,0,1-4.146-2.916Z" transform="translate(-5602.913 -1031.232)"/><path class="ad" d="M5612.188,1030.248a3.1,3.1,0,1,0,3.1,3.1A3.094,3.094,0,0,0,5612.188,1030.248Z" transform="translate(-5609.087 -1030.248)"/></g><g transform="translate(4.931 54.158)"><rect class="ae" width="16.823" height="14.772"/><g transform="translate(17.953 4.311)"><g transform="translate(18.286)"><path class="af" d="M5532.842,1290.273h-2.373a.553.553,0,0,1,0-1.106h2.373a.553.553,0,0,1,0,1.106Z" transform="translate(-5529.917 -1289.167)"/></g><path class="af" d="M5431.14,1290.273H5414.8a.553.553,0,0,1,0-1.106h16.337a.553.553,0,0,1,0,1.106Z" transform="translate(-5414.25 -1289.167)"/><g transform="translate(6.751 3.452)"><path class="af" d="M5492.226,1312.107H5457.5a.553.553,0,1,1,0-1.107h34.722a.553.553,0,0,1,0,1.107Z" transform="translate(-5456.95 -1311)"/></g><g transform="translate(0 3.452)"><path class="af" d="M5419.632,1312.107H5414.8a.553.553,0,0,1,0-1.107h4.829a.553.553,0,0,1,0,1.107Z" transform="translate(-5414.25 -1311)"/></g><g transform="translate(30.653 6.903)"><path class="af" d="M5619.518,1333.94H5608.7a.553.553,0,1,1,0-1.107h10.82a.553.553,0,0,1,0,1.107Z" transform="translate(-5608.144 -1332.833)"/></g><g transform="translate(21.29 6.903)"><path class="af" d="M5557.106,1333.94h-7.633a.553.553,0,0,1,0-1.107h7.633a.553.553,0,1,1,0,1.107Z" transform="translate(-5548.919 -1332.833)"/></g><g transform="translate(0 6.903)"><path class="af" d="M5434.224,1333.94H5414.8a.553.553,0,0,1,0-1.107h19.421a.553.553,0,1,1,0,1.107Z" transform="translate(-5414.25 -1332.833)"/></g></g><rect class="ag" width="16.165" height="2.139" transform="translate(17.953)"/></g><rect class="ae" width="45.372" height="14.772" transform="translate(69.323 54.158)"/></g><g transform="translate(4831.066 680.107)"><g transform="translate(0 30.361)"><g transform="translate(0 16.61)"><g transform="translate(0 0.033)"><path class="ah" d="M5092.016,1527.643l-36.072.066a2.837,2.837,0,0,0-2.08.914,7.906,7.906,0,0,0-2.171,5.059,7.99,7.99,0,0,0,2.872,6.439,2.822,2.822,0,0,0,1.8.654l36.69.1Z" transform="translate(-5051.686 -1527.643)"/><g transform="translate(6.286 0.052)"><path class="ai" d="M5095.151,1541.066a8.026,8.026,0,0,1-.612-13.092h5.535a8.143,8.143,0,0,0,.613,13.092Z" transform="translate(-5091.449 -1527.974)"/></g></g><g transform="translate(30.711)"><path class="w" d="M5268.293,1537.445a.9.9,0,0,1,.9-.9h17.1a9.569,9.569,0,0,1-.372-3.051,9.247,9.247,0,0,1,.276-1.9h-11.751a.9.9,0,1,1,0-1.807h12.419a10.355,10.355,0,0,1,1.6-2.348h-35.889a6.632,6.632,0,0,0-6.631,6.632h0a6.632,6.632,0,0,0,6.631,6.632h36.165a9.689,9.689,0,0,1-1.72-2.348H5269.2A.9.9,0,0,1,5268.293,1537.445Z" transform="translate(-5245.944 -1527.433)"/><path class="aj" d="M5420.524,1543.185a.9.9,0,0,0,.9.9h11.752a9.263,9.263,0,0,1,.668-1.806h-12.42A.9.9,0,0,0,5420.524,1543.185Z" transform="translate(-5392.924 -1539.934)"/><path class="aj" d="M5388.215,1585.052a.9.9,0,0,0,0,1.807h17.824a9.675,9.675,0,0,1-.726-1.807Z" transform="translate(-5364.963 -1575.943)"/></g><path class="aj" d="M5295.619,1586.859H5281.5a.9.9,0,0,1,0-1.807h14.114a.9.9,0,0,1,0,1.807Z" transform="translate(-5244.412 -1575.943)"/><g transform="translate(41.151 5.728)"><path class="aj" d="M5333.226,1565.474h-20.34a.9.9,0,0,1,0-1.807h20.34a.9.9,0,1,1,0,1.807Z" transform="translate(-5311.983 -1563.667)"/><g transform="translate(23.948)"><path class="aj" d="M5466.215,1565.474h-1.846a.9.9,0,0,1,0-1.807h1.846a.9.9,0,0,1,0,1.807Z" transform="translate(-5463.466 -1563.667)"/></g></g><g transform="translate(36.36 2.347)"><g transform="translate(15.061)"><path class="aj" d="M5381.3,1544.088h-3.445a.9.9,0,0,1,0-1.806h3.445a.9.9,0,0,1,0,1.806Z" transform="translate(-5376.949 -1542.282)"/></g><path class="aj" d="M5292.479,1544.088h-9.895a.9.9,0,1,1,0-1.806h9.895a.9.9,0,1,1,0,1.806Z" transform="translate(-5281.681 -1542.282)"/></g></g><g transform="translate(8.312)"><g transform="translate(25.148 0.042)"><path class="ak" d="M5264.653,1422.633l45.519.083a3.577,3.577,0,0,1,2.625,1.154,9.98,9.98,0,0,1,2.739,6.384,10.081,10.081,0,0,1-3.625,8.125,3.563,3.563,0,0,1-2.277.825l-46.3.124Z" transform="translate(-5263.336 -1422.633)"/><g transform="translate(32.621 0.066)"><path class="al" d="M5476.662,1439.573a10.128,10.128,0,0,0,.773-16.521h-6.985a10.273,10.273,0,0,1-.772,16.521Z" transform="translate(-5469.678 -1423.052)"/></g></g><path class="w" d="M5130.629,1422.369h-26.015a13.048,13.048,0,0,1,2.017,2.962l.119.324h2.659a.9.9,0,1,1,0,1.807h-1.99l.055.15a11.718,11.718,0,0,1,.348,2.4,12.114,12.114,0,0,1-.468,3.851l-.1.254h14.819a.9.9,0,1,1,0,1.807h-15.545l-.088.219a12.238,12.238,0,0,1-2.172,2.962h26.363a8.369,8.369,0,0,0,8.369-8.368h0A8.369,8.369,0,0,0,5130.629,1422.369Z" transform="translate(-5104.266 -1422.369)"/><g transform="translate(2.26 3.286)"><g transform="translate(4.556)"><path class="ag" d="M5167.829,1444.961h-19.493a.9.9,0,1,1,0-1.807h19.493a.9.9,0,1,1,0,1.807Z" transform="translate(-5147.38 -1443.154)"/></g><g transform="translate(1.672 4.231)"><g transform="translate(17.394)"><path class="ag" d="M5243.613,1471.726h-3.5a.9.9,0,1,1,0-1.807h3.5a.9.9,0,1,1,0,1.807Z" transform="translate(-5239.16 -1469.919)"/></g><path class="ag" d="M5141.893,1471.726h-11.8a.9.9,0,1,1,0-1.807h11.8a.9.9,0,1,1,0,1.807Z" transform="translate(-5129.135 -1469.919)"/></g><g transform="translate(17.754 8.463)"><path class="ag" d="M5240.646,1498.491h-8.827a.9.9,0,1,1,0-1.807h8.827a.9.9,0,1,1,0,1.807Z" transform="translate(-5230.862 -1496.684)"/></g><path class="ag" d="M5123.594,1444.057a.932.932,0,0,0-.956-.9h-2.659l.667,1.807h1.992A.932.932,0,0,0,5123.594,1444.057Z" transform="translate(-5119.755 -1443.154)"/><path class="ag" d="M5135.061,1497.587a.931.931,0,0,0-.957-.9h-14.82l-.725,1.807H5134.1A.931.931,0,0,0,5135.061,1497.587Z" transform="translate(-5118.56 -1488.221)"/></g></g></g><g transform="translate(35.447)"><g transform="translate(0 5.555)"><path class="am" d="M5278.52,1274.912c0-4.942,2.18-7.628,5.4-8.836-4.567.5-8.019,2.977-8.019,9.023,0,6.85,4.43,15.686,9.9,15.686a2.611,2.611,0,0,0,.381-.029C5281.762,1288.417,5278.52,1280.938,5278.52,1274.912Z" transform="translate(-5275.904 -1265.978)"/><path class="an" d="M5305.162,1265.456a17.322,17.322,0,0,1-5.439,0,17.358,17.358,0,0,0-1.877.1c-3.222,1.208-5.4,3.894-5.4,8.836,0,6.026,3.244,13.5,7.662,15.843a7.448,7.448,0,0,0,2.338-.986,6.258,6.258,0,0,0,2.66,1.014l.061,0a5.171,5.171,0,0,0,1.074-.115c4.959-1.052,8.82-9.176,8.821-15.571C5315.057,1267.727,5310.627,1265.456,5305.162,1265.456Z" transform="translate(-5289.828 -1265.456)"/></g><g transform="translate(18.563 7.131)"><path class="w" d="M5397.578,1280.338a.408.408,0,0,1-.389-.285,5.854,5.854,0,0,0-3.6-3.835.409.409,0,0,1,.3-.762,6.637,6.637,0,0,1,4.083,4.349.409.409,0,0,1-.39.533Z" transform="translate(-5393.326 -1275.427)"/><g transform="translate(4.111 5.179)"><path class="w" d="M5419.854,1312.392h-.035a.409.409,0,0,1-.374-.442c.037-.434.056-.864.056-1.277a11.232,11.232,0,0,0-.167-2,.409.409,0,1,1,.805-.146,12.132,12.132,0,0,1,.18,2.147c0,.436-.02.889-.058,1.346A.409.409,0,0,1,5419.854,1312.392Z" transform="translate(-5419.327 -1308.187)"/></g></g><g transform="translate(11.311)"><path class="ao" d="M5348.377,1240.3a.818.818,0,0,1-.81-.709,10.122,10.122,0,0,1,2.913-9.086.819.819,0,0,1,1.051,1.255,8.516,8.516,0,0,0-2.341,7.61.82.82,0,0,1-.7.921A.847.847,0,0,1,5348.377,1240.3Z" transform="translate(-5347.45 -1230.32)"/></g><g transform="translate(9.065 7.766)"><path class="ap" d="M5336.324,1282.194c-1.815,0-3.082-.771-3.082-1.876a.877.877,0,0,1,1.736-.172,3.224,3.224,0,0,0,2.688,0,.877.877,0,0,1,1.737.172C5339.4,1281.423,5338.137,1282.194,5336.324,1282.194Zm1.326-1.876h0Zm-2.654,0h0Z" transform="translate(-5333.242 -1279.442)"/></g></g></g><g transform="translate(4946.834 713.572)"><g transform="translate(0 3.671)"><g transform="translate(0 3.728)"><path class="aq" d="M5793.113,1499.4h-.553a7.522,7.522,0,0,1-4.841-3.26,7.966,7.966,0,0,1-1.189-5.021h7.038V1488.8H5785.8a1.833,1.833,0,0,0-1.833,1.91,14.286,14.286,0,0,0,1.7,6.28,10.87,10.87,0,0,0,4.571,4.507,7.488,7.488,0,0,0,3.411.809h0Z" transform="translate(-5783.968 -1488.803)"/></g><g transform="translate(8.007)"><path class="ar" d="M5856.019,1465.223l-.907,21.7a2.711,2.711,0,0,1-2.167,2.543,38.02,38.02,0,0,1-15.252,0,2.713,2.713,0,0,1-2.17-2.544q-.455-10.852-.907-21.7Z" transform="translate(-5834.615 -1465.223)"/></g></g><g transform="translate(8.007)"><path class="as" d="M5834.66,1458.108c0,.589,4.747,1.067,10.657,1.067s10.657-.478,10.657-1.067l.045-2.6h-21.4Z" transform="translate(-5834.615 -1453.369)"/><ellipse class="af" cx="10.702" cy="1.067" rx="10.702" ry="1.067"/><path class="at" d="M5845.317,1449.82c5.91,0,10.7-.478,10.7-1.067v2.6c0,.589-4.792,1.068-10.7,1.068s-10.7-.478-10.7-1.068v-2.6C5834.615,1449.342,5839.406,1449.82,5845.317,1449.82Z" transform="translate(-5834.615 -1447.685)"/></g></g><g transform="translate(4902.502 593.63)"><path class="au" d="M5549.079,695.312h-29.9a6.958,6.958,0,0,0-6.959,6.958v17.2a6.958,6.958,0,0,0,6.959,6.958h9.41l5.539,7.6,5.54-7.6h9.41a6.959,6.959,0,0,0,6.958-6.958v-17.2A6.959,6.959,0,0,0,5549.079,695.312Z" transform="translate(-5510.851 -693.415)"/><path class="av" d="M5540.412,683.312h-29.9a6.958,6.958,0,0,0-6.958,6.958v17.2a6.958,6.958,0,0,0,6.958,6.958h9.411l5.54,7.6,5.539-7.6h9.411a6.959,6.959,0,0,0,6.959-6.958v-17.2A6.959,6.959,0,0,0,5540.412,683.312Z" transform="translate(-5503.554 -683.312)"/><g transform="translate(3.725 4.081)"><path class="w" d="M5565.509,723.039s-6.994,8.411-15.621,8.411-15.621-8.411-15.621-8.411,6.993-8.411,15.621-8.411S5565.509,723.039,5565.509,723.039Z" transform="translate(-5533.137 -713.758)"/><path class="aw" d="M5598.489,715.671a13.695,13.695,0,0,0-14.647-.282,7.881,7.881,0,1,0,14.647.282Z" transform="translate(-5574.359 -712.728)"/><g transform="translate(10.1 1.071)"><g transform="translate(0.695)"><path class="w" d="M5595.864,718.99a.406.406,0,0,1-.422-.588,6.711,6.711,0,0,1,2.15-2.428.406.406,0,1,1,.459.669,5.881,5.881,0,0,0-1.889,2.133A.4.4,0,0,1,5595.864,718.99Z" transform="translate(-5595.396 -715.902)"/></g><g transform="translate(0 3.598)"><path class="w" d="M5591.472,740.739a.4.4,0,0,1-.082,0,.405.405,0,0,1-.387-.424,6.624,6.624,0,0,1,.2-1.351.406.406,0,1,1,.786.2,5.94,5.94,0,0,0-.177,1.186A.405.405,0,0,1,5591.472,740.739Z" transform="translate(-5591.002 -738.664)"/></g><path class="ax" d="M5617.884,724.322a1.882,1.882,0,0,1-1.737-2.6,3.348,3.348,0,1,0,2.385,2.483A1.871,1.871,0,0,1,5617.884,724.322Z" transform="translate(-5608.62 -720.703)"/></g><g transform="translate(15.645 16.585)"><g transform="translate(0 0.496)"><path class="ay" d="M5627.185,824.654a1.106,1.106,0,0,1-1.106-1.107v-5.267a1.107,1.107,0,0,1,2.213,0v5.267A1.107,1.107,0,0,1,5627.185,824.654Z" transform="translate(-5626.078 -817.174)"/></g><g transform="translate(3.345)"><path class="ay" d="M5652.465,820.9a1.1,1.1,0,0,1-.828-.373l-4.123-4.652a1.106,1.106,0,1,1,1.656-1.468l4.123,4.652a1.106,1.106,0,0,1-.828,1.841Z" transform="translate(-5647.235 -814.039)"/></g></g><path class="ay" d="M5543.867,727.69c-8.932,0-15.993-8.369-16.29-8.725l-.461-.556.461-.556c.3-.356,7.357-8.725,16.29-8.725,8.807,0,15.793,8.134,16.273,8.705l2.848,3.056a.87.87,0,0,1-1.272,1.185L5559.5,719.7C5557.525,721.812,5551.354,727.69,5543.867,727.69Zm-14.452-9.281c1.712,1.829,7.607,7.542,14.452,7.542s12.739-5.712,14.452-7.542c-1.712-1.829-7.607-7.542-14.452-7.542S5531.128,716.579,5529.415,718.409Z" transform="translate(-5527.116 -709.128)"/></g></g></g></svg>