<?xml version="1.0" encoding="utf-8"?>
<!-- Generator: Adobe Illustrator 23.0.4, SVG Export Plug-In . SVG Version: 6.00 Build 0)  -->
<svg version="1.1" id="Layer_1" xmlns="http://www.w3.org/2000/svg" xmlns:xlink="http://www.w3.org/1999/xlink" x="0px" y="0px"
	 viewBox="0 0 72 72" style="enable-background:new 0 0 72 72;" xml:space="preserve">
<style type="text/css">
	.st0{fill:#FFFFFF;}
</style>
<g>
	<g>
		<path class="st0" d="M51.25,21.23v5.31c0.92,1.43,1.64,2.99,2.12,4.65V19.1H41.29c1.67,0.48,3.23,1.2,4.65,2.12H51.25z"/>
	</g>
	<g>
		<path class="st0" d="M53.37,41c-0.48,1.66-1.2,3.23-2.12,4.65v5.31h-5.31c-1.42,0.92-2.99,1.64-4.65,2.12h12.08V41z"/>
	</g>
	<g>
		<path class="st0" d="M21.51,21.23h5.31c1.43-0.92,2.99-1.64,4.66-2.12H19.39v12.08c0.48-1.66,1.2-3.22,2.12-4.65V21.23z"/>
	</g>
	<g>
		<path class="st0" d="M21.51,50.97v-5.31c-0.92-1.42-1.64-2.99-2.12-4.65v12.08h12.08c-1.66-0.48-3.22-1.2-4.65-2.12H21.51z"/>
	</g>
</g>
</svg>
