<?xml version="1.0" encoding="utf-8"?>
<!-- Generator: Adobe Illustrator 23.0.4, SVG Export Plug-In . SVG Version: 6.00 Build 0)  -->
<svg version="1.1" id="Layer_1" xmlns="http://www.w3.org/2000/svg" xmlns:xlink="http://www.w3.org/1999/xlink" x="0px" y="0px"
	 viewBox="0 0 216 216" style="enable-background:new 0 0 216 216;" xml:space="preserve">
<style type="text/css">
	.st0{fill:#FFFFFF;}
</style>
<g>
	<g>
		<g>
			<g>
				<g>
					<path d="M4.34,128.18v-0.45l3.11-1.01h0.57v2.28h0.05c0.88-1.69,1.4-2.28,2.02-2.28c0.33,0,0.77,0.31,2.13,0.56l-0.75,1.87
						c-1.02-0.2-1.68-0.64-1.97-0.64c-0.52,0-1,0.48-1.47,1.46v3.77c0,1.63,0.41,1.82,2.27,1.79v0.57H4.34v-0.57
						c1.04,0,1.52-0.36,1.52-1.7v-5.08L4.34,128.18z"/>
				</g>
			</g>
		</g>
		<g>
			<g>
				<g>
					<path d="M39.47,133.85c-1.13,1.7-2.63,2.49-4.6,2.49c-3.18,0-4.23-2.46-4.23-4.56c0-2.95,1.97-5.06,4.69-5.06
						c1.23,0,2.2,0.42,2.82,1.02c1.04,1.05,0.64,2.11,1.43,2.46v0.64h-6.78c0,2.52,1.38,4.2,3.37,4.2c0.98,0,1.91-0.52,2.87-1.59
						L39.47,133.85z M36.98,130.2c-0.18-1.89-0.86-2.86-2.01-2.86c-1.21,0-1.93,0.95-2.16,2.86H36.98z"/>
				</g>
			</g>
		</g>
		<g>
			<g>
				<g>
					<path d="M68.36,134.93c-1.06,0.96-1.93,1.41-2.69,1.41c-0.85,0-1.29-0.48-1.26-1.41c-1.1,0.85-1.34,1.41-2.68,1.41
						c-1.38,0-2.36-0.9-2.36-2.17c0-0.64,0.21-1.18,0.6-1.57c0.45-0.46,1.13-0.68,1.92-0.91c0.8-0.25,1.68-0.52,2.53-1.11v-0.73
						c0-1.58-0.47-2.28-1.54-2.28c-0.7,0-1.28,0.44-1.28,0.95c0,0.21,0.12,0.48,0.23,0.67l-2.06,0.85c-0.2-0.27-0.27-0.5-0.27-0.71
						c0-1.11,2.11-2.61,4.11-2.61c1.85,0,2.97,0.91,2.97,2.54v5.08c0,0.48,0.15,0.77,0.49,0.77c0.27,0,0.63-0.19,1.1-0.59
						L68.36,134.93z M64.41,131.23c-2.43,1.44-2.77,1.58-2.77,2.72c0,0.79,0.43,1.34,1.07,1.34c0.34,0,0.57-0.15,0.82-0.32
						c0.22-0.18,0.41-0.32,0.88-0.64V131.23z"/>
				</g>
			</g>
		</g>
		<g>
			<g>
				<g>
					<path d="M87.57,133.49h0.52c0.27,1.34,1.18,2.24,2.29,2.24c0.78,0,1.36-0.5,1.36-1.25c0-1.76-4.13-2.79-4.13-5.17
						c0-1.49,1.36-2.59,3.19-2.59c0.61,0,1.28,0.09,2.1,0.33v2.49h-0.49c-0.29-1.36-0.95-2.11-1.88-2.11
						c-0.66,0-1.19,0.46-1.19,1.06c0,1.78,4.2,2.41,4.2,5.19c0,1.49-1.38,2.65-3.15,2.65c-0.43,0-0.75-0.05-1.02-0.09
						c-0.25-0.05-0.43-0.08-0.61-0.08c-0.19,0-0.39,0.08-0.43,0.19h-0.48L87.57,133.49z"/>
				</g>
			</g>
		</g>
		<g>
			<g>
				<g>
					<path d="M118.55,126.72c3.83,0,5.25,2.78,5.25,4.8c0,2.76-2.2,4.82-5.17,4.82c-3.22,0-5.26-1.9-5.26-4.87
						C113.37,128.59,115.38,126.72,118.55,126.72z M118.98,135.62c1.52,0,2.52-1.28,2.52-3.36c0-2.72-1.5-4.81-3.25-4.81
						c-1.54,0-2.56,1.33-2.56,3.35C115.68,133.51,117.14,135.62,118.98,135.62z"/>
				</g>
			</g>
		</g>
		<g>
			<g>
				<g>
					<path d="M142.99,127.73l3.08-1.01h0.57v1.91c2.02-1.29,3.15-1.91,4.19-1.91c1.57,0,2.36,1.14,2.36,3.64
						c0,1.84-0.15,2.97-0.15,3.72c0,1.05,0.47,1.45,1.7,1.45v0.57h-5.48v-0.57c1.61,0,1.78-0.66,1.78-4.91
						c0-1.7-0.46-2.57-1.55-2.57c-0.77,0-1.59,0.45-2.86,1.33v4.4c0,1.27,0.31,1.75,1.51,1.75v0.57h-5.16v-0.57
						c1.11,0,1.5-0.45,1.5-1.67v-4.06c0-1.19-0.07-1.25-1.5-1.51V127.73z"/>
				</g>
			</g>
		</g>
		<g>
			<g>
				<g>
					<path d="M182.99,134.93c-1.07,0.96-1.93,1.41-2.68,1.41c-0.86,0-1.29-0.48-1.26-1.41c-1.09,0.85-1.34,1.41-2.68,1.41
						c-1.38,0-2.37-0.9-2.37-2.17c0-0.64,0.21-1.18,0.6-1.57c0.45-0.46,1.13-0.68,1.92-0.91c0.8-0.25,1.69-0.52,2.53-1.11v-0.73
						c0-1.58-0.48-2.28-1.55-2.28c-0.71,0-1.27,0.44-1.27,0.95c0,0.21,0.12,0.48,0.23,0.67l-2.06,0.85c-0.2-0.27-0.27-0.5-0.27-0.71
						c0-1.11,2.11-2.61,4.1-2.61c1.86,0,2.97,0.91,2.97,2.54v5.08c0,0.48,0.14,0.77,0.48,0.77c0.27,0,0.63-0.19,1.11-0.59
						L182.99,134.93z M179.04,131.23c-2.43,1.44-2.78,1.58-2.78,2.72c0,0.79,0.44,1.34,1.07,1.34c0.34,0,0.57-0.15,0.82-0.32
						c0.22-0.18,0.41-0.32,0.89-0.64V131.23z"/>
				</g>
			</g>
		</g>
		<g>
			<g>
				<g>
					<path d="M202.44,123.53c0-0.78-0.34-1.14-1.5-1.14v-0.57l2.99-0.95h0.67v7.4c1.79-1.2,2.61-1.55,3.58-1.55
						c2.09,0,3.73,1.97,3.73,4.42c0,2.6-1.79,5.2-6.01,5.2c-0.52,0-1.05-0.05-1.63-0.09c-0.58-0.05-1.16-0.14-1.82-0.24V123.53z
						 M204.6,132.4c0,1.79,0.34,3.22,2.26,3.22c1.7,0,2.77-1.43,2.77-3.59c0-2.11-0.98-3.9-2.7-3.9c-0.66,0-1.27,0.23-2.34,0.91
						V132.4z"/>
				</g>
			</g>
		</g>
	</g>
	<g>
		<g>
			<g>
				<g>
					<path d="M5.81,150.92h4.86c4.71,0,7.37,2.35,7.37,7.31v0.48c0,4.9-2.34,7.74-7.32,7.74H5.81V150.92z M10.77,164.49
						c3.26,0,4.76-1.59,4.76-5.49v-0.77c0-4.08-1.82-5.38-5.04-5.38H8.15v11.64H10.77z"/>
				</g>
			</g>
		</g>
		<g>
			<g>
				<g>
					<path d="M47.81,150.92h9.44v1.93h-7.1v4.64h5.52v1.94h-5.52v5.06h7.2v1.96h-9.54V150.92z"/>
				</g>
			</g>
		</g>
		<g>
			<g>
				<g>
					<path d="M86.38,165.7v-1.9c1.21,0.56,2.73,0.97,4.38,0.97c2.21,0,3.14-0.97,3.14-2.51c0-1.36-0.61-1.97-2.38-2.52l-1.53-0.5
						c-2.12-0.66-3.44-1.79-3.44-4.31c0-2.52,1.68-4.28,5.02-4.28c1.97,0,3.06,0.43,3.91,0.86v1.91c-0.95-0.41-2.22-0.81-3.91-0.81
						c-1.73,0-2.71,0.75-2.71,2.13c0,1.34,0.48,1.94,2.09,2.43l1.54,0.48c2.33,0.75,3.81,1.77,3.81,4.45c0,2.83-1.68,4.65-5.38,4.65
						C88.95,166.72,87.45,166.29,86.38,165.7z"/>
				</g>
			</g>
		</g>
		<g>
			<g>
				<g>
					<path d="M126.05,150.92h2.36v15.53h-2.36V150.92z"/>
				</g>
			</g>
		</g>
		<g>
			<g>
				<g>
					<path d="M158.22,159v-0.45c0-5.94,3.56-7.91,7.49-7.91c1.97,0,3.24,0.45,4.17,0.93v1.95c-0.95-0.41-2.13-0.93-4.21-0.93
						c-3.76,0-4.95,2.7-4.95,5.67v0.72c0,3.36,0.97,5.78,4.85,5.78c0.98,0,2-0.13,2.61-0.38v-3.82h-3.08v-1.85h5.42v7.06
						c-1.2,0.49-2.93,0.92-4.96,0.92C161.1,166.7,158.22,164.41,158.22,159z"/>
				</g>
			</g>
		</g>
		<g>
			<g>
				<g>
					<path d="M200.63,150.92h2.7l6.85,11.63h0.07v-11.63h2.1v15.53H210l-7.16-12.33h-0.1v12.33h-2.11V150.92z"/>
				</g>
			</g>
		</g>
	</g>
	<g>
		<g>
			<g>
				<path d="M137.51,22.15v10.41c1.8,2.8,3.21,5.86,4.16,9.13v-23.7h-23.71c3.27,0.94,6.33,2.35,9.13,4.16H137.51z"/>
			</g>
		</g>
		<g>
			<g>
				<path d="M141.67,60.94c-0.95,3.26-2.35,6.33-4.16,9.13v10.42h-10.42c-2.79,1.8-5.86,3.21-9.12,4.16h23.7V60.94z"/>
			</g>
		</g>
		<g>
			<g>
				<path d="M79.18,22.15H89.6c2.8-1.81,5.86-3.22,9.13-4.16H75.03v23.69c0.94-3.26,2.35-6.32,4.15-9.11V22.15z"/>
			</g>
		</g>
		<g>
			<g>
				<path d="M79.18,80.49V70.06c-1.8-2.79-3.21-5.86-4.15-9.11v23.69h23.7c-3.26-0.95-6.32-2.36-9.12-4.16H79.18z"/>
			</g>
		</g>
	</g>
	<g>
		<path d="M10.01,178.4h2.45l5.79,16.11H15.7l-1.55-4.37H7.98l-1.53,4.37H4.17L10.01,178.4z M8.64,188.2h4.8l-2.38-6.75h-0.07
			L8.64,188.2z"/>
		<path d="M38.7,188.79v-0.4c0-4.19,2.52-6.12,5.76-6.12c1.58,0,2.49,0.31,3.29,0.78v1.91c-1.06-0.45-1.79-0.73-3.32-0.73
			c-2.05,0-3.34,1.34-3.34,3.86v0.61c0,2.89,1.22,4.12,3.58,4.12c1.53,0,2.59-0.49,3.22-0.8v1.76c-0.8,0.52-1.9,0.94-3.58,0.94
			C40.89,194.72,38.7,192.77,38.7,188.79z"/>
		<path d="M68.69,191.31c0-2.14,1.41-3.2,3.74-3.51l3.01-0.35v-1.04c0-1.79-0.75-2.19-2.87-2.19c-1.18,0-2.16,0.19-2.89,0.35v-1.62
			c1.11-0.45,2.33-0.68,3.81-0.68c2.71,0,4.28,1.13,4.28,3.55v8.68h-1.91l-0.21-1.01h-0.14c-0.57,0.71-1.55,1.22-3.1,1.22
			C70.24,194.72,68.69,193.64,68.69,191.31z M75.44,192.25v-3.2l-2.49,0.26c-1.27,0.14-1.91,0.66-1.91,1.91
			c0,1.22,0.78,1.81,1.98,1.81C74,193.03,74.97,192.7,75.44,192.25z"/>
		<path d="M99.5,188.89v-0.31c0-4.4,2.23-6.3,5.32-6.3c1.46,0,2.42,0.4,2.99,0.73v-5.67h2.33v17.17h-1.98l-0.21-0.96h-0.12
			c-0.71,0.7-1.86,1.18-3.43,1.18C102.06,194.72,99.5,193.26,99.5,188.89z M107.8,191.99v-7.13c-0.47-0.4-1.51-0.66-2.64-0.66
			c-2.05,0-3.29,1.03-3.29,4.09v0.49c0,3.15,1.34,4.09,3.32,4.09C106.44,192.89,107.31,192.37,107.8,191.99z"/>
		<path d="M131.86,188.65v-0.3c0-4.12,2.47-6.07,5.36-6.07c3.39,0,4.96,1.95,4.96,5.74v1.13h-7.95c0.16,2.75,1.51,3.67,3.86,3.67
			c1.58,0,2.61-0.38,3.72-0.87v1.62c-0.75,0.54-2.14,1.15-4.14,1.15C133.79,194.72,131.86,192.41,131.86,188.65z M134.24,187.45
			h5.53c0-2.42-0.89-3.34-2.63-3.34C135.86,184.11,134.42,184.77,134.24,187.45z"/>
		<path d="M163.89,182.51h2.24v1.03h0.09c1.01-0.68,2.28-1.27,3.67-1.27c1.34,0,2.31,0.45,2.85,1.34h0.09
			c1.27-0.82,2.66-1.34,4.05-1.34c2.07,0,3.32,0.96,3.32,3.29v8.94h-2.33v-8.4c0-1.32-0.52-1.86-2-1.86c-0.85,0-1.76,0.3-2.73,0.78
			c0.02,0.21,0.05,0.38,0.05,0.63v8.85h-2.31v-8.4c0-1.32-0.49-1.86-1.98-1.86c-0.92,0-1.88,0.33-2.71,0.75v9.5h-2.31V182.51z"/>
		<path d="M201.95,197.68v-1.62c0.28,0.09,0.73,0.14,1.13,0.14c1.13,0,1.98-0.09,2.33-1.01l0.52-1.34l-4.59-11.34h2.47l3.27,8.4
			h0.05l3.01-8.4h2.26l-4.82,13.01c-0.82,2.26-1.9,2.49-4.02,2.49C202.99,198.01,202.28,197.85,201.95,197.68z"/>
	</g>
</g>
</svg>
